<svg xmlns="http://www.w3.org/2000/svg" style="display: none;">
  <!-- Ãcono check -->
  <symbol id="check" viewBox="0 0 24 24">
    <path fill="currentColor" d="M4 3H20C20.5523 3 21 3.44772 21 4V20C21 20.5523 20.5523 21 20 21H4C3.44772 21 3 20.5523 3 20V4C3 3.44772 3.44772 3 4 3ZM11.0026 16L18.0737 8.92893L16.6595 7.51472L11.0026 13.1716L8.17421 10.3431L6.75999 11.7574L11.0026 16Z"/>
  </symbol>
  <symbol id="check-double" viewBox="0 0 24 24">
    <path fill="currentColor" d="M11.602 13.7599L13.014 15.1719L21.4795 6.7063L22.8938 8.12051L13.014 18.0003L6.65 11.6363L8.06421 10.2221L10.189 12.3469L11.6025 13.7594L11.602 13.7599ZM11.6037 10.9322L16.5563 5.97949L17.9666 7.38977L13.014 12.3424L11.6037 10.9322ZM8.77698 16.5873L7.36396 18.0003L1 11.6363L2.41421 10.2221L3.82723 11.6352L3.82604 11.6363L8.77698 16.5873Z"/>
  </symbol>
  <symbol id="arrow-right-circle" viewBox="0 0 24 24">
    <path fill="currentColor" d="M12 2C17.52 2 22 6.48 22 12C22 17.52 17.52 22 12 22C6.48 22 2 17.52 2 12C2 6.48 6.48 2 12 2ZM12 11H8V13H12V16L16 12L12 8V11Z"/>
  </symbol>
    <symbol id="arrow-up" viewBox="0 0 24 24">
    <path fill="currentColor" d="M12 4.83582L5.79291 11.0429L7.20712 12.4571L12 7.66424L16.7929 12.4571L18.2071 11.0429L12 4.83582ZM12 10.4857L5.79291 16.6928L7.20712 18.107L12 13.3141L16.7929 18.107L18.2071 16.6928L12 10.4857Z"/>
  </symbol>
    <symbol id="arrow-down" viewBox="0 0 24 24">
    <path fill="currentColor" d="M12 19.1642L18.2071 12.9571L16.7929 11.5429L12 16.3358L7.20712 11.5429L5.79291 12.9571L12 19.1642ZM12 13.5143L18.2071 7.30722L16.7929 5.89301L12 10.6859L7.20712 5.89301L5.79291 7.30722L12 13.5143Z"/>
  </symbol>
    <symbol id="clipboard" viewBox="0 0 512 512">
    <path d="M256 0c23.7 0 44.4 12.9 55.4 32l8.6 0c35.3 0 64 28.7 64 64l0 352c0 35.3-28.7 64-64 64L64 512c-35.3 0-64-28.7-64-64L0 96C0 60.7 28.7 32 64 32l8.6 0C83.6 12.9 104.3 0 128 0L256 0zm26.9 212.6c-10.7-7.8-25.7-5.4-33.5 5.3l-85.6 117.7-26.5-27.4c-9.2-9.5-24.4-9.8-33.9-.6s-9.8 24.4-.6 33.9l46.4 48c4.9 5.1 11.8 7.8 18.9 7.3s13.6-4.1 17.8-9.8L288.2 246.1c7.8-10.7 5.4-25.7-5.3-33.5zM136 64c-13.3 0-24 10.7-24 24s10.7 24 24 24l112 0c13.3 0 24-10.7 24-24s-10.7-24-24-24L136 64z"/>
  </symbol>
      <symbol id="hat" viewBox="0 0 576 512">
    <path d="M352 264l0-200c0-17.7-14.3-32-32-32l-64 0c-17.7 0-32 14.3-32 32l0 200c0 13.3-10.7 24-24 24s-24-10.7-24-24l0-185.9C90 109.8 32 191.8 32 288l0 64 512 0 0-64c-1-95.2-58.4-177.7-144-209.8L400 264c0 13.3-10.7 24-24 24s-24-10.7-24-24zM40 400c-22.1 0-40 17.9-40 40s17.9 40 40 40l496 0c22.1 0 40-17.9 40-40s-17.9-40-40-40L40 400z"/>
  </symbol>
      <symbol id="leaf" viewBox="0 0 512 512">
    <path d="M471.3 6.7C477.7 .6 487-1.6 495.6 1.2 505.4 4.5 512 13.7 512 24l0 186.9c0 131.2-108.1 237.1-238.8 237.1-77 0-143.4-49.5-167.5-118.7-35.4 30.8-57.7 76.1-57.7 126.7 0 13.3-10.7 24-24 24S0 469.3 0 456C0 381.1 38.2 315.1 96.1 276.3 131.4 252.7 173.5 240 216 240l80 0c13.3 0 24-10.7 24-24s-10.7-24-24-24l-80 0c-39.7 0-77.3 8.8-111 24.5 23.3-70 89.2-120.5 167-120.5 66.4 0 115.8-22.1 148.7-44 19.2-12.8 35.5-28.1 50.7-45.3z"/>
  </symbol>
      <symbol id="chalk" viewBox="0 0 640 512">
    <path d="M128 96c0-35.3 28.7-64 64-64l352 0c35.3 0 64 28.7 64 64l0 240-96 0 0-16c0-17.7-14.3-32-32-32l-64 0c-17.7 0-32 14.3-32 32l0 16-129.1 0c10.9-18.8 17.1-40.7 17.1-64 0-70.7-57.3-128-128-128-5.4 0-10.8 .3-16 1l0-49zM333 448c-5.1-24.2-16.3-46.1-32.1-64L608 384c0 35.3-28.7 64-64 64l-211 0zM64 272a80 80 0 1 1 160 0 80 80 0 1 1 -160 0zM0 480c0-53 43-96 96-96l96 0c53 0 96 43 96 96 0 17.7-14.3 32-32 32L32 512c-17.7 0-32-14.3-32-32z"/>
  </symbol>
      <symbol id="search" viewBox="0 0 512 512">
    <path d="M416 208c0 45.9-14.9 88.3-40 122.7L502.6 457.4c12.5 12.5 12.5 32.8 0 45.3s-32.8 12.5-45.3 0L330.7 376C296.3 401.1 253.9 416 208 416 93.1 416 0 322.9 0 208S93.1 0 208 0 416 93.1 416 208zM208 352a144 144 0 1 0 0-288 144 144 0 1 0 0 288z"/>
  </symbol>
      <symbol id="angle" viewBox="0 0 384 512">
    <path d="M214.6 41.4c-12.5-12.5-32.8-12.5-45.3 0l-160 160c-12.5 12.5-12.5 32.8 0 45.3s32.8 12.5 45.3 0L192 109.3 329.4 246.6c12.5 12.5 32.8 12.5 45.3 0s12.5-32.8 0-45.3l-160-160zm160 352l-160-160c-12.5-12.5-32.8-12.5-45.3 0l-160 160c-12.5 12.5-12.5 32.8 0 45.3s32.8 12.5 45.3 0L192 301.3 329.4 438.6c12.5 12.5 32.8 12.5 45.3 0s12.5-32.8 0-45.3z"/>
  </symbol>
      <symbol id="shield" viewBox="0 0 512 512">
    <path d="M256 0c4.6 0 9.2 1 13.4 2.9L457.8 82.8c22 9.3 38.4 31 38.3 57.2-.5 99.2-41.3 280.7-213.6 363.2-16.7 8-36.1 8-52.8 0-172.4-82.5-213.1-264-213.6-363.2-.1-26.2 16.3-47.9 38.3-57.2L242.7 2.9C246.9 1 251.4 0 256 0zm0 66.8l0 378.1c138-66.8 175.1-214.8 176-303.4l-176-74.6 0 0z"/>
  </symbol>
      <symbol id="heart" viewBox="0 0 576 512">
    <path d="M279.6 31C265.5 11.5 242.9 0 218.9 0 177.5 0 144 33.5 144 74.9l0 2.4c0 64.4 82 133.4 122.2 163.3 13 9.7 30.5 9.7 43.5 0 40.2-30 122.2-98.9 122.2-163.3l0-2.4c0-41.4-33.5-74.9-74.9-74.9-24 0-46.6 11.5-60.7 31L288 42.7 279.6 31zM109.3 341.5L66.7 384 32 384c-17.7 0-32 14.3-32 32l0 64c0 17.7 14.3 32 32 32l320.5 0c29 0 57.3-9.3 80.7-26.5l126.6-93.3c17.8-13.1 21.6-38.1 8.5-55.9s-38.1-21.6-55.9-8.5L392.6 416 280 416c-13.3 0-24-10.7-24-24s10.7-24 24-24l72 0c17.7 0 32-14.3 32-32s-14.3-32-32-32l-152.2 0c-33.9 0-66.5 13.5-90.5 37.5z"/>
  </symbol>
      <symbol id="whatsapp" viewBox="0 0 448 512">
    <path fill="currentColor" d="M380.9 97.1c-41.9-42-97.7-65.1-157-65.1-122.4 0-222 99.6-222 222 0 39.1 10.2 77.3 29.6 111L0 480 117.7 449.1c32.4 17.7 68.9 27 106.1 27l.1 0c122.3 0 224.1-99.6 224.1-222 0-59.3-25.2-115-67.1-157zm-157 341.6c-33.2 0-65.7-8.9-94-25.7l-6.7-4-69.8 18.3 18.6-68.1-4.4-7c-18.5-29.4-28.2-63.3-28.2-98.2 0-101.7 82.8-184.5 184.6-184.5 49.3 0 95.6 19.2 130.4 54.1s56.2 81.2 56.1 130.5c0 101.8-84.9 184.6-186.6 184.6zM325.1 300.5c-5.5-2.8-32.8-16.2-37.9-18-5.1-1.9-8.8-2.8-12.5 2.8s-14.3 18-17.6 21.8c-3.2 3.7-6.5 4.2-12 1.4-32.6-16.3-54-29.1-75.5-66-5.7-9.8 5.7-9.1 16.3-30.3 1.8-3.7 .9-6.9-.5-9.7s-12.5-30.1-17.1-41.2c-4.5-10.8-9.1-9.3-12.5-9.5-3.2-.2-6.9-.2-10.6-.2s-9.7 1.4-14.8 6.9c-5.1 5.6-19.4 19-19.4 46.3s19.9 53.7 22.6 57.4c2.8 3.7 39.1 59.7 94.8 83.8 35.2 15.2 49 16.5 66.6 13.9 10.7-1.6 32.8-13.4 37.4-26.4s4.6-24.1 3.2-26.4c-1.3-2.5-5-3.9-10.5-6.6z"/>
  </symbol>


  
</svg>

