<?xml version="1.0" encoding="UTF-8" ?>
<!DOCTYPE svg PUBLIC "-//W3C//DTD SVG 1.1//EN" "http://www.w3.org/Graphics/SVG/1.1/DTD/svg11.dtd">
<svg width="840pt" height="845pt" viewBox="0 0 840 845" version="1.1" xmlns="http://www.w3.org/2000/svg">
<g id="#43ac4dff">
<path fill="#43ac4d" opacity="1.00" d=" M 299.01 33.80 C 340.29 20.75 383.70 14.02 427.03 15.17 C 452.71 14.97 478.32 18.27 503.47 23.30 C 544.57 31.80 584.50 46.37 620.98 67.18 C 686.31 104.23 741.96 158.87 778.23 224.79 C 810.73 283.25 827.19 350.20 827.16 416.98 C 827.13 421.32 826.75 425.65 826.42 429.98 C 825.85 470.31 817.69 510.34 804.21 548.29 C 781.81 611.40 742.45 668.11 692.51 712.56 C 654.63 745.75 610.85 772.41 563.56 789.86 C 563.41 743.86 563.42 697.85 563.59 651.84 C 637.03 609.40 689.01 531.29 698.40 446.83 C 700.24 431.71 701.31 416.43 700.27 401.21 C 699.61 396.17 699.40 391.10 699.07 386.04 C 694.97 345.14 681.08 305.36 659.49 270.42 C 618.44 203.35 547.71 155.25 470.10 142.24 C 423.57 134.22 375.03 138.09 330.39 153.46 C 283.08 169.65 240.52 199.13 208.34 237.36 C 186.42 263.20 169.23 293.08 158.02 325.07 C 136.75 386.63 138.37 455.88 162.73 516.31 C 178.06 554.15 201.84 588.55 231.93 616.17 C 246.46 629.64 262.10 642.08 279.45 651.75 C 279.71 697.54 279.60 743.32 279.61 789.11 C 243.82 776.34 210.23 757.75 179.66 735.26 C 146.41 711.00 117.07 681.47 92.74 648.29 C 68.10 614.65 48.35 577.31 35.64 537.55 C 27.88 512.97 21.97 487.72 19.23 462.06 C 18.41 453.03 16.72 444.07 16.79 434.97 C 16.39 417.26 15.72 399.47 17.85 381.84 C 21.27 341.01 31.01 300.68 46.83 262.87 C 73.35 200.24 116.18 144.65 169.74 102.76 C 208.31 72.39 252.25 48.80 299.01 33.80 M 403.06 56.58 C 397.79 72.28 392.63 88.01 387.40 103.72 C 391.20 103.62 395.00 103.51 398.80 103.38 C 399.78 99.90 400.78 96.41 401.78 92.93 C 407.30 92.76 412.83 92.61 418.35 92.44 C 419.58 95.87 420.77 99.30 422.00 102.73 C 425.81 102.61 429.62 102.51 433.44 102.37 C 427.46 87.00 421.47 71.63 415.51 56.25 C 411.36 56.34 407.21 56.47 403.06 56.58 M 445.45 56.60 C 443.40 72.02 441.36 87.44 439.35 102.86 C 442.63 103.28 445.90 103.71 449.18 104.14 C 450.56 93.11 452.31 82.11 453.32 71.03 C 458.72 83.14 464.78 94.93 470.42 106.92 C 473.93 107.42 477.45 107.88 480.97 108.33 C 483.01 92.92 485.05 77.50 487.07 62.08 C 483.79 61.63 480.51 61.20 477.23 60.78 C 475.92 71.49 474.18 82.16 473.22 92.91 C 467.92 81.19 462.16 69.68 456.67 58.05 C 452.94 57.49 449.19 57.03 445.45 56.60 M 357.40 61.51 C 356.05 73.57 353.92 85.57 353.26 97.70 C 348.10 86.72 341.08 76.73 335.10 66.19 C 330.09 67.28 325.06 68.31 320.03 69.35 C 323.22 84.57 326.43 99.79 329.62 115.01 C 332.71 114.38 335.80 113.74 338.89 113.07 C 336.21 100.57 333.85 88.00 330.65 75.62 C 336.42 87.82 344.34 98.85 351.10 110.51 C 353.90 109.93 356.71 109.34 359.51 108.74 C 360.91 95.35 363.48 82.06 363.95 68.59 C 365.99 81.23 368.96 93.68 371.53 106.22 C 374.91 105.51 378.29 104.80 381.68 104.08 C 378.48 88.86 375.29 73.64 372.08 58.43 C 367.20 59.52 362.28 60.45 357.40 61.51 M 516.30 69.56 C 506.43 82.84 496.51 96.09 486.64 109.37 C 490.27 110.47 493.91 111.52 497.53 112.65 C 499.60 109.66 501.63 106.64 503.70 103.65 C 508.99 105.24 514.28 106.82 519.57 108.41 C 519.64 112.04 519.71 115.67 519.78 119.30 C 523.43 120.41 527.09 121.50 530.75 122.59 C 529.93 106.11 529.08 89.64 528.27 73.16 C 524.28 71.94 520.31 70.68 516.30 69.56 M 261.90 92.66 C 268.23 106.87 274.68 121.02 281.07 135.20 C 289.53 131.43 297.94 127.57 306.41 123.81 C 305.25 121.20 304.08 118.61 302.89 116.01 C 297.64 118.38 292.40 120.76 287.15 123.10 C 281.90 111.53 276.70 99.93 271.45 88.36 C 268.26 89.79 265.08 91.22 261.90 92.66 M 558.75 89.78 C 548.35 92.38 541.49 102.68 540.46 112.95 C 539.77 119.97 543.27 126.97 548.86 131.12 C 555.47 136.06 563.72 138.83 571.98 138.76 C 575.45 131.69 578.77 124.55 582.14 117.43 C 576.16 114.61 570.20 111.73 564.21 108.93 C 563.01 111.46 561.81 113.98 560.62 116.50 C 563.41 117.85 566.22 119.18 569.04 120.50 C 567.74 123.27 566.43 126.03 565.16 128.81 C 558.81 128.15 552.10 123.75 551.45 116.93 C 550.96 108.17 557.46 98.07 567.01 98.33 C 573.82 98.84 579.93 103.14 584.05 108.41 C 585.43 105.41 586.85 102.43 588.26 99.45 C 580.45 92.36 569.47 86.93 558.75 89.78 M 226.27 112.92 C 229.60 129.13 233.00 145.33 236.36 161.54 C 239.60 159.56 242.83 157.57 246.04 155.56 C 245.17 152.04 244.28 148.52 243.39 145.00 C 248.10 142.11 252.80 139.21 257.48 136.27 C 260.27 138.60 263.03 140.97 265.79 143.34 C 269.05 141.36 272.30 139.35 275.54 137.32 C 262.65 127.00 249.76 116.68 236.86 106.37 C 233.32 108.54 229.81 110.75 226.27 112.92 M 578.48 146.33 C 586.29 151.43 594.13 156.49 601.95 161.57 C 603.51 159.20 605.05 156.82 606.58 154.43 C 601.71 151.24 596.81 148.10 591.95 144.91 C 593.88 141.93 595.81 138.95 597.76 135.98 C 602.04 138.73 606.29 141.52 610.56 144.27 C 612.11 141.90 613.65 139.52 615.20 137.14 C 610.94 134.36 606.67 131.59 602.41 128.82 C 604.29 125.91 606.17 123.02 608.07 120.13 C 612.65 123.09 617.23 126.07 621.81 129.05 C 623.37 126.66 624.93 124.27 626.48 121.88 C 618.96 116.99 611.45 112.09 603.91 107.22 C 595.43 120.25 586.95 133.29 578.48 146.33 M 177.10 150.33 C 178.92 152.52 180.73 154.71 182.54 156.91 C 185.98 154.13 189.35 151.28 192.76 148.47 C 200.90 158.23 208.97 168.04 217.10 177.79 C 219.81 175.57 222.51 173.32 225.20 171.07 C 217.12 161.28 208.99 151.53 200.90 141.76 C 204.13 138.78 208.04 136.34 210.89 133.08 C 209.31 130.81 207.40 128.81 205.66 126.67 C 196.14 134.55 186.63 142.45 177.10 150.33 M 608.50 165.54 C 610.84 167.64 613.17 169.76 615.51 171.86 C 624.10 162.32 632.89 152.94 641.12 143.09 C 639.54 145.92 637.84 148.71 636.62 151.73 C 632.69 161.24 628.70 170.72 624.75 180.22 C 626.87 182.15 629.00 184.07 631.12 186.00 C 642.81 179.26 655.12 173.55 666.27 165.95 C 657.26 175.07 648.88 184.79 640.22 194.23 C 642.77 196.55 645.32 198.89 647.91 201.19 C 658.36 189.67 668.81 178.16 679.23 166.61 C 675.54 163.24 671.85 159.88 668.12 156.56 C 657.57 162.57 646.58 167.85 636.38 174.47 C 642.24 163.84 646.22 152.30 651.22 141.25 C 647.44 137.80 643.61 134.40 639.85 130.92 C 629.38 142.44 618.91 153.97 608.50 165.54 M 160.79 166.79 C 168.84 173.95 176.70 181.35 185.00 188.23 C 172.34 186.06 159.63 184.16 146.92 182.24 C 144.39 185.04 141.88 187.85 139.37 190.66 C 150.94 201.06 162.54 211.42 174.11 221.81 C 176.33 219.36 178.54 216.90 180.73 214.42 C 172.40 207.06 164.33 199.40 155.75 192.34 C 168.80 194.69 181.97 196.34 195.06 198.46 C 197.43 195.84 199.79 193.20 202.14 190.55 C 190.57 180.17 178.98 169.82 167.43 159.42 C 165.19 161.85 162.99 164.32 160.79 166.79 M 654.42 209.76 C 660.22 217.05 666.07 224.31 671.89 231.60 C 674.12 229.83 676.34 228.06 678.55 226.28 C 674.92 221.73 671.28 217.19 667.65 212.64 C 670.42 210.43 673.18 208.20 675.95 205.97 C 679.15 209.93 682.32 213.91 685.51 217.88 C 687.74 216.13 689.95 214.35 692.15 212.54 C 688.99 208.57 685.81 204.61 682.63 200.65 C 685.31 198.47 688.02 196.31 690.72 194.16 C 694.16 198.41 697.55 202.69 700.98 206.95 C 703.22 205.18 705.45 203.39 707.66 201.58 C 702.04 194.60 696.46 187.59 690.85 180.61 C 678.69 190.31 666.57 200.05 654.42 209.76 M 130.39 202.96 C 125.41 210.42 120.40 217.87 115.43 225.35 C 128.36 234.00 141.31 242.61 154.24 251.25 C 159.44 243.52 164.61 235.76 169.78 228.01 C 167.43 226.42 165.06 224.84 162.70 223.27 C 159.45 228.11 156.22 232.95 152.99 237.79 C 150.02 235.82 147.07 233.83 144.13 231.83 C 146.96 227.61 149.80 223.39 152.60 219.15 C 150.24 217.57 147.87 215.99 145.49 214.44 C 142.67 218.67 139.85 222.90 137.01 227.12 C 134.14 225.20 131.27 223.28 128.40 221.35 C 131.44 216.82 134.45 212.27 137.50 207.74 C 135.14 206.13 132.77 204.53 130.39 202.96 M 676.51 237.61 C 678.18 240.46 679.87 243.30 681.55 246.15 C 691.07 240.40 700.84 235.06 710.16 228.96 C 704.01 240.74 698.31 252.75 692.46 264.68 C 694.28 267.68 696.05 270.71 697.84 273.73 C 711.29 265.90 724.61 257.88 738.05 250.04 C 736.37 247.18 734.68 244.32 732.99 241.47 C 723.77 247.07 714.29 252.26 705.21 258.10 C 711.21 246.80 716.53 235.15 722.46 223.82 C 720.67 220.43 718.61 217.19 716.70 213.88 C 703.30 221.80 689.88 229.66 676.51 237.61 M 99.35 254.26 C 108.30 262.48 116.63 271.41 126.07 279.09 C 114.14 276.73 101.92 276.37 89.86 274.96 C 87.71 279.62 85.58 284.28 83.45 288.95 C 97.59 295.42 111.75 301.87 125.88 308.38 C 127.21 305.52 128.52 302.65 129.82 299.78 C 118.15 294.45 106.58 288.87 94.66 284.10 C 107.94 286.78 121.57 286.93 135.01 288.44 C 136.21 285.84 137.40 283.25 138.60 280.65 C 128.66 271.52 119.47 261.54 108.88 253.15 C 120.27 259.06 132.11 264.02 143.71 269.47 C 145.16 266.32 146.60 263.17 148.04 260.02 C 133.87 253.60 119.77 247.02 105.60 240.62 C 103.49 245.16 101.42 249.71 99.35 254.26 M 735.85 265.22 C 737.48 269.32 739.16 273.40 740.82 277.50 C 729.06 282.30 717.29 287.07 705.51 291.83 C 706.83 295.09 708.15 298.35 709.48 301.60 C 721.27 296.87 733.03 292.08 744.79 287.27 C 746.47 291.37 748.12 295.49 749.81 299.59 C 752.46 298.56 755.10 297.49 757.73 296.38 C 753.09 284.92 748.43 273.47 743.77 262.01 C 741.14 263.11 738.50 264.18 735.85 265.22 M 75.12 317.19 C 85.62 319.66 96.03 322.55 106.60 324.76 C 94.38 328.72 82.32 333.15 70.17 337.30 C 69.24 340.96 68.34 344.64 67.44 348.31 C 82.54 352.06 97.65 355.76 112.75 359.49 C 113.55 356.28 114.34 353.08 115.12 349.87 C 104.31 347.29 93.59 344.31 82.69 342.10 C 95.29 338.08 107.64 333.33 120.18 329.14 C 121.15 325.70 121.96 322.22 122.80 318.75 C 107.72 314.97 92.62 311.24 77.51 307.57 C 76.70 310.77 75.91 313.98 75.12 317.19 M 745.36 334.38 C 742.75 338.57 742.53 343.63 741.16 348.26 C 740.47 350.36 739.43 352.85 737.05 353.44 C 734.66 354.17 732.64 352.10 731.78 350.10 C 729.40 344.70 730.07 338.36 732.62 333.14 C 729.23 333.89 725.84 334.58 722.45 335.28 C 721.02 343.58 722.36 352.76 727.29 359.73 C 731.82 366.15 742.20 365.83 747.17 360.14 C 751.57 354.94 751.01 347.65 753.79 341.74 C 754.82 339.12 758.56 338.34 760.39 340.58 C 764.23 345.27 763.74 352.05 762.09 357.52 C 765.26 356.88 768.44 356.25 771.60 355.53 C 772.17 349.36 771.33 343.00 768.79 337.32 C 767.09 333.61 764.24 330.09 760.20 328.87 C 754.80 327.24 748.23 329.39 745.36 334.38 M 80.49 365.69 C 73.45 366.76 66.93 371.45 64.16 378.08 C 62.09 383.13 61.73 388.85 62.94 394.16 C 64.71 401.58 70.82 407.56 78.07 409.72 C 85.64 412.00 94.49 411.86 101.16 407.20 C 112.42 399.64 113.78 381.30 103.90 372.07 C 97.80 366.15 88.65 364.53 80.49 365.69 M 745.47 382.39 C 740.02 383.32 734.44 383.29 728.95 383.89 C 729.21 387.37 729.49 390.87 729.78 394.36 C 733.87 394.03 737.96 393.75 742.05 393.37 C 744.05 393.24 746.20 392.80 748.09 393.77 C 757.88 397.82 767.69 401.83 777.49 405.85 C 777.21 402.15 776.92 398.45 776.61 394.75 C 769.28 392.41 762.18 389.32 754.66 387.62 C 761.94 385.15 768.40 380.82 775.27 377.42 C 774.95 373.44 774.64 369.45 774.32 365.47 C 764.69 371.09 755.18 376.93 745.47 382.39 M 730.84 437.27 C 733.70 445.49 745.64 447.72 751.68 441.75 C 756.23 437.53 757.41 431.03 761.48 426.48 C 763.37 424.23 767.21 425.07 768.13 427.82 C 770.19 433.28 768.23 439.37 765.29 444.13 C 768.52 444.25 771.76 444.41 775.01 444.57 C 777.68 436.83 778.59 427.72 774.70 420.23 C 771.09 413.38 760.77 411.97 755.22 417.20 C 751.30 420.67 749.85 425.88 747.17 430.21 C 746.01 432.01 744.38 434.03 742.02 433.97 C 739.83 434.04 738.32 431.97 737.91 430.03 C 736.63 424.04 738.92 417.77 742.82 413.21 C 739.37 413.10 735.92 412.94 732.49 412.74 C 728.90 420.27 728.14 429.34 730.84 437.27 M 94.48 424.41 C 91.90 426.37 89.54 428.71 88.17 431.71 C 86.70 428.48 84.64 425.30 81.35 423.72 C 75.26 420.52 65.98 422.83 64.00 429.97 C 61.62 438.77 64.08 447.93 64.29 456.86 C 79.80 455.70 95.32 454.52 110.83 453.35 C 110.58 449.86 110.32 446.36 110.04 442.87 C 104.07 443.31 98.11 443.78 92.14 444.21 C 92.06 441.95 91.65 439.28 93.62 437.64 C 98.26 433.35 103.79 430.16 108.81 426.34 C 108.50 422.34 108.20 418.33 107.89 414.33 C 103.42 417.69 98.92 421.01 94.48 424.41 M 766.56 454.30 C 765.80 458.65 765.07 462.99 764.31 467.34 C 751.79 465.22 739.29 462.98 726.76 460.92 C 726.14 464.37 725.55 467.83 724.97 471.30 C 737.49 473.42 750.02 475.55 762.53 477.76 C 761.78 482.12 761.02 486.48 760.29 490.85 C 763.10 491.31 765.91 491.80 768.72 492.30 C 770.81 480.12 772.91 467.93 774.99 455.75 C 772.18 455.25 769.37 454.77 766.56 454.30 M 104.07 461.42 C 104.29 462.69 104.51 463.98 104.74 465.26 C 94.77 467.04 84.82 468.94 74.85 470.67 C 74.61 469.39 74.37 468.12 74.13 466.85 C 71.46 467.32 68.80 467.80 66.14 468.29 C 67.22 474.31 68.30 480.32 69.42 486.33 C 72.08 485.87 74.75 485.39 77.40 484.87 C 77.18 483.60 76.95 482.32 76.73 481.06 C 86.68 479.21 96.65 477.48 106.60 475.61 C 106.84 476.88 107.09 478.15 107.33 479.43 C 110.00 478.99 112.67 478.53 115.33 478.02 C 114.25 472.00 113.17 465.99 112.06 459.98 C 109.40 460.45 106.73 460.93 104.07 461.42 M 712.93 517.30 C 715.65 518.09 718.37 518.90 721.09 519.73 C 722.76 514.15 724.41 508.57 726.09 503.00 C 729.50 504.01 732.90 505.02 736.31 506.05 C 734.87 510.93 733.38 515.79 731.97 520.67 C 734.68 521.47 737.40 522.27 740.13 523.08 C 741.60 518.22 743.03 513.34 744.50 508.48 C 747.82 509.42 751.14 510.41 754.44 511.46 C 752.87 516.69 751.31 521.92 749.75 527.15 C 752.48 527.94 755.20 528.75 757.92 529.60 C 760.57 521.03 763.06 512.42 765.64 503.83 C 750.76 499.30 735.84 494.91 720.92 490.49 C 718.24 499.42 715.57 508.36 712.93 517.30 M 70.28 492.94 C 71.30 496.46 72.33 499.97 73.35 503.49 C 86.35 503.36 99.37 504.12 112.34 503.31 C 100.98 509.59 90.45 517.31 79.42 524.18 C 80.48 527.80 81.54 531.42 82.61 535.05 C 96.05 525.60 109.49 516.15 122.94 506.70 C 121.83 502.89 120.71 499.08 119.59 495.27 C 103.16 494.41 86.72 493.66 70.28 492.94 M 711.01 524.67 C 709.63 527.50 708.26 530.35 706.90 533.19 C 718.45 538.72 729.90 544.46 741.62 549.61 C 728.46 546.54 714.85 546.27 701.49 544.42 C 700.22 546.99 698.97 549.57 697.74 552.16 C 707.50 561.43 716.42 571.64 726.86 580.16 C 715.56 574.14 703.90 568.84 692.41 563.20 C 690.89 566.31 689.39 569.43 687.91 572.56 C 701.90 579.34 715.93 586.04 729.93 592.83 C 732.11 588.33 734.29 583.83 736.45 579.32 C 727.68 570.91 719.54 561.82 710.27 553.96 C 722.14 556.58 734.36 557.10 746.39 558.79 C 748.58 554.16 750.83 549.56 753.04 544.95 C 739.04 538.16 725.03 531.40 711.01 524.67 M 87.30 547.18 C 88.70 550.17 90.11 553.16 91.52 556.15 C 101.28 551.53 111.16 547.14 120.73 542.14 C 113.75 552.93 107.19 564.00 100.39 574.91 C 102.00 578.32 103.60 581.74 105.23 585.15 C 119.32 578.54 133.37 571.86 147.43 565.22 C 146.03 562.23 144.62 559.24 143.20 556.26 C 133.19 561.11 122.99 565.55 113.13 570.69 C 120.36 559.58 127.05 548.13 134.04 536.86 C 132.54 533.66 131.03 530.46 129.50 527.27 C 115.45 533.94 101.37 540.55 87.30 547.18 M 144.35 576.29 C 147.53 581.17 150.77 586.01 153.96 590.89 C 151.00 592.85 148.05 594.83 145.06 596.76 C 142.24 592.53 139.47 588.26 136.65 584.03 C 134.28 585.59 131.92 587.16 129.55 588.73 C 132.33 592.99 135.15 597.22 137.94 601.47 C 135.06 603.38 132.17 605.27 129.29 607.18 C 126.25 602.63 123.27 598.06 120.25 593.50 C 117.86 595.06 115.48 596.62 113.09 598.19 C 118.02 605.69 122.97 613.17 127.91 620.66 C 140.92 612.14 153.88 603.53 166.88 594.99 C 161.76 587.19 156.61 579.41 151.47 571.62 C 149.10 573.18 146.73 574.74 144.35 576.29 Z" />
<path fill="#43ac4d" opacity="1.00" d=" M 409.25 64.36 C 410.56 71.30 413.58 77.75 415.72 84.44 C 411.74 84.56 407.77 84.68 403.79 84.79 C 405.59 77.98 408.11 71.33 409.25 64.36 Z" />
<path fill="#43ac4d" opacity="1.00" d=" M 508.16 96.56 C 512.00 90.62 516.57 85.12 519.78 78.79 C 518.81 85.82 519.67 92.92 519.59 99.98 C 515.78 98.85 511.96 97.71 508.16 96.56 Z" />
<path fill="#43ac4d" opacity="1.00" d=" M 235.54 116.59 C 240.18 121.89 246.02 125.95 251.20 130.69 C 247.82 132.76 244.44 134.86 241.06 136.94 C 239.18 130.17 238.06 123.17 235.54 116.59 Z" />
<path fill="#43ac4d" opacity="1.00" d=" M 78.31 377.57 C 83.83 375.72 90.19 376.07 95.44 378.62 C 99.93 380.78 102.31 386.14 101.11 390.96 C 100.20 396.12 95.13 399.44 90.17 399.89 C 84.08 400.52 76.89 399.23 73.13 393.92 C 69.28 388.41 71.76 379.68 78.31 377.57 Z" />
<path fill="#43ac4d" opacity="1.00" d=" M 71.58 436.41 C 73.29 432.58 79.09 432.34 81.80 435.20 C 84.37 437.69 83.95 441.55 84.31 444.81 C 79.99 445.13 75.67 445.46 71.35 445.79 C 71.22 442.68 70.44 439.40 71.58 436.41 Z" />
<path fill="#43ac4d" opacity="1.00" d=" M 498.40 575.59 C 506.28 575.56 514.25 574.92 522.07 576.16 C 533.42 577.72 542.55 588.61 542.27 600.04 C 542.36 646.90 542.26 693.77 542.41 740.63 C 543.32 748.41 541.79 756.19 542.76 763.96 C 543.38 773.30 542.48 782.66 542.94 792.00 C 542.97 799.57 542.24 807.99 536.81 813.81 C 531.87 819.98 523.81 822.79 516.09 822.79 C 452.70 822.81 389.32 822.83 325.94 822.72 C 315.68 822.75 306.11 815.63 302.56 806.12 C 300.71 801.64 300.94 796.71 300.96 791.97 C 300.93 728.00 300.86 664.02 300.95 600.04 C 301.07 587.44 312.28 575.87 325.05 576.11 C 351.04 575.98 377.03 576.11 403.02 576.13 C 420.34 576.28 437.65 575.74 454.97 576.07 C 462.00 576.11 469.04 576.09 476.06 575.54 C 483.50 575.42 490.95 576.27 498.40 575.59 M 394.86 722.03 C 382.04 709.37 369.62 696.30 356.68 683.78 C 348.49 692.13 340.21 700.41 331.82 708.57 C 352.66 729.73 373.87 750.54 394.80 771.61 C 435.25 731.53 475.45 691.19 515.68 650.88 C 507.17 642.79 499.02 634.34 490.67 626.08 C 458.84 658.16 426.80 690.05 394.86 722.03 Z" />
</g>
<g id="#feffffff">
<path fill="#feffff" opacity="1.00" d=" M 403.06 56.58 C 407.21 56.47 411.36 56.34 415.51 56.25 C 421.47 71.63 427.46 87.00 433.44 102.37 C 429.62 102.51 425.81 102.61 422.00 102.73 C 420.77 99.30 419.58 95.87 418.35 92.44 C 412.83 92.61 407.30 92.76 401.78 92.93 C 400.78 96.41 399.78 99.90 398.80 103.38 C 395.00 103.51 391.20 103.62 387.40 103.72 C 392.63 88.01 397.79 72.28 403.06 56.58 M 409.25 64.36 C 408.11 71.33 405.59 77.98 403.79 84.79 C 407.77 84.68 411.74 84.56 415.72 84.44 C 413.58 77.75 410.56 71.30 409.25 64.36 Z" />
<path fill="#feffff" opacity="1.00" d=" M 445.45 56.60 C 449.19 57.03 452.94 57.49 456.67 58.05 C 462.16 69.68 467.92 81.19 473.22 92.91 C 474.18 82.16 475.92 71.49 477.23 60.78 C 480.51 61.20 483.79 61.63 487.07 62.08 C 485.05 77.50 483.01 92.92 480.97 108.33 C 477.45 107.88 473.93 107.42 470.42 106.92 C 464.78 94.93 458.72 83.14 453.32 71.03 C 452.31 82.11 450.56 93.11 449.18 104.14 C 445.90 103.71 442.63 103.28 439.35 102.86 C 441.36 87.44 443.40 72.02 445.45 56.60 Z" />
<path fill="#feffff" opacity="1.00" d=" M 357.40 61.51 C 362.28 60.45 367.20 59.52 372.08 58.43 C 375.29 73.64 378.48 88.86 381.68 104.08 C 378.29 104.80 374.91 105.51 371.53 106.22 C 368.96 93.68 365.99 81.23 363.95 68.59 C 363.48 82.06 360.91 95.35 359.51 108.74 C 356.71 109.34 353.90 109.93 351.10 110.51 C 344.34 98.85 336.42 87.82 330.65 75.62 C 333.85 88.00 336.21 100.57 338.89 113.07 C 335.80 113.74 332.71 114.38 329.62 115.01 C 326.43 99.79 323.22 84.57 320.03 69.35 C 325.06 68.31 330.09 67.28 335.10 66.19 C 341.08 76.73 348.10 86.72 353.26 97.70 C 353.92 85.57 356.05 73.57 357.40 61.51 Z" />
<path fill="#feffff" opacity="1.00" d=" M 516.30 69.56 C 520.31 70.68 524.28 71.94 528.27 73.16 C 529.08 89.64 529.93 106.11 530.75 122.59 C 527.09 121.50 523.43 120.41 519.78 119.30 C 519.71 115.67 519.64 112.04 519.57 108.41 C 514.28 106.82 508.99 105.24 503.70 103.65 C 501.63 106.64 499.60 109.66 497.53 112.65 C 493.91 111.52 490.27 110.47 486.64 109.37 C 496.51 96.09 506.43 82.84 516.30 69.56 M 508.16 96.56 C 511.96 97.71 515.78 98.85 519.59 99.98 C 519.67 92.92 518.81 85.82 519.78 78.79 C 516.57 85.12 512.00 90.62 508.16 96.56 Z" />
<path fill="#feffff" opacity="1.00" d=" M 261.90 92.66 C 265.08 91.22 268.26 89.79 271.45 88.36 C 276.70 99.93 281.90 111.53 287.15 123.10 C 292.40 120.76 297.64 118.38 302.89 116.01 C 304.08 118.61 305.25 121.20 306.41 123.81 C 297.94 127.57 289.53 131.43 281.07 135.20 C 274.68 121.02 268.23 106.87 261.90 92.66 Z" />
<path fill="#feffff" opacity="1.00" d=" M 558.75 89.78 C 569.47 86.93 580.45 92.36 588.26 99.45 C 586.85 102.43 585.43 105.41 584.05 108.41 C 579.93 103.14 573.82 98.84 567.01 98.33 C 557.46 98.07 550.96 108.17 551.45 116.93 C 552.10 123.75 558.81 128.15 565.16 128.81 C 566.43 126.03 567.74 123.27 569.04 120.50 C 566.22 119.18 563.41 117.85 560.62 116.50 C 561.81 113.98 563.01 111.46 564.21 108.93 C 570.20 111.73 576.16 114.61 582.14 117.43 C 578.77 124.55 575.45 131.69 571.98 138.76 C 563.72 138.83 555.47 136.06 548.86 131.12 C 543.27 126.97 539.77 119.97 540.46 112.95 C 541.49 102.68 548.35 92.38 558.75 89.78 Z" />
<path fill="#feffff" opacity="1.00" d=" M 226.27 112.92 C 229.81 110.75 233.32 108.54 236.86 106.37 C 249.76 116.68 262.65 127.00 275.54 137.32 C 272.30 139.35 269.05 141.36 265.79 143.34 C 263.03 140.97 260.27 138.60 257.48 136.27 C 252.80 139.21 248.10 142.11 243.39 145.00 C 244.28 148.52 245.17 152.04 246.04 155.56 C 242.83 157.57 239.60 159.56 236.36 161.54 C 233.00 145.33 229.60 129.13 226.27 112.92 M 235.54 116.59 C 238.06 123.17 239.18 130.17 241.06 136.94 C 244.44 134.86 247.82 132.76 251.20 130.69 C 246.02 125.95 240.18 121.89 235.54 116.59 Z" />
<path fill="#feffff" opacity="1.00" d=" M 578.48 146.33 C 586.95 133.29 595.43 120.25 603.91 107.22 C 611.45 112.09 618.96 116.99 626.48 121.88 C 624.93 124.27 623.37 126.66 621.81 129.05 C 617.23 126.07 612.65 123.09 608.07 120.13 C 606.17 123.02 604.29 125.91 602.41 128.82 C 606.67 131.59 610.94 134.36 615.20 137.14 C 613.65 139.52 612.11 141.90 610.56 144.27 C 606.29 141.52 602.04 138.73 597.76 135.98 C 595.81 138.95 593.88 141.93 591.95 144.91 C 596.81 148.10 601.71 151.24 606.58 154.43 C 605.05 156.82 603.51 159.20 601.95 161.57 C 594.13 156.49 586.29 151.43 578.48 146.33 Z" />
<path fill="#feffff" opacity="1.00" d=" M 177.10 150.33 C 186.63 142.45 196.14 134.55 205.66 126.67 C 207.40 128.81 209.31 130.81 210.89 133.08 C 208.04 136.34 204.13 138.78 200.90 141.76 C 208.99 151.53 217.12 161.28 225.20 171.07 C 222.51 173.32 219.81 175.57 217.10 177.79 C 208.97 168.04 200.90 158.23 192.76 148.47 C 189.35 151.28 185.98 154.13 182.54 156.91 C 180.73 154.71 178.92 152.52 177.10 150.33 Z" />
<path fill="#feffff" opacity="1.00" d=" M 608.50 165.54 C 618.91 153.97 629.38 142.44 639.85 130.92 C 643.61 134.40 647.44 137.80 651.22 141.25 C 646.22 152.30 642.24 163.84 636.38 174.47 C 646.58 167.85 657.57 162.57 668.12 156.56 C 671.85 159.88 675.54 163.24 679.23 166.61 C 668.81 178.16 658.36 189.67 647.91 201.19 C 645.32 198.89 642.77 196.55 640.22 194.23 C 648.88 184.79 657.26 175.07 666.27 165.95 C 655.12 173.55 642.81 179.26 631.12 186.00 C 629.00 184.07 626.87 182.15 624.75 180.22 C 628.70 170.72 632.69 161.24 636.62 151.73 C 637.84 148.71 639.54 145.92 641.12 143.09 C 632.89 152.94 624.10 162.32 615.51 171.86 C 613.17 169.76 610.84 167.64 608.50 165.54 Z" />
<path fill="#feffff" opacity="1.00" d=" M 160.79 166.79 C 162.99 164.32 165.19 161.85 167.43 159.42 C 178.98 169.82 190.57 180.17 202.14 190.55 C 199.79 193.20 197.43 195.84 195.06 198.46 C 181.97 196.34 168.80 194.69 155.75 192.34 C 164.33 199.40 172.40 207.06 180.73 214.42 C 178.54 216.90 176.33 219.36 174.11 221.81 C 162.54 211.42 150.94 201.06 139.37 190.66 C 141.88 187.85 144.39 185.04 146.92 182.24 C 159.63 184.16 172.34 186.06 185.00 188.23 C 176.70 181.35 168.84 173.95 160.79 166.79 Z" />
<path fill="#feffff" opacity="1.00" d=" M 654.42 209.76 C 666.57 200.05 678.69 190.31 690.85 180.61 C 696.46 187.59 702.04 194.60 707.66 201.58 C 705.45 203.39 703.22 205.18 700.98 206.95 C 697.55 202.69 694.16 198.41 690.72 194.16 C 688.02 196.31 685.31 198.47 682.63 200.65 C 685.81 204.61 688.99 208.57 692.15 212.54 C 689.95 214.35 687.74 216.13 685.51 217.88 C 682.32 213.91 679.15 209.93 675.95 205.97 C 673.18 208.20 670.42 210.43 667.65 212.64 C 671.28 217.19 674.92 221.73 678.55 226.28 C 676.34 228.06 674.12 229.83 671.89 231.60 C 666.07 224.31 660.22 217.05 654.42 209.76 Z" />
<path fill="#feffff" opacity="1.00" d=" M 130.39 202.96 C 132.77 204.53 135.14 206.13 137.50 207.74 C 134.45 212.27 131.44 216.82 128.40 221.35 C 131.27 223.28 134.14 225.20 137.01 227.12 C 139.85 222.90 142.67 218.67 145.49 214.44 C 147.87 215.99 150.24 217.57 152.60 219.15 C 149.80 223.39 146.96 227.61 144.13 231.83 C 147.07 233.83 150.02 235.82 152.99 237.79 C 156.22 232.95 159.45 228.11 162.70 223.27 C 165.06 224.84 167.43 226.42 169.78 228.01 C 164.61 235.76 159.44 243.52 154.24 251.25 C 141.31 242.61 128.36 234.00 115.43 225.35 C 120.40 217.87 125.41 210.42 130.39 202.96 Z" />
<path fill="#feffff" opacity="1.00" d=" M 676.51 237.61 C 689.88 229.66 703.30 221.80 716.70 213.88 C 718.61 217.19 720.67 220.43 722.46 223.82 C 716.53 235.15 711.21 246.80 705.21 258.10 C 714.29 252.26 723.77 247.07 732.99 241.47 C 734.68 244.32 736.37 247.18 738.05 250.04 C 724.61 257.88 711.29 265.90 697.84 273.73 C 696.05 270.71 694.28 267.68 692.46 264.68 C 698.31 252.75 704.01 240.74 710.16 228.96 C 700.84 235.06 691.07 240.40 681.55 246.15 C 679.87 243.30 678.18 240.46 676.51 237.61 Z" />
<path fill="#feffff" opacity="1.00" d=" M 99.35 254.26 C 101.42 249.71 103.49 245.16 105.60 240.62 C 119.77 247.02 133.87 253.60 148.04 260.02 C 146.60 263.17 145.16 266.32 143.71 269.47 C 132.11 264.02 120.27 259.06 108.88 253.15 C 119.47 261.54 128.66 271.52 138.60 280.65 C 137.40 283.25 136.21 285.84 135.01 288.44 C 121.57 286.93 107.94 286.78 94.66 284.10 C 106.58 288.87 118.15 294.45 129.82 299.78 C 128.52 302.65 127.21 305.52 125.88 308.38 C 111.75 301.87 97.59 295.42 83.45 288.95 C 85.58 284.28 87.71 279.62 89.86 274.96 C 101.92 276.37 114.14 276.73 126.07 279.09 C 116.63 271.41 108.30 262.48 99.35 254.26 Z" />
<path fill="#feffff" opacity="1.00" d=" M 735.85 265.22 C 738.50 264.18 741.14 263.11 743.77 262.01 C 748.43 273.47 753.09 284.92 757.73 296.38 C 755.10 297.49 752.46 298.56 749.81 299.59 C 748.12 295.49 746.47 291.37 744.79 287.27 C 733.03 292.08 721.27 296.87 709.48 301.60 C 708.15 298.35 706.83 295.09 705.51 291.83 C 717.29 287.07 729.06 282.30 740.82 277.50 C 739.16 273.40 737.48 269.32 735.85 265.22 Z" />
<path fill="#feffff" opacity="1.00" d=" M 75.12 317.19 C 75.91 313.98 76.70 310.77 77.51 307.57 C 92.62 311.24 107.72 314.97 122.80 318.75 C 121.96 322.22 121.15 325.70 120.18 329.14 C 107.64 333.33 95.29 338.08 82.69 342.10 C 93.59 344.31 104.31 347.29 115.12 349.87 C 114.34 353.08 113.55 356.28 112.75 359.49 C 97.65 355.76 82.54 352.06 67.44 348.31 C 68.34 344.64 69.24 340.96 70.17 337.30 C 82.32 333.15 94.38 328.72 106.60 324.76 C 96.03 322.55 85.62 319.66 75.12 317.19 Z" />
<path fill="#feffff" opacity="1.00" d=" M 745.36 334.38 C 748.23 329.39 754.80 327.24 760.20 328.87 C 764.24 330.09 767.09 333.61 768.79 337.32 C 771.33 343.00 772.17 349.36 771.60 355.53 C 768.44 356.25 765.26 356.88 762.09 357.52 C 763.74 352.05 764.23 345.27 760.39 340.58 C 758.56 338.34 754.82 339.12 753.79 341.74 C 751.01 347.65 751.57 354.94 747.17 360.14 C 742.20 365.83 731.82 366.15 727.29 359.73 C 722.36 352.76 721.02 343.58 722.45 335.28 C 725.84 334.58 729.23 333.89 732.62 333.14 C 730.07 338.36 729.40 344.70 731.78 350.10 C 732.64 352.10 734.66 354.17 737.05 353.44 C 739.43 352.85 740.47 350.36 741.16 348.26 C 742.53 343.63 742.75 338.57 745.36 334.38 Z" />
<path fill="#feffff" opacity="1.00" d=" M 80.49 365.69 C 88.65 364.53 97.80 366.15 103.90 372.07 C 113.78 381.30 112.42 399.64 101.16 407.20 C 94.49 411.86 85.64 412.00 78.07 409.72 C 70.82 407.56 64.71 401.58 62.94 394.16 C 61.73 388.85 62.09 383.13 64.16 378.08 C 66.93 371.45 73.45 366.76 80.49 365.69 M 78.31 377.57 C 71.76 379.68 69.28 388.41 73.13 393.92 C 76.89 399.23 84.08 400.52 90.17 399.89 C 95.13 399.44 100.20 396.12 101.11 390.96 C 102.31 386.14 99.93 380.78 95.44 378.62 C 90.19 376.07 83.83 375.72 78.31 377.57 Z" />
<path fill="#feffff" opacity="1.00" d=" M 745.47 382.39 C 755.18 376.93 764.69 371.09 774.32 365.47 C 774.64 369.45 774.95 373.44 775.27 377.42 C 768.40 380.82 761.94 385.15 754.66 387.62 C 762.18 389.32 769.28 392.41 776.61 394.75 C 776.92 398.45 777.21 402.15 777.49 405.85 C 767.69 401.83 757.88 397.82 748.09 393.77 C 746.20 392.80 744.05 393.24 742.05 393.37 C 737.96 393.75 733.87 394.03 729.78 394.36 C 729.49 390.87 729.21 387.37 728.95 383.89 C 734.44 383.29 740.02 383.32 745.47 382.39 Z" />
<path fill="#feffff" opacity="1.00" d=" M 730.84 437.27 C 728.14 429.34 728.90 420.27 732.49 412.74 C 735.92 412.94 739.37 413.10 742.82 413.21 C 738.92 417.77 736.63 424.04 737.91 430.03 C 738.32 431.97 739.83 434.04 742.02 433.97 C 744.38 434.03 746.01 432.01 747.17 430.21 C 749.85 425.88 751.30 420.67 755.22 417.20 C 760.77 411.97 771.09 413.38 774.70 420.23 C 778.59 427.72 777.68 436.83 775.01 444.57 C 771.76 444.41 768.52 444.25 765.29 444.13 C 768.23 439.37 770.19 433.28 768.13 427.82 C 767.21 425.07 763.37 424.23 761.48 426.48 C 757.41 431.03 756.23 437.53 751.68 441.75 C 745.64 447.72 733.70 445.49 730.84 437.27 Z" />
<path fill="#feffff" opacity="1.00" d=" M 94.48 424.41 C 98.92 421.01 103.42 417.69 107.89 414.33 C 108.20 418.33 108.50 422.34 108.81 426.34 C 103.79 430.16 98.26 433.35 93.62 437.64 C 91.65 439.28 92.06 441.95 92.14 444.21 C 98.11 443.78 104.07 443.31 110.04 442.87 C 110.32 446.36 110.58 449.86 110.83 453.35 C 95.32 454.52 79.80 455.70 64.29 456.86 C 64.08 447.93 61.62 438.77 64.00 429.97 C 65.98 422.83 75.26 420.52 81.35 423.72 C 84.64 425.30 86.70 428.48 88.17 431.71 C 89.54 428.71 91.90 426.37 94.48 424.41 M 71.58 436.41 C 70.44 439.40 71.22 442.68 71.35 445.79 C 75.67 445.46 79.99 445.13 84.31 444.81 C 83.95 441.55 84.37 437.69 81.80 435.20 C 79.09 432.34 73.29 432.58 71.58 436.41 Z" />
<path fill="#feffff" opacity="1.00" d=" M 766.56 454.30 C 769.37 454.77 772.18 455.25 774.99 455.75 C 772.91 467.93 770.81 480.12 768.72 492.30 C 765.91 491.80 763.10 491.31 760.29 490.85 C 761.02 486.48 761.78 482.12 762.53 477.76 C 750.02 475.55 737.49 473.42 724.97 471.30 C 725.55 467.83 726.14 464.37 726.76 460.92 C 739.29 462.98 751.79 465.22 764.31 467.34 C 765.07 462.99 765.80 458.65 766.56 454.30 Z" />
<path fill="#feffff" opacity="1.00" d=" M 104.07 461.42 C 106.73 460.93 109.40 460.45 112.06 459.98 C 113.17 465.99 114.25 472.00 115.33 478.02 C 112.67 478.53 110.00 478.99 107.33 479.43 C 107.09 478.15 106.84 476.88 106.60 475.61 C 96.65 477.48 86.68 479.21 76.73 481.06 C 76.95 482.32 77.18 483.60 77.40 484.87 C 74.75 485.39 72.08 485.87 69.42 486.33 C 68.30 480.32 67.22 474.31 66.14 468.29 C 68.80 467.80 71.46 467.32 74.13 466.85 C 74.37 468.12 74.61 469.39 74.85 470.67 C 84.82 468.94 94.77 467.04 104.74 465.26 C 104.51 463.98 104.29 462.69 104.07 461.42 Z" />
<path fill="#feffff" opacity="1.00" d=" M 712.93 517.30 C 715.57 508.36 718.24 499.42 720.92 490.49 C 735.84 494.91 750.76 499.30 765.64 503.83 C 763.06 512.42 760.57 521.03 757.92 529.60 C 755.20 528.75 752.48 527.94 749.75 527.15 C 751.31 521.92 752.87 516.69 754.44 511.46 C 751.14 510.41 747.82 509.42 744.50 508.48 C 743.03 513.34 741.60 518.22 740.13 523.08 C 737.40 522.27 734.68 521.47 731.97 520.67 C 733.38 515.79 734.87 510.93 736.31 506.05 C 732.90 505.02 729.50 504.01 726.09 503.00 C 724.41 508.57 722.76 514.15 721.09 519.73 C 718.37 518.90 715.65 518.09 712.93 517.30 Z" />
<path fill="#feffff" opacity="1.00" d=" M 70.28 492.94 C 86.72 493.66 103.16 494.41 119.59 495.27 C 120.71 499.08 121.83 502.89 122.94 506.70 C 109.49 516.15 96.05 525.60 82.61 535.05 C 81.54 531.42 80.48 527.80 79.42 524.18 C 90.45 517.31 100.98 509.59 112.34 503.31 C 99.37 504.12 86.35 503.36 73.35 503.49 C 72.33 499.97 71.30 496.46 70.28 492.94 Z" />
<path fill="#feffff" opacity="1.00" d=" M 711.01 524.67 C 725.03 531.40 739.04 538.16 753.04 544.95 C 750.83 549.56 748.58 554.16 746.39 558.79 C 734.36 557.10 722.14 556.58 710.27 553.96 C 719.54 561.82 727.68 570.91 736.45 579.32 C 734.29 583.83 732.11 588.33 729.93 592.83 C 715.93 586.04 701.90 579.34 687.91 572.56 C 689.39 569.43 690.89 566.31 692.41 563.20 C 703.90 568.84 715.56 574.14 726.86 580.16 C 716.42 571.64 707.50 561.43 697.74 552.16 C 698.97 549.57 700.22 546.99 701.49 544.42 C 714.85 546.27 728.46 546.54 741.62 549.61 C 729.90 544.46 718.45 538.72 706.90 533.19 C 708.26 530.35 709.63 527.50 711.01 524.67 Z" />
<path fill="#feffff" opacity="1.00" d=" M 87.30 547.18 C 101.37 540.55 115.45 533.94 129.50 527.27 C 131.03 530.46 132.54 533.66 134.04 536.86 C 127.05 548.13 120.36 559.58 113.13 570.69 C 122.99 565.55 133.19 561.11 143.20 556.26 C 144.62 559.24 146.03 562.23 147.43 565.22 C 133.37 571.86 119.32 578.54 105.23 585.15 C 103.60 581.74 102.00 578.32 100.39 574.91 C 107.19 564.00 113.75 552.93 120.73 542.14 C 111.16 547.14 101.28 551.53 91.52 556.15 C 90.11 553.16 88.70 550.17 87.30 547.18 Z" />
<path fill="#feffff" opacity="1.00" d=" M 144.35 576.29 C 146.73 574.74 149.10 573.18 151.47 571.62 C 156.61 579.41 161.76 587.19 166.88 594.99 C 153.88 603.53 140.92 612.14 127.91 620.66 C 122.97 613.17 118.02 605.69 113.09 598.19 C 115.48 596.62 117.86 595.06 120.25 593.50 C 123.27 598.06 126.25 602.63 129.29 607.18 C 132.17 605.27 135.06 603.38 137.94 601.47 C 135.15 597.22 132.33 592.99 129.55 588.73 C 131.92 587.16 134.28 585.59 136.65 584.03 C 139.47 588.26 142.24 592.53 145.06 596.76 C 148.05 594.83 151.00 592.85 153.96 590.89 C 150.77 586.01 147.53 581.17 144.35 576.29 Z" />
<path fill="#feffff" opacity="1.00" d=" M 394.86 722.03 C 426.80 690.05 458.84 658.16 490.67 626.08 C 499.02 634.34 507.17 642.79 515.68 650.88 C 475.45 691.19 435.25 731.53 394.80 771.61 C 373.87 750.54 352.66 729.73 331.82 708.57 C 340.21 700.41 348.49 692.13 356.68 683.78 C 369.62 696.30 382.04 709.37 394.86 722.03 Z" />
</g>
<g id="#000000ff">
<path fill="#000000" opacity="1.00" d=" M 376.87 228.80 C 382.87 224.27 390.56 222.46 397.97 222.25 C 407.83 222.03 418.39 225.40 424.62 233.41 C 428.80 238.39 429.49 245.14 429.80 251.38 C 425.41 251.49 421.02 251.47 416.64 251.38 C 416.36 246.44 415.30 241.04 411.33 237.69 C 406.32 233.31 399.10 233.28 392.88 234.23 C 386.89 235.16 381.36 240.70 382.15 247.05 C 382.49 252.77 387.68 256.58 392.65 258.38 C 402.40 262.46 413.09 264.81 421.64 271.33 C 429.83 277.19 432.88 288.89 429.11 298.14 C 426.65 304.28 421.21 308.84 415.01 310.92 C 408.02 313.22 400.46 314.25 393.18 312.84 C 385.19 311.71 376.92 308.72 371.76 302.19 C 367.36 297.08 366.32 289.98 367.04 283.47 C 371.17 283.47 375.29 283.40 379.42 283.40 C 380.26 288.04 380.36 293.46 384.03 296.94 C 390.17 302.37 399.04 302.95 406.79 301.77 C 411.62 300.92 416.64 297.27 417.05 292.06 C 417.76 287.32 415.97 281.90 411.60 279.49 C 400.04 272.82 385.95 271.21 375.42 262.62 C 365.24 254.10 366.72 236.74 376.87 228.80 Z" />
<path fill="#000000" opacity="1.00" d=" M 469.50 222.71 C 476.30 221.71 483.42 222.40 489.73 225.22 C 497.88 228.75 504.06 236.38 506.03 245.03 C 508.13 253.88 506.78 263.03 507.24 272.02 C 507.40 282.19 507.51 293.56 500.81 301.92 C 490.45 315.21 469.61 317.09 455.89 308.12 C 448.17 303.16 444.11 294.02 443.49 285.09 C 442.98 277.42 443.37 269.72 443.24 262.03 C 443.17 253.89 443.02 245.30 446.85 237.86 C 450.83 229.05 460.16 223.79 469.50 222.71 M 468.34 234.50 C 463.21 236.17 459.12 240.68 457.99 245.97 C 455.78 255.14 456.83 264.64 456.60 273.97 C 456.53 281.45 456.31 289.70 460.93 296.03 C 468.31 305.67 485.71 303.99 491.10 293.10 C 493.70 286.75 493.81 279.71 493.83 272.94 C 493.65 264.93 494.23 256.85 492.93 248.91 C 492.22 244.49 490.23 240.11 486.63 237.32 C 481.50 233.38 474.43 232.90 468.34 234.50 Z" />
<path fill="#000000" opacity="1.00" d=" M 338.06 224.06 C 342.43 223.47 346.85 223.49 351.26 223.62 C 351.98 250.07 351.41 276.53 351.62 302.98 C 351.63 305.99 351.79 309.02 351.22 311.99 C 346.88 312.17 342.55 312.15 338.21 312.13 C 337.90 282.77 338.10 253.41 338.06 224.06 Z" />
<path fill="#000000" opacity="1.00" d=" M 422.53 346.71 C 432.54 345.40 443.38 346.32 452.09 351.83 C 460.02 356.81 465.04 365.32 467.69 374.12 C 471.36 386.35 471.83 399.32 471.07 411.99 C 470.14 424.92 466.99 438.39 458.43 448.50 C 452.41 455.83 443.28 460.21 433.91 461.16 C 422.80 462.34 410.63 460.61 401.80 453.26 C 393.35 446.33 389.20 435.59 387.33 425.10 C 385.37 413.59 385.32 401.78 386.69 390.20 C 388.18 378.59 391.84 366.68 400.03 357.99 C 405.88 351.69 414.06 347.85 422.53 346.71 M 425.37 365.46 C 419.50 367.33 416.59 373.44 415.01 378.94 C 411.81 390.77 411.99 403.20 412.56 415.34 C 413.29 423.13 414.26 431.52 419.12 437.97 C 422.90 443.19 431.19 444.36 436.06 440.02 C 440.62 435.93 442.23 429.67 443.37 423.88 C 445.23 412.75 445.11 401.36 444.27 390.14 C 443.42 382.89 442.36 375.14 437.80 369.18 C 434.98 365.43 429.78 364.00 425.37 365.46 Z" />
<path fill="#000000" opacity="1.00" d=" M 519.45 346.73 C 529.50 345.39 540.39 346.30 549.13 351.84 C 557.07 356.81 562.08 365.31 564.74 374.11 C 568.31 386.00 568.82 398.60 568.19 410.93 C 567.36 424.00 564.38 437.65 555.89 448.01 C 549.84 455.59 540.56 460.22 530.96 461.16 C 520.27 462.28 508.65 460.76 499.89 454.09 C 491.63 447.89 487.12 437.99 484.99 428.12 C 482.46 416.23 482.33 403.92 483.53 391.86 C 484.88 379.92 488.34 367.60 496.60 358.52 C 502.43 351.94 510.79 347.91 519.45 346.73 M 522.38 365.47 C 515.37 367.86 512.70 375.70 511.21 382.25 C 508.94 393.31 509.01 404.70 509.65 415.93 C 510.43 423.71 511.45 432.15 516.56 438.44 C 520.44 443.30 528.40 444.20 533.10 440.03 C 537.68 435.93 539.28 429.65 540.42 423.85 C 542.27 412.74 542.16 401.38 541.32 390.18 C 540.47 382.91 539.41 375.12 534.81 369.15 C 531.98 365.40 526.78 364.00 522.38 365.47 Z" />
<path fill="#000000" opacity="1.00" d=" M 199.23 355.89 C 216.25 352.65 233.27 349.39 250.30 346.16 C 250.31 377.48 250.30 408.80 250.30 440.12 C 258.40 440.16 266.50 440.11 274.61 440.14 C 274.60 446.62 274.61 453.11 274.60 459.60 C 249.70 459.60 224.79 459.60 199.89 459.59 C 199.88 453.11 199.88 446.62 199.89 440.14 C 208.04 440.12 216.19 440.15 224.35 440.13 C 224.36 416.97 224.36 393.82 224.35 370.67 C 215.99 372.43 207.60 374.05 199.24 375.80 C 199.22 369.16 199.23 362.52 199.23 355.89 Z" />
<path fill="#000000" opacity="1.00" d=" M 587.50 355.80 C 604.52 352.73 621.48 349.34 638.48 346.16 C 638.49 377.48 638.48 408.80 638.49 440.12 C 646.59 440.15 654.69 440.12 662.79 440.14 C 662.79 446.62 662.79 453.11 662.78 459.60 C 637.88 459.60 612.98 459.59 588.08 459.60 C 588.05 453.11 588.06 446.62 588.07 440.13 C 596.22 440.13 604.36 440.13 612.51 440.13 C 612.55 416.98 612.54 393.82 612.52 370.67 C 604.15 372.39 595.79 374.11 587.41 375.79 C 587.46 369.13 587.30 362.46 587.50 355.80 Z" />
<path fill="#000000" opacity="1.00" d=" M 286.61 419.60 C 302.93 395.70 319.37 371.86 335.76 348.00 C 344.29 348.01 352.82 347.99 361.35 348.01 C 361.37 371.45 361.33 394.89 361.37 418.34 C 366.09 418.33 370.80 418.33 375.52 418.34 C 375.52 424.18 375.52 430.02 375.53 435.86 C 370.80 435.88 366.08 435.85 361.36 435.88 C 361.35 443.78 361.35 451.68 361.35 459.59 C 353.44 459.61 345.53 459.61 337.62 459.59 C 337.65 451.71 337.56 443.84 337.67 435.96 C 320.50 435.74 303.32 435.93 286.14 435.87 C 286.46 430.47 285.48 424.84 286.61 419.60 M 331.88 382.98 C 323.84 394.76 315.79 406.54 307.75 418.33 C 317.70 418.34 327.65 418.32 337.60 418.34 C 337.72 402.92 337.40 387.50 337.92 372.09 C 335.85 375.68 334.24 379.54 331.88 382.98 Z" />
<path fill="#000000" opacity="1.00" d=" M 247.19 509.15 C 254.20 498.55 270.73 496.54 280.39 504.60 C 283.62 507.40 285.03 511.57 286.39 515.49 C 283.07 516.10 279.76 516.72 276.44 517.33 C 275.15 514.02 273.04 510.80 269.64 509.39 C 265.00 507.10 259.18 509.31 256.49 513.52 C 253.75 517.74 253.42 523.01 253.82 527.90 C 254.11 531.64 254.87 535.67 257.55 538.50 C 260.91 541.78 266.42 542.81 270.60 540.49 C 274.14 538.72 275.31 534.66 277.05 531.42 C 280.20 532.35 283.34 533.28 286.48 534.23 C 284.85 539.86 281.98 545.73 276.39 548.35 C 265.33 554.70 249.40 549.16 244.87 537.19 C 241.75 528.10 242.00 517.44 247.19 509.15 Z" />
<path fill="#000000" opacity="1.00" d=" M 294.26 500.81 C 306.51 500.74 318.76 500.71 331.02 500.74 C 331.03 503.57 331.03 506.41 331.03 509.25 C 322.28 509.36 313.54 509.30 304.79 509.37 C 304.80 512.97 304.80 516.58 304.81 520.20 C 312.91 520.30 321.02 520.32 329.13 520.34 C 329.16 523.38 329.11 526.42 328.98 529.47 C 320.92 529.48 312.85 529.45 304.79 529.48 C 304.78 533.54 304.79 537.60 304.81 541.66 C 313.95 541.74 323.10 541.62 332.25 541.92 C 332.22 544.87 332.19 547.83 332.16 550.79 C 319.52 550.80 306.89 550.80 294.26 550.79 C 294.26 534.13 294.25 517.47 294.26 500.81 Z" />
<path fill="#000000" opacity="1.00" d=" M 339.95 500.74 C 349.99 500.87 360.06 500.27 370.08 501.19 C 378.71 502.26 383.33 513.19 379.62 520.64 C 377.67 525.10 373.30 528.05 368.57 528.83 C 376.10 534.32 380.07 543.00 384.67 550.82 C 380.56 550.79 376.45 550.80 372.34 550.79 C 368.25 544.57 364.50 538.07 359.64 532.39 C 357.44 529.91 353.80 530.27 350.81 529.90 C 350.74 536.89 350.86 543.87 350.52 550.86 C 347.00 550.87 343.47 550.87 339.95 550.86 C 339.94 534.15 339.94 517.45 339.95 500.74 M 350.72 509.33 C 350.72 513.26 350.73 517.19 350.75 521.12 C 355.81 521.01 360.93 521.49 365.94 520.64 C 370.49 519.94 371.54 512.71 367.53 510.61 C 362.23 508.24 356.31 509.58 350.72 509.33 Z" />
<path fill="#000000" opacity="1.00" d=" M 387.08 509.27 C 386.95 506.43 386.89 503.57 387.45 500.78 C 400.57 500.75 413.69 500.69 426.81 500.81 C 426.82 503.62 426.82 506.44 426.82 509.26 C 421.92 509.27 417.03 509.26 412.14 509.27 C 412.12 523.10 412.14 536.94 412.13 550.78 C 408.72 550.83 405.31 550.89 401.91 550.94 C 401.50 537.05 401.74 523.16 401.67 509.27 C 396.81 509.26 391.94 509.27 387.08 509.27 Z" />
<path fill="#000000" opacity="1.00" d=" M 431.41 550.85 C 431.31 534.15 431.26 517.44 431.40 500.73 C 434.91 500.73 438.42 500.73 441.93 500.74 C 442.03 517.45 442.02 534.15 441.90 550.86 C 438.40 550.87 434.90 550.87 431.41 550.85 Z" />
<path fill="#000000" opacity="1.00" d=" M 450.69 500.82 C 462.17 500.62 473.64 500.78 485.11 500.81 C 485.11 503.62 485.10 506.44 485.08 509.26 C 477.17 509.28 469.25 509.26 461.34 509.27 C 461.33 512.94 461.33 516.60 461.34 520.27 C 468.17 520.28 475.00 520.16 481.83 520.46 C 481.82 523.44 481.78 526.42 481.71 529.41 C 474.92 529.39 468.14 529.40 461.35 529.40 C 461.33 536.54 461.34 543.69 461.33 550.83 C 457.80 550.80 454.27 550.79 450.74 550.79 C 450.61 534.13 450.59 517.48 450.69 500.82 Z" />
<path fill="#000000" opacity="1.00" d=" M 492.30 500.81 C 495.85 500.81 499.41 500.80 502.98 500.74 C 502.99 517.42 502.98 534.11 502.96 550.80 C 499.41 550.81 495.85 550.81 492.30 550.74 C 492.29 534.10 492.29 517.45 492.30 500.81 Z" />
<path fill="#000000" opacity="1.00" d=" M 511.67 500.74 C 523.85 500.68 536.03 500.81 548.21 500.81 C 548.21 503.62 548.21 506.44 548.21 509.26 C 539.45 509.28 530.70 509.25 521.94 509.27 C 521.95 512.95 521.97 516.64 522.01 520.33 C 530.15 520.35 538.29 520.31 546.43 520.35 C 546.43 523.38 546.37 526.42 546.25 529.46 C 538.14 529.48 530.03 529.47 521.93 529.39 C 521.93 533.50 521.95 537.61 521.98 541.73 C 531.04 541.78 540.10 541.68 549.15 541.67 C 549.27 544.71 549.31 547.75 549.25 550.79 C 536.72 550.80 524.20 550.80 511.67 550.80 C 511.66 534.11 511.66 517.42 511.67 500.74 Z" />
<path fill="#000000" opacity="1.00" d=" M 557.02 500.80 C 565.00 500.69 572.98 500.68 580.96 500.83 C 587.19 500.83 592.76 505.02 595.70 510.32 C 598.27 514.73 598.59 519.98 598.89 524.96 C 599.04 531.04 598.14 537.46 594.73 542.64 C 591.25 547.69 585.20 550.73 579.10 550.83 C 571.75 550.99 564.39 550.73 557.04 550.80 C 557.01 534.13 557.01 517.47 557.02 500.80 M 567.74 509.34 C 567.77 520.14 567.59 530.95 567.88 541.75 C 572.78 541.56 577.92 542.39 582.60 540.57 C 586.92 538.60 587.77 533.28 587.97 529.05 C 588.10 523.45 588.70 516.86 584.49 512.47 C 579.90 508.47 573.36 509.40 567.74 509.34 Z" />
</g>
</svg>
