<?xml version="1.0" encoding="UTF-8" ?>
<!DOCTYPE svg PUBLIC "-//W3C//DTD SVG 1.1//EN" "http://www.w3.org/Graphics/SVG/1.1/DTD/svg11.dtd">
<svg width="662pt" height="668pt" viewBox="0 0 662 668" version="1.1" xmlns="http://www.w3.org/2000/svg">
<g id="#fdfdfdff">
<path fill="#fdfdfd" opacity="1.00" d=" M 308.48 45.33 C 310.73 45.31 312.99 45.30 315.25 45.30 C 320.50 57.10 325.89 68.83 331.01 80.69 C 328.26 80.77 325.52 80.81 322.78 80.85 C 321.77 78.39 320.73 75.94 319.63 73.53 C 315.32 73.82 311.02 74.36 306.70 74.52 C 305.94 77.15 305.19 79.80 304.46 82.45 C 301.92 82.50 299.38 82.57 296.85 82.64 C 299.91 69.98 304.45 57.72 308.48 45.33 M 309.05 67.63 C 311.69 67.56 314.34 67.50 316.99 67.42 C 315.67 63.12 314.08 58.90 312.20 54.82 C 310.89 59.02 309.83 63.30 309.05 67.63 Z" />
<path fill="#fdfdfd" opacity="1.00" d=" M 341.60 56.06 C 341.94 52.16 342.46 48.27 343.27 44.44 C 345.62 44.78 347.97 45.12 350.32 45.43 C 354.06 53.81 358.28 61.96 362.47 70.12 C 363.89 62.53 364.03 54.77 365.36 47.16 C 367.84 47.31 370.32 47.46 372.81 47.62 C 371.56 59.64 370.32 71.69 368.80 83.67 C 366.30 83.84 363.80 83.62 361.31 83.53 C 357.00 75.17 353.61 66.36 349.07 58.12 C 348.19 65.97 347.63 73.86 346.23 81.64 C 343.89 81.45 341.55 81.27 339.21 81.13 C 339.28 72.71 340.81 64.41 341.60 56.06 Z" />
<path fill="#fdfdfd" opacity="1.00" d=" M 270.64 50.56 C 273.87 49.73 277.18 49.25 280.51 49.00 C 282.70 60.83 285.76 72.47 288.51 84.17 C 285.91 84.67 283.33 85.25 280.75 85.79 C 279.11 77.70 277.43 69.61 275.78 61.52 C 274.17 69.91 273.47 78.43 272.20 86.87 C 271.71 89.12 268.66 88.39 267.00 89.03 C 261.65 81.93 257.47 74.07 252.36 66.81 C 253.50 75.20 257.40 82.98 257.98 91.49 C 255.68 92.04 253.37 92.60 251.01 92.79 C 247.94 80.94 245.20 68.95 242.60 56.97 C 245.86 56.34 249.12 55.65 252.42 55.18 C 257.36 62.90 262.21 70.69 267.22 78.37 C 268.24 69.08 270.07 59.89 270.64 50.56 Z" />
<path fill="#fdfdfd" opacity="1.00" d=" M 400.43 53.62 C 402.41 54.13 404.41 54.60 406.42 55.02 C 408.51 68.12 408.89 81.42 410.53 94.58 C 407.83 93.81 405.13 93.06 402.41 92.34 C 402.38 89.71 402.35 87.08 402.35 84.45 C 398.03 83.01 393.64 81.80 389.23 80.68 C 387.86 82.99 386.42 85.25 385.02 87.54 C 382.34 86.79 379.66 86.09 377.01 85.31 C 384.74 74.69 392.40 64.01 400.43 53.62 M 393.34 75.18 C 396.05 75.80 398.77 76.43 401.50 77.00 C 401.50 72.60 401.41 68.20 401.08 63.81 C 398.20 67.39 395.94 71.40 393.34 75.18 Z" />
<path fill="#fdfdfd" opacity="1.00" d=" M 424.68 78.46 C 426.69 73.86 430.07 69.45 435.03 67.86 C 441.73 66.17 449.34 69.15 453.19 74.88 C 455.53 78.11 454.48 82.34 454.35 86.02 C 452.03 85.15 449.77 84.16 447.50 83.18 C 447.30 80.78 448.07 77.80 445.92 76.08 C 444.14 74.80 441.97 74.28 439.96 73.52 C 437.58 74.34 434.92 75.25 433.78 77.72 C 431.47 82.19 428.46 86.80 428.49 91.99 C 428.89 97.32 434.78 98.86 439.09 99.73 C 440.09 97.55 441.06 95.36 441.97 93.15 C 440.04 92.22 438.18 91.18 436.25 90.28 C 436.81 88.56 437.38 86.85 437.94 85.13 C 442.49 86.57 446.65 88.97 451.04 90.81 C 449.34 95.67 447.70 100.70 444.85 105.01 C 436.26 107.69 425.33 103.89 421.88 95.14 C 420.13 89.47 421.98 83.51 424.68 78.46 Z" />
<path fill="#fdfdfd" opacity="1.00" d=" M 187.85 81.77 C 190.07 80.84 192.16 79.07 194.70 79.26 C 199.20 87.91 203.11 96.88 207.90 105.40 C 212.84 103.32 217.55 100.78 222.30 98.31 C 223.18 100.24 224.07 102.16 224.96 104.09 C 217.94 107.70 210.82 111.10 203.84 114.76 C 198.54 103.75 192.66 93.00 187.85 81.77 Z" />
<path fill="#fdfdfd" opacity="1.00" d=" M 472.10 83.87 C 472.74 82.71 474.02 84.04 474.81 84.32 C 481.17 88.23 487.56 92.10 493.81 96.18 C 492.79 97.88 491.84 99.62 490.84 101.33 C 485.37 99.28 481.18 94.40 475.50 93.12 C 473.85 95.08 472.41 97.24 471.32 99.57 C 475.03 102.47 479.22 104.70 483.22 107.18 C 482.06 108.85 481.23 113.03 478.44 111.46 C 474.72 109.47 471.41 106.78 467.58 104.98 C 465.82 107.67 464.22 110.45 462.97 113.41 C 467.61 116.38 472.35 119.19 476.99 122.17 C 475.83 123.99 474.65 125.79 473.48 127.59 C 466.89 123.03 459.90 119.08 453.26 114.62 C 453.12 112.28 455.26 110.31 456.29 108.27 C 461.82 100.30 466.57 91.83 472.10 83.87 Z" />
<path fill="#fdfdfd" opacity="1.00" d=" M 159.20 101.10 C 160.84 98.96 164.22 95.64 166.87 98.16 C 176.89 105.15 187.03 111.97 197.04 118.97 C 194.77 120.52 192.49 122.07 190.19 123.59 C 188.11 122.02 186.11 120.32 183.78 119.14 C 179.92 120.95 176.77 123.94 173.06 126.03 C 173.75 128.99 174.45 131.95 174.96 134.95 C 172.79 136.27 170.65 137.63 168.52 139.01 C 165.50 126.36 161.97 113.80 159.20 101.10 M 167.26 106.83 C 168.64 111.13 169.76 115.50 170.79 119.90 C 173.14 118.45 175.54 117.06 177.73 115.36 C 175.26 111.61 170.67 109.70 167.26 106.83 Z" />
<path fill="#fdfdfd" opacity="1.00" d=" M 481.00 132.87 C 488.99 123.39 497.60 114.44 506.09 105.41 C 508.26 107.67 511.47 109.25 512.85 112.08 C 510.11 120.99 505.43 129.22 502.43 138.06 C 509.84 134.49 516.78 130.03 524.08 126.24 C 525.25 125.68 526.49 125.09 527.84 125.16 C 530.56 126.99 532.77 129.46 535.06 131.79 C 526.24 140.40 518.10 149.66 509.98 158.93 C 507.94 157.11 505.97 155.22 504.11 153.22 C 510.03 147.15 515.81 140.96 521.79 134.95 C 513.89 137.90 507.02 142.96 499.36 146.39 C 497.11 147.88 495.36 145.15 493.66 144.07 C 496.36 135.41 500.54 127.32 503.53 118.77 C 497.83 124.94 492.67 131.60 486.92 137.74 C 484.96 136.10 482.98 134.48 481.00 132.87 Z" />
<path fill="#fdfdfd" opacity="1.00" d=" M 120.08 135.02 C 127.13 127.72 134.87 121.13 142.00 113.92 C 143.32 115.52 145.32 116.80 145.89 118.87 C 143.69 121.66 140.84 123.84 138.17 126.15 C 144.76 134.10 152.51 140.98 158.98 149.02 C 157.11 150.73 155.19 152.38 153.21 153.96 C 146.36 146.48 139.53 138.97 132.26 131.90 C 129.74 134.38 127.16 136.80 124.66 139.29 C 123.03 137.98 121.35 136.69 120.08 135.02 Z" />
<path fill="#fdfdfd" opacity="1.00" d=" M 517.19 167.16 C 527.03 159.63 536.82 152.04 546.54 144.35 C 551.88 150.75 556.90 157.41 562.04 163.99 C 560.39 165.22 558.74 166.45 557.10 167.70 C 553.50 163.58 550.43 159.03 546.77 154.97 C 544.18 156.00 542.12 157.97 539.87 159.57 C 542.01 163.47 545.34 166.53 547.69 170.28 C 548.04 172.52 545.04 173.45 543.90 174.99 C 540.69 171.28 538.01 167.09 534.35 163.78 C 531.97 165.76 529.52 167.66 527.11 169.61 C 529.96 173.80 533.46 177.49 536.33 181.66 C 537.92 184.08 534.06 185.40 532.88 186.95 C 527.37 180.58 522.18 173.94 517.19 167.16 Z" />
<path fill="#fdfdfd" opacity="1.00" d=" M 106.86 151.53 C 108.14 149.34 109.54 147.23 110.99 145.14 C 120.56 152.97 130.63 160.20 139.99 168.27 C 138.84 170.48 137.49 173.26 135.15 174.23 C 126.02 173.49 117.05 171.45 107.92 170.59 C 113.52 176.28 120.55 180.35 126.00 186.17 C 124.97 188.29 123.41 190.09 122.03 191.98 C 112.07 184.72 102.94 176.39 93.20 168.84 C 94.54 166.77 95.90 164.71 97.18 162.61 C 106.50 163.65 115.74 165.24 125.03 166.49 C 119.24 161.19 112.89 156.55 106.86 151.53 Z" />
<path fill="#fdfdfd" opacity="1.00" d=" M 553.55 185.70 C 559.21 182.55 564.75 179.09 570.85 176.85 C 571.87 178.87 573.29 180.74 573.83 182.97 C 570.58 191.72 564.18 198.90 560.86 207.61 C 567.92 203.90 574.55 199.38 581.80 196.05 C 583.24 198.00 584.39 200.13 585.67 202.18 C 574.74 208.26 564.06 214.77 553.01 220.62 C 551.79 218.42 550.57 216.23 549.34 214.05 C 553.40 205.76 558.45 198.01 562.79 189.87 C 554.99 192.39 548.87 198.28 541.14 200.87 C 540.09 198.76 538.99 196.69 537.95 194.58 C 542.95 191.27 548.41 188.77 553.55 185.70 Z" />
<path fill="#fdfdfd" opacity="1.00" d=" M 85.02 181.14 C 86.86 182.11 88.70 183.09 90.54 184.06 C 87.83 189.11 85.08 194.14 82.20 199.09 C 84.71 200.58 87.26 202.01 89.86 203.34 C 92.17 199.18 94.58 195.07 96.85 190.89 C 98.59 191.80 100.56 192.50 101.84 194.07 C 100.02 198.48 97.01 202.28 94.99 206.60 C 97.72 208.42 100.59 210.05 103.69 211.18 C 106.31 206.57 108.66 201.80 111.42 197.28 C 113.42 197.73 115.06 199.06 116.84 200.01 C 112.97 207.09 109.18 214.22 105.00 221.12 C 94.23 215.36 83.79 208.98 73.12 203.03 C 76.93 195.65 81.09 188.46 85.02 181.14 Z" />
<path fill="#fdfdfd" opacity="1.00" d=" M 585.83 216.90 C 587.75 216.29 589.68 215.72 591.62 215.13 C 595.12 224.23 598.28 233.45 601.86 242.52 C 599.90 243.34 597.82 243.80 595.88 244.64 C 594.66 241.15 593.36 237.68 592.11 234.20 C 582.42 237.98 572.75 241.83 563.04 245.54 C 562.19 243.03 561.30 240.52 560.43 238.02 C 570.17 234.80 579.54 230.56 589.27 227.27 C 588.06 223.84 586.89 220.38 585.83 216.90 Z" />
<path fill="#fdfdfd" opacity="1.00" d=" M 65.38 219.03 C 72.86 221.18 80.07 224.14 87.41 226.70 C 91.54 228.16 95.90 229.11 99.79 231.19 C 99.33 233.76 98.30 236.16 97.41 238.60 C 89.47 235.58 81.73 232.05 73.83 228.93 C 79.68 235.23 87.25 239.67 92.98 246.10 C 94.90 247.85 93.11 250.48 92.57 252.50 C 83.69 251.15 74.68 251.68 65.73 251.63 C 73.78 254.47 81.75 257.51 89.69 260.64 C 88.82 263.00 87.99 265.37 87.18 267.75 C 75.91 263.19 64.53 258.90 53.09 254.80 C 53.97 251.69 54.93 248.60 55.80 245.50 C 65.17 245.43 74.53 245.63 83.90 245.67 C 76.59 239.97 69.81 233.63 62.45 227.99 C 63.40 224.99 64.36 222.00 65.38 219.03 Z" />
<path fill="#fdfdfd" opacity="1.00" d=" M 48.40 272.11 C 60.60 273.55 72.64 276.14 84.70 278.45 C 84.24 280.76 83.78 283.08 83.36 285.41 C 75.21 289.12 66.88 292.42 58.65 295.96 C 58.54 296.27 58.30 296.88 58.18 297.19 C 65.75 297.84 73.29 298.72 80.81 299.80 C 80.64 302.12 80.46 304.45 80.30 306.78 C 67.94 306.14 55.80 303.46 43.50 302.21 C 43.88 299.76 44.25 297.32 44.60 294.88 C 52.96 291.13 61.68 288.06 69.58 283.36 C 62.13 281.82 54.61 280.68 47.10 279.49 C 47.49 277.02 47.92 274.56 48.40 272.11 Z" />
<path fill="#fdfdfd" opacity="1.00" d=" M 594.17 281.15 C 596.91 276.74 603.29 276.26 607.49 278.68 C 613.35 282.52 614.88 290.95 612.35 297.18 C 610.82 300.91 607.01 302.73 603.48 304.11 C 603.06 301.81 602.66 299.50 602.36 297.19 C 603.80 296.29 605.22 295.37 606.65 294.43 C 606.66 292.12 606.95 289.72 606.28 287.47 C 605.50 286.16 604.18 285.28 603.12 284.23 C 601.55 285.17 599.29 285.72 598.87 287.79 C 597.65 292.95 597.42 298.64 594.06 303.03 C 590.79 307.43 583.86 307.39 579.83 304.13 C 575.25 300.23 573.81 293.64 574.85 287.92 C 575.91 282.88 580.14 278.83 585.21 277.96 C 585.38 280.33 585.57 282.70 585.75 285.07 C 584.16 286.14 581.94 286.97 581.48 289.05 C 580.87 292.22 581.00 296.15 583.79 298.32 C 586.02 299.31 588.95 298.33 589.66 295.87 C 591.22 290.99 590.99 285.44 594.17 281.15 Z" />
<path fill="#fdfdfd" opacity="1.00" d=" M 592.95 325.44 C 600.88 322.21 607.74 316.80 615.75 313.68 C 615.77 316.45 615.75 319.23 615.68 322.00 C 610.57 324.68 605.25 326.92 600.25 329.79 C 605.30 332.58 610.53 335.02 615.79 337.40 C 615.77 340.25 615.73 343.10 615.66 345.95 C 609.18 342.71 602.96 339.01 596.60 335.57 C 591.08 332.20 584.41 334.23 578.33 333.72 C 578.35 331.09 578.40 328.46 578.50 325.84 C 583.31 325.75 588.18 326.22 592.95 325.44 Z" />
<path fill="#fdfdfd" opacity="1.00" d=" M 55.62 318.02 C 61.64 317.29 68.12 317.56 73.63 320.34 C 83.02 325.83 82.22 341.89 72.57 346.70 C 67.41 349.21 61.46 348.89 55.90 348.53 C 50.41 348.15 45.03 344.97 42.78 339.83 C 40.57 333.97 41.22 326.50 45.98 322.05 C 48.53 319.50 52.13 318.47 55.62 318.02 M 52.47 326.64 C 46.62 328.56 46.91 338.41 52.86 339.98 C 58.56 341.50 65.03 342.05 70.47 339.35 C 75.14 336.61 74.60 328.72 69.49 326.76 C 64.04 324.99 57.96 325.07 52.47 326.64 Z" />
<path fill="#fdfdfd" opacity="1.00" d=" M 580.07 356.13 C 582.73 353.76 586.32 353.20 589.74 352.91 C 589.58 355.29 589.41 357.67 589.22 360.06 C 584.97 360.21 581.15 363.49 581.51 367.97 C 580.77 371.37 584.63 375.36 587.85 372.96 C 592.04 368.35 593.21 361.19 599.01 357.96 C 604.40 354.64 611.62 358.83 613.18 364.52 C 614.49 369.75 613.57 375.83 609.84 379.90 C 607.17 382.77 603.09 383.19 599.45 383.73 C 599.75 381.36 600.06 379.00 600.43 376.64 C 602.79 376.02 605.85 375.63 606.74 372.92 C 608.45 369.86 607.29 364.12 602.96 364.52 C 600.41 365.38 599.34 368.11 598.25 370.32 C 596.48 374.19 594.13 378.04 590.50 380.42 C 584.64 383.64 576.59 379.44 575.41 372.97 C 574.49 367.09 575.29 360.21 580.07 356.13 Z" />
<path fill="#fdfdfd" opacity="1.00" d=" M 66.85 365.78 C 71.39 362.45 75.92 358.99 81.18 356.85 C 81.36 359.39 82.04 361.98 81.60 364.54 C 77.69 367.48 73.08 369.38 69.36 372.63 C 69.74 374.74 70.12 376.85 70.48 378.97 C 75.11 378.40 79.69 377.51 84.33 377.16 C 84.53 379.54 84.71 381.93 84.89 384.32 C 72.85 386.59 60.84 389.03 48.74 390.93 C 47.78 383.77 45.25 376.59 46.59 369.32 C 47.96 364.51 53.25 361.77 58.04 362.24 C 61.46 361.86 64.02 364.38 66.85 365.78 M 52.27 372.64 C 52.52 375.98 53.01 379.29 53.64 382.59 C 57.02 381.81 60.44 381.18 63.84 380.51 C 63.26 377.11 63.89 372.62 60.59 370.45 C 57.78 368.57 54.36 370.58 52.27 372.64 Z" />
<path fill="#fdfdfd" opacity="1.00" d=" M 53.01 406.90 C 64.82 403.33 76.41 399.04 88.30 395.75 C 89.07 398.19 89.84 400.63 90.60 403.08 C 78.49 406.04 67.12 411.59 54.87 413.95 C 54.25 411.60 53.64 409.25 53.01 406.90 Z" />
<path fill="#fdfdfd" opacity="1.00" d=" M 602.11 396.05 C 604.37 396.35 606.63 396.75 608.86 397.33 C 606.06 406.90 603.08 416.41 600.01 425.89 C 597.78 425.51 595.58 425.00 593.40 424.43 C 594.50 420.87 595.62 417.32 596.87 413.82 C 587.08 410.33 576.95 407.91 567.18 404.34 C 567.74 401.94 568.33 399.54 568.88 397.14 C 579.24 399.37 589.02 403.82 599.41 406.01 C 600.36 402.71 601.29 399.39 602.11 396.05 Z" />
<path fill="#fdfdfd" opacity="1.00" d=" M 560.09 422.94 C 571.66 427.98 582.87 433.84 594.25 439.30 C 590.98 446.99 587.43 454.60 583.26 461.86 C 581.56 460.89 579.85 459.93 578.13 459.01 C 580.17 453.71 582.90 448.71 585.60 443.73 C 582.95 442.32 580.25 441.05 577.46 439.98 C 575.26 444.37 572.98 448.71 570.52 452.96 C 568.82 452.04 567.12 451.12 565.44 450.18 C 567.70 445.86 569.78 441.45 571.70 436.97 C 568.73 435.47 565.71 434.10 562.58 433.02 C 560.44 437.91 558.06 442.70 555.92 447.60 C 553.95 446.68 551.98 445.78 550.02 444.88 C 553.11 437.44 557.09 430.42 560.09 422.94 Z" />
<path fill="#fdfdfd" opacity="1.00" d=" M 59.23 426.60 C 72.18 426.05 85.07 424.44 98.03 424.12 C 98.93 426.19 99.85 428.25 100.78 430.31 C 91.54 439.48 82.14 448.50 73.14 457.91 C 71.95 455.45 70.69 453.02 69.36 450.64 C 75.52 444.20 82.00 438.06 88.70 432.18 C 79.78 432.06 70.98 433.73 62.07 433.68 C 61.17 431.30 60.21 428.95 59.23 426.60 Z" />
<path fill="#fdfdfd" opacity="1.00" d=" M 80.06 469.81 C 90.34 462.86 100.67 455.98 111.09 449.25 C 112.38 451.19 113.86 453.04 114.82 455.18 C 114.29 458.74 112.54 461.96 111.08 465.20 C 108.30 470.56 105.90 476.10 103.25 481.53 C 110.41 477.45 116.86 472.29 123.85 467.95 C 125.28 469.95 126.82 471.90 127.98 474.08 C 124.98 476.85 121.29 478.67 117.96 480.98 C 110.87 485.58 104.25 490.92 96.85 495.02 C 95.57 492.99 94.10 491.06 93.12 488.87 C 95.95 479.57 101.31 471.28 105.03 462.33 C 97.86 466.62 91.42 472.08 84.00 475.97 C 82.72 473.90 81.39 471.85 80.06 469.81 Z" />
<path fill="#fdfdfd" opacity="1.00" d=" M 545.29 453.32 C 555.78 460.27 565.55 468.25 575.67 475.71 C 573.88 478.01 572.42 480.59 570.25 482.58 C 561.36 480.49 552.67 477.57 543.84 475.23 C 548.35 483.50 554.16 490.96 558.75 499.19 C 557.09 501.57 555.42 503.94 553.80 506.35 C 543.24 499.49 533.40 491.57 523.26 484.10 C 524.77 482.09 526.28 480.09 527.82 478.11 C 534.60 482.93 541.03 488.23 547.71 493.18 C 543.46 485.51 538.22 478.45 533.44 471.11 C 534.38 469.75 535.32 468.38 536.26 467.02 C 544.73 468.21 552.52 472.03 560.85 473.82 C 554.61 468.59 547.37 464.73 541.24 459.37 C 542.62 457.37 543.97 455.35 545.29 453.32 Z" />
<path fill="#fdfdfd" opacity="1.00" d=" M 130.02 486.13 C 131.26 484.62 132.70 483.30 134.08 481.94 C 140.02 488.11 145.67 494.55 151.16 501.12 C 141.80 509.43 132.23 517.50 123.01 525.99 C 117.59 519.54 111.58 513.63 106.29 507.07 C 107.89 505.72 109.48 504.36 111.07 502.99 C 115.19 507.05 118.81 511.59 122.77 515.81 C 124.76 513.77 126.82 511.79 128.93 509.88 C 125.69 506.15 122.44 502.44 119.08 498.82 C 120.78 497.72 122.10 494.67 124.42 495.44 C 127.91 498.61 130.65 502.49 133.90 505.89 C 136.28 503.63 138.64 501.35 140.99 499.07 C 137.34 494.76 133.17 490.83 130.02 486.13 Z" />
<path fill="#fdfdfd" opacity="1.00" d=" M 307.65 569.76 C 333.41 544.10 359.08 518.34 384.91 492.75 C 391.66 499.52 398.47 506.23 405.22 513.00 C 372.74 545.53 340.19 577.99 307.70 610.50 C 290.65 593.50 273.58 576.52 256.62 559.45 C 263.42 552.74 270.17 545.99 276.93 539.25 C 287.18 549.41 297.41 559.60 307.65 569.76 Z" />
</g>
<g id="#56ab51ff">
<path fill="#56ab51" opacity="1.00" d=" M 290.03 17.60 C 301.65 16.27 313.32 15.41 324.97 14.49 C 375.43 14.18 426.17 24.99 471.46 47.45 C 506.59 64.60 538.40 88.41 565.04 117.00 C 604.31 158.89 631.93 211.72 643.39 268.02 C 647.33 289.10 650.20 310.49 649.63 331.98 C 649.95 411.25 618.23 490.11 562.95 546.95 C 529.01 582.40 486.70 609.50 440.75 626.57 C 440.60 589.90 440.88 553.23 440.67 516.55 C 455.54 507.14 470.02 496.93 482.55 484.49 C 509.46 458.76 529.29 425.82 540.09 390.24 C 550.60 355.07 551.82 317.08 543.24 281.37 C 534.30 241.74 513.55 204.93 484.70 176.37 C 450.97 142.39 405.58 120.18 358.04 114.41 C 345.27 112.92 332.35 111.92 319.51 113.21 C 270.06 115.59 221.89 136.03 185.26 169.23 C 145.66 205.06 119.48 255.73 114.60 309.04 C 109.32 359.33 123.14 411.31 152.48 452.49 C 170.48 477.58 193.30 499.48 220.03 515.08 C 221.17 515.66 221.92 516.61 221.67 517.96 C 221.60 554.17 221.80 590.39 221.63 626.60 C 184.62 612.38 149.55 592.54 119.83 566.15 C 106.84 554.47 94.32 542.18 83.30 528.61 C 53.63 492.71 32.32 449.98 21.60 404.65 C 17.05 386.44 14.85 367.72 13.49 349.03 C 10.53 305.20 17.83 260.94 33.13 219.83 C 55.21 161.44 95.54 110.43 146.21 74.15 C 188.52 43.81 238.48 24.53 290.03 17.60 M 308.48 45.33 C 304.45 57.72 299.91 69.98 296.85 82.64 C 299.38 82.57 301.92 82.50 304.46 82.45 C 305.19 79.80 305.94 77.15 306.70 74.52 C 311.02 74.36 315.32 73.82 319.63 73.53 C 320.73 75.94 321.77 78.39 322.78 80.85 C 325.52 80.81 328.26 80.77 331.01 80.69 C 325.89 68.83 320.50 57.10 315.25 45.30 C 312.99 45.30 310.73 45.31 308.48 45.33 M 341.60 56.06 C 340.81 64.41 339.28 72.71 339.21 81.13 C 341.55 81.27 343.89 81.45 346.23 81.64 C 347.63 73.86 348.19 65.97 349.07 58.12 C 353.61 66.36 357.00 75.17 361.31 83.53 C 363.80 83.62 366.30 83.84 368.80 83.67 C 370.32 71.69 371.56 59.64 372.81 47.62 C 370.32 47.46 367.84 47.31 365.36 47.16 C 364.03 54.77 363.89 62.53 362.47 70.12 C 358.28 61.96 354.06 53.81 350.32 45.43 C 347.97 45.12 345.62 44.78 343.27 44.44 C 342.46 48.27 341.94 52.16 341.60 56.06 M 270.64 50.56 C 270.07 59.89 268.24 69.08 267.22 78.37 C 262.21 70.69 257.36 62.90 252.42 55.18 C 249.12 55.65 245.86 56.34 242.60 56.97 C 245.20 68.95 247.94 80.94 251.01 92.79 C 253.37 92.60 255.68 92.04 257.98 91.49 C 257.40 82.98 253.50 75.20 252.36 66.81 C 257.47 74.07 261.65 81.93 267.00 89.03 C 268.66 88.39 271.71 89.12 272.20 86.87 C 273.47 78.43 274.17 69.91 275.78 61.52 C 277.43 69.61 279.11 77.70 280.75 85.79 C 283.33 85.25 285.91 84.67 288.51 84.17 C 285.76 72.47 282.70 60.83 280.51 49.00 C 277.18 49.25 273.87 49.73 270.64 50.56 M 400.43 53.62 C 392.40 64.01 384.74 74.69 377.01 85.31 C 379.66 86.09 382.34 86.79 385.02 87.54 C 386.42 85.25 387.86 82.99 389.23 80.68 C 393.64 81.80 398.03 83.01 402.35 84.45 C 402.35 87.08 402.38 89.71 402.41 92.34 C 405.13 93.06 407.83 93.81 410.53 94.58 C 408.89 81.42 408.51 68.12 406.42 55.02 C 404.41 54.60 402.41 54.13 400.43 53.62 M 424.68 78.46 C 421.98 83.51 420.13 89.47 421.88 95.14 C 425.33 103.89 436.26 107.69 444.85 105.01 C 447.70 100.70 449.34 95.67 451.04 90.81 C 446.65 88.97 442.49 86.57 437.94 85.13 C 437.38 86.85 436.81 88.56 436.25 90.28 C 438.18 91.18 440.04 92.22 441.97 93.15 C 441.06 95.36 440.09 97.55 439.09 99.73 C 434.78 98.86 428.89 97.32 428.49 91.99 C 428.46 86.80 431.47 82.19 433.78 77.72 C 434.92 75.25 437.58 74.34 439.96 73.52 C 441.97 74.28 444.14 74.80 445.92 76.08 C 448.07 77.80 447.30 80.78 447.50 83.18 C 449.77 84.16 452.03 85.15 454.35 86.02 C 454.48 82.34 455.53 78.11 453.19 74.88 C 449.34 69.15 441.73 66.17 435.03 67.86 C 430.07 69.45 426.69 73.86 424.68 78.46 M 187.85 81.77 C 192.66 93.00 198.54 103.75 203.84 114.76 C 210.82 111.10 217.94 107.70 224.96 104.09 C 224.07 102.16 223.18 100.24 222.30 98.31 C 217.55 100.78 212.84 103.32 207.90 105.40 C 203.11 96.88 199.20 87.91 194.70 79.26 C 192.16 79.07 190.07 80.84 187.85 81.77 M 472.10 83.87 C 466.57 91.83 461.82 100.30 456.29 108.27 C 455.26 110.31 453.12 112.28 453.26 114.62 C 459.90 119.08 466.89 123.03 473.48 127.59 C 474.65 125.79 475.83 123.99 476.99 122.17 C 472.35 119.19 467.61 116.38 462.97 113.41 C 464.22 110.45 465.82 107.67 467.58 104.98 C 471.41 106.78 474.72 109.47 478.44 111.46 C 481.23 113.03 482.06 108.85 483.22 107.18 C 479.22 104.70 475.03 102.47 471.32 99.57 C 472.41 97.24 473.85 95.08 475.50 93.12 C 481.18 94.40 485.37 99.28 490.84 101.33 C 491.84 99.62 492.79 97.88 493.81 96.18 C 487.56 92.10 481.17 88.23 474.81 84.32 C 474.02 84.04 472.74 82.71 472.10 83.87 M 159.20 101.10 C 161.97 113.80 165.50 126.36 168.52 139.01 C 170.65 137.63 172.79 136.27 174.96 134.95 C 174.45 131.95 173.75 128.99 173.06 126.03 C 176.77 123.94 179.92 120.95 183.78 119.14 C 186.11 120.32 188.11 122.02 190.19 123.59 C 192.49 122.07 194.77 120.52 197.04 118.97 C 187.03 111.97 176.89 105.15 166.87 98.16 C 164.22 95.64 160.84 98.96 159.20 101.10 M 481.00 132.87 C 482.98 134.48 484.96 136.10 486.92 137.74 C 492.67 131.60 497.83 124.94 503.53 118.77 C 500.54 127.32 496.36 135.41 493.66 144.07 C 495.36 145.15 497.11 147.88 499.36 146.39 C 507.02 142.96 513.89 137.90 521.79 134.95 C 515.81 140.96 510.03 147.15 504.11 153.22 C 505.97 155.22 507.94 157.11 509.98 158.93 C 518.10 149.66 526.24 140.40 535.06 131.79 C 532.77 129.46 530.56 126.99 527.84 125.16 C 526.49 125.09 525.25 125.68 524.08 126.24 C 516.78 130.03 509.84 134.49 502.43 138.06 C 505.43 129.22 510.11 120.99 512.85 112.08 C 511.47 109.25 508.26 107.67 506.09 105.41 C 497.60 114.44 488.99 123.39 481.00 132.87 M 120.08 135.02 C 121.35 136.69 123.03 137.98 124.66 139.29 C 127.16 136.80 129.74 134.38 132.26 131.90 C 139.53 138.97 146.36 146.48 153.21 153.96 C 155.19 152.38 157.11 150.73 158.98 149.02 C 152.51 140.98 144.76 134.10 138.17 126.15 C 140.84 123.84 143.69 121.66 145.89 118.87 C 145.32 116.80 143.32 115.52 142.00 113.92 C 134.87 121.13 127.13 127.72 120.08 135.02 M 517.19 167.16 C 522.18 173.94 527.37 180.58 532.88 186.95 C 534.06 185.40 537.92 184.08 536.33 181.66 C 533.46 177.49 529.96 173.80 527.11 169.61 C 529.52 167.66 531.97 165.76 534.35 163.78 C 538.01 167.09 540.69 171.28 543.90 174.99 C 545.04 173.45 548.04 172.52 547.69 170.28 C 545.34 166.53 542.01 163.47 539.87 159.57 C 542.12 157.97 544.18 156.00 546.77 154.97 C 550.43 159.03 553.50 163.58 557.10 167.70 C 558.74 166.45 560.39 165.22 562.04 163.99 C 556.90 157.41 551.88 150.75 546.54 144.35 C 536.82 152.04 527.03 159.63 517.19 167.16 M 106.86 151.53 C 112.89 156.55 119.24 161.19 125.03 166.49 C 115.74 165.24 106.50 163.65 97.18 162.61 C 95.90 164.71 94.54 166.77 93.20 168.84 C 102.94 176.39 112.07 184.72 122.03 191.98 C 123.41 190.09 124.97 188.29 126.00 186.17 C 120.55 180.35 113.52 176.28 107.92 170.59 C 117.05 171.45 126.02 173.49 135.15 174.23 C 137.49 173.26 138.84 170.48 139.99 168.27 C 130.63 160.20 120.56 152.97 110.99 145.14 C 109.54 147.23 108.14 149.34 106.86 151.53 M 553.55 185.70 C 548.41 188.77 542.95 191.27 537.95 194.58 C 538.99 196.69 540.09 198.76 541.14 200.87 C 548.87 198.28 554.99 192.39 562.79 189.87 C 558.45 198.01 553.40 205.76 549.34 214.05 C 550.57 216.23 551.79 218.42 553.01 220.62 C 564.06 214.77 574.74 208.26 585.67 202.18 C 584.39 200.13 583.24 198.00 581.80 196.05 C 574.55 199.38 567.92 203.90 560.86 207.61 C 564.18 198.90 570.58 191.72 573.83 182.97 C 573.29 180.74 571.87 178.87 570.85 176.85 C 564.75 179.09 559.21 182.55 553.55 185.70 M 85.02 181.14 C 81.09 188.46 76.93 195.65 73.12 203.03 C 83.79 208.98 94.23 215.36 105.00 221.12 C 109.18 214.22 112.97 207.09 116.84 200.01 C 115.06 199.06 113.42 197.73 111.42 197.28 C 108.66 201.80 106.31 206.57 103.69 211.18 C 100.59 210.05 97.72 208.42 94.99 206.60 C 97.01 202.28 100.02 198.48 101.84 194.07 C 100.56 192.50 98.59 191.80 96.85 190.89 C 94.58 195.07 92.17 199.18 89.86 203.34 C 87.26 202.01 84.71 200.58 82.20 199.09 C 85.08 194.14 87.83 189.11 90.54 184.06 C 88.70 183.09 86.86 182.11 85.02 181.14 M 585.83 216.90 C 586.89 220.38 588.06 223.84 589.27 227.27 C 579.54 230.56 570.17 234.80 560.43 238.02 C 561.30 240.52 562.19 243.03 563.04 245.54 C 572.75 241.83 582.42 237.98 592.11 234.20 C 593.36 237.68 594.66 241.15 595.88 244.64 C 597.82 243.80 599.90 243.34 601.86 242.52 C 598.28 233.45 595.12 224.23 591.62 215.13 C 589.68 215.72 587.75 216.29 585.83 216.90 M 65.38 219.03 C 64.36 222.00 63.40 224.99 62.45 227.99 C 69.81 233.63 76.59 239.97 83.90 245.67 C 74.53 245.63 65.17 245.43 55.80 245.50 C 54.93 248.60 53.97 251.69 53.09 254.80 C 64.53 258.90 75.91 263.19 87.18 267.75 C 87.99 265.37 88.82 263.00 89.69 260.64 C 81.75 257.51 73.78 254.47 65.73 251.63 C 74.68 251.68 83.69 251.15 92.57 252.50 C 93.11 250.48 94.90 247.85 92.98 246.10 C 87.25 239.67 79.68 235.23 73.83 228.93 C 81.73 232.05 89.47 235.58 97.41 238.60 C 98.30 236.16 99.33 233.76 99.79 231.19 C 95.90 229.11 91.54 228.16 87.41 226.70 C 80.07 224.14 72.86 221.18 65.38 219.03 M 48.40 272.11 C 47.92 274.56 47.49 277.02 47.10 279.49 C 54.61 280.68 62.13 281.82 69.58 283.36 C 61.68 288.06 52.96 291.13 44.60 294.88 C 44.25 297.32 43.88 299.76 43.50 302.21 C 55.80 303.46 67.94 306.14 80.30 306.78 C 80.46 304.45 80.64 302.12 80.81 299.80 C 73.29 298.72 65.75 297.84 58.18 297.19 C 58.30 296.88 58.54 296.27 58.65 295.96 C 66.88 292.42 75.21 289.12 83.36 285.41 C 83.78 283.08 84.24 280.76 84.70 278.45 C 72.64 276.14 60.60 273.55 48.40 272.11 M 594.17 281.15 C 590.99 285.44 591.22 290.99 589.66 295.87 C 588.95 298.33 586.02 299.31 583.79 298.32 C 581.00 296.15 580.87 292.22 581.48 289.05 C 581.94 286.97 584.16 286.14 585.75 285.07 C 585.57 282.70 585.38 280.33 585.21 277.96 C 580.14 278.83 575.91 282.88 574.85 287.92 C 573.81 293.64 575.25 300.23 579.83 304.13 C 583.86 307.39 590.79 307.43 594.06 303.03 C 597.42 298.64 597.65 292.95 598.87 287.79 C 599.29 285.72 601.55 285.17 603.12 284.23 C 604.18 285.28 605.50 286.16 606.28 287.47 C 606.95 289.72 606.66 292.12 606.65 294.43 C 605.22 295.37 603.80 296.29 602.36 297.19 C 602.66 299.50 603.06 301.81 603.48 304.11 C 607.01 302.73 610.82 300.91 612.35 297.18 C 614.88 290.95 613.35 282.52 607.49 278.68 C 603.29 276.26 596.91 276.74 594.17 281.15 M 592.95 325.44 C 588.18 326.22 583.31 325.75 578.50 325.84 C 578.40 328.46 578.35 331.09 578.33 333.72 C 584.41 334.23 591.08 332.20 596.60 335.57 C 602.96 339.01 609.18 342.71 615.66 345.95 C 615.73 343.10 615.77 340.25 615.79 337.40 C 610.53 335.02 605.30 332.58 600.25 329.79 C 605.25 326.92 610.57 324.68 615.68 322.00 C 615.75 319.23 615.77 316.45 615.75 313.68 C 607.74 316.80 600.88 322.21 592.95 325.44 M 55.62 318.02 C 52.13 318.47 48.53 319.50 45.98 322.05 C 41.22 326.50 40.57 333.97 42.78 339.83 C 45.03 344.97 50.41 348.15 55.90 348.53 C 61.46 348.89 67.41 349.21 72.57 346.70 C 82.22 341.89 83.02 325.83 73.63 320.34 C 68.12 317.56 61.64 317.29 55.62 318.02 M 580.07 356.13 C 575.29 360.21 574.49 367.09 575.41 372.97 C 576.59 379.44 584.64 383.64 590.50 380.42 C 594.13 378.04 596.48 374.19 598.25 370.32 C 599.34 368.11 600.41 365.38 602.96 364.52 C 607.29 364.12 608.45 369.86 606.74 372.92 C 605.85 375.63 602.79 376.02 600.43 376.64 C 600.06 379.00 599.75 381.36 599.45 383.73 C 603.09 383.19 607.17 382.77 609.84 379.90 C 613.57 375.83 614.49 369.75 613.18 364.52 C 611.62 358.83 604.40 354.64 599.01 357.96 C 593.21 361.19 592.04 368.35 587.85 372.96 C 584.63 375.36 580.77 371.37 581.51 367.97 C 581.15 363.49 584.97 360.21 589.22 360.06 C 589.41 357.67 589.58 355.29 589.74 352.91 C 586.32 353.20 582.73 353.76 580.07 356.13 M 66.85 365.78 C 64.02 364.38 61.46 361.86 58.04 362.24 C 53.25 361.77 47.96 364.51 46.59 369.32 C 45.25 376.59 47.78 383.77 48.74 390.93 C 60.84 389.03 72.85 386.59 84.89 384.32 C 84.71 381.93 84.53 379.54 84.33 377.16 C 79.69 377.51 75.11 378.40 70.48 378.97 C 70.12 376.85 69.74 374.74 69.36 372.63 C 73.08 369.38 77.69 367.48 81.60 364.54 C 82.04 361.98 81.36 359.39 81.18 356.85 C 75.92 358.99 71.39 362.45 66.85 365.78 M 53.01 406.90 C 53.64 409.25 54.25 411.60 54.87 413.95 C 67.12 411.59 78.49 406.04 90.60 403.08 C 89.84 400.63 89.07 398.19 88.30 395.75 C 76.41 399.04 64.82 403.33 53.01 406.90 M 602.11 396.05 C 601.29 399.39 600.36 402.71 599.41 406.01 C 589.02 403.82 579.24 399.37 568.88 397.14 C 568.33 399.54 567.74 401.94 567.18 404.34 C 576.95 407.91 587.08 410.33 596.87 413.82 C 595.62 417.32 594.50 420.87 593.40 424.43 C 595.58 425.00 597.78 425.51 600.01 425.89 C 603.08 416.41 606.06 406.90 608.86 397.33 C 606.63 396.75 604.37 396.35 602.11 396.05 M 560.09 422.94 C 557.09 430.42 553.11 437.44 550.02 444.88 C 551.98 445.78 553.95 446.68 555.92 447.60 C 558.06 442.70 560.44 437.91 562.58 433.02 C 565.71 434.10 568.73 435.47 571.70 436.97 C 569.78 441.45 567.70 445.86 565.44 450.18 C 567.12 451.12 568.82 452.04 570.52 452.96 C 572.98 448.71 575.26 444.37 577.46 439.98 C 580.25 441.05 582.95 442.32 585.60 443.73 C 582.90 448.71 580.17 453.71 578.13 459.01 C 579.85 459.93 581.56 460.89 583.26 461.86 C 587.43 454.60 590.98 446.99 594.25 439.30 C 582.87 433.84 571.66 427.98 560.09 422.94 M 59.23 426.60 C 60.21 428.95 61.17 431.30 62.07 433.68 C 70.98 433.73 79.78 432.06 88.70 432.18 C 82.00 438.06 75.52 444.20 69.36 450.64 C 70.69 453.02 71.95 455.45 73.14 457.91 C 82.14 448.50 91.54 439.48 100.78 430.31 C 99.85 428.25 98.93 426.19 98.03 424.12 C 85.07 424.44 72.18 426.05 59.23 426.60 M 80.06 469.81 C 81.39 471.85 82.72 473.90 84.00 475.97 C 91.42 472.08 97.86 466.62 105.03 462.33 C 101.31 471.28 95.95 479.57 93.12 488.87 C 94.10 491.06 95.57 492.99 96.85 495.02 C 104.25 490.92 110.87 485.58 117.96 480.98 C 121.29 478.67 124.98 476.85 127.98 474.08 C 126.82 471.90 125.28 469.95 123.85 467.95 C 116.86 472.29 110.41 477.45 103.25 481.53 C 105.90 476.10 108.30 470.56 111.08 465.20 C 112.54 461.96 114.29 458.74 114.82 455.18 C 113.86 453.04 112.38 451.19 111.09 449.25 C 100.67 455.98 90.34 462.86 80.06 469.81 M 545.29 453.32 C 543.97 455.35 542.62 457.37 541.24 459.37 C 547.37 464.73 554.61 468.59 560.85 473.82 C 552.52 472.03 544.73 468.21 536.26 467.02 C 535.32 468.38 534.38 469.75 533.44 471.11 C 538.22 478.45 543.46 485.51 547.71 493.18 C 541.03 488.23 534.60 482.93 527.82 478.11 C 526.28 480.09 524.77 482.09 523.26 484.10 C 533.40 491.57 543.24 499.49 553.80 506.35 C 555.42 503.94 557.09 501.57 558.75 499.19 C 554.16 490.96 548.35 483.50 543.84 475.23 C 552.67 477.57 561.36 480.49 570.25 482.58 C 572.42 480.59 573.88 478.01 575.67 475.71 C 565.55 468.25 555.78 460.27 545.29 453.32 M 130.02 486.13 C 133.17 490.83 137.34 494.76 140.99 499.07 C 138.64 501.35 136.28 503.63 133.90 505.89 C 130.65 502.49 127.91 498.61 124.42 495.44 C 122.10 494.67 120.78 497.72 119.08 498.82 C 122.44 502.44 125.69 506.15 128.93 509.88 C 126.82 511.79 124.76 513.77 122.77 515.81 C 118.81 511.59 115.19 507.05 111.07 502.99 C 109.48 504.36 107.89 505.72 106.29 507.07 C 111.58 513.63 117.59 519.54 123.01 525.99 C 132.23 517.50 141.80 509.43 151.16 501.12 C 145.67 494.55 140.02 488.11 134.08 481.94 C 132.70 483.30 131.26 484.62 130.02 486.13 Z" />
<path fill="#56ab51" opacity="1.00" d=" M 309.05 67.63 C 309.83 63.30 310.89 59.02 312.20 54.82 C 314.08 58.90 315.67 63.12 316.99 67.42 C 314.34 67.50 311.69 67.56 309.05 67.63 Z" />
<path fill="#56ab51" opacity="1.00" d=" M 393.34 75.18 C 395.94 71.40 398.20 67.39 401.08 63.81 C 401.41 68.20 401.50 72.60 401.50 77.00 C 398.77 76.43 396.05 75.80 393.34 75.18 Z" />
<path fill="#56ab51" opacity="1.00" d=" M 167.26 106.83 C 170.67 109.70 175.26 111.61 177.73 115.36 C 175.54 117.06 173.14 118.45 170.79 119.90 C 169.76 115.50 168.64 111.13 167.26 106.83 Z" />
<path fill="#56ab51" opacity="1.00" d=" M 265.64 252.20 C 265.52 231.68 265.57 211.17 265.61 190.66 C 265.71 210.99 265.60 231.31 265.67 251.64 C 269.89 251.68 274.10 251.71 278.32 251.88 C 274.11 252.35 269.86 252.21 265.64 252.20 Z" />
<path fill="#56ab51" opacity="1.00" d=" M 542.14 292.07 C 545.49 292.17 540.63 295.04 542.14 292.07 Z" />
<path fill="#56ab51" opacity="1.00" d=" M 52.47 326.64 C 57.96 325.07 64.04 324.99 69.49 326.76 C 74.60 328.72 75.14 336.61 70.47 339.35 C 65.03 342.05 58.56 341.50 52.86 339.98 C 46.91 338.41 46.62 328.56 52.47 326.64 Z" />
<path fill="#56ab51" opacity="1.00" d=" M 52.27 372.64 C 54.36 370.58 57.78 368.57 60.59 370.45 C 63.89 372.62 63.26 377.11 63.84 380.51 C 60.44 381.18 57.02 381.81 53.64 382.59 C 53.01 379.29 52.52 375.98 52.27 372.64 Z" />
<path fill="#56ab51" opacity="1.00" d=" M 268.25 412.28 C 270.58 411.81 270.01 408.90 270.65 407.18 C 270.96 409.36 271.01 411.56 271.22 413.76 C 265.43 412.88 259.58 413.40 253.76 413.10 C 252.49 416.05 252.47 419.39 252.80 422.54 C 252.67 422.54 252.41 422.54 252.28 422.54 C 252.03 419.15 251.99 415.76 251.97 412.37 C 257.37 412.68 262.90 413.30 268.25 412.28 Z" />
<path fill="#56ab51" opacity="1.00" d=" M 250.42 456.49 C 252.53 455.70 254.79 455.54 257.02 455.54 C 307.02 455.65 357.02 455.52 407.01 455.59 C 414.01 455.65 420.55 460.47 422.97 466.99 C 425.03 473.11 423.74 479.66 423.86 485.97 C 423.89 533.66 423.77 581.35 423.88 629.05 C 424.28 637.83 416.92 646.28 408.04 646.55 C 357.35 646.55 306.65 646.54 255.96 646.54 C 250.88 646.67 245.95 644.15 242.65 640.37 C 239.27 636.41 238.46 631.00 238.58 625.96 C 238.64 574.96 238.51 523.95 238.58 472.95 C 238.51 465.70 243.44 458.62 250.42 456.49 M 307.65 569.76 C 297.41 559.60 287.18 549.41 276.93 539.25 C 270.17 545.99 263.42 552.74 256.62 559.45 C 273.58 576.52 290.65 593.50 307.70 610.50 C 340.19 577.99 372.74 545.53 405.22 513.00 C 398.47 506.23 391.66 499.52 384.91 492.75 C 359.08 518.34 333.41 544.10 307.65 569.76 Z" />
</g>
<g id="#30343bff">
<path fill="#30343b" opacity="1.00" d=" M 294.48 194.60 C 301.20 188.87 310.79 188.86 319.05 190.09 C 327.79 191.19 335.30 199.06 334.91 208.06 C 330.83 208.30 326.76 208.69 322.68 208.86 C 321.84 205.66 320.53 202.14 317.23 200.76 C 312.64 198.95 307.00 199.23 302.90 202.11 C 300.08 203.96 300.63 208.94 303.67 210.32 C 312.44 214.78 323.40 214.22 331.13 220.81 C 336.47 225.11 337.61 232.68 336.13 239.05 C 334.43 246.10 327.95 251.35 320.89 252.43 C 312.97 253.75 304.26 253.85 297.00 249.99 C 290.59 246.62 287.63 239.45 286.46 232.67 C 290.54 232.15 294.62 231.59 298.73 231.38 C 299.68 235.66 301.83 240.28 306.27 241.85 C 311.25 243.69 317.66 243.48 321.75 239.75 C 324.93 237.08 324.86 230.98 320.77 229.21 C 312.22 225.53 302.00 225.46 294.57 219.32 C 287.27 213.26 287.22 200.70 294.48 194.60 Z" />
<path fill="#30343b" opacity="1.00" d=" M 368.95 189.75 C 377.66 188.71 387.27 190.04 394.00 196.11 C 400.45 201.46 403.44 209.89 403.98 218.05 C 404.83 228.45 402.09 240.06 393.71 246.94 C 386.66 253.01 376.67 254.12 367.79 252.67 C 359.52 251.57 352.08 246.14 348.29 238.74 C 344.22 230.56 343.79 220.97 345.47 212.12 C 347.57 200.73 357.10 190.66 368.95 189.75 M 368.53 200.74 C 362.50 202.85 358.80 208.80 358.06 214.95 C 356.87 222.99 357.31 232.55 363.47 238.60 C 369.44 244.62 380.26 244.28 385.92 238.00 C 390.52 232.84 391.22 225.49 390.98 218.88 C 390.63 213.69 389.63 207.96 385.66 204.23 C 381.26 199.87 374.29 198.43 368.53 200.74 Z" />
<path fill="#30343b" opacity="1.00" d=" M 265.61 190.66 C 269.84 190.65 274.07 190.65 278.30 190.67 C 278.33 211.07 278.29 231.48 278.32 251.88 C 274.10 251.71 269.89 251.68 265.67 251.64 C 265.60 231.31 265.71 210.99 265.61 190.66 Z" />
<path fill="#30343b" opacity="1.00" d=" M 323.05 273.39 C 333.48 271.81 345.22 272.43 353.92 279.07 C 361.49 284.91 364.94 294.66 365.25 303.98 C 365.40 315.32 365.24 326.67 365.34 338.01 C 365.45 341.72 364.71 345.38 364.25 349.04 C 362.16 356.82 357.26 364.25 349.77 367.69 C 341.05 372.29 330.64 372.58 321.18 370.54 C 312.14 368.56 303.79 362.47 300.51 353.62 C 297.83 347.79 298.36 341.27 298.17 335.03 C 297.38 326.70 297.89 318.33 297.76 309.98 C 297.91 302.48 297.85 294.54 301.64 287.80 C 305.65 279.64 314.19 274.53 323.05 273.39 M 321.91 292.92 C 316.94 297.61 318.59 304.94 318.07 311.02 C 317.39 317.00 318.15 322.99 318.21 328.97 C 318.90 336.30 316.10 345.24 321.82 351.12 C 325.32 355.20 331.25 355.23 336.12 354.34 C 340.17 353.26 342.86 349.76 344.38 346.04 C 345.11 331.72 344.65 317.36 344.70 303.03 C 344.86 297.25 341.35 291.01 335.39 289.77 C 330.76 289.07 325.26 289.09 321.91 292.92 Z" />
<path fill="#30343b" opacity="1.00" d=" M 401.36 273.62 C 410.93 271.68 421.44 272.16 430.21 276.80 C 437.18 280.46 441.73 287.57 443.58 295.08 C 445.11 300.25 444.79 305.69 444.82 311.02 C 444.74 321.03 444.88 331.03 444.76 341.04 C 444.70 350.43 440.69 360.26 432.86 365.79 C 426.99 369.58 420.03 371.87 412.99 371.67 C 403.63 372.08 393.75 369.65 386.63 363.30 C 380.36 357.34 377.64 348.46 377.57 339.98 C 377.56 327.99 377.57 316.01 377.56 304.02 C 377.51 295.98 379.93 287.53 385.66 281.67 C 389.87 277.38 395.59 274.98 401.36 273.62 M 397.73 302.01 C 397.42 314.67 397.73 327.34 397.62 340.01 C 397.44 344.31 398.98 348.76 402.19 351.71 C 405.86 355.25 411.39 355.22 416.09 354.28 C 421.59 352.52 424.82 346.61 424.62 341.03 C 424.70 328.70 424.65 316.37 424.58 304.04 C 424.64 299.06 422.86 293.37 418.17 290.92 C 414.74 288.88 410.63 289.52 406.84 289.58 C 401.61 291.48 397.92 296.43 397.73 302.01 Z" />
<path fill="#30343b" opacity="1.00" d=" M 166.51 279.75 C 172.32 277.98 178.17 276.40 183.97 274.61 C 190.14 273.84 196.40 274.55 202.61 274.32 C 202.64 306.25 202.58 338.18 202.60 370.11 C 195.92 370.09 189.23 370.12 182.55 370.12 C 182.49 343.96 182.66 317.80 182.58 291.64 C 177.31 293.06 171.97 294.17 166.59 295.04 C 166.55 289.94 166.54 284.85 166.51 279.75 Z" />
<path fill="#30343b" opacity="1.00" d=" M 453.29 279.78 C 459.16 278.06 465.02 276.28 470.88 274.53 C 477.00 273.88 483.19 274.38 489.35 274.32 C 489.38 306.14 489.31 337.97 489.38 369.79 C 482.49 369.85 475.60 369.85 468.72 369.74 C 469.00 351.17 468.24 332.56 469.24 314.01 C 469.24 306.72 469.20 299.43 469.29 292.13 C 463.86 292.45 458.68 294.30 453.31 295.00 C 453.25 289.93 453.25 284.85 453.29 279.78 Z" />
<path fill="#30343b" opacity="1.00" d=" M 239.76 278.47 C 246.73 278.57 253.71 278.38 260.69 278.49 C 252.88 296.66 244.69 314.65 236.35 332.58 C 243.69 332.57 251.04 332.56 258.38 332.54 C 258.33 323.22 258.46 313.89 258.30 304.57 C 264.99 304.68 271.69 304.55 278.39 304.60 C 278.36 313.93 278.43 323.26 278.37 332.59 C 281.06 332.58 283.75 332.58 286.45 332.58 C 286.49 338.27 286.46 343.96 286.49 349.65 C 283.76 349.67 281.04 349.66 278.32 349.63 C 278.38 356.35 278.38 363.07 278.41 369.79 C 271.74 370.30 265.05 369.84 258.37 370.10 C 258.24 363.29 258.36 356.49 258.31 349.68 C 243.64 349.70 228.96 349.69 214.29 349.69 C 214.52 344.58 213.87 339.42 214.55 334.35 C 222.96 315.73 231.60 297.21 239.76 278.47 Z" />
<path fill="#30343b" opacity="1.00" d=" M 208.97 398.83 C 213.51 390.84 225.02 388.88 232.60 393.52 C 235.86 395.53 237.37 399.18 238.73 402.58 C 236.32 403.10 233.90 403.53 231.49 403.99 C 230.05 401.28 228.25 398.13 224.94 397.56 C 220.20 396.52 215.25 400.15 214.61 404.91 C 213.91 409.49 213.73 414.50 215.88 418.75 C 218.08 422.24 223.07 423.72 226.75 421.75 C 229.51 420.58 230.42 417.48 231.64 415.02 C 233.99 415.61 236.34 416.22 238.68 416.84 C 237.39 422.32 233.54 427.35 227.87 428.66 C 219.58 431.23 209.84 426.26 207.32 417.91 C 205.61 411.69 205.77 404.56 208.97 398.83 Z" />
<path fill="#30343b" opacity="1.00" d=" M 244.72 391.78 C 253.88 391.74 263.04 391.77 272.20 391.76 C 272.19 393.87 272.19 395.98 272.20 398.09 C 265.60 398.10 259.01 398.07 252.42 398.11 C 252.43 400.91 252.43 403.71 252.43 406.51 C 258.53 406.62 264.65 406.24 270.74 406.75 L 270.65 407.18 C 270.01 408.90 270.58 411.81 268.25 412.28 C 262.90 413.30 257.37 412.68 251.97 412.37 C 251.99 415.76 252.03 419.15 252.28 422.54 C 252.41 422.54 252.67 422.54 252.80 422.54 C 259.49 422.60 266.18 422.56 272.87 422.58 C 272.85 424.79 272.82 427.01 272.79 429.23 C 263.44 429.23 254.08 429.25 244.73 429.22 C 244.70 416.74 244.71 404.26 244.72 391.78 Z" />
<path fill="#30343b" opacity="1.00" d=" M 278.97 391.76 C 286.31 391.98 293.71 391.29 301.02 392.15 C 308.32 392.53 311.83 402.24 307.90 407.89 C 306.26 410.71 303.16 412.08 300.12 412.79 C 305.95 416.72 308.77 423.43 312.32 429.24 C 309.40 429.23 306.47 429.23 303.55 429.28 C 300.16 424.71 297.54 419.56 293.72 415.33 C 291.99 413.27 289.10 413.67 286.72 413.44 C 286.69 418.71 286.78 423.99 286.63 429.26 C 284.11 429.24 281.59 429.23 279.07 429.24 C 278.81 416.75 278.99 404.25 278.97 391.76 M 286.71 398.11 C 286.71 401.13 286.71 404.16 286.70 407.18 C 290.77 407.04 294.95 407.69 298.92 406.60 C 302.34 405.61 302.66 399.96 299.22 398.79 C 295.24 397.38 290.85 398.36 286.71 398.11 Z" />
<path fill="#30343b" opacity="1.00" d=" M 314.37 397.98 C 314.40 395.90 314.42 393.83 314.46 391.75 C 324.22 391.78 333.98 391.74 343.74 391.77 C 343.73 393.87 343.73 395.98 343.74 398.08 C 340.08 398.09 336.43 398.08 332.77 398.13 C 332.77 408.49 332.79 418.85 332.76 429.21 C 330.31 429.22 327.87 429.24 325.43 429.26 C 325.31 418.87 325.41 408.48 325.37 398.09 C 321.70 398.09 318.03 398.12 314.37 397.98 Z" />
<path fill="#30343b" opacity="1.00" d=" M 347.56 391.77 C 350.16 391.76 352.76 391.76 355.36 391.76 C 355.37 404.25 355.39 416.74 355.35 429.24 C 352.76 429.23 350.17 429.23 347.58 429.23 C 347.53 416.74 347.56 404.26 347.56 391.77 Z" />
<path fill="#30343b" opacity="1.00" d=" M 362.16 391.76 C 370.63 391.76 379.11 391.78 387.58 391.75 C 387.60 393.85 387.61 395.96 387.63 398.07 C 381.69 398.10 375.75 398.09 369.81 398.08 C 369.80 400.89 369.80 403.70 369.80 406.51 C 374.94 406.51 380.09 406.47 385.24 406.55 C 385.24 408.60 385.25 410.65 385.29 412.71 C 380.20 413.45 375.05 413.12 369.93 413.17 C 369.92 418.52 369.95 423.88 369.89 429.24 C 367.32 429.23 364.75 429.23 362.19 429.24 C 362.12 416.75 362.16 404.25 362.16 391.76 Z" />
<path fill="#30343b" opacity="1.00" d=" M 393.35 429.22 C 393.31 416.72 393.28 404.23 393.36 391.74 C 395.96 391.75 398.57 391.76 401.17 391.79 C 401.00 404.28 401.55 416.79 400.87 429.26 C 398.36 429.24 395.85 429.23 393.35 429.22 Z" />
<path fill="#30343b" opacity="1.00" d=" M 407.74 391.77 C 416.78 391.75 425.81 391.77 434.84 391.76 C 434.85 393.87 434.85 395.98 434.86 398.09 C 428.33 398.09 421.81 398.09 415.28 398.09 C 415.28 400.90 415.29 403.72 415.32 406.53 C 421.42 406.48 427.53 406.51 433.64 406.51 C 433.62 408.71 433.59 410.91 433.56 413.12 C 427.47 413.22 421.37 413.17 415.28 413.17 C 415.29 416.31 415.29 419.45 415.31 422.60 C 422.14 422.55 428.96 422.59 435.79 422.57 C 435.75 424.80 435.69 427.03 435.64 429.27 C 426.35 429.19 417.05 429.26 407.75 429.23 C 407.73 416.74 407.74 404.26 407.74 391.77 Z" />
<path fill="#30343b" opacity="1.00" d=" M 441.79 391.77 C 447.89 391.87 454.00 391.52 460.09 391.93 C 466.07 392.21 470.84 397.32 472.16 402.92 C 473.57 408.87 473.53 415.38 471.04 421.04 C 468.94 425.69 464.16 428.79 459.10 429.13 C 453.34 429.42 447.56 429.15 441.80 429.22 C 441.78 416.74 441.79 404.26 441.79 391.77 M 449.58 398.08 C 449.58 406.24 449.59 414.40 449.57 422.56 C 453.53 422.35 457.82 423.32 461.51 421.46 C 464.67 419.51 464.89 415.31 465.18 412.00 C 465.21 407.91 465.36 403.00 462.05 400.04 C 458.46 397.42 453.74 398.22 449.58 398.08 Z" />
</g>
</svg>
