<?xml version="1.0" encoding="UTF-8" ?>
<!DOCTYPE svg PUBLIC "-//W3C//DTD SVG 1.1//EN" "http://www.w3.org/Graphics/SVG/1.1/DTD/svg11.dtd">
<svg width="840pt" height="845pt" viewBox="0 0 840 845" version="1.1" xmlns="http://www.w3.org/2000/svg">
<g id="#039d9dff">
<path fill="#039d9d" opacity="1.00" d=" M 252.09 52.14 C 306.90 26.69 367.57 13.57 428.03 15.18 C 454.31 15.05 480.50 18.56 506.21 23.87 C 548.68 32.94 589.86 48.55 627.21 70.80 C 692.17 109.07 747.06 164.98 782.07 231.93 C 807.09 279.19 821.70 331.71 825.93 384.95 C 826.74 399.60 827.98 414.33 826.48 428.98 C 826.07 456.28 822.37 483.53 815.75 510.02 C 806.85 545.86 793.08 580.52 774.48 612.44 C 743.52 665.42 700.77 711.63 649.58 745.59 C 622.77 763.64 593.92 778.74 563.56 789.86 C 563.41 743.85 563.41 697.85 563.59 651.85 C 638.75 608.46 691.24 527.70 699.06 441.12 C 700.46 427.67 701.23 414.10 700.21 400.59 C 699.53 395.76 699.42 390.88 699.07 386.03 C 694.65 342.03 678.92 299.35 654.46 262.57 C 632.98 230.06 604.39 202.36 571.53 181.46 C 535.38 158.35 493.77 143.93 451.09 139.64 C 406.08 135.03 359.93 141.29 317.90 158.10 C 274.70 175.28 236.11 203.69 206.53 239.53 C 173.66 279.01 151.76 327.78 145.44 378.86 C 140.99 413.53 143.17 449.04 151.74 482.93 C 162.87 526.03 184.87 566.21 214.89 599.05 C 233.86 619.42 255.15 638.00 279.45 651.76 C 279.71 697.54 279.60 743.32 279.61 789.10 C 243.83 776.35 210.26 757.77 179.69 735.28 C 146.21 710.87 116.71 681.09 92.26 647.65 C 69.13 615.86 50.22 580.85 37.65 543.55 C 31.80 526.47 27.21 508.97 23.73 491.26 C 20.40 476.35 19.28 461.07 17.38 445.93 C 16.78 441.30 16.88 436.63 16.72 431.98 C 16.34 415.34 15.83 398.63 17.83 382.07 C 20.88 345.24 29.13 308.85 42.24 274.30 C 66.04 212.50 105.78 157.05 156.01 113.98 C 185.07 89.18 217.42 68.21 252.09 52.14 M 399.69 56.65 C 400.74 67.39 401.30 78.19 402.72 88.89 C 395.02 78.59 386.91 68.61 379.04 58.44 C 375.27 58.75 371.51 59.07 367.75 59.42 C 369.10 74.91 370.42 90.40 371.79 105.89 C 375.07 105.61 378.37 105.33 381.66 105.04 C 380.61 93.97 379.99 82.85 378.55 71.82 C 386.47 82.46 394.91 92.71 403.05 103.19 C 406.56 102.89 410.08 102.58 413.60 102.27 C 412.23 86.76 411.02 71.24 409.51 55.75 C 406.23 56.08 402.96 56.37 399.69 56.65 M 419.38 102.06 C 423.16 102.35 426.94 102.63 430.73 102.90 C 432.08 99.53 433.42 96.16 434.78 92.80 C 440.33 93.26 445.91 93.49 451.44 94.14 C 452.15 97.65 453.03 101.13 453.88 104.61 C 457.68 104.90 461.48 105.18 465.29 105.44 C 460.93 89.53 456.56 73.62 452.18 57.70 C 448.04 57.39 443.90 57.09 439.76 56.79 C 432.95 71.87 426.16 86.97 419.38 102.06 M 475.57 77.56 C 472.66 83.66 471.46 90.88 473.48 97.44 C 475.40 103.56 480.49 108.29 486.39 110.57 C 493.58 113.31 501.62 114.20 509.12 112.25 C 510.87 104.61 512.62 96.98 514.37 89.35 C 507.94 87.79 501.47 86.38 495.02 84.90 C 494.38 87.63 493.76 90.35 493.15 93.08 C 496.18 93.75 499.21 94.43 502.24 95.15 C 501.57 98.17 500.86 101.17 500.17 104.18 C 493.92 104.76 486.59 102.06 484.37 95.71 C 482.01 87.68 485.47 76.96 494.06 74.30 C 501.19 72.46 508.73 75.61 514.27 80.07 C 514.98 76.87 515.72 73.68 516.47 70.49 C 510.31 66.85 503.20 64.65 496.03 64.73 C 487.53 64.78 479.25 69.87 475.57 77.56 M 326.34 68.56 C 324.63 85.02 322.96 101.49 321.25 117.95 C 324.93 117.04 328.61 116.11 332.29 115.18 C 332.52 111.56 332.73 107.93 332.96 104.31 C 338.33 102.97 343.69 101.60 349.06 100.27 C 350.98 103.35 352.88 106.44 354.82 109.51 C 358.51 108.59 362.21 107.65 365.91 106.73 C 356.76 92.98 347.60 79.24 338.40 65.52 C 334.39 66.54 330.36 67.55 326.34 68.56 M 533.40 74.67 C 527.96 89.24 522.45 103.78 517.04 118.36 C 525.77 121.62 534.51 124.87 543.23 128.16 C 544.23 125.51 545.23 122.85 546.22 120.19 C 540.78 118.13 535.32 116.11 529.88 114.05 C 531.10 110.72 532.35 107.40 533.60 104.07 C 538.38 105.82 543.13 107.64 547.90 109.41 C 548.91 106.75 549.91 104.09 550.89 101.42 C 546.12 99.65 541.36 97.87 536.61 96.08 C 537.81 92.83 539.03 89.60 540.25 86.37 C 545.39 88.23 550.48 90.24 555.62 92.11 C 556.61 89.44 557.61 86.77 558.62 84.10 C 550.21 80.96 541.81 77.78 533.40 74.67 M 282.85 83.21 C 284.15 95.29 284.61 107.48 286.64 119.46 C 279.21 109.85 270.21 101.59 262.06 92.60 C 257.41 94.74 252.72 96.80 248.06 98.94 C 254.44 113.11 260.87 127.27 267.27 141.44 C 270.15 140.17 273.03 138.88 275.90 137.57 C 270.64 125.89 265.47 114.16 259.79 102.68 C 261.62 105.02 263.29 107.49 265.36 109.64 C 272.68 117.22 279.97 124.82 287.27 132.41 C 289.89 131.25 292.49 130.07 295.09 128.87 C 293.59 115.53 293.20 102.05 290.82 88.83 C 295.55 100.68 301.09 112.18 306.30 123.82 C 309.46 122.41 312.61 120.98 315.74 119.52 C 309.31 105.37 302.92 91.21 296.52 77.05 C 291.95 79.07 287.40 81.15 282.85 83.21 M 550.46 130.58 C 553.19 132.16 555.94 133.73 558.69 135.27 C 565.01 124.14 571.53 113.12 577.43 101.76 C 573.52 114.69 572.25 128.23 569.51 141.44 C 571.99 142.88 574.48 144.30 576.98 145.71 C 586.99 136.66 597.62 128.28 607.08 118.64 C 600.00 129.33 594.12 140.74 587.65 151.79 C 590.66 153.50 593.65 155.23 596.67 156.93 C 604.36 143.41 612.10 129.92 619.79 116.40 C 615.45 113.93 611.11 111.48 606.80 108.98 C 597.79 117.00 588.39 124.59 579.83 133.07 C 582.90 121.41 584.66 109.43 586.90 97.59 C 582.43 95.14 578.03 92.57 573.60 90.06 C 565.87 103.56 558.18 117.08 550.46 130.58 M 210.03 123.92 C 212.06 131.33 213.23 139.00 215.97 146.19 C 209.89 141.49 202.79 138.36 196.20 134.45 C 193.02 136.88 189.87 139.33 186.66 141.71 C 196.10 146.47 205.56 151.19 215.03 155.91 C 216.11 156.42 217.11 157.12 217.81 158.12 C 220.78 162.03 223.76 165.94 226.74 169.85 C 229.54 167.75 232.31 165.62 235.09 163.50 C 232.17 159.57 229.17 155.72 226.19 151.84 C 225.41 150.90 224.89 149.79 224.70 148.59 C 222.79 138.11 220.83 127.64 218.88 117.17 C 215.92 119.40 212.98 121.67 210.03 123.92 M 604.87 163.88 C 612.14 169.72 619.36 175.64 626.68 181.42 C 628.45 179.21 630.22 177.01 632.00 174.80 C 627.47 171.13 622.92 167.50 618.39 163.84 C 620.62 161.08 622.85 158.31 625.08 155.55 C 629.07 158.70 632.99 161.94 636.99 165.08 C 638.78 162.88 640.57 160.67 642.32 158.43 C 638.35 155.27 634.39 152.09 630.45 148.88 C 632.61 146.19 634.77 143.50 636.96 140.83 C 641.22 144.24 645.47 147.67 649.73 151.09 C 651.53 148.88 653.32 146.66 655.09 144.42 C 648.11 138.79 641.13 133.18 634.14 127.57 C 624.37 139.66 614.62 151.77 604.87 163.88 M 155.08 172.42 C 157.07 174.47 159.07 176.51 161.10 178.52 C 164.25 175.43 167.37 172.32 170.53 169.24 C 179.46 178.26 188.38 187.31 197.32 196.32 C 199.81 193.85 202.32 191.39 204.81 188.92 C 195.89 179.88 186.95 170.85 178.02 161.82 C 181.17 158.70 184.32 155.59 187.48 152.48 C 185.49 150.43 183.49 148.40 181.48 146.38 C 172.66 155.04 163.91 163.76 155.08 172.42 M 666.54 154.47 C 655.18 165.08 643.82 175.70 632.44 186.29 C 634.69 188.71 636.95 191.11 639.20 193.54 C 647.30 185.93 655.63 178.54 663.44 170.63 C 659.94 183.39 657.12 196.34 653.84 209.16 C 656.20 211.81 658.67 214.37 661.09 216.98 C 672.48 206.39 683.86 195.78 695.21 185.14 C 692.96 182.71 690.70 180.30 688.43 177.91 C 680.62 185.38 672.44 192.47 664.88 200.20 C 668.27 187.79 671.11 175.24 674.29 162.77 C 671.74 159.98 669.15 157.22 666.54 154.47 M 148.65 179.96 C 143.09 186.99 137.49 193.98 131.93 201.01 C 144.12 210.68 156.29 220.38 168.49 230.04 C 174.26 222.72 180.10 215.45 185.88 208.13 C 183.67 206.35 181.46 204.58 179.23 202.84 C 175.55 207.36 171.99 211.96 168.33 216.49 C 165.56 214.27 162.75 212.09 159.98 209.86 C 163.13 205.87 166.32 201.93 169.45 197.92 C 167.24 196.14 165.02 194.37 162.79 192.63 C 159.61 196.60 156.47 200.60 153.29 204.56 C 150.58 202.41 147.88 200.25 145.17 198.11 C 148.57 193.81 152.00 189.55 155.37 185.23 C 153.14 183.46 150.90 181.70 148.65 179.96 M 696.36 200.51 C 698.88 204.12 701.36 207.76 703.87 211.38 C 693.44 218.63 682.94 225.78 672.50 233.02 C 674.47 235.92 676.47 238.80 678.47 241.68 C 688.95 234.51 699.39 227.28 709.85 220.08 C 712.37 223.72 714.88 227.36 717.39 231.02 C 719.76 229.43 722.12 227.81 724.46 226.15 C 717.36 216.00 710.49 205.69 703.29 195.62 C 701.00 197.29 698.68 198.90 696.36 200.51 M 124.33 211.53 C 119.53 219.13 114.80 226.78 110.02 234.40 C 123.22 242.63 136.42 250.85 149.60 259.11 C 151.47 256.16 153.33 253.19 155.16 250.21 C 150.06 246.98 144.94 243.79 139.80 240.62 C 142.46 236.33 145.15 232.07 147.81 227.79 C 145.42 226.25 143.01 224.74 140.59 223.26 C 137.91 227.52 135.24 231.79 132.59 236.07 C 129.34 234.08 126.12 232.02 122.86 230.03 C 125.74 225.35 128.69 220.72 131.57 216.05 C 129.17 214.53 126.75 213.02 124.33 211.53 M 720.93 265.03 C 718.61 270.37 720.09 276.29 719.29 281.87 C 718.99 283.86 717.99 286.08 715.87 286.63 C 713.81 287.22 711.88 285.80 710.72 284.24 C 707.23 279.48 706.48 273.14 707.87 267.49 C 704.73 268.95 701.57 270.36 698.41 271.76 C 698.78 280.19 702.09 288.88 708.42 294.62 C 714.77 300.39 726.20 296.74 728.74 288.77 C 730.73 283.06 729.03 276.88 730.46 271.08 C 731.05 268.19 734.86 266.96 737.01 269.06 C 741.37 272.97 742.36 279.36 741.89 284.94 C 744.85 283.58 747.87 282.31 750.79 280.84 C 749.55 272.82 746.38 264.36 739.59 259.43 C 733.42 254.97 723.75 258.10 720.93 265.03 M 91.66 271.05 C 103.46 282.66 115.27 294.26 127.09 305.84 C 128.67 302.40 130.23 298.95 131.82 295.52 C 129.15 293.05 126.42 290.64 123.74 288.20 C 126.02 283.16 128.31 278.13 130.62 273.10 C 134.22 273.53 137.82 273.95 141.42 274.38 C 143.03 270.92 144.61 267.45 146.17 263.97 C 129.72 262.53 113.28 261.14 96.84 259.72 C 95.09 263.49 93.38 267.27 91.66 271.05 M 730.97 312.85 C 725.86 314.86 720.46 316.09 715.25 317.83 C 716.25 321.18 717.27 324.52 718.30 327.87 C 723.01 326.46 727.70 325.01 732.40 323.57 C 733.57 323.15 734.78 323.08 736.01 323.35 C 746.47 325.17 756.92 327.01 767.38 328.79 C 766.30 325.25 765.23 321.70 764.13 318.17 C 756.49 317.45 748.91 315.99 741.22 315.93 C 747.74 311.91 753.08 306.30 759.06 301.56 C 757.92 297.72 756.74 293.89 755.56 290.06 C 747.34 297.63 739.32 305.44 730.97 312.85 M 77.46 323.38 C 80.69 329.91 90.08 332.25 95.99 327.96 C 100.88 324.89 103.30 319.13 108.23 316.14 C 110.64 314.50 114.28 316.13 114.50 319.08 C 115.11 325.69 110.98 331.85 105.81 335.62 C 109.17 336.55 112.51 337.57 115.87 338.51 C 120.93 331.89 124.07 323.38 123.18 315.00 C 122.37 306.57 111.82 301.71 104.58 305.50 C 98.93 308.38 96.14 314.54 91.07 318.11 C 88.57 320.06 84.77 318.10 84.71 314.98 C 84.27 309.28 87.52 304.00 91.47 300.17 C 88.37 299.24 85.27 298.29 82.15 297.39 C 77.37 304.86 73.79 314.74 77.46 323.38 M 747.92 344.94 C 745.03 349.07 744.69 354.25 743.12 358.90 C 742.39 360.98 741.23 363.33 738.91 363.93 C 736.39 364.55 734.38 362.32 733.60 360.18 C 731.53 354.74 732.41 348.57 735.07 343.49 C 731.69 344.14 728.30 344.73 724.91 345.26 C 723.07 353.74 724.24 363.37 729.37 370.54 C 734.59 377.32 746.52 375.99 750.49 368.55 C 753.04 364.15 753.43 358.95 755.24 354.27 C 755.91 352.58 757.03 350.66 759.03 350.44 C 761.36 349.96 763.20 352.09 763.99 354.04 C 765.94 358.74 765.41 364.10 763.74 368.80 C 766.92 368.24 770.11 367.69 773.31 367.14 C 774.24 358.98 773.17 349.84 767.69 343.37 C 762.60 337.47 752.09 338.46 747.92 344.94 M 78.75 360.82 C 71.72 362.21 66.55 368.28 64.82 375.02 C 62.71 382.96 62.81 391.28 61.81 399.39 C 77.30 400.78 92.78 402.33 108.28 403.75 C 108.80 397.50 109.59 391.28 109.94 385.02 C 110.31 378.13 107.92 370.95 102.74 366.26 C 96.38 360.45 86.95 359.19 78.75 360.82 M 767.17 378.47 C 767.36 382.88 767.58 387.29 767.79 391.71 C 755.10 392.30 742.42 392.91 729.73 393.52 C 729.88 397.03 730.05 400.53 730.23 404.04 C 742.92 403.46 755.61 402.82 768.30 402.24 C 768.51 406.66 768.71 411.09 768.94 415.52 C 771.78 415.39 774.63 415.25 777.48 415.11 C 776.91 402.76 776.29 390.42 775.73 378.08 C 772.87 378.19 770.02 378.32 767.17 378.47 M 79.52 413.82 C 73.05 415.12 67.13 419.28 64.17 425.23 C 61.25 431.14 61.42 438.22 63.52 444.36 C 66.12 451.89 73.31 457.28 81.09 458.41 C 88.89 459.56 97.62 458.14 103.53 452.57 C 113.67 443.38 112.24 424.77 100.84 417.20 C 94.70 412.89 86.68 412.35 79.52 413.82 M 730.42 423.65 C 729.73 432.95 729.07 442.26 728.40 451.56 C 731.22 451.76 734.06 451.97 736.90 452.17 C 737.32 446.36 737.73 440.56 738.16 434.75 C 741.70 435.00 745.25 435.25 748.80 435.52 C 748.45 440.59 748.06 445.66 747.72 450.74 C 750.54 450.94 753.37 451.15 756.20 451.34 C 756.59 446.28 756.94 441.21 757.31 436.14 C 760.76 436.37 764.21 436.62 767.66 436.89 C 767.28 442.33 766.87 447.78 766.49 453.23 C 769.33 453.44 772.17 453.65 775.02 453.85 C 775.68 444.91 776.32 435.97 776.97 427.02 C 761.45 425.88 745.93 424.77 730.42 423.65 M 728.12 459.19 C 727.37 462.25 726.65 465.31 725.95 468.39 C 738.44 471.19 750.80 474.66 763.45 476.69 C 749.94 477.01 736.57 479.31 723.13 480.48 C 722.40 483.26 721.74 486.06 721.10 488.87 C 732.57 495.84 743.53 503.71 755.44 509.94 C 743.17 506.43 730.68 503.80 718.28 500.83 C 717.46 504.18 716.67 507.54 715.90 510.91 C 731.04 514.47 746.18 518.02 761.31 521.64 C 762.46 516.78 763.61 511.92 764.76 507.06 C 754.41 500.68 744.44 493.64 733.70 487.92 C 745.86 487.90 757.90 485.83 770.00 484.87 C 771.18 479.88 772.37 474.89 773.54 469.90 C 758.39 466.34 743.28 462.65 728.12 459.19 M 88.40 467.50 C 81.94 468.95 75.75 472.69 72.49 478.61 C 68.33 485.68 69.45 494.75 73.28 501.72 C 77.13 508.72 85.17 512.83 93.06 512.60 C 100.69 512.41 108.76 509.74 113.68 503.64 C 122.52 493.10 118.39 474.84 106.04 468.94 C 100.63 466.17 94.21 466.06 88.40 467.50 M 99.61 521.80 C 101.39 526.51 103.23 531.21 105.02 535.91 C 101.48 537.34 97.91 538.71 94.32 540.03 C 92.37 534.91 90.40 529.80 88.43 524.69 C 85.76 525.69 83.10 526.70 80.44 527.74 C 83.65 536.13 86.88 544.52 90.11 552.91 C 104.65 547.40 119.17 541.80 133.68 536.18 C 132.43 532.91 131.17 529.64 129.91 526.38 C 124.27 528.53 118.66 530.78 112.99 532.86 C 111.17 528.17 109.39 523.46 107.56 518.77 C 104.92 519.80 102.27 520.81 99.61 521.80 Z" />
<path fill="#039d9d" opacity="1.00" d=" M 437.61 84.91 C 440.08 78.33 443.27 72.01 445.10 65.21 C 445.79 72.21 448.06 78.93 449.52 85.78 C 445.54 85.51 441.57 85.21 437.61 84.91 Z" />
<path fill="#039d9d" opacity="1.00" d=" M 334.14 74.72 C 336.73 81.31 341.25 86.89 344.73 93.01 C 340.88 94.03 337.02 95.01 333.15 95.92 C 333.48 88.85 334.41 81.80 334.14 74.72 Z" />
<path fill="#039d9d" opacity="1.00" d=" M 101.35 268.95 C 108.17 270.76 115.29 270.91 122.24 271.96 C 120.62 275.59 118.96 279.19 117.31 282.81 C 111.96 278.22 107.16 272.96 101.35 268.95 Z" />
<path fill="#039d9d" opacity="1.00" d=" M 75.90 374.89 C 81.72 369.44 91.77 370.42 97.48 375.54 C 102.18 379.87 101.55 386.79 100.71 392.53 C 90.91 391.56 81.12 390.59 71.32 389.74 C 71.78 384.61 71.90 378.71 75.90 374.89 Z" />
<path fill="#039d9d" opacity="1.00" d=" M 82.48 424.55 C 87.55 423.71 93.44 423.81 97.54 427.33 C 102.69 431.70 102.30 440.87 96.58 444.61 C 90.92 448.32 83.12 448.84 77.02 445.89 C 71.53 443.28 69.43 435.82 72.41 430.62 C 74.49 427.04 78.55 425.22 82.48 424.55 Z" />
<path fill="#039d9d" opacity="1.00" d=" M 91.21 478.22 C 95.78 477.05 101.17 476.91 105.04 480.00 C 110.02 483.94 110.55 492.33 105.71 496.63 C 100.78 501.02 93.40 502.72 87.03 500.98 C 80.85 499.37 77.39 491.79 79.98 486.02 C 82.01 481.62 86.73 479.32 91.21 478.22 Z" />
<path fill="#039d9d" opacity="1.00" d=" M 319.47 576.77 C 324.24 575.74 329.15 576.13 334.00 576.07 C 364.66 576.00 395.33 576.21 425.99 576.11 C 441.35 575.54 456.72 576.57 472.06 575.78 C 479.72 574.98 487.39 576.25 495.06 575.76 C 501.68 575.31 508.32 575.48 514.95 575.47 C 521.29 575.64 528.09 576.69 533.04 581.00 C 538.43 585.38 542.19 592.02 542.24 599.07 C 542.40 646.29 542.24 693.52 542.41 740.75 C 543.33 748.48 541.78 756.23 542.76 763.96 C 543.38 773.30 542.47 782.67 542.94 792.02 C 542.96 799.58 542.24 807.99 536.81 813.80 C 531.86 819.99 523.76 822.81 516.02 822.79 C 452.64 822.81 389.26 822.83 325.89 822.72 C 312.80 822.79 301.07 811.09 300.99 798.03 C 300.88 732.36 300.92 666.68 300.92 601.00 C 300.67 589.98 308.76 579.39 319.47 576.77 M 395.86 721.12 C 395.43 721.21 394.56 721.38 394.13 721.47 C 381.92 708.73 369.25 696.44 356.98 683.76 C 348.39 691.82 340.35 700.44 331.81 708.55 C 352.61 729.78 373.87 750.57 394.82 771.66 C 435.25 731.54 475.49 691.20 515.73 650.89 C 507.20 642.79 499.04 634.33 490.69 626.05 C 459.19 657.85 427.36 689.32 395.86 721.12 Z" />
</g>
<g id="#ffffffff">
<path fill="#ffffff" opacity="1.00" d=" M 399.69 56.65 C 402.96 56.37 406.23 56.08 409.51 55.75 C 411.02 71.24 412.23 86.76 413.60 102.27 C 410.08 102.58 406.56 102.89 403.05 103.19 C 394.91 92.71 386.47 82.46 378.55 71.82 C 379.99 82.85 380.61 93.97 381.66 105.04 C 378.37 105.33 375.07 105.61 371.79 105.89 C 370.42 90.40 369.10 74.91 367.75 59.42 C 371.51 59.07 375.27 58.75 379.04 58.44 C 386.91 68.61 395.02 78.59 402.72 88.89 C 401.30 78.19 400.74 67.39 399.69 56.65 Z" />
<path fill="#ffffff" opacity="1.00" d=" M 419.38 102.06 C 426.16 86.97 432.95 71.87 439.76 56.79 C 443.90 57.09 448.04 57.39 452.18 57.70 C 456.56 73.62 460.93 89.53 465.29 105.44 C 461.48 105.18 457.68 104.90 453.88 104.61 C 453.03 101.13 452.15 97.65 451.44 94.14 C 445.91 93.49 440.33 93.26 434.78 92.80 C 433.42 96.16 432.08 99.53 430.73 102.90 C 426.94 102.63 423.16 102.35 419.38 102.06 M 437.61 84.91 C 441.57 85.21 445.54 85.51 449.52 85.78 C 448.06 78.93 445.79 72.21 445.10 65.21 C 443.27 72.01 440.08 78.33 437.61 84.91 Z" />
<path fill="#ffffff" opacity="1.00" d=" M 475.57 77.56 C 479.25 69.87 487.53 64.78 496.03 64.73 C 503.20 64.65 510.31 66.85 516.47 70.49 C 515.72 73.68 514.98 76.87 514.27 80.07 C 508.73 75.61 501.19 72.46 494.06 74.30 C 485.47 76.96 482.01 87.68 484.37 95.71 C 486.59 102.06 493.92 104.76 500.17 104.18 C 500.86 101.17 501.57 98.17 502.24 95.15 C 499.21 94.43 496.18 93.75 493.15 93.08 C 493.76 90.35 494.38 87.63 495.02 84.90 C 501.47 86.38 507.94 87.79 514.37 89.35 C 512.62 96.98 510.87 104.61 509.12 112.25 C 501.62 114.20 493.58 113.31 486.39 110.57 C 480.49 108.29 475.40 103.56 473.48 97.44 C 471.46 90.88 472.66 83.66 475.57 77.56 Z" />
<path fill="#ffffff" opacity="1.00" d=" M 326.34 68.56 C 330.36 67.55 334.39 66.54 338.40 65.52 C 347.60 79.24 356.76 92.98 365.91 106.73 C 362.21 107.65 358.51 108.59 354.82 109.51 C 352.88 106.44 350.98 103.35 349.06 100.27 C 343.69 101.60 338.33 102.97 332.96 104.31 C 332.73 107.93 332.52 111.56 332.29 115.18 C 328.61 116.11 324.93 117.04 321.25 117.95 C 322.96 101.49 324.63 85.02 326.34 68.56 M 334.14 74.72 C 334.41 81.80 333.48 88.85 333.15 95.92 C 337.02 95.01 340.88 94.03 344.73 93.01 C 341.25 86.89 336.73 81.31 334.14 74.72 Z" />
<path fill="#ffffff" opacity="1.00" d=" M 533.40 74.67 C 541.81 77.78 550.21 80.96 558.62 84.10 C 557.61 86.77 556.61 89.44 555.62 92.11 C 550.48 90.24 545.39 88.23 540.25 86.37 C 539.03 89.60 537.81 92.83 536.61 96.08 C 541.36 97.87 546.12 99.65 550.89 101.42 C 549.91 104.09 548.91 106.75 547.90 109.41 C 543.13 107.64 538.38 105.82 533.60 104.07 C 532.35 107.40 531.10 110.72 529.88 114.05 C 535.32 116.11 540.78 118.13 546.22 120.19 C 545.23 122.85 544.23 125.51 543.23 128.16 C 534.51 124.87 525.77 121.62 517.04 118.36 C 522.45 103.78 527.96 89.24 533.40 74.67 Z" />
<path fill="#ffffff" opacity="1.00" d=" M 282.85 83.21 C 287.40 81.15 291.95 79.07 296.52 77.05 C 302.92 91.21 309.31 105.37 315.74 119.52 C 312.61 120.98 309.46 122.41 306.30 123.82 C 301.09 112.18 295.55 100.68 290.82 88.83 C 293.20 102.05 293.59 115.53 295.09 128.87 C 292.49 130.07 289.89 131.25 287.27 132.41 C 279.97 124.82 272.68 117.22 265.36 109.64 C 263.29 107.49 261.62 105.02 259.79 102.68 C 265.47 114.16 270.64 125.89 275.90 137.57 C 273.03 138.88 270.15 140.17 267.27 141.44 C 260.87 127.27 254.44 113.11 248.06 98.94 C 252.72 96.80 257.41 94.74 262.06 92.60 C 270.21 101.59 279.21 109.85 286.64 119.46 C 284.61 107.48 284.15 95.29 282.85 83.21 Z" />
<path fill="#ffffff" opacity="1.00" d=" M 550.46 130.58 C 558.18 117.08 565.87 103.56 573.60 90.06 C 578.03 92.57 582.43 95.14 586.90 97.59 C 584.66 109.43 582.90 121.41 579.83 133.07 C 588.39 124.59 597.79 117.00 606.80 108.98 C 611.11 111.48 615.45 113.93 619.79 116.40 C 612.10 129.92 604.36 143.41 596.67 156.93 C 593.65 155.23 590.66 153.50 587.65 151.79 C 594.12 140.74 600.00 129.33 607.08 118.64 C 597.62 128.28 586.99 136.66 576.98 145.71 C 574.48 144.30 571.99 142.88 569.51 141.44 C 572.25 128.23 573.52 114.69 577.43 101.76 C 571.53 113.12 565.01 124.14 558.69 135.27 C 555.94 133.73 553.19 132.16 550.46 130.58 Z" />
<path fill="#ffffff" opacity="1.00" d=" M 210.03 123.92 C 212.98 121.67 215.92 119.40 218.88 117.17 C 220.83 127.64 222.79 138.11 224.70 148.59 C 224.89 149.79 225.41 150.90 226.19 151.84 C 229.17 155.72 232.17 159.57 235.09 163.50 C 232.31 165.62 229.54 167.75 226.74 169.85 C 223.76 165.94 220.78 162.03 217.81 158.12 C 217.11 157.12 216.11 156.42 215.03 155.91 C 205.56 151.19 196.10 146.47 186.66 141.71 C 189.87 139.33 193.02 136.88 196.20 134.45 C 202.79 138.36 209.89 141.49 215.97 146.19 C 213.23 139.00 212.06 131.33 210.03 123.92 Z" />
<path fill="#ffffff" opacity="1.00" d=" M 604.87 163.88 C 614.62 151.77 624.37 139.66 634.14 127.57 C 641.13 133.18 648.11 138.79 655.09 144.42 C 653.32 146.66 651.53 148.88 649.73 151.09 C 645.47 147.67 641.22 144.24 636.96 140.83 C 634.77 143.50 632.61 146.19 630.45 148.88 C 634.39 152.09 638.35 155.27 642.32 158.43 C 640.57 160.67 638.78 162.88 636.99 165.08 C 632.99 161.94 629.07 158.70 625.08 155.55 C 622.85 158.31 620.62 161.08 618.39 163.84 C 622.92 167.50 627.47 171.13 632.00 174.80 C 630.22 177.01 628.45 179.21 626.68 181.42 C 619.36 175.64 612.14 169.72 604.87 163.88 Z" />
<path fill="#ffffff" opacity="1.00" d=" M 155.08 172.42 C 163.91 163.76 172.66 155.04 181.48 146.38 C 183.49 148.40 185.49 150.43 187.48 152.48 C 184.32 155.59 181.17 158.70 178.02 161.82 C 186.95 170.85 195.89 179.88 204.81 188.92 C 202.32 191.39 199.81 193.85 197.32 196.32 C 188.38 187.31 179.46 178.26 170.53 169.24 C 167.37 172.32 164.25 175.43 161.10 178.52 C 159.07 176.51 157.07 174.47 155.08 172.42 Z" />
<path fill="#ffffff" opacity="1.00" d=" M 666.54 154.47 C 669.15 157.22 671.74 159.98 674.29 162.77 C 671.11 175.24 668.27 187.79 664.88 200.20 C 672.44 192.47 680.62 185.38 688.43 177.91 C 690.70 180.30 692.96 182.71 695.21 185.14 C 683.86 195.78 672.48 206.39 661.09 216.98 C 658.67 214.37 656.20 211.81 653.84 209.16 C 657.12 196.34 659.94 183.39 663.44 170.63 C 655.63 178.54 647.30 185.93 639.20 193.54 C 636.95 191.11 634.69 188.71 632.44 186.29 C 643.82 175.70 655.18 165.08 666.54 154.47 Z" />
<path fill="#ffffff" opacity="1.00" d=" M 148.65 179.96 C 150.90 181.70 153.14 183.46 155.37 185.23 C 152.00 189.55 148.57 193.81 145.17 198.11 C 147.88 200.25 150.58 202.41 153.29 204.56 C 156.47 200.60 159.61 196.60 162.79 192.63 C 165.02 194.37 167.24 196.14 169.45 197.92 C 166.32 201.93 163.13 205.87 159.98 209.86 C 162.75 212.09 165.56 214.27 168.33 216.49 C 171.99 211.96 175.55 207.36 179.23 202.84 C 181.46 204.58 183.67 206.35 185.88 208.13 C 180.10 215.45 174.26 222.72 168.49 230.04 C 156.29 220.38 144.12 210.68 131.93 201.01 C 137.49 193.98 143.09 186.99 148.65 179.96 Z" />
<path fill="#ffffff" opacity="1.00" d=" M 696.36 200.51 C 698.68 198.90 701.00 197.29 703.29 195.62 C 710.49 205.69 717.36 216.00 724.46 226.15 C 722.12 227.81 719.76 229.43 717.39 231.02 C 714.88 227.36 712.37 223.72 709.85 220.08 C 699.39 227.28 688.95 234.51 678.47 241.68 C 676.47 238.80 674.47 235.92 672.50 233.02 C 682.94 225.78 693.44 218.63 703.87 211.38 C 701.36 207.76 698.88 204.12 696.36 200.51 Z" />
<path fill="#ffffff" opacity="1.00" d=" M 124.33 211.53 C 126.75 213.02 129.17 214.53 131.57 216.05 C 128.69 220.72 125.74 225.35 122.86 230.03 C 126.12 232.02 129.34 234.08 132.59 236.07 C 135.24 231.79 137.91 227.52 140.59 223.26 C 143.01 224.74 145.42 226.25 147.81 227.79 C 145.15 232.07 142.46 236.33 139.80 240.62 C 144.94 243.79 150.06 246.98 155.16 250.21 C 153.33 253.19 151.47 256.16 149.60 259.11 C 136.42 250.85 123.22 242.63 110.02 234.40 C 114.80 226.78 119.53 219.13 124.33 211.53 Z" />
<path fill="#ffffff" opacity="1.00" d=" M 720.93 265.03 C 723.75 258.10 733.42 254.97 739.59 259.43 C 746.38 264.36 749.55 272.82 750.79 280.84 C 747.87 282.31 744.85 283.58 741.89 284.94 C 742.36 279.36 741.37 272.97 737.01 269.06 C 734.86 266.96 731.05 268.19 730.46 271.08 C 729.03 276.88 730.73 283.06 728.74 288.77 C 726.20 296.74 714.77 300.39 708.42 294.62 C 702.09 288.88 698.78 280.19 698.41 271.76 C 701.57 270.36 704.73 268.95 707.87 267.49 C 706.48 273.14 707.23 279.48 710.72 284.24 C 711.88 285.80 713.81 287.22 715.87 286.63 C 717.99 286.08 718.99 283.86 719.29 281.87 C 720.09 276.29 718.61 270.37 720.93 265.03 Z" />
<path fill="#ffffff" opacity="1.00" d=" M 91.66 271.05 C 93.38 267.27 95.09 263.49 96.84 259.72 C 113.28 261.14 129.72 262.53 146.17 263.97 C 144.61 267.45 143.03 270.92 141.42 274.38 C 137.82 273.95 134.22 273.53 130.62 273.10 C 128.31 278.13 126.02 283.16 123.74 288.20 C 126.42 290.64 129.15 293.05 131.82 295.52 C 130.23 298.95 128.67 302.40 127.09 305.84 C 115.27 294.26 103.46 282.66 91.66 271.05 M 101.35 268.95 C 107.16 272.96 111.96 278.22 117.31 282.81 C 118.96 279.19 120.62 275.59 122.24 271.96 C 115.29 270.91 108.17 270.76 101.35 268.95 Z" />
<path fill="#ffffff" opacity="1.00" d=" M 730.97 312.85 C 739.32 305.44 747.34 297.63 755.56 290.06 C 756.74 293.89 757.92 297.72 759.06 301.56 C 753.08 306.30 747.74 311.91 741.22 315.93 C 748.91 315.99 756.49 317.45 764.13 318.17 C 765.23 321.70 766.30 325.25 767.38 328.79 C 756.92 327.01 746.47 325.17 736.01 323.35 C 734.78 323.08 733.57 323.15 732.40 323.57 C 727.70 325.01 723.01 326.46 718.30 327.87 C 717.27 324.52 716.25 321.18 715.25 317.83 C 720.46 316.09 725.86 314.86 730.97 312.85 Z" />
<path fill="#ffffff" opacity="1.00" d=" M 77.46 323.38 C 73.79 314.74 77.37 304.86 82.15 297.39 C 85.27 298.29 88.37 299.24 91.47 300.17 C 87.52 304.00 84.27 309.28 84.71 314.98 C 84.77 318.10 88.57 320.06 91.07 318.11 C 96.14 314.54 98.93 308.38 104.58 305.50 C 111.82 301.71 122.37 306.57 123.18 315.00 C 124.07 323.38 120.93 331.89 115.87 338.51 C 112.51 337.57 109.17 336.55 105.81 335.62 C 110.98 331.85 115.11 325.69 114.50 319.08 C 114.28 316.13 110.64 314.50 108.23 316.14 C 103.30 319.13 100.88 324.89 95.99 327.96 C 90.08 332.25 80.69 329.91 77.46 323.38 Z" />
<path fill="#ffffff" opacity="1.00" d=" M 747.92 344.94 C 752.09 338.46 762.60 337.47 767.69 343.37 C 773.17 349.84 774.24 358.98 773.31 367.14 C 770.11 367.69 766.92 368.24 763.74 368.80 C 765.41 364.10 765.94 358.74 763.99 354.04 C 763.20 352.09 761.36 349.96 759.03 350.44 C 757.03 350.66 755.91 352.58 755.24 354.27 C 753.43 358.95 753.04 364.15 750.49 368.55 C 746.52 375.99 734.59 377.32 729.37 370.54 C 724.24 363.37 723.07 353.74 724.91 345.26 C 728.30 344.73 731.69 344.14 735.07 343.49 C 732.41 348.57 731.53 354.74 733.60 360.18 C 734.38 362.32 736.39 364.55 738.91 363.93 C 741.23 363.33 742.39 360.98 743.12 358.90 C 744.69 354.25 745.03 349.07 747.92 344.94 Z" />
<path fill="#ffffff" opacity="1.00" d=" M 78.75 360.82 C 86.95 359.19 96.38 360.45 102.74 366.26 C 107.92 370.95 110.31 378.13 109.94 385.02 C 109.59 391.28 108.80 397.50 108.28 403.75 C 92.78 402.33 77.30 400.78 61.81 399.39 C 62.81 391.28 62.71 382.96 64.82 375.02 C 66.55 368.28 71.72 362.21 78.75 360.82 M 75.90 374.89 C 71.90 378.71 71.78 384.61 71.32 389.74 C 81.12 390.59 90.91 391.56 100.71 392.53 C 101.55 386.79 102.18 379.87 97.48 375.54 C 91.77 370.42 81.72 369.44 75.90 374.89 Z" />
<path fill="#ffffff" opacity="1.00" d=" M 767.17 378.47 C 770.02 378.32 772.87 378.19 775.73 378.08 C 776.29 390.42 776.91 402.76 777.48 415.11 C 774.63 415.25 771.78 415.39 768.94 415.52 C 768.71 411.09 768.51 406.66 768.30 402.24 C 755.61 402.82 742.92 403.46 730.23 404.04 C 730.05 400.53 729.88 397.03 729.73 393.52 C 742.42 392.91 755.10 392.30 767.79 391.71 C 767.58 387.29 767.36 382.88 767.17 378.47 Z" />
<path fill="#ffffff" opacity="1.00" d=" M 79.52 413.82 C 86.68 412.35 94.70 412.89 100.84 417.20 C 112.24 424.77 113.67 443.38 103.53 452.57 C 97.62 458.14 88.89 459.56 81.09 458.41 C 73.31 457.28 66.12 451.89 63.52 444.36 C 61.42 438.22 61.25 431.14 64.17 425.23 C 67.13 419.28 73.05 415.12 79.52 413.82 M 82.48 424.55 C 78.55 425.22 74.49 427.04 72.41 430.62 C 69.43 435.82 71.53 443.28 77.02 445.89 C 83.12 448.84 90.92 448.32 96.58 444.61 C 102.30 440.87 102.69 431.70 97.54 427.33 C 93.44 423.81 87.55 423.71 82.48 424.55 Z" />
<path fill="#ffffff" opacity="1.00" d=" M 730.42 423.65 C 745.93 424.77 761.45 425.88 776.97 427.02 C 776.32 435.97 775.68 444.91 775.02 453.85 C 772.17 453.65 769.33 453.44 766.49 453.23 C 766.87 447.78 767.28 442.33 767.66 436.89 C 764.21 436.62 760.76 436.37 757.31 436.14 C 756.94 441.21 756.59 446.28 756.20 451.34 C 753.37 451.15 750.54 450.94 747.72 450.74 C 748.06 445.66 748.45 440.59 748.80 435.52 C 745.25 435.25 741.70 435.00 738.16 434.75 C 737.73 440.56 737.32 446.36 736.90 452.17 C 734.06 451.97 731.22 451.76 728.40 451.56 C 729.07 442.26 729.73 432.95 730.42 423.65 Z" />
<path fill="#ffffff" opacity="1.00" d=" M 728.12 459.19 C 743.28 462.65 758.39 466.34 773.54 469.90 C 772.37 474.89 771.18 479.88 770.00 484.87 C 757.90 485.83 745.86 487.90 733.70 487.92 C 744.44 493.64 754.41 500.68 764.76 507.06 C 763.61 511.92 762.46 516.78 761.31 521.64 C 746.18 518.02 731.04 514.47 715.90 510.91 C 716.67 507.54 717.46 504.18 718.28 500.83 C 730.68 503.80 743.17 506.43 755.44 509.94 C 743.53 503.71 732.57 495.84 721.10 488.87 C 721.74 486.06 722.40 483.26 723.13 480.48 C 736.57 479.31 749.94 477.01 763.45 476.69 C 750.80 474.66 738.44 471.19 725.95 468.39 C 726.65 465.31 727.37 462.25 728.12 459.19 Z" />
<path fill="#ffffff" opacity="1.00" d=" M 88.40 467.50 C 94.21 466.06 100.63 466.17 106.04 468.94 C 118.39 474.84 122.52 493.10 113.68 503.64 C 108.76 509.74 100.69 512.41 93.06 512.60 C 85.17 512.83 77.13 508.72 73.28 501.72 C 69.45 494.75 68.33 485.68 72.49 478.61 C 75.75 472.69 81.94 468.95 88.40 467.50 M 91.21 478.22 C 86.73 479.32 82.01 481.62 79.98 486.02 C 77.39 491.79 80.85 499.37 87.03 500.98 C 93.40 502.72 100.78 501.02 105.71 496.63 C 110.55 492.33 110.02 483.94 105.04 480.00 C 101.17 476.91 95.78 477.05 91.21 478.22 Z" />
<path fill="#ffffff" opacity="1.00" d=" M 99.61 521.80 C 102.27 520.81 104.92 519.80 107.56 518.77 C 109.39 523.46 111.17 528.17 112.99 532.86 C 118.66 530.78 124.27 528.53 129.91 526.38 C 131.17 529.64 132.43 532.91 133.68 536.18 C 119.17 541.80 104.65 547.40 90.11 552.91 C 86.88 544.52 83.65 536.13 80.44 527.74 C 83.10 526.70 85.76 525.69 88.43 524.69 C 90.40 529.80 92.37 534.91 94.32 540.03 C 97.91 538.71 101.48 537.34 105.02 535.91 C 103.23 531.21 101.39 526.51 99.61 521.80 Z" />
<path fill="#ffffff" opacity="1.00" d=" M 395.86 721.12 C 427.36 689.32 459.19 657.85 490.69 626.05 C 499.04 634.33 507.20 642.79 515.73 650.89 C 475.49 691.20 435.25 731.54 394.82 771.66 C 373.87 750.57 352.61 729.78 331.81 708.55 C 340.35 700.44 348.39 691.82 356.98 683.76 C 369.25 696.44 381.92 708.73 394.13 721.47 C 394.41 721.72 394.95 722.23 395.23 722.49 C 395.39 722.15 395.70 721.46 395.86 721.12 Z" />
</g>
<g id="#000000ff">
<path fill="#000000" opacity="1.00" d=" M 377.98 227.97 C 385.03 223.37 393.76 221.78 402.07 222.37 C 410.82 223.02 419.75 226.73 425.05 233.97 C 428.88 238.90 429.49 245.37 429.79 251.38 C 425.40 251.49 421.02 251.47 416.63 251.38 C 416.38 246.43 415.29 241.02 411.30 237.67 C 406.31 233.31 399.12 233.29 392.92 234.23 C 387.30 235.11 381.98 239.98 382.11 245.94 C 381.87 250.95 385.64 255.16 389.95 257.17 C 400.40 262.08 412.25 264.18 421.59 271.29 C 428.34 276.10 431.66 284.91 430.48 293.03 C 429.57 299.83 425.14 306.01 419.04 309.13 C 413.22 312.20 406.53 313.26 400.02 313.53 C 390.05 312.97 379.03 310.75 372.24 302.76 C 367.49 297.61 366.26 290.22 367.05 283.47 C 371.17 283.48 375.30 283.39 379.43 283.40 C 380.26 288.05 380.36 293.48 384.05 296.96 C 389.71 301.98 397.81 302.82 405.05 302.01 C 409.56 301.72 414.01 299.27 416.22 295.26 C 418.41 289.83 416.97 282.49 411.59 279.48 C 399.66 272.57 384.84 271.12 374.35 261.64 C 364.94 252.42 367.32 235.24 377.98 227.97 Z" />
<path fill="#000000" opacity="1.00" d=" M 469.51 222.71 C 478.49 221.36 488.19 223.08 495.53 228.63 C 500.50 232.57 504.29 238.07 505.83 244.25 C 508.22 253.32 506.76 262.76 507.24 272.01 C 507.40 282.20 507.51 293.60 500.77 301.98 C 490.39 315.21 469.61 317.08 455.91 308.13 C 447.75 302.91 443.75 293.08 443.39 283.68 C 443.07 274.79 443.34 265.89 443.24 256.99 C 443.18 250.00 444.00 242.78 447.49 236.60 C 451.74 228.49 460.64 223.76 469.51 222.71 M 468.38 234.49 C 463.26 236.14 459.15 240.63 458.01 245.91 C 455.77 255.11 456.84 264.65 456.60 274.02 C 456.53 281.48 456.32 289.71 460.93 296.03 C 468.32 305.68 485.73 303.99 491.11 293.09 C 493.69 286.75 493.81 279.73 493.83 272.98 C 493.65 264.95 494.22 256.87 492.93 248.91 C 492.19 244.27 490.00 239.65 486.06 236.90 C 480.97 233.35 474.24 232.96 468.38 234.49 Z" />
<path fill="#000000" opacity="1.00" d=" M 338.06 224.06 C 342.43 223.45 346.85 223.50 351.26 223.62 C 352.00 251.08 351.37 278.54 351.64 306.00 C 351.68 308.00 351.62 310.01 351.20 311.98 C 346.88 312.19 342.54 312.14 338.22 312.13 C 337.90 282.78 338.10 253.42 338.06 224.06 Z" />
<path fill="#000000" opacity="1.00" d=" M 200.49 355.67 C 213.26 347.63 228.93 344.90 243.80 346.70 C 252.21 347.74 260.60 351.12 266.37 357.50 C 274.01 365.75 275.51 378.36 271.90 388.75 C 268.13 399.57 260.20 408.29 251.83 415.83 C 242.80 423.77 233.39 431.25 224.32 439.13 C 240.42 439.30 256.52 439.14 272.63 439.21 C 272.62 446.00 272.63 452.80 272.62 459.60 C 246.69 459.56 220.76 459.68 194.83 459.54 C 194.92 453.13 194.76 446.73 194.93 440.33 C 205.03 431.38 214.97 422.25 225.01 413.24 C 231.31 407.47 237.83 401.78 242.76 394.75 C 246.93 388.86 248.58 380.90 245.99 374.03 C 244.27 369.55 239.70 366.86 235.10 366.24 C 222.61 364.16 210.04 369.27 200.55 377.19 C 200.51 370.02 200.60 362.84 200.49 355.67 Z" />
<path fill="#000000" opacity="1.00" d=" M 297.57 355.59 C 310.77 347.47 326.89 344.68 342.14 346.89 C 350.11 348.06 357.96 351.46 363.43 357.51 C 371.05 365.75 372.55 378.35 368.96 388.73 C 365.45 398.88 358.19 407.18 350.46 414.40 C 340.99 422.92 330.96 430.77 321.36 439.14 C 337.46 439.29 353.57 439.15 369.67 439.21 C 369.67 446.00 369.68 452.80 369.66 459.60 C 343.75 459.60 317.84 459.60 291.93 459.60 C 291.93 453.17 291.82 446.74 291.99 440.31 C 301.26 432.12 310.36 423.74 319.57 415.48 C 326.34 409.32 333.38 403.32 338.93 395.98 C 343.42 390.25 345.51 382.49 343.52 375.38 C 342.24 370.54 337.77 367.16 332.95 366.39 C 320.24 363.94 307.28 369.10 297.59 377.19 C 297.58 369.99 297.60 362.79 297.57 355.59 Z" />
<path fill="#000000" opacity="1.00" d=" M 422.55 346.71 C 433.28 345.30 445.09 346.48 453.99 353.16 C 461.98 359.05 466.47 368.48 468.75 377.93 C 471.54 389.75 471.86 402.04 470.90 414.11 C 469.77 426.56 466.40 439.43 457.98 449.02 C 451.75 456.33 442.40 460.49 432.92 461.27 C 421.87 462.25 409.81 460.30 401.23 452.78 C 392.82 445.54 388.87 434.55 387.12 423.88 C 385.27 411.73 385.30 399.28 387.13 387.14 C 388.97 375.67 393.26 363.99 402.05 356.02 C 407.67 350.83 415.02 347.75 422.55 346.71 M 425.32 365.48 C 419.47 367.38 416.58 373.48 415.00 378.97 C 411.81 390.77 411.99 403.17 412.56 415.29 C 413.29 423.11 414.26 431.52 419.13 437.99 C 422.91 443.20 431.21 444.36 436.08 440.01 C 440.63 435.90 442.24 429.64 443.38 423.84 C 445.22 412.74 445.11 401.40 444.28 390.21 C 443.43 382.94 442.37 375.16 437.79 369.18 C 434.97 365.41 429.73 363.99 425.32 365.48 Z" />
<path fill="#000000" opacity="1.00" d=" M 519.53 346.72 C 530.02 345.33 541.49 346.41 550.36 352.66 C 558.50 358.33 563.20 367.67 565.58 377.08 C 568.58 389.11 568.91 401.68 567.95 414.00 C 566.83 426.51 563.45 439.48 554.96 449.10 C 548.92 456.09 540.03 460.26 530.90 461.16 C 519.56 462.37 507.09 460.50 498.26 452.76 C 489.64 445.33 485.72 433.99 484.04 423.04 C 482.33 411.12 482.37 398.92 484.20 387.02 C 486.04 375.63 490.32 364.05 499.01 356.09 C 504.63 350.88 511.98 347.77 519.53 346.72 M 522.34 365.48 C 516.49 367.41 513.60 373.52 512.03 379.03 C 508.91 390.51 509.07 402.58 509.54 414.37 C 510.22 422.45 511.12 431.15 516.08 437.87 C 519.84 443.19 528.24 444.40 533.14 439.99 C 537.70 435.88 539.29 429.61 540.43 423.82 C 542.25 412.95 542.14 401.83 541.39 390.87 C 540.60 383.57 539.57 375.85 535.25 369.70 C 532.47 365.61 526.99 363.88 522.34 365.48 Z" />
<path fill="#000000" opacity="1.00" d=" M 616.53 346.73 C 627.28 345.30 639.12 346.45 648.05 353.13 C 656.30 359.19 660.80 369.00 663.04 378.74 C 665.75 390.91 665.99 403.53 664.82 415.90 C 663.47 428.41 659.65 441.35 650.66 450.55 C 643.54 457.98 633.10 461.45 622.96 461.49 C 612.01 461.81 600.32 458.65 592.76 450.31 C 583.31 440.02 580.71 425.52 580.00 412.03 C 579.44 396.01 580.55 378.99 588.89 364.88 C 594.66 354.95 605.15 348.12 616.53 346.73 M 619.32 365.50 C 613.50 367.45 610.64 373.55 609.07 379.04 C 605.96 390.51 606.11 402.56 606.58 414.35 C 607.26 422.42 608.17 431.10 613.10 437.84 C 616.84 443.15 625.19 444.40 630.12 440.05 C 634.70 435.97 636.31 429.71 637.46 423.92 C 639.33 412.72 639.22 401.27 638.35 389.98 C 637.49 382.76 636.41 375.03 631.84 369.12 C 628.98 365.37 623.73 363.99 619.32 365.50 Z" />
<path fill="#000000" opacity="1.00" d=" M 252.56 503.72 C 261.25 497.79 274.54 498.16 281.87 506.12 C 284.12 508.82 285.24 512.21 286.39 515.48 C 283.08 516.11 279.76 516.72 276.44 517.34 C 275.17 514.04 273.07 510.84 269.70 509.42 C 265.28 507.19 259.72 509.09 256.89 512.95 C 254.16 516.67 253.55 521.48 253.71 525.98 C 253.91 530.10 254.35 534.57 257.03 537.91 C 260.42 541.87 266.77 543.01 271.20 540.14 C 274.33 538.22 275.39 534.46 277.06 531.42 C 280.20 532.35 283.33 533.28 286.47 534.22 C 284.89 539.61 282.28 545.25 277.06 547.98 C 267.87 553.61 255.02 551.03 248.21 542.85 C 244.01 537.96 242.97 531.23 242.85 525.00 C 242.89 517.05 245.65 508.32 252.56 503.72 Z" />
<path fill="#000000" opacity="1.00" d=" M 294.26 500.81 C 306.51 500.74 318.76 500.71 331.02 500.74 C 331.03 503.57 331.03 506.41 331.03 509.25 C 322.28 509.38 313.52 509.26 304.77 509.40 C 304.80 512.99 304.80 516.59 304.81 520.19 C 312.91 520.30 321.01 520.32 329.12 520.33 C 329.17 523.37 329.12 526.42 328.98 529.46 C 320.91 529.50 312.84 529.40 304.77 529.51 C 304.79 533.56 304.78 537.61 304.81 541.67 C 313.96 541.74 323.10 541.62 332.24 541.92 C 332.22 544.88 332.19 547.83 332.15 550.80 C 319.52 550.80 306.89 550.81 294.26 550.79 C 294.26 534.13 294.25 517.47 294.26 500.81 Z" />
<path fill="#000000" opacity="1.00" d=" M 339.95 500.74 C 350.00 500.87 360.07 500.27 370.10 501.19 C 378.73 502.28 383.34 513.22 379.61 520.67 C 377.65 525.11 373.29 528.07 368.55 528.82 C 376.10 534.31 380.07 543.00 384.67 550.82 C 380.56 550.79 376.44 550.81 372.33 550.79 C 368.25 544.56 364.49 538.07 359.65 532.39 C 357.44 529.91 353.80 530.26 350.81 529.91 C 350.74 536.89 350.86 543.88 350.52 550.85 C 347.00 550.87 343.47 550.87 339.95 550.86 C 339.94 534.15 339.94 517.45 339.95 500.74 M 350.71 509.34 C 350.72 513.26 350.73 517.19 350.75 521.13 C 355.81 521.01 360.91 521.49 365.92 520.64 C 370.48 519.97 371.55 512.72 367.54 510.61 C 362.24 508.24 356.31 509.59 350.71 509.34 Z" />
<path fill="#000000" opacity="1.00" d=" M 387.09 509.27 C 387.03 506.42 386.71 503.50 387.58 500.74 C 400.65 500.80 413.72 500.67 426.80 500.80 C 426.82 503.62 426.82 506.44 426.81 509.27 C 421.92 509.27 417.03 509.26 412.14 509.27 C 412.12 523.10 412.15 536.94 412.13 550.78 C 408.72 550.83 405.31 550.89 401.91 550.94 C 401.50 537.05 401.74 523.16 401.67 509.27 C 396.81 509.26 391.95 509.27 387.09 509.27 Z" />
<path fill="#000000" opacity="1.00" d=" M 431.41 550.85 C 431.30 534.15 431.27 517.44 431.39 500.74 C 434.90 500.72 438.42 500.73 441.93 500.74 C 442.03 517.45 442.02 534.16 441.90 550.86 C 438.40 550.87 434.90 550.87 431.41 550.85 Z" />
<path fill="#000000" opacity="1.00" d=" M 450.70 500.82 C 462.17 500.62 473.64 500.78 485.11 500.81 C 485.11 503.62 485.10 506.44 485.08 509.26 C 477.17 509.28 469.25 509.25 461.34 509.27 C 461.33 512.95 461.27 516.64 461.42 520.33 C 468.22 520.23 475.03 520.19 481.83 520.46 C 481.81 523.43 481.78 526.41 481.73 529.39 C 474.94 529.41 468.14 529.39 461.35 529.40 C 461.33 536.55 461.34 543.69 461.33 550.84 C 457.80 550.79 454.27 550.79 450.74 550.80 C 450.60 534.14 450.59 517.48 450.70 500.82 Z" />
<path fill="#000000" opacity="1.00" d=" M 492.30 500.80 C 495.86 500.81 499.42 500.80 502.98 500.74 C 502.99 517.42 502.98 534.11 502.96 550.80 C 499.41 550.81 495.85 550.81 492.30 550.74 C 492.29 534.09 492.29 517.45 492.30 500.80 Z" />
<path fill="#000000" opacity="1.00" d=" M 511.68 500.74 C 523.85 500.68 536.03 500.81 548.21 500.81 C 548.22 503.62 548.22 506.44 548.21 509.26 C 539.45 509.28 530.70 509.25 521.94 509.27 C 521.95 512.95 521.97 516.64 522.01 520.33 C 530.15 520.35 538.29 520.31 546.43 520.35 C 546.43 523.38 546.37 526.42 546.24 529.46 C 538.14 529.48 530.03 529.47 521.93 529.39 C 521.93 533.50 521.94 537.61 521.98 541.73 C 531.04 541.78 540.09 541.68 549.15 541.67 C 549.28 544.71 549.31 547.75 549.24 550.80 C 536.72 550.80 524.20 550.80 511.68 550.80 C 511.66 534.11 511.66 517.43 511.68 500.74 Z" />
<path fill="#000000" opacity="1.00" d=" M 557.02 500.80 C 565.00 500.68 572.99 500.69 580.98 500.83 C 587.21 500.84 592.78 505.04 595.71 510.35 C 598.12 514.46 598.51 519.33 598.84 523.98 C 599.14 529.92 598.40 536.13 595.50 541.42 C 592.22 547.18 585.67 550.73 579.09 550.83 C 571.74 550.98 564.38 550.73 557.03 550.80 C 557.01 534.13 557.01 517.47 557.02 500.80 M 567.74 509.35 C 567.72 520.13 567.70 530.91 567.80 541.70 C 572.72 541.61 577.88 542.38 582.59 540.58 C 586.93 538.60 587.77 533.26 587.97 529.02 C 588.10 523.44 588.69 516.90 584.53 512.51 C 579.94 508.47 573.38 509.39 567.74 509.35 Z" />
</g>
<g id="#8ad0d0fc">
<path fill="#8ad0d0" opacity="1.00" d=" M 394.13 721.47 C 394.56 721.38 395.43 721.21 395.86 721.12 C 395.70 721.46 395.39 722.15 395.23 722.49 C 394.95 722.23 394.41 721.72 394.13 721.47 Z" />
</g>
</svg>
