<?xml version="1.0" encoding="UTF-8" ?>
<!DOCTYPE svg PUBLIC "-//W3C//DTD SVG 1.1//EN" "http://www.w3.org/Graphics/SVG/1.1/DTD/svg11.dtd">
<svg width="670pt" height="666pt" viewBox="0 0 670 666" version="1.1" xmlns="http://www.w3.org/2000/svg">
<g id="#fefefeff">
<path fill="#fefefe" opacity="1.00" d=" M 317.91 35.52 C 320.43 35.58 322.96 35.52 325.49 35.42 C 325.36 48.08 327.38 60.65 327.40 73.30 C 324.90 73.39 322.41 73.47 319.92 73.54 C 314.09 66.24 309.42 58.06 303.35 50.94 C 303.21 58.99 304.06 67.01 304.24 75.04 C 301.62 75.28 298.99 75.36 296.38 75.12 C 296.63 69.05 295.48 63.05 295.52 56.98 C 295.64 50.49 294.19 44.09 294.55 37.59 C 296.98 37.56 299.48 37.10 301.89 37.65 C 307.95 44.70 313.03 52.55 318.62 59.98 C 318.51 54.64 318.61 49.28 317.91 43.97 C 317.54 41.17 317.29 38.30 317.91 35.52 Z" />
<path fill="#fefefe" opacity="1.00" d=" M 356.43 37.26 C 358.87 37.22 361.31 37.27 363.75 37.36 C 367.13 48.19 369.87 59.20 372.93 70.13 C 373.50 72.15 373.77 74.24 374.08 76.31 C 371.49 76.07 368.91 75.75 366.33 75.50 C 365.67 72.83 365.04 70.15 364.48 67.46 C 359.82 66.42 355.03 66.44 350.29 66.30 C 349.17 68.70 348.05 71.11 347.01 73.54 C 344.28 73.49 341.55 73.32 338.84 73.02 C 340.25 68.39 342.94 64.33 344.97 59.98 C 348.85 52.43 352.74 44.89 356.43 37.26 M 353.95 59.74 C 356.76 60.21 359.62 60.45 362.48 60.45 C 361.68 56.21 360.89 51.95 359.64 47.82 C 356.72 51.21 355.35 55.57 353.95 59.74 Z" />
<path fill="#fefefe" opacity="1.00" d=" M 256.69 45.53 C 259.19 44.98 261.80 43.78 264.38 44.50 C 269.92 52.66 275.50 60.81 281.03 68.98 C 282.85 71.62 285.06 74.08 286.00 77.21 C 283.37 77.59 280.76 78.11 278.16 78.61 C 276.75 76.39 275.24 74.24 273.70 72.11 C 269.26 72.61 265.00 73.97 260.63 74.82 C 260.10 77.77 259.66 80.74 259.46 83.73 C 256.90 84.38 254.32 84.91 251.72 85.36 C 253.22 72.06 255.27 58.84 256.69 45.53 M 262.50 54.07 C 261.74 58.64 261.46 63.27 261.32 67.90 C 264.09 67.58 266.83 66.98 269.45 66.03 C 267.48 61.85 264.95 57.97 262.50 54.07 Z" />
<path fill="#fefefe" opacity="1.00" d=" M 389.48 57.27 C 391.07 51.63 395.11 46.18 401.03 44.71 C 407.51 43.46 414.93 45.60 418.98 51.01 C 421.08 53.86 421.35 57.58 421.04 60.99 C 418.67 60.57 416.23 60.21 414.07 59.12 C 413.33 57.36 413.03 55.46 412.31 53.70 C 409.63 50.79 404.59 49.70 401.40 52.43 C 398.07 55.41 397.24 60.07 396.03 64.17 C 395.16 67.78 394.52 72.51 398.03 74.97 C 400.91 76.89 405.29 78.61 408.40 76.39 C 409.41 74.57 409.48 72.45 409.77 70.44 C 407.65 69.68 405.53 68.94 403.43 68.13 C 403.90 66.35 404.37 64.58 404.84 62.81 C 409.61 63.72 414.21 65.29 418.91 66.45 C 418.52 71.20 416.93 75.74 415.43 80.22 C 414.20 84.17 409.25 83.60 406.00 83.77 C 399.35 84.19 392.16 81.13 389.04 75.01 C 386.28 69.39 387.84 62.97 389.48 57.27 Z" />
<path fill="#fefefe" opacity="1.00" d=" M 216.90 59.20 C 219.77 57.27 222.95 55.71 226.38 55.12 C 230.84 66.71 236.69 77.70 241.49 89.14 C 239.17 90.47 236.73 91.58 234.16 92.33 C 230.56 84.68 227.72 76.72 224.46 68.94 C 223.87 78.28 226.14 87.46 225.75 96.80 C 224.26 97.51 222.80 98.34 221.19 98.74 C 214.18 92.85 208.62 85.42 201.97 79.12 C 204.90 87.07 209.13 94.48 212.64 102.19 C 210.51 103.92 208.05 105.15 205.44 105.94 C 200.34 94.42 194.96 83.01 190.07 71.41 C 193.00 69.98 195.87 68.36 198.99 67.38 C 206.48 72.89 211.55 81.13 218.66 87.14 C 218.87 77.79 216.82 68.50 216.90 59.20 Z" />
<path fill="#fefefe" opacity="1.00" d=" M 435.42 71.37 C 437.98 66.43 439.85 61.14 442.77 56.38 C 450.41 59.92 458.20 63.15 465.89 66.60 C 465.15 68.39 464.86 71.02 462.91 71.84 C 457.37 70.53 452.53 67.26 447.03 65.77 C 445.76 68.19 444.57 70.65 443.45 73.14 C 447.79 75.63 452.63 77.12 456.88 79.79 C 456.11 81.50 455.36 83.22 454.62 84.95 C 449.87 83.47 445.47 81.09 440.85 79.29 C 439.20 82.20 437.69 85.25 437.16 88.59 C 442.39 90.82 447.63 93.07 452.62 95.84 C 451.68 97.49 451.50 99.82 449.90 100.96 C 442.03 98.10 434.45 94.41 426.87 90.86 C 429.06 84.09 432.69 77.92 435.42 71.37 Z" />
<path fill="#fefefe" opacity="1.00" d=" M 460.49 106.21 C 467.85 96.14 474.31 85.43 481.99 75.60 C 484.51 77.19 487.19 78.60 489.36 80.68 C 490.88 81.95 489.55 83.92 489.34 85.46 C 487.48 93.07 484.24 100.40 483.52 108.24 C 491.60 103.72 498.23 97.02 506.17 92.29 C 509.49 93.33 511.94 96.10 514.74 98.06 C 507.99 108.54 500.49 118.53 493.62 128.93 C 491.47 127.60 487.61 127.02 487.30 124.13 C 491.30 117.05 496.97 111.04 501.03 104.00 C 493.64 108.02 487.72 114.23 480.45 118.44 C 478.58 119.70 476.58 117.86 475.25 116.64 C 475.24 107.44 480.15 99.07 480.84 89.95 C 476.35 96.78 472.08 103.76 467.36 110.43 C 464.54 110.89 462.62 107.65 460.49 106.21 Z" />
<path fill="#fefefe" opacity="1.00" d=" M 148.37 99.94 C 150.29 97.96 152.38 96.10 154.88 94.90 C 156.73 102.25 157.94 109.74 159.62 117.13 C 160.44 123.29 166.31 126.63 169.15 131.75 C 167.32 133.25 165.49 134.78 163.75 136.38 C 158.74 133.40 156.76 126.98 151.17 124.83 C 144.54 122.01 137.80 119.44 131.14 116.70 C 129.49 116.38 130.29 114.89 131.17 114.21 C 132.65 112.77 134.33 111.55 135.95 110.27 C 141.60 112.48 146.94 115.38 152.53 117.74 C 151.12 111.81 149.67 105.89 148.37 99.94 Z" />
<path fill="#fefefe" opacity="1.00" d=" M 516.38 125.38 C 521.19 120.66 525.81 115.73 530.90 111.30 C 536.94 117.25 542.99 123.18 548.98 129.17 C 547.42 130.49 546.25 133.03 544.13 133.19 C 539.90 129.58 536.34 125.26 532.01 121.76 C 529.96 123.63 527.08 125.09 526.20 127.87 C 528.96 131.66 533.05 134.25 535.85 138.01 C 534.83 139.68 533.29 140.94 531.93 142.32 C 528.00 139.29 524.71 135.54 520.95 132.31 C 518.47 134.42 516.20 136.73 514.05 139.16 C 517.73 143.54 522.11 147.24 526.08 151.35 C 524.96 153.19 522.61 157.33 520.25 154.79 C 514.68 149.21 508.90 143.82 503.54 138.02 C 507.59 133.58 512.16 129.66 516.38 125.38 Z" />
<path fill="#fefefe" opacity="1.00" d=" M 116.04 129.01 C 117.31 127.72 118.33 126.01 120.01 125.21 C 121.88 126.06 123.16 127.77 124.69 129.08 C 122.27 132.10 119.67 134.96 117.09 137.84 C 124.77 145.06 132.73 151.98 140.45 159.17 C 138.82 161.21 137.36 163.57 135.01 164.86 C 126.87 158.21 119.76 150.29 111.38 143.94 C 109.17 146.51 107.05 149.18 104.57 151.50 C 102.29 152.19 101.10 149.14 99.49 148.02 C 104.82 141.53 110.67 135.48 116.04 129.01 Z" />
<path fill="#fefefe" opacity="1.00" d=" M 547.23 152.25 C 551.63 149.41 555.60 145.92 560.14 143.32 C 562.22 143.15 562.93 145.65 564.02 147.00 C 565.81 149.24 563.99 151.90 563.24 154.17 C 560.75 161.00 556.84 167.28 555.04 174.36 C 561.90 170.81 567.72 165.60 574.13 161.33 C 576.13 163.07 577.86 165.13 578.95 167.58 C 568.45 174.70 558.48 182.59 547.91 189.61 C 546.35 187.51 544.10 185.62 543.57 182.98 C 546.59 174.20 551.34 166.08 554.05 157.18 C 547.38 161.32 541.15 166.13 534.76 170.69 C 532.80 169.03 531.20 167.02 529.77 164.90 C 535.21 160.19 541.46 156.53 547.23 152.25 Z" />
<path fill="#fefefe" opacity="1.00" d=" M 90.44 160.05 C 92.52 160.71 94.31 161.98 96.06 163.25 C 93.29 168.33 89.38 172.69 86.79 177.88 C 89.01 179.62 91.35 181.21 93.86 182.50 C 96.74 178.56 99.61 174.61 102.20 170.48 C 103.97 171.50 105.66 172.66 107.29 173.91 C 104.77 178.11 101.82 182.04 99.14 186.14 C 101.60 188.28 104.37 190.00 107.17 191.66 C 110.79 187.34 113.13 182.03 117.13 178.03 C 118.84 178.33 120.33 179.32 121.58 180.49 C 122.22 182.20 120.74 183.61 120.00 185.00 C 116.12 190.63 112.09 196.17 108.45 201.96 C 104.33 200.19 101.04 197.05 97.23 194.75 C 90.50 190.09 83.44 185.93 76.84 181.08 C 80.91 173.77 86.33 167.33 90.44 160.05 Z" />
<path fill="#fefefe" opacity="1.00" d=" M 582.33 184.05 C 584.17 183.30 586.01 182.54 587.86 181.82 C 592.50 190.90 596.94 200.08 601.50 209.20 C 599.69 210.41 597.77 211.45 595.62 211.88 C 594.21 208.49 592.52 205.23 590.74 202.03 C 582.29 206.03 574.02 210.42 565.66 214.62 C 564.42 215.25 563.05 215.54 561.71 215.83 C 560.80 213.58 559.86 211.34 558.99 209.07 C 567.82 203.86 577.42 200.10 586.22 194.85 L 586.54 194.02 C 585.14 190.70 583.25 187.57 582.33 184.05 Z" />
<path fill="#fefefe" opacity="1.00" d=" M 68.53 196.06 C 70.39 196.68 72.21 197.44 73.99 198.26 C 72.66 203.83 69.63 208.77 67.43 214.01 C 70.18 215.35 73.00 216.58 75.91 217.55 C 78.20 213.16 80.05 208.53 82.87 204.43 C 84.63 205.34 86.41 206.23 88.20 207.09 C 86.62 211.88 83.21 215.84 81.88 220.72 C 86.31 222.87 90.73 225.01 95.10 227.28 C 94.54 229.79 93.41 232.12 92.06 234.30 C 80.72 229.35 69.70 223.67 58.28 218.89 C 61.00 210.99 65.43 203.81 68.53 196.06 Z" />
<path fill="#fefefe" opacity="1.00" d=" M 48.18 247.19 C 61.28 246.13 74.44 245.49 87.50 243.79 C 87.20 246.48 86.58 249.13 85.83 251.74 C 83.11 252.19 80.36 252.44 77.61 252.60 C 76.26 256.73 75.01 260.89 73.95 265.11 C 76.22 267.05 78.53 268.93 80.80 270.87 C 80.09 273.25 79.39 275.63 78.67 278.01 C 67.66 270.34 56.71 262.53 46.24 254.14 C 46.91 251.83 47.55 249.51 48.18 247.19 M 56.96 253.40 C 60.51 256.11 64.11 258.77 67.97 261.03 C 68.98 258.44 69.81 255.79 70.41 253.08 C 65.93 253.21 61.44 253.30 56.96 253.40 Z" />
<path fill="#fefefe" opacity="1.00" d=" M 604.44 250.60 C 608.31 249.74 613.01 249.96 615.81 253.17 C 619.88 257.43 620.49 263.84 619.29 269.36 C 617.91 272.95 614.44 275.19 610.92 276.36 C 610.30 274.31 609.70 272.25 609.12 270.19 C 610.71 268.65 612.62 267.18 613.28 264.96 C 613.65 262.23 612.65 258.87 609.89 257.77 C 607.37 256.89 605.33 259.49 604.87 261.69 C 603.99 266.65 604.40 272.16 601.49 276.53 C 597.95 282.12 588.85 282.25 584.77 277.23 C 581.52 273.69 580.51 268.63 580.52 263.96 C 580.55 258.48 584.83 253.79 590.03 252.48 C 590.49 254.65 590.97 256.82 591.51 258.98 C 589.98 260.51 587.44 261.65 587.34 264.09 C 587.21 266.50 586.98 269.31 588.68 271.28 C 590.06 273.27 593.20 273.29 595.06 272.05 C 597.63 268.36 597.07 263.54 598.12 259.35 C 598.72 255.68 600.83 251.98 604.44 250.60 Z" />
<path fill="#fefefe" opacity="1.00" d=" M 37.92 296.98 C 38.51 290.42 44.20 284.83 50.91 285.04 C 51.17 287.27 51.14 289.51 50.87 291.74 C 47.55 292.78 43.62 294.85 44.31 299.02 C 43.49 302.29 47.59 306.01 50.45 303.48 C 54.53 299.24 54.92 292.49 59.59 288.64 C 62.36 286.20 66.27 285.95 69.75 286.53 C 74.30 287.77 77.13 292.41 77.32 296.96 C 77.62 302.55 76.40 309.06 71.54 312.51 C 69.19 314.36 66.13 314.60 63.27 314.87 C 63.29 312.70 63.32 310.52 63.34 308.35 C 65.92 307.17 68.97 306.08 70.26 303.32 C 70.87 301.11 70.86 298.73 70.41 296.50 C 69.16 293.61 64.64 293.36 63.22 296.23 C 59.49 301.91 57.65 310.56 49.95 312.10 C 41.85 313.25 35.99 304.34 37.92 296.98 Z" />
<path fill="#fefefe" opacity="1.00" d=" M 602.27 302.17 C 609.92 298.18 616.48 292.25 624.47 288.89 C 624.39 291.71 625.90 294.85 624.52 297.49 C 620.12 300.92 614.63 302.59 610.22 306.02 C 615.16 309.50 621.54 310.28 626.29 314.00 C 626.54 316.38 626.38 318.78 626.25 321.17 C 618.17 318.49 610.88 313.92 602.95 310.91 C 597.87 310.48 592.77 312.04 587.65 311.51 C 587.54 308.93 587.47 306.36 587.51 303.79 C 592.41 303.31 597.60 304.04 602.27 302.17 Z" />
<path fill="#fefefe" opacity="1.00" d=" M 593.00 334.98 C 595.18 333.26 598.06 333.34 600.68 333.10 C 600.60 335.29 600.55 337.49 600.56 339.69 C 598.02 340.84 594.81 341.66 593.65 344.50 C 592.95 347.51 592.72 351.45 595.53 353.48 C 598.36 354.54 600.78 352.37 601.89 349.94 C 604.48 344.94 606.55 338.53 612.37 336.46 C 618.22 334.76 624.65 338.92 625.38 344.98 C 626.04 350.04 625.40 355.83 621.63 359.60 C 619.30 362.01 615.87 362.54 612.72 363.00 C 612.63 361.00 612.52 359.00 612.72 357.01 C 614.64 355.13 618.00 354.67 618.88 351.81 C 620.19 349.23 618.97 346.48 617.65 344.21 C 615.96 344.53 613.59 343.74 612.63 345.60 C 609.44 350.64 607.98 357.23 602.51 360.48 C 596.77 363.69 589.00 359.97 587.19 353.82 C 585.26 347.19 587.08 339.03 593.00 334.98 Z" />
<path fill="#fefefe" opacity="1.00" d=" M 51.38 352.41 C 57.55 350.83 64.46 349.57 70.43 352.53 C 74.29 354.29 76.96 358.02 77.87 362.11 C 78.99 367.09 79.53 372.20 79.54 377.31 C 67.28 379.50 54.88 380.67 42.60 382.69 C 41.09 376.93 40.42 370.91 40.43 364.97 C 40.52 358.79 45.71 353.93 51.38 352.41 M 49.27 362.30 C 45.82 365.09 47.55 370.03 47.41 373.83 C 55.82 372.77 64.32 372.00 72.61 370.16 C 72.42 366.00 71.25 360.71 66.62 359.49 C 60.81 358.90 54.25 358.80 49.27 362.30 Z" />
<path fill="#fefefe" opacity="1.00" d=" M 615.42 378.26 C 617.29 378.26 619.12 378.71 620.95 379.12 C 620.45 386.32 617.85 393.13 616.31 400.14 C 615.66 403.12 614.91 406.09 613.83 408.96 C 611.97 408.33 609.03 409.05 608.10 406.92 C 608.52 403.45 609.84 400.13 609.84 396.60 C 600.04 394.16 590.19 391.94 580.50 389.12 C 580.71 386.56 580.96 383.90 582.14 381.57 C 592.38 383.08 602.09 387.46 612.41 388.81 C 613.36 385.31 613.55 381.40 615.42 378.26 Z" />
<path fill="#fefefe" opacity="1.00" d=" M 67.35 394.34 C 71.71 393.06 76.55 393.18 80.68 395.19 C 89.57 399.15 92.55 412.55 85.56 419.58 C 79.65 425.61 70.64 428.73 62.27 427.36 C 52.35 425.17 47.08 412.13 52.58 403.64 C 55.94 398.63 61.68 395.86 67.35 394.34 M 67.44 402.68 C 63.60 403.85 59.61 405.84 57.65 409.53 C 56.95 412.28 57.12 415.62 59.35 417.66 C 61.83 420.49 66.03 419.88 69.34 419.35 C 74.04 418.02 79.51 416.39 81.91 411.72 C 83.95 407.78 81.26 402.57 77.01 401.63 C 73.79 401.12 70.52 401.70 67.44 402.68 Z" />
<path fill="#fefefe" opacity="1.00" d=" M 573.18 410.00 C 578.75 411.71 583.89 414.50 589.31 416.61 C 595.74 419.38 602.35 421.78 608.59 424.98 C 605.97 432.45 602.60 439.64 599.48 446.93 C 597.52 446.51 595.66 445.76 593.87 444.89 C 595.22 439.64 597.84 434.86 599.71 429.81 C 597.20 428.49 594.54 427.50 591.82 426.70 C 589.36 430.90 587.72 435.49 585.68 439.89 C 583.77 439.18 581.89 438.42 580.02 437.67 C 580.93 432.91 583.90 428.85 584.86 424.11 C 582.82 421.48 578.86 420.70 575.64 420.19 C 573.79 425.18 571.59 430.02 569.61 434.96 C 567.65 434.41 565.75 433.66 563.89 432.86 C 566.20 424.95 570.14 417.64 573.18 410.00 Z" />
<path fill="#fefefe" opacity="1.00" d=" M 88.35 435.56 C 92.45 434.96 97.05 434.91 100.55 437.47 C 105.41 440.92 108.78 446.92 108.26 452.96 C 107.19 460.35 100.88 465.39 94.68 468.70 C 90.41 471.17 85.20 471.18 80.47 470.35 C 71.56 467.13 66.01 455.01 71.86 446.82 C 75.85 441.39 81.81 437.24 88.35 435.56 M 90.38 443.47 C 85.51 444.91 80.93 447.74 77.82 451.79 C 74.44 455.93 77.70 463.04 82.95 463.44 C 87.15 463.69 91.13 461.80 94.53 459.51 C 97.82 457.32 101.08 454.19 101.26 449.99 C 101.00 444.79 95.08 441.32 90.38 443.47 Z" />
<path fill="#fefefe" opacity="1.00" d=" M 559.05 443.65 C 569.67 450.06 579.72 457.40 590.05 464.27 C 588.93 466.99 587.37 469.50 585.75 471.95 C 576.32 471.19 567.47 467.43 558.14 466.31 C 563.52 473.81 569.40 480.99 574.11 488.96 C 572.66 491.26 571.18 493.54 569.70 495.82 C 560.95 491.33 552.97 485.51 544.58 480.42 C 542.37 478.95 539.88 477.81 538.03 475.88 C 538.67 473.45 540.51 471.62 542.02 469.71 C 549.03 473.62 555.10 478.99 562.14 482.86 C 557.74 475.54 552.10 469.06 547.39 461.95 C 548.32 460.65 549.20 459.31 550.30 458.15 C 558.80 458.64 566.82 462.00 575.15 463.54 C 569.14 458.45 561.66 455.41 555.53 450.46 C 554.84 447.90 557.88 445.78 559.05 443.65 Z" />
<path fill="#fefefe" opacity="1.00" d=" M 103.25 481.88 C 103.43 479.48 106.52 479.09 108.10 477.78 C 111.22 481.25 113.52 485.39 116.84 488.70 C 121.03 485.73 125.09 482.60 129.18 479.51 C 130.81 481.43 133.24 483.18 133.70 485.77 C 132.22 487.61 130.02 488.71 128.18 490.17 C 120.52 495.83 113.01 501.72 105.26 507.26 C 104.04 508.53 102.37 507.73 101.70 506.35 C 97.82 500.44 93.14 495.11 89.46 489.07 C 91.20 488.14 92.70 486.20 94.76 486.20 C 98.20 489.95 100.65 494.50 103.99 498.35 C 106.53 496.78 108.95 495.01 111.14 492.98 C 108.84 489.04 105.46 485.85 103.25 481.88 Z" />
<path fill="#fefefe" opacity="1.00" d=" M 311.68 568.73 C 337.42 543.08 363.08 517.34 388.97 491.84 C 395.71 498.54 402.52 505.17 409.13 512.00 C 376.82 544.57 344.26 576.88 311.84 609.34 C 300.94 599.20 290.72 588.34 280.07 577.93 C 273.82 571.52 267.23 565.42 261.17 558.83 L 261.13 558.16 C 267.59 551.36 274.20 544.67 280.95 538.14 C 291.34 548.19 301.35 558.62 311.68 568.73 Z" />
</g>
<g id="#159897ff">
<path fill="#159897" opacity="1.00" d=" M 264.44 13.72 C 277.80 11.09 291.31 8.38 304.99 8.74 C 326.00 8.75 347.00 8.76 368.00 8.73 C 380.36 8.50 392.44 11.46 404.48 13.84 C 446.40 23.06 486.58 40.50 521.61 65.35 C 581.82 107.08 627.76 169.63 647.79 240.24 C 655.72 269.78 660.01 300.39 659.41 331.00 C 659.26 345.06 657.62 359.06 656.04 373.03 C 649.80 414.45 634.82 454.38 613.19 490.21 C 592.64 524.12 565.40 553.91 533.69 577.69 C 507.55 597.68 478.40 613.86 447.37 624.88 C 447.34 588.72 447.35 552.57 447.43 516.42 C 480.43 497.75 508.07 469.94 527.44 437.40 C 545.16 408.28 555.77 374.85 557.82 340.82 C 559.36 328.22 557.81 315.59 557.33 302.98 C 555.33 283.04 550.48 263.41 543.13 244.77 C 529.62 211.51 508.01 181.61 480.70 158.30 C 445.21 127.59 399.69 108.95 353.00 104.92 C 321.84 102.43 290.14 106.22 260.58 116.49 C 212.81 132.51 171.19 165.60 143.98 207.92 C 129.38 230.92 118.54 256.47 113.42 283.28 C 103.35 334.22 112.23 388.74 138.21 433.73 C 157.16 466.83 184.54 495.07 217.25 514.74 C 218.44 515.69 220.56 516.33 220.50 518.18 C 220.60 553.76 220.50 589.35 220.57 624.94 C 215.91 623.83 211.60 621.74 207.23 619.84 C 171.50 605.23 138.73 583.73 110.25 557.75 C 46.11 499.51 8.14 413.63 8.44 327.00 C 7.83 302.28 11.22 277.65 16.64 253.58 C 30.63 193.31 63.74 138.00 108.82 95.82 C 139.08 67.38 174.52 44.30 213.26 29.20 C 229.78 22.41 247.08 17.80 264.44 13.72 M 317.91 35.52 C 317.29 38.30 317.54 41.17 317.91 43.97 C 318.61 49.28 318.51 54.64 318.62 59.98 C 313.03 52.55 307.95 44.70 301.89 37.65 C 299.48 37.10 296.98 37.56 294.55 37.59 C 294.19 44.09 295.64 50.49 295.52 56.98 C 295.48 63.05 296.63 69.05 296.38 75.12 C 298.99 75.36 301.62 75.28 304.24 75.04 C 304.06 67.01 303.21 58.99 303.35 50.94 C 309.42 58.06 314.09 66.24 319.92 73.54 C 322.41 73.47 324.90 73.39 327.40 73.30 C 327.38 60.65 325.36 48.08 325.49 35.42 C 322.96 35.52 320.43 35.58 317.91 35.52 M 356.43 37.26 C 352.74 44.89 348.85 52.43 344.97 59.98 C 342.94 64.33 340.25 68.39 338.84 73.02 C 341.55 73.32 344.28 73.49 347.01 73.54 C 348.05 71.11 349.17 68.70 350.29 66.30 C 355.03 66.44 359.82 66.42 364.48 67.46 C 365.04 70.15 365.67 72.83 366.33 75.50 C 368.91 75.75 371.49 76.07 374.08 76.31 C 373.77 74.24 373.50 72.15 372.93 70.13 C 369.87 59.20 367.13 48.19 363.75 37.36 C 361.31 37.27 358.87 37.22 356.43 37.26 M 256.69 45.53 C 255.27 58.84 253.22 72.06 251.72 85.36 C 254.32 84.91 256.90 84.38 259.46 83.73 C 259.66 80.74 260.10 77.77 260.63 74.82 C 265.00 73.97 269.26 72.61 273.70 72.11 C 275.24 74.24 276.75 76.39 278.16 78.61 C 280.76 78.11 283.37 77.59 286.00 77.21 C 285.06 74.08 282.85 71.62 281.03 68.98 C 275.50 60.81 269.92 52.66 264.38 44.50 C 261.80 43.78 259.19 44.98 256.69 45.53 M 389.48 57.27 C 387.84 62.97 386.28 69.39 389.04 75.01 C 392.16 81.13 399.35 84.19 406.00 83.77 C 409.25 83.60 414.20 84.17 415.43 80.22 C 416.93 75.74 418.52 71.20 418.91 66.45 C 414.21 65.29 409.61 63.72 404.84 62.81 C 404.37 64.58 403.90 66.35 403.43 68.13 C 405.53 68.94 407.65 69.68 409.77 70.44 C 409.48 72.45 409.41 74.57 408.40 76.39 C 405.29 78.61 400.91 76.89 398.03 74.97 C 394.52 72.51 395.16 67.78 396.03 64.17 C 397.24 60.07 398.07 55.41 401.40 52.43 C 404.59 49.70 409.63 50.79 412.31 53.70 C 413.03 55.46 413.33 57.36 414.07 59.12 C 416.23 60.21 418.67 60.57 421.04 60.99 C 421.35 57.58 421.08 53.86 418.98 51.01 C 414.93 45.60 407.51 43.46 401.03 44.71 C 395.11 46.18 391.07 51.63 389.48 57.27 M 216.90 59.20 C 216.82 68.50 218.87 77.79 218.66 87.14 C 211.55 81.13 206.48 72.89 198.99 67.38 C 195.87 68.36 193.00 69.98 190.07 71.41 C 194.96 83.01 200.34 94.42 205.44 105.94 C 208.05 105.15 210.51 103.92 212.64 102.19 C 209.13 94.48 204.90 87.07 201.97 79.12 C 208.62 85.42 214.18 92.85 221.19 98.74 C 222.80 98.34 224.26 97.51 225.75 96.80 C 226.14 87.46 223.87 78.28 224.46 68.94 C 227.72 76.72 230.56 84.68 234.16 92.33 C 236.73 91.58 239.17 90.47 241.49 89.14 C 236.69 77.70 230.84 66.71 226.38 55.12 C 222.95 55.71 219.77 57.27 216.90 59.20 M 435.42 71.37 C 432.69 77.92 429.06 84.09 426.87 90.86 C 434.45 94.41 442.03 98.10 449.90 100.96 C 451.50 99.82 451.68 97.49 452.62 95.84 C 447.63 93.07 442.39 90.82 437.16 88.59 C 437.69 85.25 439.20 82.20 440.85 79.29 C 445.47 81.09 449.87 83.47 454.62 84.95 C 455.36 83.22 456.11 81.50 456.88 79.79 C 452.63 77.12 447.79 75.63 443.45 73.14 C 444.57 70.65 445.76 68.19 447.03 65.77 C 452.53 67.26 457.37 70.53 462.91 71.84 C 464.86 71.02 465.15 68.39 465.89 66.60 C 458.20 63.15 450.41 59.92 442.77 56.38 C 439.85 61.14 437.98 66.43 435.42 71.37 M 460.49 106.21 C 462.62 107.65 464.54 110.89 467.36 110.43 C 472.08 103.76 476.35 96.78 480.84 89.95 C 480.15 99.07 475.24 107.44 475.25 116.64 C 476.58 117.86 478.58 119.70 480.45 118.44 C 487.72 114.23 493.64 108.02 501.03 104.00 C 496.97 111.04 491.30 117.05 487.30 124.13 C 487.61 127.02 491.47 127.60 493.62 128.93 C 500.49 118.53 507.99 108.54 514.74 98.06 C 511.94 96.10 509.49 93.33 506.17 92.29 C 498.23 97.02 491.60 103.72 483.52 108.24 C 484.24 100.40 487.48 93.07 489.34 85.46 C 489.55 83.92 490.88 81.95 489.36 80.68 C 487.19 78.60 484.51 77.19 481.99 75.60 C 474.31 85.43 467.85 96.14 460.49 106.21 M 148.37 99.94 C 149.67 105.89 151.12 111.81 152.53 117.74 C 146.94 115.38 141.60 112.48 135.95 110.27 C 134.33 111.55 132.65 112.77 131.17 114.21 C 130.29 114.89 129.49 116.38 131.14 116.70 C 137.80 119.44 144.54 122.01 151.17 124.83 C 156.76 126.98 158.74 133.40 163.75 136.38 C 165.49 134.78 167.32 133.25 169.15 131.75 C 166.31 126.63 160.44 123.29 159.62 117.13 C 157.94 109.74 156.73 102.25 154.88 94.90 C 152.38 96.10 150.29 97.96 148.37 99.94 M 516.38 125.38 C 512.16 129.66 507.59 133.58 503.54 138.02 C 508.90 143.82 514.68 149.21 520.25 154.79 C 522.61 157.33 524.96 153.19 526.08 151.35 C 522.11 147.24 517.73 143.54 514.05 139.16 C 516.20 136.73 518.47 134.42 520.95 132.31 C 524.71 135.54 528.00 139.29 531.93 142.32 C 533.29 140.94 534.83 139.68 535.85 138.01 C 533.05 134.25 528.96 131.66 526.20 127.87 C 527.08 125.09 529.96 123.63 532.01 121.76 C 536.34 125.26 539.90 129.58 544.13 133.19 C 546.25 133.03 547.42 130.49 548.98 129.17 C 542.99 123.18 536.94 117.25 530.90 111.30 C 525.81 115.73 521.19 120.66 516.38 125.38 M 116.04 129.01 C 110.67 135.48 104.82 141.53 99.49 148.02 C 101.10 149.14 102.29 152.19 104.57 151.50 C 107.05 149.18 109.17 146.51 111.38 143.94 C 119.76 150.29 126.87 158.21 135.01 164.86 C 137.36 163.57 138.82 161.21 140.45 159.17 C 132.73 151.98 124.77 145.06 117.09 137.84 C 119.67 134.96 122.27 132.10 124.69 129.08 C 123.16 127.77 121.88 126.06 120.01 125.21 C 118.33 126.01 117.31 127.72 116.04 129.01 M 547.23 152.25 C 541.46 156.53 535.21 160.19 529.77 164.90 C 531.20 167.02 532.80 169.03 534.76 170.69 C 541.15 166.13 547.38 161.32 554.05 157.18 C 551.34 166.08 546.59 174.20 543.57 182.98 C 544.10 185.62 546.35 187.51 547.91 189.61 C 558.48 182.59 568.45 174.70 578.95 167.58 C 577.86 165.13 576.13 163.07 574.13 161.33 C 567.72 165.60 561.90 170.81 555.04 174.36 C 556.84 167.28 560.75 161.00 563.24 154.17 C 563.99 151.90 565.81 149.24 564.02 147.00 C 562.93 145.65 562.22 143.15 560.14 143.32 C 555.60 145.92 551.63 149.41 547.23 152.25 M 90.44 160.05 C 86.33 167.33 80.91 173.77 76.84 181.08 C 83.44 185.93 90.50 190.09 97.23 194.75 C 101.04 197.05 104.33 200.19 108.45 201.96 C 112.09 196.17 116.12 190.63 120.00 185.00 C 120.74 183.61 122.22 182.20 121.58 180.49 C 120.33 179.32 118.84 178.33 117.13 178.03 C 113.13 182.03 110.79 187.34 107.17 191.66 C 104.37 190.00 101.60 188.28 99.14 186.14 C 101.82 182.04 104.77 178.11 107.29 173.91 C 105.66 172.66 103.97 171.50 102.20 170.48 C 99.61 174.61 96.74 178.56 93.86 182.50 C 91.35 181.21 89.01 179.62 86.79 177.88 C 89.38 172.69 93.29 168.33 96.06 163.25 C 94.31 161.98 92.52 160.71 90.44 160.05 M 582.33 184.05 C 583.25 187.57 585.14 190.70 586.54 194.02 L 586.22 194.85 C 577.42 200.10 567.82 203.86 558.99 209.07 C 559.86 211.34 560.80 213.58 561.71 215.83 C 563.05 215.54 564.42 215.25 565.66 214.62 C 574.02 210.42 582.29 206.03 590.74 202.03 C 592.52 205.23 594.21 208.49 595.62 211.88 C 597.77 211.45 599.69 210.41 601.50 209.20 C 596.94 200.08 592.50 190.90 587.86 181.82 C 586.01 182.54 584.17 183.30 582.33 184.05 M 68.53 196.06 C 65.43 203.81 61.00 210.99 58.28 218.89 C 69.70 223.67 80.72 229.35 92.06 234.30 C 93.41 232.12 94.54 229.79 95.10 227.28 C 90.73 225.01 86.31 222.87 81.88 220.72 C 83.21 215.84 86.62 211.88 88.20 207.09 C 86.41 206.23 84.63 205.34 82.87 204.43 C 80.05 208.53 78.20 213.16 75.91 217.55 C 73.00 216.58 70.18 215.35 67.43 214.01 C 69.63 208.77 72.66 203.83 73.99 198.26 C 72.21 197.44 70.39 196.68 68.53 196.06 M 48.18 247.19 C 47.55 249.51 46.91 251.83 46.24 254.14 C 56.71 262.53 67.66 270.34 78.67 278.01 C 79.39 275.63 80.09 273.25 80.80 270.87 C 78.53 268.93 76.22 267.05 73.95 265.11 C 75.01 260.89 76.26 256.73 77.61 252.60 C 80.36 252.44 83.11 252.19 85.83 251.74 C 86.58 249.13 87.20 246.48 87.50 243.79 C 74.44 245.49 61.28 246.13 48.18 247.19 M 604.44 250.60 C 600.83 251.98 598.72 255.68 598.12 259.35 C 597.07 263.54 597.63 268.36 595.06 272.05 C 593.20 273.29 590.06 273.27 588.68 271.28 C 586.98 269.31 587.21 266.50 587.34 264.09 C 587.44 261.65 589.98 260.51 591.51 258.98 C 590.97 256.82 590.49 254.65 590.03 252.48 C 584.83 253.79 580.55 258.48 580.52 263.96 C 580.51 268.63 581.52 273.69 584.77 277.23 C 588.85 282.25 597.95 282.12 601.49 276.53 C 604.40 272.16 603.99 266.65 604.87 261.69 C 605.33 259.49 607.37 256.89 609.89 257.77 C 612.65 258.87 613.65 262.23 613.28 264.96 C 612.62 267.18 610.71 268.65 609.12 270.19 C 609.70 272.25 610.30 274.31 610.92 276.36 C 614.44 275.19 617.91 272.95 619.29 269.36 C 620.49 263.84 619.88 257.43 615.81 253.17 C 613.01 249.96 608.31 249.74 604.44 250.60 M 37.92 296.98 C 35.99 304.34 41.85 313.25 49.95 312.10 C 57.65 310.56 59.49 301.91 63.22 296.23 C 64.64 293.36 69.16 293.61 70.41 296.50 C 70.86 298.73 70.87 301.11 70.26 303.32 C 68.97 306.08 65.92 307.17 63.34 308.35 C 63.32 310.52 63.29 312.70 63.27 314.87 C 66.13 314.60 69.19 314.36 71.54 312.51 C 76.40 309.06 77.62 302.55 77.32 296.96 C 77.13 292.41 74.30 287.77 69.75 286.53 C 66.27 285.95 62.36 286.20 59.59 288.64 C 54.92 292.49 54.53 299.24 50.45 303.48 C 47.59 306.01 43.49 302.29 44.31 299.02 C 43.62 294.85 47.55 292.78 50.87 291.74 C 51.14 289.51 51.17 287.27 50.91 285.04 C 44.20 284.83 38.51 290.42 37.92 296.98 M 602.27 302.17 C 597.60 304.04 592.41 303.31 587.51 303.79 C 587.47 306.36 587.54 308.93 587.65 311.51 C 592.77 312.04 597.87 310.48 602.95 310.91 C 610.88 313.92 618.17 318.49 626.25 321.17 C 626.38 318.78 626.54 316.38 626.29 314.00 C 621.54 310.28 615.16 309.50 610.22 306.02 C 614.63 302.59 620.12 300.92 624.52 297.49 C 625.90 294.85 624.39 291.71 624.47 288.89 C 616.48 292.25 609.92 298.18 602.27 302.17 M 593.00 334.98 C 587.08 339.03 585.26 347.19 587.19 353.82 C 589.00 359.97 596.77 363.69 602.51 360.48 C 607.98 357.23 609.44 350.64 612.63 345.60 C 613.59 343.74 615.96 344.53 617.65 344.21 C 618.97 346.48 620.19 349.23 618.88 351.81 C 618.00 354.67 614.64 355.13 612.72 357.01 C 612.52 359.00 612.63 361.00 612.72 363.00 C 615.87 362.54 619.30 362.01 621.63 359.60 C 625.40 355.83 626.04 350.04 625.38 344.98 C 624.65 338.92 618.22 334.76 612.37 336.46 C 606.55 338.53 604.48 344.94 601.89 349.94 C 600.78 352.37 598.36 354.54 595.53 353.48 C 592.72 351.45 592.95 347.51 593.65 344.50 C 594.81 341.66 598.02 340.84 600.56 339.69 C 600.55 337.49 600.60 335.29 600.68 333.10 C 598.06 333.34 595.18 333.26 593.00 334.98 M 51.38 352.41 C 45.71 353.93 40.52 358.79 40.43 364.97 C 40.42 370.91 41.09 376.93 42.60 382.69 C 54.88 380.67 67.28 379.50 79.54 377.31 C 79.53 372.20 78.99 367.09 77.87 362.11 C 76.96 358.02 74.29 354.29 70.43 352.53 C 64.46 349.57 57.55 350.83 51.38 352.41 M 615.42 378.26 C 613.55 381.40 613.36 385.31 612.41 388.81 C 602.09 387.46 592.38 383.08 582.14 381.57 C 580.96 383.90 580.71 386.56 580.50 389.12 C 590.19 391.94 600.04 394.16 609.84 396.60 C 609.84 400.13 608.52 403.45 608.10 406.92 C 609.03 409.05 611.97 408.33 613.83 408.96 C 614.91 406.09 615.66 403.12 616.31 400.14 C 617.85 393.13 620.45 386.32 620.95 379.12 C 619.12 378.71 617.29 378.26 615.42 378.26 M 67.35 394.34 C 61.68 395.86 55.94 398.63 52.58 403.64 C 47.08 412.13 52.35 425.17 62.27 427.36 C 70.64 428.73 79.65 425.61 85.56 419.58 C 92.55 412.55 89.57 399.15 80.68 395.19 C 76.55 393.18 71.71 393.06 67.35 394.34 M 573.18 410.00 C 570.14 417.64 566.20 424.95 563.89 432.86 C 565.75 433.66 567.65 434.41 569.61 434.96 C 571.59 430.02 573.79 425.18 575.64 420.19 C 578.86 420.70 582.82 421.48 584.86 424.11 C 583.90 428.85 580.93 432.91 580.02 437.67 C 581.89 438.42 583.77 439.18 585.68 439.89 C 587.72 435.49 589.36 430.90 591.82 426.70 C 594.54 427.50 597.20 428.49 599.71 429.81 C 597.84 434.86 595.22 439.64 593.87 444.89 C 595.66 445.76 597.52 446.51 599.48 446.93 C 602.60 439.64 605.97 432.45 608.59 424.98 C 602.35 421.78 595.74 419.38 589.31 416.61 C 583.89 414.50 578.75 411.71 573.18 410.00 M 88.35 435.56 C 81.81 437.24 75.85 441.39 71.86 446.82 C 66.01 455.01 71.56 467.13 80.47 470.35 C 85.20 471.18 90.41 471.17 94.68 468.70 C 100.88 465.39 107.19 460.35 108.26 452.96 C 108.78 446.92 105.41 440.92 100.55 437.47 C 97.05 434.91 92.45 434.96 88.35 435.56 M 559.05 443.65 C 557.88 445.78 554.84 447.90 555.53 450.46 C 561.66 455.41 569.14 458.45 575.15 463.54 C 566.82 462.00 558.80 458.64 550.30 458.15 C 549.20 459.31 548.32 460.65 547.39 461.95 C 552.10 469.06 557.74 475.54 562.14 482.86 C 555.10 478.99 549.03 473.62 542.02 469.71 C 540.51 471.62 538.67 473.45 538.03 475.88 C 539.88 477.81 542.37 478.95 544.58 480.42 C 552.97 485.51 560.95 491.33 569.70 495.82 C 571.18 493.54 572.66 491.26 574.11 488.96 C 569.40 480.99 563.52 473.81 558.14 466.31 C 567.47 467.43 576.32 471.19 585.75 471.95 C 587.37 469.50 588.93 466.99 590.05 464.27 C 579.72 457.40 569.67 450.06 559.05 443.65 M 103.25 481.88 C 105.46 485.85 108.84 489.04 111.14 492.98 C 108.95 495.01 106.53 496.78 103.99 498.35 C 100.65 494.50 98.20 489.95 94.76 486.20 C 92.70 486.20 91.20 488.14 89.46 489.07 C 93.14 495.11 97.82 500.44 101.70 506.35 C 102.37 507.73 104.04 508.53 105.26 507.26 C 113.01 501.72 120.52 495.83 128.18 490.17 C 130.02 488.71 132.22 487.61 133.70 485.77 C 133.24 483.18 130.81 481.43 129.18 479.51 C 125.09 482.60 121.03 485.73 116.84 488.70 C 113.52 485.39 111.22 481.25 108.10 477.78 C 106.52 479.09 103.43 479.48 103.25 481.88 Z" />
<path fill="#159897" opacity="1.00" d=" M 353.95 59.74 C 355.35 55.57 356.72 51.21 359.64 47.82 C 360.89 51.95 361.68 56.21 362.48 60.45 C 359.62 60.45 356.76 60.21 353.95 59.74 Z" />
<path fill="#159897" opacity="1.00" d=" M 262.50 54.07 C 264.95 57.97 267.48 61.85 269.45 66.03 C 266.83 66.98 264.09 67.58 261.32 67.90 C 261.46 63.27 261.74 58.64 262.50 54.07 Z" />
<path fill="#159897" opacity="1.00" d=" M 56.96 253.40 C 61.44 253.30 65.93 253.21 70.41 253.08 C 69.81 255.79 68.98 258.44 67.97 261.03 C 64.11 258.77 60.51 256.11 56.96 253.40 Z" />
<path fill="#159897" opacity="1.00" d=" M 49.27 362.30 C 54.25 358.80 60.81 358.90 66.62 359.49 C 71.25 360.71 72.42 366.00 72.61 370.16 C 64.32 372.00 55.82 372.77 47.41 373.83 C 47.55 370.03 45.82 365.09 49.27 362.30 Z" />
<path fill="#159897" opacity="1.00" d=" M 67.44 402.68 C 70.52 401.70 73.79 401.12 77.01 401.63 C 81.26 402.57 83.95 407.78 81.91 411.72 C 79.51 416.39 74.04 418.02 69.34 419.35 C 66.03 419.88 61.83 420.49 59.35 417.66 C 57.12 415.62 56.95 412.28 57.65 409.53 C 59.61 405.84 63.60 403.85 67.44 402.68 Z" />
<path fill="#159897" opacity="1.00" d=" M 90.38 443.47 C 95.08 441.32 101.00 444.79 101.26 449.99 C 101.08 454.19 97.82 457.32 94.53 459.51 C 91.13 461.80 87.15 463.69 82.95 463.44 C 77.70 463.04 74.44 455.93 77.82 451.79 C 80.93 447.74 85.51 444.91 90.38 443.47 Z" />
<path fill="#159897" opacity="1.00" d=" M 253.50 454.83 C 265.64 454.23 277.84 454.77 290.00 454.58 C 330.69 454.59 371.39 454.56 412.08 454.56 C 421.77 454.64 430.59 463.23 430.61 473.00 C 430.68 522.66 430.58 572.33 430.66 622.00 C 430.64 625.34 430.80 628.70 430.46 632.03 C 429.40 640.03 422.41 647.39 414.05 647.24 C 360.69 647.29 307.32 647.27 253.96 647.25 C 244.55 647.40 236.99 638.04 237.35 628.99 C 237.38 576.99 237.38 524.99 237.38 473.00 C 237.26 463.99 244.82 456.23 253.50 454.83 M 311.68 568.73 C 301.35 558.62 291.34 548.19 280.95 538.14 C 274.20 544.67 267.59 551.36 261.13 558.16 L 261.17 558.83 C 267.23 565.42 273.82 571.52 280.07 577.93 C 290.72 588.34 300.94 599.20 311.84 609.34 C 344.26 576.88 376.82 544.57 409.13 512.00 C 402.52 505.17 395.71 498.54 388.97 491.84 C 363.08 517.34 337.42 543.08 311.68 568.73 Z" />
</g>
<g id="#2d3137ff">
<path fill="#2d3137" opacity="1.00" d=" M 292.02 178.11 C 300.03 173.00 310.49 172.88 319.31 175.80 C 326.43 178.16 331.14 185.27 331.28 192.66 C 327.19 193.09 323.09 193.45 318.97 193.50 C 317.92 190.46 316.89 186.74 313.56 185.48 C 309.04 183.75 303.62 183.95 299.41 186.43 C 296.20 188.26 296.64 193.51 300.03 194.92 C 308.38 199.23 318.64 198.92 326.40 204.59 C 336.28 211.86 334.59 229.15 323.71 234.67 C 314.47 238.98 303.33 239.05 293.98 235.02 C 287.24 231.77 283.66 224.44 282.86 217.28 C 286.82 216.65 290.81 216.36 294.80 215.97 C 295.91 219.96 297.74 224.28 301.68 226.21 C 306.37 228.12 312.14 228.13 316.59 225.56 C 320.38 223.29 321.99 216.92 317.71 214.32 C 308.88 209.62 297.36 210.54 289.93 203.07 C 282.81 196.41 283.95 183.54 292.02 178.11 Z" />
<path fill="#2d3137" opacity="1.00" d=" M 366.33 174.17 C 375.60 173.07 385.86 175.61 392.27 182.74 C 397.73 188.35 399.87 196.37 400.28 204.00 C 400.78 214.07 397.85 225.16 389.68 231.69 C 385.09 235.70 378.95 237.26 373.02 237.90 C 364.25 238.34 354.78 235.96 348.66 229.32 C 341.70 221.77 339.98 210.82 341.01 200.93 C 341.73 193.34 344.88 185.79 350.65 180.66 C 354.92 176.73 360.63 174.74 366.33 174.17 M 367.45 184.64 C 361.50 185.56 356.47 190.23 355.06 196.08 C 352.82 204.28 352.91 213.92 357.82 221.17 C 363.14 228.88 375.50 229.74 381.84 222.87 C 386.95 217.32 387.66 209.21 387.16 202.02 C 386.52 197.17 385.37 191.85 381.52 188.48 C 377.82 184.99 372.38 183.77 367.45 184.64 Z" />
<path fill="#2d3137" opacity="1.00" d=" M 261.87 175.29 C 265.99 175.29 270.11 175.32 274.24 175.23 C 274.67 195.62 274.35 216.02 274.39 236.42 C 270.18 236.52 265.97 236.53 261.76 236.40 C 261.79 216.03 261.55 195.65 261.87 175.29 Z" />
<path fill="#2d3137" opacity="1.00" d=" M 141.45 279.43 C 148.30 269.87 160.65 265.86 172.03 266.31 C 182.27 266.20 193.36 269.85 199.33 278.65 C 203.79 284.99 204.27 293.11 203.24 300.56 C 201.19 309.68 195.15 317.22 189.11 324.10 C 181.97 331.96 174.44 339.46 167.16 347.19 C 166.20 348.25 165.44 349.47 164.69 350.69 C 178.42 350.87 192.15 350.54 205.87 350.92 C 206.45 356.35 206.16 361.83 206.17 367.29 C 183.24 367.52 160.32 367.38 137.39 367.33 C 137.38 362.24 136.90 357.10 137.47 352.04 C 149.25 338.99 161.77 326.61 173.45 313.46 C 177.85 308.20 182.68 302.25 182.48 294.99 C 182.65 290.26 179.98 285.07 175.26 283.61 C 170.32 281.62 164.41 283.01 160.53 286.53 C 157.02 289.95 156.77 295.23 156.56 299.82 C 149.75 299.79 142.94 299.81 136.14 299.81 C 136.01 292.71 136.92 285.19 141.45 279.43 Z" />
<path fill="#2d3137" opacity="1.00" d=" M 220.83 279.81 C 227.31 270.55 238.91 266.02 249.98 266.29 C 260.39 265.83 271.63 269.24 278.32 277.61 C 285.64 287.63 284.47 301.86 278.02 312.02 C 268.82 326.40 255.13 337.14 244.81 350.61 C 258.32 350.81 271.83 350.61 285.35 350.75 C 285.55 356.27 285.51 361.81 285.41 367.34 C 262.73 367.47 240.04 367.39 217.35 367.38 C 217.32 362.27 217.02 357.12 217.44 352.02 C 227.89 340.32 239.05 329.23 249.51 317.52 C 254.58 311.73 260.39 305.81 261.82 297.94 C 262.87 293.46 261.83 287.92 257.95 285.05 C 252.18 280.98 243.23 282.26 239.07 288.05 C 236.79 291.48 236.47 295.75 236.48 299.76 C 229.71 299.86 222.94 299.81 216.17 299.78 C 216.04 292.90 216.67 285.58 220.83 279.81 Z" />
<path fill="#2d3137" opacity="1.00" d=" M 324.43 266.66 C 333.73 265.80 343.80 265.91 352.00 271.00 C 360.24 275.75 365.30 284.78 366.53 294.05 C 367.83 304.32 367.02 314.69 367.27 325.00 C 367.39 335.73 367.33 347.60 360.54 356.56 C 354.15 365.47 342.61 369.17 332.00 368.72 C 320.44 369.26 308.05 364.23 301.98 354.00 C 297.70 347.52 296.94 339.56 297.22 331.99 C 296.63 323.01 296.73 314.00 296.84 305.00 C 297.38 297.99 296.84 290.62 300.10 284.15 C 304.25 274.39 314.07 267.96 324.43 266.66 M 327.43 283.60 C 321.77 284.89 318.46 290.67 318.20 296.16 C 316.98 310.08 318.38 324.07 318.26 338.02 C 318.31 343.89 321.96 350.58 328.20 351.55 C 332.30 351.83 337.01 352.32 340.39 349.46 C 344.07 346.88 345.80 342.37 345.77 337.98 C 345.89 325.99 345.78 313.99 345.81 302.00 C 345.91 296.63 345.96 290.32 341.49 286.52 C 337.85 282.76 332.21 282.90 327.43 283.60 Z" />
<path fill="#2d3137" opacity="1.00" d=" M 406.45 266.69 C 416.18 265.72 426.86 265.96 435.23 271.68 C 444.30 277.44 449.10 288.46 448.83 299.01 C 448.80 311.99 448.85 324.98 448.77 337.97 C 448.83 346.76 444.93 355.53 438.29 361.30 C 431.54 366.78 422.61 369.08 414.01 368.72 C 405.67 369.07 397.20 366.51 390.58 361.41 C 383.15 355.26 379.30 345.52 379.38 335.99 C 379.26 323.66 379.35 311.34 379.35 299.01 C 379.37 290.44 382.12 281.47 388.42 275.42 C 393.18 270.50 399.85 267.97 406.45 266.69 M 409.44 283.69 C 403.58 285.33 400.44 291.43 400.37 297.19 C 400.15 310.48 400.25 323.77 400.34 337.06 C 400.26 342.99 403.54 349.41 409.41 351.36 C 413.74 351.92 418.75 352.34 422.44 349.53 C 426.64 346.51 428.40 341.07 428.40 336.08 C 428.37 323.72 428.42 311.37 428.38 299.02 C 428.07 294.52 427.11 289.55 423.57 286.42 C 419.94 282.67 414.19 282.90 409.44 283.69 Z" />
<path fill="#2d3137" opacity="1.00" d=" M 488.42 266.65 C 497.72 265.70 507.75 266.06 515.99 270.99 C 525.36 276.45 530.78 287.34 530.80 298.03 C 530.89 309.35 530.78 320.68 530.83 332.00 C 530.79 336.93 531.08 342.00 529.50 346.76 C 527.50 353.17 523.71 359.27 518.01 363.02 C 511.88 367.18 504.36 368.97 497.00 368.72 C 486.33 369.31 474.82 365.51 468.06 356.91 C 462.88 350.55 461.27 342.06 461.23 334.05 C 461.34 322.36 461.22 310.67 461.29 298.98 C 461.35 290.64 463.88 281.90 469.90 275.89 C 474.75 270.77 481.54 267.81 488.42 266.65 M 491.45 283.65 C 485.53 285.07 482.24 291.22 482.33 296.99 C 482.24 310.65 482.21 324.32 482.35 337.98 C 482.24 343.91 486.09 350.36 492.20 351.51 C 496.53 351.88 501.54 352.20 505.01 349.07 C 508.62 346.21 509.92 341.42 509.78 336.99 C 509.73 323.66 509.88 310.34 509.70 297.02 C 509.89 292.42 507.67 287.78 503.80 285.23 C 500.21 282.76 495.56 283.07 491.45 283.65 Z" />
<path fill="#2d3137" opacity="1.00" d=" M 203.57 399.40 C 208.56 389.57 224.49 387.99 230.99 397.01 C 232.32 398.72 232.80 400.87 233.29 402.95 C 230.95 403.30 228.62 403.60 226.28 403.94 C 225.09 401.81 223.93 399.41 221.62 398.29 C 217.09 395.92 211.09 398.96 209.79 403.79 C 208.52 408.11 208.52 412.89 210.04 417.15 C 211.56 421.68 217.53 424.26 221.75 421.74 C 224.44 420.58 225.29 417.57 226.38 415.12 C 228.80 415.63 231.18 416.27 233.56 416.94 C 232.64 419.91 231.56 423.02 229.13 425.12 C 222.32 431.78 209.84 430.22 204.49 422.47 C 200.01 415.69 200.14 406.59 203.57 399.40 Z" />
<path fill="#2d3137" opacity="1.00" d=" M 239.74 391.75 C 248.78 391.67 257.83 391.65 266.87 391.77 C 266.86 393.90 266.88 396.03 266.91 398.17 C 260.37 398.27 253.83 398.17 247.29 398.23 C 247.32 401.04 247.32 403.85 247.31 406.67 C 253.39 406.64 259.46 406.61 265.53 406.69 C 265.54 408.83 265.52 410.99 265.45 413.14 C 259.40 413.21 253.35 413.18 247.29 413.17 C 247.33 416.35 247.32 419.53 247.31 422.71 C 254.15 422.75 261.00 422.62 267.85 422.79 C 267.80 424.91 267.78 427.04 267.79 429.17 C 258.44 429.36 249.10 429.28 239.76 429.21 C 239.64 416.73 239.66 404.24 239.74 391.75 Z" />
<path fill="#2d3137" opacity="1.00" d=" M 273.87 391.77 C 279.92 391.66 285.98 391.68 292.03 391.70 C 295.28 391.89 298.96 392.20 301.38 394.65 C 305.08 398.62 305.42 405.56 301.57 409.55 C 299.87 411.41 297.37 412.11 295.05 412.86 C 300.77 416.78 303.68 423.37 307.09 429.16 C 304.20 429.06 301.05 429.85 298.32 428.79 C 294.66 424.66 292.46 419.43 288.66 415.41 C 286.90 413.41 284.10 413.64 281.70 413.58 C 281.63 418.75 281.63 423.93 281.68 429.10 C 279.08 429.27 276.48 429.28 273.89 429.22 C 273.75 416.74 273.78 404.26 273.87 391.77 M 281.76 398.21 C 281.63 401.22 281.63 404.23 281.69 407.25 C 285.66 407.13 289.79 407.83 293.68 406.77 C 297.44 405.67 297.44 399.49 293.53 398.60 C 289.67 397.77 285.67 398.37 281.76 398.21 Z" />
<path fill="#2d3137" opacity="1.00" d=" M 309.30 391.91 C 319.11 391.53 328.94 391.63 338.75 391.85 C 338.72 393.93 338.73 396.01 338.77 398.10 C 335.11 398.23 331.44 398.24 327.78 398.21 C 327.55 408.51 327.70 418.81 327.70 429.11 C 325.21 429.28 322.72 429.28 320.24 429.16 C 320.20 418.85 320.36 408.53 320.15 398.23 C 316.53 398.24 312.91 398.25 309.29 398.06 C 309.33 396.00 309.33 393.95 309.30 391.91 Z" />
<path fill="#2d3137" opacity="1.00" d=" M 342.59 391.72 C 345.10 391.71 347.62 391.71 350.14 391.73 C 350.20 404.23 350.21 416.74 350.14 429.25 C 347.62 429.26 345.11 429.26 342.60 429.25 C 342.45 416.74 342.47 404.23 342.59 391.72 Z" />
<path fill="#2d3137" opacity="1.00" d=" M 356.96 391.76 C 365.44 391.65 373.93 391.69 382.42 391.73 C 382.44 393.88 382.45 396.03 382.44 398.19 C 376.55 398.23 370.66 398.21 364.77 398.21 C 364.63 401.03 364.63 403.87 364.85 406.69 C 369.98 406.61 375.12 406.61 380.25 406.72 C 380.22 408.79 380.18 410.86 380.13 412.94 C 375.02 413.36 369.88 413.14 364.77 413.18 C 364.62 418.48 364.67 423.80 364.70 429.11 C 362.15 429.26 359.60 429.28 357.05 429.24 C 356.72 416.75 356.89 404.25 356.96 391.76 Z" />
<path fill="#2d3137" opacity="1.00" d=" M 388.26 391.84 C 390.81 391.70 393.37 391.68 395.92 391.73 C 396.06 404.23 395.90 416.74 395.91 429.25 C 393.36 429.27 390.82 429.26 388.28 429.14 C 388.29 416.70 388.31 404.27 388.26 391.84 Z" />
<path fill="#2d3137" opacity="1.00" d=" M 402.65 391.73 C 411.71 391.72 420.77 391.59 429.82 391.81 C 429.81 393.91 429.82 396.02 429.86 398.13 C 423.32 398.31 416.79 398.16 410.25 398.22 C 410.28 401.04 410.28 403.85 410.28 406.67 C 416.36 406.64 422.44 406.62 428.52 406.68 C 428.53 408.84 428.50 410.99 428.45 413.15 C 422.39 413.20 416.32 413.17 410.27 413.18 C 410.28 416.36 410.28 419.54 410.27 422.72 C 417.07 422.81 423.89 422.46 430.69 422.92 C 430.63 424.96 430.62 427.01 430.65 429.06 C 421.33 429.51 411.99 429.18 402.66 429.24 C 402.54 416.74 402.55 404.23 402.65 391.73 Z" />
<path fill="#2d3137" opacity="1.00" d=" M 436.89 391.74 C 442.95 391.79 449.03 391.45 455.08 391.89 C 461.38 392.41 466.21 398.05 467.38 404.00 C 468.00 407.96 468.03 412.02 467.55 416.01 C 466.74 422.39 461.66 428.42 455.02 429.01 C 449.00 429.60 442.93 429.14 436.89 429.23 C 436.83 416.74 436.83 404.24 436.89 391.74 M 444.39 398.24 C 444.48 406.39 444.47 414.54 444.39 422.69 C 448.60 422.48 453.35 423.62 457.06 421.06 C 460.07 418.71 459.77 414.44 459.93 411.02 C 459.86 407.27 460.22 402.66 456.95 400.06 C 453.29 397.51 448.58 398.33 444.39 398.24 Z" />
</g>
</svg>
