<?xml version="1.0" encoding="UTF-8" ?>
<!DOCTYPE svg PUBLIC "-//W3C//DTD SVG 1.1//EN" "http://www.w3.org/Graphics/SVG/1.1/DTD/svg11.dtd">
<svg width="656pt" height="664pt" viewBox="0 0 656 664" version="1.1" xmlns="http://www.w3.org/2000/svg">
<g id="#fefefeff">
<path fill="#fefefe" opacity="1.00" d=" M 318.66 44.50 C 321.15 44.46 323.65 44.43 326.14 44.42 C 323.62 51.20 320.05 57.51 317.12 64.11 C 314.72 68.92 315.94 74.42 315.81 79.56 C 313.75 79.92 311.70 80.33 309.62 80.56 C 309.28 76.20 309.00 71.80 308.07 67.52 C 304.92 59.85 299.10 53.57 296.35 45.70 C 298.79 45.70 301.36 45.11 303.73 45.90 C 306.73 50.53 308.39 55.97 312.04 60.21 C 314.46 55.07 316.54 49.77 318.66 44.50 Z" />
<path fill="#fefefe" opacity="1.00" d=" M 349.74 59.12 C 350.67 54.56 350.37 49.50 352.85 45.43 C 355.37 45.43 357.97 45.65 360.30 46.71 C 363.29 55.39 363.36 64.82 366.68 73.42 C 370.40 66.32 374.21 59.26 378.29 52.37 C 379.87 49.03 384.06 50.34 386.88 50.88 C 389.42 51.65 388.03 54.63 387.95 56.49 C 385.97 66.21 384.35 75.99 383.21 85.84 C 380.91 85.71 378.61 85.55 376.32 85.39 C 376.86 77.03 379.27 68.95 380.52 60.70 C 375.46 67.53 372.42 75.61 367.34 82.42 C 366.06 84.75 361.95 83.39 361.87 80.86 C 360.08 73.44 359.50 65.74 356.94 58.51 C 354.78 66.11 354.76 74.06 353.33 81.79 C 351.32 81.46 349.30 81.20 347.35 80.65 C 346.78 73.37 349.15 66.32 349.74 59.12 Z" />
<path fill="#fefefe" opacity="1.00" d=" M 271.09 49.74 C 277.04 49.11 282.83 47.02 288.86 47.27 C 289.78 48.72 289.38 50.58 289.66 52.22 C 286.48 52.56 283.34 53.12 280.20 53.62 C 280.56 63.60 283.68 73.22 284.65 83.13 C 282.74 84.80 280.07 84.41 277.74 84.69 C 276.47 74.86 274.39 65.15 273.18 55.31 C 269.70 55.64 266.30 56.51 262.81 56.66 C 261.92 55.28 261.34 53.66 261.60 52.00 C 264.46 50.31 267.91 50.38 271.09 49.74 Z" />
<path fill="#fefefe" opacity="1.00" d=" M 247.08 55.83 C 248.90 55.27 250.73 54.71 252.57 54.17 C 255.77 62.04 257.27 70.44 259.74 78.54 C 260.64 81.84 261.94 85.16 261.69 88.64 C 259.80 89.50 257.79 90.01 255.82 90.61 C 253.09 78.97 248.93 67.66 247.08 55.83 Z" />
<path fill="#fefefe" opacity="1.00" d=" M 401.13 69.11 C 404.46 65.56 407.09 61.31 410.94 58.28 C 412.83 58.46 414.65 58.99 416.49 59.44 C 417.40 72.20 417.74 84.99 417.67 97.78 C 415.67 96.98 413.49 96.46 411.80 95.08 C 411.14 92.38 411.09 89.54 410.14 86.92 C 406.47 85.37 402.59 83.66 398.56 83.58 C 396.81 85.19 395.51 87.23 393.73 88.81 C 391.44 88.85 389.30 87.94 387.17 87.26 C 391.66 81.09 396.41 75.11 401.13 69.11 M 402.84 78.14 C 405.41 79.06 407.98 79.98 410.54 80.94 C 410.64 76.52 410.69 72.10 410.47 67.68 C 407.70 70.99 405.05 74.42 402.84 78.14 Z" />
<path fill="#fefefe" opacity="1.00" d=" M 212.34 68.12 C 219.21 66.20 225.58 61.68 232.99 62.42 C 237.22 62.39 239.87 66.61 241.17 70.15 C 242.52 73.89 240.34 77.44 239.36 80.95 C 242.31 85.03 246.51 88.00 250.13 91.45 C 247.59 92.61 244.10 95.20 241.64 92.52 C 238.04 90.05 235.29 84.71 230.32 85.50 C 228.92 85.29 227.72 86.57 228.10 87.95 C 228.74 91.77 230.24 95.39 231.13 99.16 C 229.31 99.97 227.48 100.78 225.67 101.61 C 220.55 90.73 216.39 79.43 212.34 68.12 M 221.23 71.49 C 222.27 74.53 223.31 77.58 224.09 80.69 C 227.21 80.57 230.46 79.94 232.97 77.96 C 235.06 76.40 234.35 73.52 234.70 71.28 C 232.93 70.16 231.30 68.23 229.01 68.49 C 226.26 68.99 223.76 70.35 221.23 71.49 Z" />
<path fill="#fefefe" opacity="1.00" d=" M 428.04 86.10 C 431.51 79.74 434.55 73.11 438.71 67.15 C 440.97 68.97 444.69 70.42 444.39 73.93 C 444.54 81.68 445.28 89.39 446.03 97.10 C 451.51 91.43 453.36 83.34 458.50 77.37 C 460.30 78.46 462.11 79.53 463.92 80.61 C 461.06 86.98 457.00 92.70 453.98 98.99 C 451.74 103.16 449.99 107.59 447.42 111.57 C 444.82 112.03 442.73 110.12 440.62 108.97 C 440.56 104.30 439.50 99.71 439.55 95.03 C 439.59 91.19 439.21 87.34 438.12 83.64 C 433.47 89.38 430.67 96.29 427.27 102.79 C 425.30 101.67 423.27 100.66 421.39 99.40 C 423.07 94.72 426.06 90.65 428.04 86.10 Z" />
<path fill="#fefefe" opacity="1.00" d=" M 196.12 76.57 C 198.10 75.35 199.95 73.42 202.43 73.43 C 205.57 78.13 207.80 83.39 210.79 88.20 C 213.37 92.65 216.76 97.54 215.23 102.96 C 212.61 110.35 203.88 115.26 196.24 113.05 C 192.65 111.80 190.41 108.51 188.74 105.29 C 185.33 98.73 181.58 92.35 178.25 85.74 C 180.37 84.87 182.47 83.97 184.59 83.12 C 188.70 89.91 191.69 97.33 196.08 103.95 C 198.86 108.89 207.12 107.21 208.53 101.96 C 208.51 99.46 207.24 97.24 206.21 95.05 C 202.98 88.82 199.37 82.79 196.12 76.57 Z" />
<path fill="#fefefe" opacity="1.00" d=" M 481.28 93.80 C 483.80 92.45 485.73 95.53 487.77 96.61 C 484.22 108.67 480.90 120.81 477.09 132.79 C 475.13 131.36 473.19 129.93 471.26 128.48 C 471.92 125.94 473.58 123.45 473.22 120.75 C 470.72 118.23 467.77 116.10 464.58 114.54 C 461.79 113.37 459.88 116.44 457.98 117.90 C 455.39 117.28 453.18 115.78 451.16 114.11 C 455.01 110.84 459.18 107.97 463.54 105.41 C 469.64 101.82 474.90 96.91 481.28 93.80 M 470.38 108.45 C 469.59 108.97 469.29 109.68 469.46 110.59 C 471.08 112.26 473.06 113.53 475.09 114.64 C 477.51 111.17 478.59 106.98 478.94 102.82 C 475.94 104.46 472.91 106.13 470.38 108.45 Z" />
<path fill="#fefefe" opacity="1.00" d=" M 152.84 113.84 C 150.42 104.33 160.53 94.67 169.91 96.63 C 173.08 97.48 175.56 99.76 177.98 101.85 C 176.33 102.72 174.70 103.66 172.96 104.36 C 169.85 104.61 166.94 101.51 163.79 102.89 C 161.77 103.96 159.44 105.64 159.38 108.15 C 158.74 112.38 161.38 116.06 163.66 119.34 C 165.80 122.07 168.14 124.98 171.47 126.29 C 174.34 126.96 177.15 125.08 178.93 122.97 C 180.93 120.60 179.98 117.33 180.51 114.53 C 181.55 113.18 182.92 112.14 184.18 111.00 C 185.82 114.02 187.29 117.39 186.49 120.91 C 184.92 127.05 179.14 131.70 172.94 132.50 C 168.52 133.07 164.37 130.66 161.42 127.58 C 157.66 123.68 154.40 119.08 152.84 113.84 Z" />
<path fill="#fefefe" opacity="1.00" d=" M 493.92 118.92 C 497.39 115.67 501.99 112.76 506.96 113.63 C 512.35 114.91 517.22 118.83 519.27 124.03 C 520.26 128.21 519.86 132.75 517.22 136.26 C 515.95 135.01 514.58 133.85 513.50 132.43 C 512.84 129.11 514.42 125.03 511.55 122.44 C 509.09 119.27 503.97 119.83 501.14 122.22 C 497.61 125.08 494.15 128.31 492.13 132.45 C 489.92 136.73 493.34 141.87 497.34 143.54 C 500.19 144.50 502.35 142.02 503.67 139.84 C 502.98 137.58 501.08 135.97 499.73 134.11 C 500.83 133.10 501.93 132.09 503.05 131.09 C 506.23 134.14 509.40 137.19 512.70 140.12 C 509.74 143.66 506.95 147.43 503.36 150.38 C 501.44 152.19 498.78 150.87 496.71 150.10 C 490.43 147.24 484.85 141.25 484.65 134.05 C 485.07 127.80 489.56 122.96 493.92 118.92 Z" />
<path fill="#fefefe" opacity="1.00" d=" M 140.16 115.13 C 141.95 115.30 145.01 117.57 143.39 119.40 C 140.52 123.17 136.40 125.76 133.46 129.48 C 132.96 131.41 134.93 132.70 136.01 133.99 C 136.96 134.70 138.09 136.44 139.37 135.28 C 142.93 132.56 145.87 129.14 149.14 126.09 C 150.27 127.63 151.40 129.18 152.49 130.75 C 149.40 134.08 145.19 136.65 143.16 140.81 C 144.79 143.18 146.81 145.30 149.14 146.99 C 153.86 144.73 156.36 139.46 161.12 137.25 C 162.68 137.00 163.72 138.35 164.52 139.47 C 165.34 141.75 162.82 143.10 161.56 144.55 C 157.36 148.30 153.63 152.57 149.27 156.15 C 147.80 157.40 146.46 155.47 145.54 154.50 C 138.63 146.41 131.20 138.77 123.96 130.97 C 129.39 125.72 134.36 119.95 140.16 115.13 Z" />
<path fill="#fefefe" opacity="1.00" d=" M 504.12 158.92 C 513.57 150.93 523.23 143.18 532.78 135.30 C 537.33 141.66 542.67 147.39 547.85 153.23 C 546.43 154.41 545.35 156.40 543.36 156.61 C 539.34 153.06 536.16 148.66 532.14 145.11 C 530.33 146.99 526.71 147.98 526.42 150.84 C 528.33 154.77 531.86 157.62 534.59 160.97 C 533.32 162.27 532.04 163.56 530.78 164.86 C 527.22 161.64 524.67 157.48 521.05 154.35 C 518.53 156.01 514.93 157.72 514.34 160.89 C 516.23 165.18 520.32 168.08 523.42 171.52 C 523.48 172.05 523.59 173.10 523.64 173.62 C 522.38 174.66 521.12 175.69 519.86 176.73 C 514.47 170.92 509.82 164.45 504.12 158.92 Z" />
<path fill="#fefefe" opacity="1.00" d=" M 106.20 150.12 C 108.58 146.64 112.02 143.75 116.13 142.62 C 119.29 141.81 122.19 143.61 124.90 144.93 C 123.60 146.40 122.36 147.96 120.81 149.18 C 117.76 149.76 113.78 148.76 112.01 152.07 C 109.64 154.36 110.72 157.47 112.15 159.92 C 119.51 159.83 124.45 152.27 131.96 153.28 C 137.87 153.22 142.22 160.33 139.93 165.68 C 137.61 171.86 131.85 177.42 124.99 177.63 C 122.36 177.89 120.08 176.39 117.87 175.22 C 119.26 173.72 120.57 172.12 122.20 170.85 C 125.04 170.91 128.33 171.97 130.56 169.55 C 133.50 167.64 133.73 164.09 133.67 160.92 C 131.58 160.65 129.44 160.13 127.34 160.57 C 122.75 162.24 118.89 165.80 113.93 166.46 C 110.18 167.05 106.54 164.62 104.76 161.44 C 103.97 157.71 103.85 153.35 106.20 150.12 Z" />
<path fill="#fefefe" opacity="1.00" d=" M 523.15 180.71 C 533.42 174.24 543.15 166.66 554.40 161.93 C 555.65 164.21 557.31 166.38 557.85 168.99 C 553.16 176.64 546.52 182.94 541.81 190.61 C 551.14 190.04 560.08 185.87 569.47 186.47 C 570.95 188.51 571.93 190.85 573.05 193.11 C 570.24 194.99 567.42 196.82 564.50 198.51 C 557.10 202.66 550.31 207.80 542.77 211.71 C 541.58 209.75 540.43 207.77 539.29 205.79 C 545.70 201.22 553.12 198.30 559.38 193.51 C 551.38 193.48 543.86 196.65 536.00 197.49 C 533.15 198.30 531.20 194.02 533.04 192.01 C 537.60 185.93 542.88 180.38 546.77 173.81 C 539.62 177.24 533.57 182.50 526.50 186.05 C 525.38 184.27 524.27 182.48 523.15 180.71 Z" />
<path fill="#fefefe" opacity="1.00" d=" M 84.67 180.86 C 90.26 183.13 95.25 186.58 100.59 189.35 C 105.87 192.10 111.03 195.08 116.22 198.00 C 115.31 200.19 114.50 202.48 113.00 204.36 C 103.86 204.55 94.75 205.37 85.61 205.73 C 91.57 210.81 99.36 212.88 105.71 217.36 C 105.30 219.59 104.11 221.56 103.14 223.58 C 92.69 217.66 81.66 212.75 71.47 206.39 C 71.54 204.03 73.41 202.29 74.59 200.40 C 77.51 200.42 80.44 200.41 83.34 200.04 C 89.62 199.18 96.07 199.93 102.25 198.27 C 96.00 194.04 89.05 191.02 82.72 186.94 C 83.13 184.84 84.00 182.88 84.67 180.86 Z" />
<path fill="#fefefe" opacity="1.00" d=" M 569.80 207.73 C 572.88 206.36 576.01 205.07 579.24 204.05 C 581.42 210.65 584.09 217.07 586.50 223.57 C 587.61 226.03 584.36 226.77 582.95 227.97 C 580.42 223.27 578.58 218.23 575.89 213.61 C 573.05 213.36 570.39 215.02 568.29 216.76 C 569.57 220.93 572.03 224.75 572.65 229.12 C 572.13 231.13 569.20 230.82 567.54 230.60 C 565.56 226.99 564.72 222.85 562.52 219.34 C 559.22 219.10 555.96 220.42 553.36 222.39 C 554.73 227.41 557.98 231.80 558.76 237.00 C 557.54 238.12 556.17 239.05 554.85 240.03 C 551.00 233.21 548.69 225.69 545.46 218.59 C 553.04 213.85 561.70 211.39 569.80 207.73 Z" />
<path fill="#fefefe" opacity="1.00" d=" M 73.36 221.18 C 81.37 220.48 89.59 224.05 94.85 230.06 C 99.58 237.72 95.64 249.49 86.94 252.37 C 82.43 253.12 77.65 252.77 73.49 250.78 C 69.13 248.79 64.32 246.57 61.97 242.14 C 57.28 233.82 63.47 221.31 73.36 221.18 M 73.20 228.25 C 68.64 227.95 64.90 233.49 67.17 237.55 C 69.97 242.90 76.34 244.78 81.80 246.07 C 85.07 247.08 88.59 245.27 90.30 242.46 C 90.94 239.45 91.31 235.55 88.55 233.45 C 84.39 229.80 78.74 227.85 73.20 228.25 Z" />
<path fill="#fefefe" opacity="1.00" d=" M 557.31 244.83 C 567.94 240.66 579.28 238.64 590.17 235.28 C 592.43 237.11 593.82 241.16 591.35 243.39 C 585.69 249.64 579.29 255.20 574.05 261.83 C 581.61 260.88 588.81 258.29 596.19 256.56 C 598.03 258.03 597.65 260.60 597.99 262.68 C 586.59 265.75 575.24 269.00 563.72 271.57 C 563.23 269.39 562.59 267.22 562.44 264.99 C 567.84 257.95 575.40 252.77 580.22 245.23 C 572.92 246.39 566.10 249.47 558.83 250.67 C 557.54 249.00 557.14 246.90 557.31 244.83 Z" />
<path fill="#fefefe" opacity="1.00" d=" M 54.74 255.08 C 66.07 257.97 77.80 259.68 88.76 263.79 C 88.53 265.42 88.18 267.04 87.62 268.59 C 83.45 269.08 79.37 267.83 75.35 266.93 C 67.91 265.26 60.52 263.34 53.20 261.17 C 53.69 259.13 54.22 257.11 54.74 255.08 Z" />
<path fill="#fefefe" opacity="1.00" d=" M 50.69 270.29 C 52.57 270.67 55.19 269.89 56.22 272.01 C 55.99 275.13 55.43 278.22 55.25 281.35 C 62.54 282.20 69.72 283.81 77.04 284.50 C 79.35 284.74 81.72 285.03 83.85 286.03 C 83.84 287.99 83.64 289.94 83.47 291.90 C 73.48 291.87 63.78 288.38 53.82 288.68 C 52.85 291.62 52.53 294.72 52.22 297.79 C 50.55 297.60 48.80 297.72 47.23 297.04 C 47.05 287.99 49.86 279.25 50.69 270.29 Z" />
<path fill="#fefefe" opacity="1.00" d=" M 595.28 271.42 C 597.11 271.37 598.96 271.15 600.80 271.36 C 602.67 280.64 603.78 290.12 604.68 299.56 C 602.66 299.56 600.66 299.56 598.66 299.54 C 598.53 296.10 598.25 292.67 597.65 289.28 C 587.74 289.88 578.09 293.09 568.13 292.75 C 567.46 290.79 567.44 288.70 567.22 286.67 C 577.03 285.34 586.82 283.86 596.59 282.24 C 596.10 278.64 595.50 275.05 595.28 271.42 Z" />
<path fill="#fefefe" opacity="1.00" d=" M 63.77 307.59 C 69.65 306.03 75.21 303.37 81.20 302.27 C 83.01 303.00 82.34 305.41 82.30 306.93 C 81.01 309.97 77.03 310.04 74.37 311.34 C 74.33 315.63 74.31 319.92 74.38 324.21 C 76.77 325.26 79.58 325.88 81.36 327.95 C 81.54 329.83 81.48 331.73 81.48 333.63 C 73.95 331.45 66.87 328.05 59.46 325.53 C 55.17 323.86 50.63 322.68 46.64 320.34 C 45.26 318.33 45.48 315.70 46.64 313.66 C 52.06 310.92 58.10 309.69 63.77 307.59 M 56.21 317.14 C 59.66 319.07 63.30 320.76 67.19 321.56 C 69.60 320.01 68.11 316.15 68.23 313.69 C 64.07 314.24 60.06 315.50 56.21 317.14 Z" />
<path fill="#fefefe" opacity="1.00" d=" M 575.41 321.34 C 576.86 320.49 578.56 320.33 580.21 320.20 C 580.87 321.58 581.97 323.21 580.79 324.66 C 579.20 327.20 575.73 328.20 574.78 331.23 C 573.98 334.12 574.59 337.45 576.78 339.59 C 578.66 339.90 581.10 340.17 582.13 338.13 C 585.28 333.28 586.34 326.87 591.48 323.48 C 595.10 320.32 600.87 321.80 603.51 325.49 C 607.04 330.35 606.80 337.09 604.25 342.33 C 602.47 345.34 599.03 346.84 595.80 347.73 C 592.84 345.05 595.41 341.63 597.92 339.89 C 601.19 337.63 601.20 332.85 599.14 329.78 C 597.12 329.23 594.21 328.71 593.10 331.02 C 590.27 335.88 589.32 342.08 584.55 345.64 C 580.38 349.02 573.80 347.10 571.04 342.84 C 566.71 336.11 568.24 325.47 575.41 321.34 Z" />
<path fill="#fefefe" opacity="1.00" d=" M 58.89 341.41 C 66.46 340.65 73.88 338.87 81.45 338.22 C 81.64 340.35 82.80 342.63 81.71 344.69 C 74.84 346.31 67.62 346.20 60.84 348.38 C 68.37 350.57 76.10 351.90 83.71 353.78 C 83.28 355.89 84.41 358.83 82.18 360.13 C 76.16 364.56 68.93 367.04 62.98 371.61 C 70.66 371.69 78.08 368.76 85.77 369.35 C 86.46 371.26 86.53 373.31 86.76 375.31 C 74.70 376.32 62.82 379.08 50.72 379.65 C 50.58 377.05 50.47 374.46 50.35 371.87 C 58.37 367.28 66.33 362.60 74.23 357.81 C 65.41 355.41 56.48 353.39 47.59 351.26 C 47.16 348.89 46.54 346.51 46.64 344.07 C 50.27 341.87 54.80 342.05 58.89 341.41 Z" />
<path fill="#fefefe" opacity="1.00" d=" M 584.64 360.60 C 590.95 358.49 597.21 356.22 603.66 354.56 C 603.64 356.74 603.70 358.93 603.44 361.11 C 598.06 363.93 591.87 364.61 586.07 366.23 C 590.31 370.76 595.82 373.68 600.76 377.33 C 600.38 379.65 599.91 381.95 599.44 384.26 C 592.44 379.80 586.43 373.93 579.15 369.91 C 575.16 367.94 570.50 368.42 566.39 366.85 C 566.18 364.65 566.37 362.44 566.45 360.24 C 572.50 360.32 578.71 362.83 584.64 360.60 Z" />
<path fill="#fefefe" opacity="1.00" d=" M 75.90 389.57 C 80.31 386.19 83.55 381.43 88.47 378.68 C 89.02 381.26 89.48 383.85 89.72 386.48 C 86.15 389.37 82.66 392.35 79.26 395.44 C 79.56 397.57 79.92 399.70 80.34 401.82 C 84.99 401.06 89.54 399.80 94.15 398.84 C 94.42 400.72 95.29 402.70 94.61 404.59 C 90.52 406.65 86.04 407.71 81.68 409.02 C 74.73 410.92 68.04 413.71 60.96 415.14 C 59.58 409.69 57.78 404.33 56.79 398.78 C 55.57 393.06 60.58 387.57 65.99 386.57 C 69.64 385.92 72.62 388.50 75.90 389.57 M 62.63 397.06 C 62.75 400.43 63.91 403.64 64.76 406.88 C 68.07 406.23 71.40 405.47 74.45 403.97 C 74.33 400.40 73.49 396.43 70.78 393.90 C 67.93 392.51 63.90 394.11 62.63 397.06 Z" />
<path fill="#fefefe" opacity="1.00" d=" M 558.49 393.91 C 559.49 386.80 566.47 381.52 573.60 382.28 C 573.56 384.25 573.50 386.22 573.44 388.20 C 570.91 388.88 567.85 388.87 565.98 390.96 C 563.77 393.73 562.65 397.97 564.88 401.08 C 566.72 401.68 568.68 401.69 570.60 401.86 C 574.43 397.26 577.59 391.61 583.19 388.94 C 588.04 387.05 593.42 390.60 594.95 395.28 C 597.61 403.60 591.16 414.83 581.56 413.42 C 581.27 411.72 581.16 409.89 581.83 408.27 C 584.28 406.65 587.67 406.13 589.26 403.44 C 589.73 401.50 589.73 399.45 589.41 397.49 C 588.43 395.28 585.05 394.61 583.51 396.52 C 579.75 400.51 577.42 406.18 572.05 408.37 C 568.30 409.37 563.92 408.86 561.10 405.99 C 557.70 402.98 558.10 398.00 558.49 393.91 Z" />
<path fill="#fefefe" opacity="1.00" d=" M 89.36 415.11 C 98.19 412.97 107.16 421.16 106.68 430.01 C 107.32 436.07 102.24 440.58 97.66 443.60 C 91.73 446.88 84.29 450.07 77.75 446.53 C 70.67 443.60 67.78 434.80 70.08 427.85 C 73.98 420.84 81.61 416.47 89.36 415.11 M 86.39 423.31 C 81.87 425.14 76.95 428.08 75.60 433.10 C 75.27 436.93 78.40 440.58 82.05 441.44 C 85.70 441.44 89.12 439.83 92.38 438.34 C 95.87 436.62 99.55 434.01 100.37 429.95 C 100.30 427.00 99.02 423.48 95.98 422.48 C 92.80 421.98 89.40 422.05 86.39 423.31 Z" />
<path fill="#fefefe" opacity="1.00" d=" M 549.91 418.04 C 554.90 419.11 559.33 421.74 563.87 423.94 C 568.63 426.31 573.59 428.25 578.31 430.72 C 579.58 427.57 580.84 424.40 582.48 421.42 C 584.33 421.61 586.12 422.17 587.94 422.59 C 585.44 432.05 579.95 440.28 576.19 449.23 C 574.55 448.24 572.84 447.38 571.09 446.62 C 572.59 443.36 574.08 440.08 575.01 436.60 C 566.02 431.99 556.36 428.84 547.44 424.09 C 548.30 422.09 549.12 420.07 549.91 418.04 Z" />
<path fill="#fefefe" opacity="1.00" d=" M 528.84 457.05 C 532.97 450.36 536.77 443.42 541.56 437.17 C 551.18 444.23 561.86 449.86 570.88 457.72 C 566.78 464.04 562.63 470.34 558.62 476.73 C 557.29 475.29 554.51 474.48 554.54 472.26 C 556.82 467.90 560.38 464.32 562.60 459.91 C 560.78 457.69 557.99 455.88 555.12 455.72 C 552.40 458.83 550.80 462.83 547.70 465.62 C 546.22 465.67 544.75 465.50 543.29 465.41 C 542.94 460.22 547.80 457.16 549.59 452.75 C 550.22 449.11 545.40 448.16 543.01 446.60 C 538.64 450.05 536.55 455.49 533.24 459.85 C 531.76 458.91 530.29 457.98 528.84 457.05 Z" />
<path fill="#fefefe" opacity="1.00" d=" M 97.15 451.80 C 98.72 451.52 100.29 451.19 101.89 451.04 C 104.77 454.17 106.36 458.23 108.52 461.85 C 113.10 459.11 117.39 455.83 122.39 453.85 C 123.22 455.88 124.06 457.92 124.83 459.98 C 118.92 463.26 113.34 467.07 107.62 470.65 C 103.11 473.42 99.24 477.32 94.10 478.94 C 90.64 472.69 86.67 466.74 82.99 460.61 C 84.65 459.66 86.33 458.75 88.03 457.89 C 90.27 461.75 92.03 466.02 95.18 469.26 C 98.18 469.23 100.63 466.54 103.23 465.13 C 101.09 460.74 97.98 456.72 97.15 451.80 Z" />
<path fill="#fefefe" opacity="1.00" d=" M 526.14 462.10 C 530.25 463.95 533.53 467.18 536.92 470.08 C 541.83 474.85 547.41 478.93 552.02 484.02 C 552.90 484.80 552.59 486.14 551.83 486.88 C 550.41 488.53 548.86 491.28 546.28 490.32 C 538.07 487.99 530.53 483.59 522.07 482.06 C 526.02 490.52 530.40 498.78 534.62 507.11 C 532.81 508.95 531.10 510.92 529.06 512.51 C 520.10 504.81 511.07 497.15 502.40 489.12 C 503.90 487.45 505.40 485.79 506.91 484.14 C 512.38 488.98 517.08 494.85 523.62 498.34 C 521.27 490.69 515.81 484.49 513.28 476.93 C 514.21 475.30 515.68 473.57 517.78 474.30 C 525.18 475.83 531.93 479.46 539.10 481.77 C 534.41 475.46 527.26 471.74 521.97 466.01 C 523.32 464.67 524.61 463.24 526.14 462.10 Z" />
<path fill="#fefefe" opacity="1.00" d=" M 118.46 474.47 C 121.83 471.58 124.98 468.20 129.04 466.29 C 131.89 466.54 134.34 469.81 133.43 472.68 C 131.91 480.62 127.95 487.84 126.37 495.77 C 132.81 492.22 137.44 486.23 143.83 482.57 C 145.18 484.09 146.54 485.61 147.90 487.14 C 140.81 494.01 132.88 499.93 125.59 506.59 C 123.99 507.70 122.57 509.80 120.40 509.55 C 118.86 508.25 117.54 506.67 116.53 504.93 C 118.36 496.20 122.76 488.23 124.59 479.49 C 117.53 482.70 113.02 489.60 106.06 492.85 C 104.59 491.67 103.30 490.30 101.97 488.99 C 106.86 483.48 113.05 479.41 118.46 474.47 Z" />
<path fill="#fefefe" opacity="1.00" d=" M 304.77 560.43 C 330.50 534.73 356.14 508.95 381.93 483.30 C 388.57 490.21 395.82 496.57 402.01 503.89 C 378.18 528.09 353.92 551.88 329.98 575.97 C 321.52 584.24 313.36 592.82 304.80 600.98 C 301.61 598.60 299.01 595.57 296.20 592.80 C 283.17 579.82 270.21 566.78 257.15 553.84 C 256.00 552.66 254.85 551.48 253.93 550.13 C 260.43 543.26 267.05 536.44 273.99 530.02 C 284.57 539.82 294.32 550.49 304.77 560.43 Z" />
<path fill="#fefefe" opacity="1.00" d=" M 152.68 493.82 C 155.26 492.83 157.07 496.35 158.63 497.97 C 151.20 506.07 143.13 513.61 135.41 521.43 C 132.88 524.39 130.71 519.87 129.25 518.01 C 132.92 512.54 138.07 508.32 142.62 503.63 C 146.04 500.42 148.96 496.68 152.68 493.82 Z" />
</g>
<g id="#8d519dff">
<path fill="#8d519d" opacity="1.00" d=" M 128.51 87.48 C 179.05 45.35 243.19 19.49 309.03 16.37 C 325.86 14.88 342.84 15.53 359.61 17.39 C 415.49 23.20 470.15 43.75 514.61 78.34 C 533.23 92.12 550.53 107.84 565.11 125.88 C 575.80 137.54 584.77 150.66 593.00 164.13 C 615.47 201.16 630.54 242.82 635.67 285.89 C 636.93 292.34 636.36 298.94 637.34 305.42 C 639.55 345.45 634.33 385.96 621.18 423.88 C 615.74 440.03 608.20 455.33 600.26 470.38 C 591.15 486.46 581.18 502.12 569.40 516.40 C 555.83 532.13 541.75 547.60 525.21 560.28 C 502.26 579.02 476.62 594.34 449.56 606.35 C 445.05 608.15 440.59 610.33 435.74 611.02 C 435.08 596.37 435.66 581.67 435.48 567.00 C 435.61 547.01 435.22 527.00 435.63 507.02 C 439.49 503.31 444.54 501.14 448.68 497.75 C 462.16 488.87 473.86 477.62 485.00 466.02 C 509.52 439.24 527.53 406.28 535.38 370.74 C 540.57 349.94 541.08 328.37 540.24 307.06 C 538.49 288.97 535.03 271.01 528.92 253.86 C 524.99 241.86 519.03 230.70 513.20 219.56 C 505.73 206.26 496.40 194.11 486.47 182.57 C 478.37 174.28 470.45 165.74 461.19 158.72 C 451.47 150.43 440.40 143.94 429.37 137.58 C 420.45 132.19 410.65 128.56 401.00 124.74 C 373.34 114.83 343.70 109.82 314.33 111.91 C 291.40 113.43 268.60 118.33 247.36 127.19 C 232.30 132.76 218.53 141.20 205.28 150.16 C 166.87 177.48 136.65 217.12 123.16 262.51 C 112.73 297.29 111.68 334.72 119.52 370.14 C 128.01 410.11 149.46 446.91 178.87 475.14 C 189.71 486.20 201.96 495.88 215.25 503.84 C 217.09 505.15 220.01 506.17 219.46 508.97 C 219.42 543.22 219.58 577.48 219.37 611.73 C 183.85 597.94 150.43 578.43 121.60 553.45 C 114.17 547.58 107.74 540.60 101.02 533.95 C 97.28 530.31 94.00 526.24 90.68 522.23 C 76.34 506.17 64.78 487.88 53.81 469.43 C 47.32 456.83 40.71 444.22 35.95 430.84 C 24.44 402.62 19.52 372.25 16.71 342.06 C 16.50 331.37 16.56 320.68 16.63 310.00 C 16.56 302.31 18.03 294.74 18.69 287.11 C 20.90 268.85 24.67 250.78 30.28 233.26 C 35.90 214.09 44.28 195.89 53.41 178.18 C 72.70 143.76 97.89 112.46 128.51 87.48 M 318.66 44.50 C 316.54 49.77 314.46 55.07 312.04 60.21 C 308.39 55.97 306.73 50.53 303.73 45.90 C 301.36 45.11 298.79 45.70 296.35 45.70 C 299.10 53.57 304.92 59.85 308.07 67.52 C 309.00 71.80 309.28 76.20 309.62 80.56 C 311.70 80.33 313.75 79.92 315.81 79.56 C 315.94 74.42 314.72 68.92 317.12 64.11 C 320.05 57.51 323.62 51.20 326.14 44.42 C 323.65 44.43 321.15 44.46 318.66 44.50 M 349.74 59.12 C 349.15 66.32 346.78 73.37 347.35 80.65 C 349.30 81.20 351.32 81.46 353.33 81.79 C 354.76 74.06 354.78 66.11 356.94 58.51 C 359.50 65.74 360.08 73.44 361.87 80.86 C 361.95 83.39 366.06 84.75 367.34 82.42 C 372.42 75.61 375.46 67.53 380.52 60.70 C 379.27 68.95 376.86 77.03 376.32 85.39 C 378.61 85.55 380.91 85.71 383.21 85.84 C 384.35 75.99 385.97 66.21 387.95 56.49 C 388.03 54.63 389.42 51.65 386.88 50.88 C 384.06 50.34 379.87 49.03 378.29 52.37 C 374.21 59.26 370.40 66.32 366.68 73.42 C 363.36 64.82 363.29 55.39 360.30 46.71 C 357.97 45.65 355.37 45.43 352.85 45.43 C 350.37 49.50 350.67 54.56 349.74 59.12 M 271.09 49.74 C 267.91 50.38 264.46 50.31 261.60 52.00 C 261.34 53.66 261.92 55.28 262.81 56.66 C 266.30 56.51 269.70 55.64 273.18 55.31 C 274.39 65.15 276.47 74.86 277.74 84.69 C 280.07 84.41 282.74 84.80 284.65 83.13 C 283.68 73.22 280.56 63.60 280.20 53.62 C 283.34 53.12 286.48 52.56 289.66 52.22 C 289.38 50.58 289.78 48.72 288.86 47.27 C 282.83 47.02 277.04 49.11 271.09 49.74 M 247.08 55.83 C 248.93 67.66 253.09 78.97 255.82 90.61 C 257.79 90.01 259.80 89.50 261.69 88.64 C 261.94 85.16 260.64 81.84 259.74 78.54 C 257.27 70.44 255.77 62.04 252.57 54.17 C 250.73 54.71 248.90 55.27 247.08 55.83 M 401.13 69.11 C 396.41 75.11 391.66 81.09 387.17 87.26 C 389.30 87.94 391.44 88.85 393.73 88.81 C 395.51 87.23 396.81 85.19 398.56 83.58 C 402.59 83.66 406.47 85.37 410.14 86.92 C 411.09 89.54 411.14 92.38 411.80 95.08 C 413.49 96.46 415.67 96.98 417.67 97.78 C 417.74 84.99 417.40 72.20 416.49 59.44 C 414.65 58.99 412.83 58.46 410.94 58.28 C 407.09 61.31 404.46 65.56 401.13 69.11 M 212.34 68.12 C 216.39 79.43 220.55 90.73 225.67 101.61 C 227.48 100.78 229.31 99.97 231.13 99.16 C 230.24 95.39 228.74 91.77 228.10 87.95 C 227.72 86.57 228.92 85.29 230.32 85.50 C 235.29 84.71 238.04 90.05 241.64 92.52 C 244.10 95.20 247.59 92.61 250.13 91.45 C 246.51 88.00 242.31 85.03 239.36 80.95 C 240.34 77.44 242.52 73.89 241.17 70.15 C 239.87 66.61 237.22 62.39 232.99 62.42 C 225.58 61.68 219.21 66.20 212.34 68.12 M 428.04 86.10 C 426.06 90.65 423.07 94.72 421.39 99.40 C 423.27 100.66 425.30 101.67 427.27 102.79 C 430.67 96.29 433.47 89.38 438.12 83.64 C 439.21 87.34 439.59 91.19 439.55 95.03 C 439.50 99.71 440.56 104.30 440.62 108.97 C 442.73 110.12 444.82 112.03 447.42 111.57 C 449.99 107.59 451.74 103.16 453.98 98.99 C 457.00 92.70 461.06 86.98 463.92 80.61 C 462.11 79.53 460.30 78.46 458.50 77.37 C 453.36 83.34 451.51 91.43 446.03 97.10 C 445.28 89.39 444.54 81.68 444.39 73.93 C 444.69 70.42 440.97 68.97 438.71 67.15 C 434.55 73.11 431.51 79.74 428.04 86.10 M 196.12 76.57 C 199.37 82.79 202.98 88.82 206.21 95.05 C 207.24 97.24 208.51 99.46 208.53 101.96 C 207.12 107.21 198.86 108.89 196.08 103.95 C 191.69 97.33 188.70 89.91 184.59 83.12 C 182.47 83.97 180.37 84.87 178.25 85.74 C 181.58 92.35 185.33 98.73 188.74 105.29 C 190.41 108.51 192.65 111.80 196.24 113.05 C 203.88 115.26 212.61 110.35 215.23 102.96 C 216.76 97.54 213.37 92.65 210.79 88.20 C 207.80 83.39 205.57 78.13 202.43 73.43 C 199.95 73.42 198.10 75.35 196.12 76.57 M 481.28 93.80 C 474.90 96.91 469.64 101.82 463.54 105.41 C 459.18 107.97 455.01 110.84 451.16 114.11 C 453.18 115.78 455.39 117.28 457.98 117.90 C 459.88 116.44 461.79 113.37 464.58 114.54 C 467.77 116.10 470.72 118.23 473.22 120.75 C 473.58 123.45 471.92 125.94 471.26 128.48 C 473.19 129.93 475.13 131.36 477.09 132.79 C 480.90 120.81 484.22 108.67 487.77 96.61 C 485.73 95.53 483.80 92.45 481.28 93.80 M 152.84 113.84 C 154.40 119.08 157.66 123.68 161.42 127.58 C 164.37 130.66 168.52 133.07 172.94 132.50 C 179.14 131.70 184.92 127.05 186.49 120.91 C 187.29 117.39 185.82 114.02 184.18 111.00 C 182.92 112.14 181.55 113.18 180.51 114.53 C 179.98 117.33 180.93 120.60 178.93 122.97 C 177.15 125.08 174.34 126.96 171.47 126.29 C 168.14 124.98 165.80 122.07 163.66 119.34 C 161.38 116.06 158.74 112.38 159.38 108.15 C 159.44 105.64 161.77 103.96 163.79 102.89 C 166.94 101.51 169.85 104.61 172.96 104.36 C 174.70 103.66 176.33 102.72 177.98 101.85 C 175.56 99.76 173.08 97.48 169.91 96.63 C 160.53 94.67 150.42 104.33 152.84 113.84 M 493.92 118.92 C 489.56 122.96 485.07 127.80 484.65 134.05 C 484.85 141.25 490.43 147.24 496.71 150.10 C 498.78 150.87 501.44 152.19 503.36 150.38 C 506.95 147.43 509.74 143.66 512.70 140.12 C 509.40 137.19 506.23 134.14 503.05 131.09 C 501.93 132.09 500.83 133.10 499.73 134.11 C 501.08 135.97 502.98 137.58 503.67 139.84 C 502.35 142.02 500.19 144.50 497.34 143.54 C 493.34 141.87 489.92 136.73 492.13 132.45 C 494.15 128.31 497.61 125.08 501.14 122.22 C 503.97 119.83 509.09 119.27 511.55 122.44 C 514.42 125.03 512.84 129.11 513.50 132.43 C 514.58 133.85 515.95 135.01 517.22 136.26 C 519.86 132.75 520.26 128.21 519.27 124.03 C 517.22 118.83 512.35 114.91 506.96 113.63 C 501.99 112.76 497.39 115.67 493.92 118.92 M 140.16 115.13 C 134.36 119.95 129.39 125.72 123.96 130.97 C 131.20 138.77 138.63 146.41 145.54 154.50 C 146.46 155.47 147.80 157.40 149.27 156.15 C 153.63 152.57 157.36 148.30 161.56 144.55 C 162.82 143.10 165.34 141.75 164.52 139.47 C 163.72 138.35 162.68 137.00 161.12 137.25 C 156.36 139.46 153.86 144.73 149.14 146.99 C 146.81 145.30 144.79 143.18 143.16 140.81 C 145.19 136.65 149.40 134.08 152.49 130.75 C 151.40 129.18 150.27 127.63 149.14 126.09 C 145.87 129.14 142.93 132.56 139.37 135.28 C 138.09 136.44 136.96 134.70 136.01 133.99 C 134.93 132.70 132.96 131.41 133.46 129.48 C 136.40 125.76 140.52 123.17 143.39 119.40 C 145.01 117.57 141.95 115.30 140.16 115.13 M 504.12 158.92 C 509.82 164.45 514.47 170.92 519.86 176.73 C 521.12 175.69 522.38 174.66 523.64 173.62 C 523.59 173.10 523.48 172.05 523.42 171.52 C 520.32 168.08 516.23 165.18 514.34 160.89 C 514.93 157.72 518.53 156.01 521.05 154.35 C 524.67 157.48 527.22 161.64 530.78 164.86 C 532.04 163.56 533.32 162.27 534.59 160.97 C 531.86 157.62 528.33 154.77 526.42 150.84 C 526.71 147.98 530.33 146.99 532.14 145.11 C 536.16 148.66 539.34 153.06 543.36 156.61 C 545.35 156.40 546.43 154.41 547.85 153.23 C 542.67 147.39 537.33 141.66 532.78 135.30 C 523.23 143.18 513.57 150.93 504.12 158.92 M 106.20 150.12 C 103.85 153.35 103.97 157.71 104.76 161.44 C 106.54 164.62 110.18 167.05 113.93 166.46 C 118.89 165.80 122.75 162.24 127.34 160.57 C 129.44 160.13 131.58 160.65 133.67 160.92 C 133.73 164.09 133.50 167.64 130.56 169.55 C 128.33 171.97 125.04 170.91 122.20 170.85 C 120.57 172.12 119.26 173.72 117.87 175.22 C 120.08 176.39 122.36 177.89 124.99 177.63 C 131.85 177.42 137.61 171.86 139.93 165.68 C 142.22 160.33 137.87 153.22 131.96 153.28 C 124.45 152.27 119.51 159.83 112.15 159.92 C 110.72 157.47 109.64 154.36 112.01 152.07 C 113.78 148.76 117.76 149.76 120.81 149.18 C 122.36 147.96 123.60 146.40 124.90 144.93 C 122.19 143.61 119.29 141.81 116.13 142.62 C 112.02 143.75 108.58 146.64 106.20 150.12 M 523.15 180.71 C 524.27 182.48 525.38 184.27 526.50 186.05 C 533.57 182.50 539.62 177.24 546.77 173.81 C 542.88 180.38 537.60 185.93 533.04 192.01 C 531.20 194.02 533.15 198.30 536.00 197.49 C 543.86 196.65 551.38 193.48 559.38 193.51 C 553.12 198.30 545.70 201.22 539.29 205.79 C 540.43 207.77 541.58 209.75 542.77 211.71 C 550.31 207.80 557.10 202.66 564.50 198.51 C 567.42 196.82 570.24 194.99 573.05 193.11 C 571.93 190.85 570.95 188.51 569.47 186.47 C 560.08 185.87 551.14 190.04 541.81 190.61 C 546.52 182.94 553.16 176.64 557.85 168.99 C 557.31 166.38 555.65 164.21 554.40 161.93 C 543.15 166.66 533.42 174.24 523.15 180.71 M 84.67 180.86 C 84.00 182.88 83.13 184.84 82.72 186.94 C 89.05 191.02 96.00 194.04 102.25 198.27 C 96.07 199.93 89.62 199.18 83.34 200.04 C 80.44 200.41 77.51 200.42 74.59 200.40 C 73.41 202.29 71.54 204.03 71.47 206.39 C 81.66 212.75 92.69 217.66 103.14 223.58 C 104.11 221.56 105.30 219.59 105.71 217.36 C 99.36 212.88 91.57 210.81 85.61 205.73 C 94.75 205.37 103.86 204.55 113.00 204.36 C 114.50 202.48 115.31 200.19 116.22 198.00 C 111.03 195.08 105.87 192.10 100.59 189.35 C 95.25 186.58 90.26 183.13 84.67 180.86 M 569.80 207.73 C 561.70 211.39 553.04 213.85 545.46 218.59 C 548.69 225.69 551.00 233.21 554.85 240.03 C 556.17 239.05 557.54 238.12 558.76 237.00 C 557.98 231.80 554.73 227.41 553.36 222.39 C 555.96 220.42 559.22 219.10 562.52 219.34 C 564.72 222.85 565.56 226.99 567.54 230.60 C 569.20 230.82 572.13 231.13 572.65 229.12 C 572.03 224.75 569.57 220.93 568.29 216.76 C 570.39 215.02 573.05 213.36 575.89 213.61 C 578.58 218.23 580.42 223.27 582.95 227.97 C 584.36 226.77 587.61 226.03 586.50 223.57 C 584.09 217.07 581.42 210.65 579.24 204.05 C 576.01 205.07 572.88 206.36 569.80 207.73 M 73.36 221.18 C 63.47 221.31 57.28 233.82 61.97 242.14 C 64.32 246.57 69.13 248.79 73.49 250.78 C 77.65 252.77 82.43 253.12 86.94 252.37 C 95.64 249.49 99.58 237.72 94.85 230.06 C 89.59 224.05 81.37 220.48 73.36 221.18 M 557.31 244.83 C 557.14 246.90 557.54 249.00 558.83 250.67 C 566.10 249.47 572.92 246.39 580.22 245.23 C 575.40 252.77 567.84 257.95 562.44 264.99 C 562.59 267.22 563.23 269.39 563.72 271.57 C 575.24 269.00 586.59 265.75 597.99 262.68 C 597.65 260.60 598.03 258.03 596.19 256.56 C 588.81 258.29 581.61 260.88 574.05 261.83 C 579.29 255.20 585.69 249.64 591.35 243.39 C 593.82 241.16 592.43 237.11 590.17 235.28 C 579.28 238.64 567.94 240.66 557.31 244.83 M 54.74 255.08 C 54.22 257.11 53.69 259.13 53.20 261.17 C 60.52 263.34 67.91 265.26 75.35 266.93 C 79.37 267.83 83.45 269.08 87.62 268.59 C 88.18 267.04 88.53 265.42 88.76 263.79 C 77.80 259.68 66.07 257.97 54.74 255.08 M 50.69 270.29 C 49.86 279.25 47.05 287.99 47.23 297.04 C 48.80 297.72 50.55 297.60 52.22 297.79 C 52.53 294.72 52.85 291.62 53.82 288.68 C 63.78 288.38 73.48 291.87 83.47 291.90 C 83.64 289.94 83.84 287.99 83.85 286.03 C 81.72 285.03 79.35 284.74 77.04 284.50 C 69.72 283.81 62.54 282.20 55.25 281.35 C 55.43 278.22 55.99 275.13 56.22 272.01 C 55.19 269.89 52.57 270.67 50.69 270.29 M 595.28 271.42 C 595.50 275.05 596.10 278.64 596.59 282.24 C 586.82 283.86 577.03 285.34 567.22 286.67 C 567.44 288.70 567.46 290.79 568.13 292.75 C 578.09 293.09 587.74 289.88 597.65 289.28 C 598.25 292.67 598.53 296.10 598.66 299.54 C 600.66 299.56 602.66 299.56 604.68 299.56 C 603.78 290.12 602.67 280.64 600.80 271.36 C 598.96 271.15 597.11 271.37 595.28 271.42 M 63.77 307.59 C 58.10 309.69 52.06 310.92 46.64 313.66 C 45.48 315.70 45.26 318.33 46.64 320.34 C 50.63 322.68 55.17 323.86 59.46 325.53 C 66.87 328.05 73.95 331.45 81.48 333.63 C 81.48 331.73 81.54 329.83 81.36 327.95 C 79.58 325.88 76.77 325.26 74.38 324.21 C 74.31 319.92 74.33 315.63 74.37 311.34 C 77.03 310.04 81.01 309.97 82.30 306.93 C 82.34 305.41 83.01 303.00 81.20 302.27 C 75.21 303.37 69.65 306.03 63.77 307.59 M 575.41 321.34 C 568.24 325.47 566.71 336.11 571.04 342.84 C 573.80 347.10 580.38 349.02 584.55 345.64 C 589.32 342.08 590.27 335.88 593.10 331.02 C 594.21 328.71 597.12 329.23 599.14 329.78 C 601.20 332.85 601.19 337.63 597.92 339.89 C 595.41 341.63 592.84 345.05 595.80 347.73 C 599.03 346.84 602.47 345.34 604.25 342.33 C 606.80 337.09 607.04 330.35 603.51 325.49 C 600.87 321.80 595.10 320.32 591.48 323.48 C 586.34 326.87 585.28 333.28 582.13 338.13 C 581.10 340.17 578.66 339.90 576.78 339.59 C 574.59 337.45 573.98 334.12 574.78 331.23 C 575.73 328.20 579.20 327.20 580.79 324.66 C 581.97 323.21 580.87 321.58 580.21 320.20 C 578.56 320.33 576.86 320.49 575.41 321.34 M 58.89 341.41 C 54.80 342.05 50.27 341.87 46.64 344.07 C 46.54 346.51 47.16 348.89 47.59 351.26 C 56.48 353.39 65.41 355.41 74.23 357.81 C 66.33 362.60 58.37 367.28 50.35 371.87 C 50.47 374.46 50.58 377.05 50.72 379.65 C 62.82 379.08 74.70 376.32 86.76 375.31 C 86.53 373.31 86.46 371.26 85.77 369.35 C 78.08 368.76 70.66 371.69 62.98 371.61 C 68.93 367.04 76.16 364.56 82.18 360.13 C 84.41 358.83 83.28 355.89 83.71 353.78 C 76.10 351.90 68.37 350.57 60.84 348.38 C 67.62 346.20 74.84 346.31 81.71 344.69 C 82.80 342.63 81.64 340.35 81.45 338.22 C 73.88 338.87 66.46 340.65 58.89 341.41 M 584.64 360.60 C 578.71 362.83 572.50 360.32 566.45 360.24 C 566.37 362.44 566.18 364.65 566.39 366.85 C 570.50 368.42 575.16 367.94 579.15 369.91 C 586.43 373.93 592.44 379.80 599.44 384.26 C 599.91 381.95 600.38 379.65 600.76 377.33 C 595.82 373.68 590.31 370.76 586.07 366.23 C 591.87 364.61 598.06 363.93 603.44 361.11 C 603.70 358.93 603.64 356.74 603.66 354.56 C 597.21 356.22 590.95 358.49 584.64 360.60 M 75.90 389.57 C 72.62 388.50 69.64 385.92 65.99 386.57 C 60.58 387.57 55.57 393.06 56.79 398.78 C 57.78 404.33 59.58 409.69 60.96 415.14 C 68.04 413.71 74.73 410.92 81.68 409.02 C 86.04 407.71 90.52 406.65 94.61 404.59 C 95.29 402.70 94.42 400.72 94.15 398.84 C 89.54 399.80 84.99 401.06 80.34 401.82 C 79.92 399.70 79.56 397.57 79.26 395.44 C 82.66 392.35 86.15 389.37 89.72 386.48 C 89.48 383.85 89.02 381.26 88.47 378.68 C 83.55 381.43 80.31 386.19 75.90 389.57 M 558.49 393.91 C 558.10 398.00 557.70 402.98 561.10 405.99 C 563.92 408.86 568.30 409.37 572.05 408.37 C 577.42 406.18 579.75 400.51 583.51 396.52 C 585.05 394.61 588.43 395.28 589.41 397.49 C 589.73 399.45 589.73 401.50 589.26 403.44 C 587.67 406.13 584.28 406.65 581.83 408.27 C 581.16 409.89 581.27 411.72 581.56 413.42 C 591.16 414.83 597.61 403.60 594.95 395.28 C 593.42 390.60 588.04 387.05 583.19 388.94 C 577.59 391.61 574.43 397.26 570.60 401.86 C 568.68 401.69 566.72 401.68 564.88 401.08 C 562.65 397.97 563.77 393.73 565.98 390.96 C 567.85 388.87 570.91 388.88 573.44 388.20 C 573.50 386.22 573.56 384.25 573.60 382.28 C 566.47 381.52 559.49 386.80 558.49 393.91 M 89.36 415.11 C 81.61 416.47 73.98 420.84 70.08 427.85 C 67.78 434.80 70.67 443.60 77.75 446.53 C 84.29 450.07 91.73 446.88 97.66 443.60 C 102.24 440.58 107.32 436.07 106.68 430.01 C 107.16 421.16 98.19 412.97 89.36 415.11 M 549.91 418.04 C 549.12 420.07 548.30 422.09 547.44 424.09 C 556.36 428.84 566.02 431.99 575.01 436.60 C 574.08 440.08 572.59 443.36 571.09 446.62 C 572.84 447.38 574.55 448.24 576.19 449.23 C 579.95 440.28 585.44 432.05 587.94 422.59 C 586.12 422.17 584.33 421.61 582.48 421.42 C 580.84 424.40 579.58 427.57 578.31 430.72 C 573.59 428.25 568.63 426.31 563.87 423.94 C 559.33 421.74 554.90 419.11 549.91 418.04 M 528.84 457.05 C 530.29 457.98 531.76 458.91 533.24 459.85 C 536.55 455.49 538.64 450.05 543.01 446.60 C 545.40 448.16 550.22 449.11 549.59 452.75 C 547.80 457.16 542.94 460.22 543.29 465.41 C 544.75 465.50 546.22 465.67 547.70 465.62 C 550.80 462.83 552.40 458.83 555.12 455.72 C 557.99 455.88 560.78 457.69 562.60 459.91 C 560.38 464.32 556.82 467.90 554.54 472.26 C 554.51 474.48 557.29 475.29 558.62 476.73 C 562.63 470.34 566.78 464.04 570.88 457.72 C 561.86 449.86 551.18 444.23 541.56 437.17 C 536.77 443.42 532.97 450.36 528.84 457.05 M 97.15 451.80 C 97.98 456.72 101.09 460.74 103.23 465.13 C 100.63 466.54 98.18 469.23 95.18 469.26 C 92.03 466.02 90.27 461.75 88.03 457.89 C 86.33 458.75 84.65 459.66 82.99 460.61 C 86.67 466.74 90.64 472.69 94.10 478.94 C 99.24 477.32 103.11 473.42 107.62 470.65 C 113.34 467.07 118.92 463.26 124.83 459.98 C 124.06 457.92 123.22 455.88 122.39 453.85 C 117.39 455.83 113.10 459.11 108.52 461.85 C 106.36 458.23 104.77 454.17 101.89 451.04 C 100.29 451.19 98.72 451.52 97.15 451.80 M 526.14 462.10 C 524.61 463.24 523.32 464.67 521.97 466.01 C 527.26 471.74 534.41 475.46 539.10 481.77 C 531.93 479.46 525.18 475.83 517.78 474.30 C 515.68 473.57 514.21 475.30 513.28 476.93 C 515.81 484.49 521.27 490.69 523.62 498.34 C 517.08 494.85 512.38 488.98 506.91 484.14 C 505.40 485.79 503.90 487.45 502.40 489.12 C 511.07 497.15 520.10 504.81 529.06 512.51 C 531.10 510.92 532.81 508.95 534.62 507.11 C 530.40 498.78 526.02 490.52 522.07 482.06 C 530.53 483.59 538.07 487.99 546.28 490.32 C 548.86 491.28 550.41 488.53 551.83 486.88 C 552.59 486.14 552.90 484.80 552.02 484.02 C 547.41 478.93 541.83 474.85 536.92 470.08 C 533.53 467.18 530.25 463.95 526.14 462.10 M 118.46 474.47 C 113.05 479.41 106.86 483.48 101.97 488.99 C 103.30 490.30 104.59 491.67 106.06 492.85 C 113.02 489.60 117.53 482.70 124.59 479.49 C 122.76 488.23 118.36 496.20 116.53 504.93 C 117.54 506.67 118.86 508.25 120.40 509.55 C 122.57 509.80 123.99 507.70 125.59 506.59 C 132.88 499.93 140.81 494.01 147.90 487.14 C 146.54 485.61 145.18 484.09 143.83 482.57 C 137.44 486.23 132.81 492.22 126.37 495.77 C 127.95 487.84 131.91 480.62 133.43 472.68 C 134.34 469.81 131.89 466.54 129.04 466.29 C 124.98 468.20 121.83 471.58 118.46 474.47 M 152.68 493.82 C 148.96 496.68 146.04 500.42 142.62 503.63 C 138.07 508.32 132.92 512.54 129.25 518.01 C 130.71 519.87 132.88 524.39 135.41 521.43 C 143.13 513.61 151.20 506.07 158.63 497.97 C 157.07 496.35 155.26 492.83 152.68 493.82 Z" />
<path fill="#8d519d" opacity="1.00" d=" M 402.84 78.14 C 405.05 74.42 407.70 70.99 410.47 67.68 C 410.69 72.10 410.64 76.52 410.54 80.94 C 407.98 79.98 405.41 79.06 402.84 78.14 Z" />
<path fill="#8d519d" opacity="1.00" d=" M 221.23 71.49 C 223.76 70.35 226.26 68.99 229.01 68.49 C 231.30 68.23 232.93 70.16 234.70 71.28 C 234.35 73.52 235.06 76.40 232.97 77.96 C 230.46 79.94 227.21 80.57 224.09 80.69 C 223.31 77.58 222.27 74.53 221.23 71.49 Z" />
<path fill="#8d519d" opacity="1.00" d=" M 470.38 108.45 C 472.91 106.13 475.94 104.46 478.94 102.82 C 478.59 106.98 477.51 111.17 475.09 114.64 C 473.06 113.53 471.08 112.26 469.46 110.59 C 469.29 109.68 469.59 108.97 470.38 108.45 Z" />
<path fill="#8d519d" opacity="1.00" d=" M 73.20 228.25 C 78.74 227.85 84.39 229.80 88.55 233.45 C 91.31 235.55 90.94 239.45 90.30 242.46 C 88.59 245.27 85.07 247.08 81.80 246.07 C 76.34 244.78 69.97 242.90 67.17 237.55 C 64.90 233.49 68.64 227.95 73.20 228.25 Z" />
<path fill="#8d519d" opacity="1.00" d=" M 56.21 317.14 C 60.06 315.50 64.07 314.24 68.23 313.69 C 68.11 316.15 69.60 320.01 67.19 321.56 C 63.30 320.76 59.66 319.07 56.21 317.14 Z" />
<path fill="#8d519d" opacity="1.00" d=" M 62.63 397.06 C 63.90 394.11 67.93 392.51 70.78 393.90 C 73.49 396.43 74.33 400.40 74.45 403.97 C 71.40 405.47 68.07 406.23 64.76 406.88 C 63.91 403.64 62.75 400.43 62.63 397.06 Z" />
<path fill="#8d519d" opacity="1.00" d=" M 86.39 423.31 C 89.40 422.05 92.80 421.98 95.98 422.48 C 99.02 423.48 100.30 427.00 100.37 429.95 C 99.55 434.01 95.87 436.62 92.38 438.34 C 89.12 439.83 85.70 441.44 82.05 441.44 C 78.40 440.58 75.27 436.93 75.60 433.10 C 76.95 428.08 81.87 425.14 86.39 423.31 Z" />
<path fill="#8d519d" opacity="1.00" d=" M 250.27 448.90 C 251.80 448.56 253.38 448.52 254.95 448.48 C 300.97 448.50 346.98 448.47 393.00 448.47 C 398.20 448.55 403.72 447.86 408.57 450.20 C 415.42 453.13 419.62 460.63 419.43 467.95 C 419.38 517.64 419.45 567.34 419.40 617.04 C 419.44 626.81 410.85 635.58 401.04 635.52 C 352.34 635.60 303.64 635.55 254.94 635.57 C 247.15 635.80 239.49 630.76 236.64 623.49 C 235.29 620.52 235.46 617.19 235.41 614.01 C 235.43 564.99 235.39 515.96 235.42 466.94 C 235.07 458.36 242.09 450.65 250.27 448.90 M 304.77 560.43 C 294.32 550.49 284.57 539.82 273.99 530.02 C 267.05 536.44 260.43 543.26 253.93 550.13 C 254.85 551.48 256.00 552.66 257.15 553.84 C 270.21 566.78 283.17 579.82 296.20 592.80 C 299.01 595.57 301.61 598.60 304.80 600.98 C 313.36 592.82 321.52 584.24 329.98 575.97 C 353.92 551.88 378.18 528.09 402.01 503.89 C 395.82 496.57 388.57 490.21 381.93 483.30 C 356.14 508.95 330.50 534.73 304.77 560.43 Z" />
</g>
<g id="#35393dff">
<path fill="#35393d" opacity="1.00" d=" M 305.93 181.70 C 313.03 179.70 320.80 179.82 327.81 182.11 C 334.86 184.56 339.65 191.63 339.63 199.06 C 335.46 199.25 331.30 199.63 327.12 199.68 C 326.31 196.68 325.30 193.28 322.21 191.88 C 317.49 189.81 311.42 190.05 307.22 193.22 C 304.65 195.22 305.17 199.48 307.96 201.03 C 316.70 205.63 327.66 205.07 335.52 211.50 C 342.74 217.49 343.17 229.31 337.46 236.47 C 333.14 242.08 325.76 243.86 319.02 244.23 C 311.21 244.53 302.34 243.29 296.86 237.13 C 293.32 233.47 292.09 228.39 291.09 223.56 C 295.13 223.04 299.19 222.59 303.25 222.20 C 304.39 225.78 305.56 229.89 309.08 231.84 C 314.71 235.07 323.15 234.75 327.38 229.43 C 329.94 226.35 328.64 221.39 324.93 219.94 C 317.82 217.08 309.93 216.40 303.06 212.89 C 297.56 210.12 293.33 204.32 293.51 198.01 C 293.14 190.51 298.89 183.70 305.93 181.70 Z" />
<path fill="#35393d" opacity="1.00" d=" M 373.42 180.67 C 381.79 179.63 391.00 180.80 397.73 186.27 C 405.52 192.25 408.87 202.46 408.60 212.01 C 408.94 220.92 406.26 230.37 399.62 236.62 C 392.75 243.44 382.27 245.32 373.00 243.75 C 365.14 242.73 357.79 238.09 353.75 231.24 C 348.79 222.89 348.40 212.55 350.04 203.20 C 351.96 191.73 361.58 181.64 373.42 180.67 M 373.43 191.49 C 367.30 193.64 363.29 199.67 362.62 205.99 C 361.81 213.89 361.71 223.22 367.79 229.21 C 373.62 235.41 384.32 235.31 390.16 229.18 C 395.43 223.57 396.07 215.30 395.51 208.00 C 394.91 202.65 393.13 196.77 388.42 193.62 C 384.17 190.47 378.38 189.75 373.43 191.49 Z" />
<path fill="#35393d" opacity="1.00" d=" M 270.20 181.64 C 274.39 181.61 278.59 181.61 282.78 181.64 C 282.77 202.05 282.79 222.47 282.77 242.88 C 278.58 242.89 274.39 242.89 270.20 242.88 C 270.18 222.47 270.20 202.05 270.20 181.64 Z" />
<path fill="#35393d" opacity="1.00" d=" M 170.84 277.85 C 175.31 272.96 181.38 269.60 187.93 268.57 C 193.28 268.19 198.66 268.24 204.01 268.55 C 212.25 269.72 219.43 275.03 223.92 281.90 C 226.91 288.14 227.12 295.21 226.21 301.96 C 223.44 312.22 216.32 320.58 209.18 328.17 C 203.82 334.15 198.15 339.83 192.61 345.65 C 192.49 346.14 192.25 347.12 192.13 347.61 C 202.43 347.53 212.72 347.71 223.02 347.60 C 224.91 347.69 227.10 347.21 228.53 348.80 C 228.70 354.01 228.49 359.23 228.47 364.45 C 207.60 364.48 186.73 364.60 165.86 364.43 C 165.53 364.10 164.88 363.45 164.56 363.12 C 164.46 358.74 164.34 354.33 164.57 349.95 C 166.49 346.84 169.16 344.29 171.61 341.61 C 179.15 333.80 186.53 325.84 193.90 317.87 C 198.39 312.25 204.28 307.29 206.25 300.10 C 206.85 296.01 206.88 291.28 204.01 287.98 C 200.63 283.89 194.61 285.38 189.99 285.66 C 184.28 288.15 183.52 294.99 183.35 300.45 C 176.75 300.40 170.16 300.39 163.56 300.43 C 163.15 292.42 164.79 283.58 170.84 277.85 Z" />
<path fill="#35393d" opacity="1.00" d=" M 235.66 268.69 C 255.12 268.56 274.57 268.64 294.02 268.62 C 295.94 268.69 298.07 268.36 299.65 269.72 C 299.39 277.02 300.97 284.78 297.73 291.63 C 292.82 304.94 287.25 318.00 282.36 331.32 C 282.23 331.42 281.96 331.61 281.83 331.71 C 280.98 334.60 279.92 337.43 279.14 340.34 C 278.99 340.39 278.70 340.49 278.55 340.54 C 275.91 348.52 272.68 356.31 269.50 364.08 C 262.79 365.14 255.79 364.22 248.98 364.44 C 249.33 361.03 250.50 357.81 251.78 354.66 C 257.15 341.68 262.48 328.66 267.60 315.57 C 267.72 315.51 267.97 315.39 268.10 315.33 C 270.73 306.50 274.99 298.28 277.75 289.50 C 277.94 289.50 278.30 289.49 278.49 289.49 C 278.53 288.16 278.58 286.83 278.64 285.51 C 270.28 285.57 261.91 285.51 253.55 285.51 C 253.46 288.52 253.20 291.53 252.57 294.49 C 247.04 294.44 241.51 294.48 235.99 294.49 C 235.22 285.92 235.66 277.28 235.66 268.69 Z" />
<path fill="#35393d" opacity="1.00" d=" M 327.47 269.67 C 333.78 267.61 340.56 268.47 347.07 268.54 C 356.38 270.00 365.44 275.75 369.44 284.50 C 371.29 288.39 372.71 292.61 372.61 296.98 C 372.70 309.98 372.67 322.99 372.59 335.99 C 372.82 346.08 367.44 356.31 358.61 361.37 C 354.14 363.83 349.18 365.78 343.99 365.58 C 337.97 365.53 331.68 366.24 326.03 363.68 C 315.45 359.83 307.51 349.36 307.40 337.99 C 307.21 324.33 307.30 310.67 307.33 297.01 C 306.90 284.74 315.59 272.89 327.47 269.67 M 336.55 284.92 C 331.22 286.37 327.26 291.47 327.42 297.02 C 327.31 310.65 327.36 324.29 327.38 337.92 C 327.23 341.72 329.53 345.22 332.52 347.39 C 337.27 350.64 344.04 349.94 348.43 346.37 C 351.13 343.70 352.74 339.88 352.54 336.07 C 352.60 323.37 352.60 310.66 352.54 297.97 C 352.67 293.92 351.02 289.78 347.96 287.09 C 344.78 284.60 340.41 283.91 336.55 284.92 Z" />
<path fill="#35393d" opacity="1.00" d=" M 391.70 277.71 C 397.41 271.74 405.71 268.12 414.00 268.34 C 419.40 268.36 424.98 267.97 430.12 269.95 C 442.29 273.66 450.26 286.54 449.68 299.00 C 449.60 312.69 449.97 326.39 449.49 340.08 C 448.20 347.97 444.51 356.05 437.52 360.44 C 427.88 366.97 415.42 366.37 404.48 364.35 C 404.46 364.21 404.42 363.93 404.40 363.79 C 392.80 360.52 384.18 349.05 384.37 337.00 C 384.30 323.67 384.27 310.34 384.35 297.01 C 384.05 289.92 387.19 283.04 391.70 277.71 M 409.67 286.72 C 406.30 288.91 404.13 292.93 404.32 296.96 C 404.27 309.98 404.26 323.00 404.34 336.02 C 404.16 340.11 405.87 344.37 409.11 346.94 C 412.19 349.43 416.39 348.72 420.06 348.64 C 423.63 348.56 426.21 345.71 427.96 342.89 C 428.09 342.78 428.34 342.56 428.46 342.45 C 429.23 339.69 429.70 336.85 429.61 333.99 C 429.59 321.65 429.64 309.30 429.60 296.96 C 429.95 291.18 425.13 285.03 419.07 285.30 C 415.92 285.34 412.42 284.85 409.67 286.72 Z" />
<path fill="#35393d" opacity="1.00" d=" M 470.13 270.89 C 477.35 268.89 484.87 269.18 492.29 269.32 C 493.07 270.41 493.42 271.62 493.34 272.97 C 493.41 302.32 493.34 331.68 493.38 361.04 C 493.57 362.40 493.15 363.51 492.10 364.37 C 485.60 364.63 479.08 364.46 472.58 364.36 C 472.59 338.95 472.55 313.55 472.60 288.15 C 467.46 288.13 462.46 289.24 457.39 289.81 C 457.29 284.92 457.17 280.02 457.44 275.13 C 462.20 273.72 466.94 272.23 471.78 271.12 C 471.23 271.04 470.67 270.96 470.13 270.89 Z" />
<path fill="#35393d" opacity="1.00" d=" M 206.69 392.70 C 212.64 386.42 223.84 385.71 230.13 391.85 C 232.28 393.85 233.18 396.72 234.29 399.36 C 231.89 399.82 229.50 400.27 227.09 400.69 C 225.78 398.52 224.60 395.92 222.08 394.93 C 217.67 392.75 211.71 395.66 210.53 400.38 C 209.45 404.60 209.44 409.13 210.60 413.34 C 211.83 418.15 218.05 421.05 222.40 418.41 C 224.99 417.07 226.07 414.20 227.27 411.73 C 229.64 412.30 232.01 412.88 234.37 413.52 C 233.13 416.91 231.78 420.55 228.74 422.76 C 225.29 425.68 220.54 426.08 216.22 425.67 C 208.97 425.08 203.00 418.63 202.16 411.54 C 201.18 405.09 201.95 397.60 206.69 392.70 Z" />
<path fill="#35393d" opacity="1.00" d=" M 240.36 388.38 C 249.48 388.38 258.59 388.39 267.71 388.38 C 267.71 390.57 267.71 392.77 267.72 394.97 C 261.09 395.11 254.46 394.91 247.83 395.12 C 247.83 397.82 247.83 400.52 247.84 403.23 C 253.97 403.32 260.11 403.25 266.24 403.29 C 266.24 405.40 266.24 407.52 266.23 409.64 C 260.11 409.66 253.98 409.60 247.85 409.69 C 247.83 412.89 247.83 416.10 247.85 419.31 C 254.73 419.41 261.62 419.33 268.50 419.36 C 268.50 421.48 268.49 423.60 268.51 425.72 C 259.13 425.75 249.74 425.73 240.36 425.73 C 240.37 413.28 240.37 400.83 240.36 388.38 Z" />
<path fill="#35393d" opacity="1.00" d=" M 274.66 388.34 C 281.07 388.48 287.49 388.28 293.91 388.42 C 297.17 388.53 300.79 389.41 302.81 392.19 C 305.96 396.24 305.88 402.52 302.22 406.22 C 300.67 408.13 298.16 408.62 295.96 409.40 C 301.41 413.63 304.26 420.06 307.93 425.71 C 304.88 425.51 301.56 426.33 298.69 425.28 C 295.40 421.17 293.11 416.33 289.59 412.40 C 287.85 410.28 284.89 410.35 282.41 410.02 C 282.28 415.25 282.36 420.47 282.34 425.70 C 279.77 425.72 277.20 425.74 274.64 425.76 C 274.63 413.28 274.60 400.81 274.66 388.34 M 282.32 395.04 C 282.34 397.96 282.34 400.88 282.32 403.80 C 286.33 403.66 290.42 404.18 294.38 403.39 C 297.87 402.42 298.27 396.40 294.57 395.49 C 290.57 394.52 286.40 395.13 282.32 395.04 Z" />
<path fill="#35393d" opacity="1.00" d=" M 309.79 388.42 C 319.64 388.33 329.50 388.42 339.35 388.37 C 339.37 390.58 339.37 392.79 339.37 395.01 C 335.71 395.02 332.06 395.02 328.40 395.03 C 328.42 405.27 328.45 415.52 328.39 425.76 C 325.86 425.73 323.34 425.72 320.82 425.71 C 320.81 415.48 320.79 405.26 320.83 395.03 C 317.14 395.04 313.45 395.02 309.77 394.89 C 309.77 392.73 309.78 390.57 309.79 388.42 Z" />
<path fill="#35393d" opacity="1.00" d=" M 357.80 388.35 C 366.28 388.42 374.77 388.37 383.26 388.38 C 383.27 390.57 383.28 392.76 383.28 394.96 C 377.32 395.07 371.36 395.00 365.41 395.03 C 365.43 397.77 365.42 400.51 365.40 403.26 C 370.49 403.30 375.58 403.26 380.67 403.29 C 380.66 405.40 380.66 407.52 380.67 409.64 C 375.57 409.66 370.48 409.62 365.39 409.67 C 365.44 415.03 365.44 420.38 365.40 425.74 C 362.86 425.73 360.33 425.73 357.79 425.76 C 357.78 413.29 357.77 400.82 357.80 388.35 Z" />
<path fill="#35393d" opacity="1.00" d=" M 388.72 388.40 C 391.33 388.39 393.96 388.38 396.58 388.38 C 396.58 400.83 396.58 413.28 396.58 425.74 C 393.96 425.73 391.33 425.72 388.71 425.71 C 388.69 413.27 388.68 400.83 388.72 388.40 Z" />
<path fill="#35393d" opacity="1.00" d=" M 437.45 388.37 C 443.27 388.45 449.10 388.25 454.92 388.45 C 461.02 388.61 466.25 393.56 467.65 399.34 C 469.34 405.55 469.17 412.47 466.33 418.32 C 464.20 422.58 459.73 425.55 454.95 425.66 C 449.11 425.87 443.28 425.66 437.45 425.74 C 437.46 413.28 437.46 400.83 437.45 388.37 M 445.26 395.01 C 445.27 403.12 445.29 411.23 445.25 419.34 C 448.99 419.20 452.97 419.97 456.51 418.46 C 459.62 416.93 460.35 413.15 460.73 410.04 C 461.01 405.61 461.05 400.54 457.96 397.00 C 454.38 394.19 449.48 395.24 445.26 395.01 Z" />
<path fill="#35393d" opacity="1.00" d=" M 343.19 388.41 C 345.74 388.38 348.29 388.38 350.84 388.41 C 350.81 400.85 350.86 413.29 350.82 425.73 C 348.28 425.73 345.74 425.73 343.21 425.73 C 343.19 413.29 343.22 400.85 343.19 388.41 Z" />
<path fill="#35393d" opacity="1.00" d=" M 403.37 388.40 C 412.42 388.38 421.47 388.37 430.53 388.40 C 430.53 390.61 430.52 392.82 430.50 395.03 C 423.93 395.03 417.37 394.99 410.80 395.06 C 410.80 397.79 410.80 400.52 410.81 403.26 C 416.97 403.31 423.14 403.24 429.30 403.31 C 429.30 405.41 429.30 407.52 429.29 409.63 C 423.13 409.66 416.97 409.62 410.80 409.67 C 410.80 412.89 410.80 416.11 410.80 419.34 C 417.62 419.37 424.43 419.37 431.25 419.33 C 431.25 421.47 431.25 423.61 431.26 425.75 C 421.97 425.73 412.68 425.71 403.39 425.76 C 403.31 413.31 403.35 400.85 403.37 388.40 Z" />
</g>
</svg>
