<?xml version="1.0" encoding="UTF-8" ?>
<!DOCTYPE svg PUBLIC "-//W3C//DTD SVG 1.1//EN" "http://www.w3.org/Graphics/SVG/1.1/DTD/svg11.dtd">
<svg width="840pt" height="845pt" viewBox="0 0 840 845" version="1.1" xmlns="http://www.w3.org/2000/svg">
<g id="#9451a0ff">
<path fill="#9451a0" opacity="1.00" d=" M 266.68 45.71 C 317.54 24.52 372.85 13.70 427.96 15.18 C 453.34 15.03 478.63 18.34 503.48 23.30 C 545.73 32.03 586.75 47.21 624.06 68.95 C 685.29 104.37 737.82 155.27 773.51 216.47 C 805.94 271.67 824.06 334.99 826.71 398.90 C 827.35 409.25 827.41 419.66 826.42 430.00 C 825.83 471.08 817.39 511.85 803.44 550.43 C 783.46 605.83 750.23 656.13 708.53 697.57 C 686.22 719.72 661.11 738.98 634.32 755.39 C 611.94 769.17 588.23 780.80 563.56 789.87 C 563.41 743.86 563.42 697.85 563.58 651.84 C 638.18 608.77 690.51 528.89 698.86 443.00 C 700.38 429.14 701.24 415.14 700.26 401.21 C 699.62 396.16 699.41 391.07 699.06 386.00 C 694.94 344.90 680.93 304.95 659.16 269.89 C 618.48 203.79 548.96 156.19 472.49 142.66 C 419.65 133.07 364.04 138.88 314.44 159.51 C 253.88 184.49 203.02 231.79 173.13 290.02 C 140.62 352.16 134.67 427.06 154.86 494.02 C 167.00 533.82 188.44 570.70 216.80 601.14 C 235.34 620.61 255.94 638.50 279.44 651.75 C 279.72 697.53 279.59 743.32 279.61 789.11 C 243.85 776.35 210.29 757.79 179.73 735.31 C 146.46 711.04 117.09 681.50 92.75 648.30 C 67.25 613.49 46.98 574.70 34.34 533.39 C 28.63 514.95 24.26 496.10 21.14 477.06 C 19.26 461.41 16.69 445.78 16.66 429.98 C 16.45 418.98 16.12 407.97 16.64 396.97 C 18.40 368.36 22.47 339.82 30.04 312.14 C 50.40 235.23 95.78 165.67 156.01 113.98 C 189.10 85.72 226.51 62.48 266.68 45.71 M 405.46 56.43 C 403.03 63.69 399.83 70.72 398.09 78.21 C 395.54 70.98 391.43 64.44 388.11 57.56 C 384.12 57.81 380.13 58.06 376.14 58.34 C 381.20 67.13 386.18 75.97 391.29 84.73 C 392.02 86.05 392.86 87.39 392.94 88.94 C 393.39 93.93 393.55 98.93 393.95 103.93 C 397.44 103.71 400.93 103.48 404.43 103.24 C 404.32 97.55 403.17 91.82 403.68 86.15 C 407.78 75.93 412.33 65.89 416.56 55.71 C 412.85 55.93 409.16 56.18 405.46 56.43 M 450.96 56.67 C 448.43 72.00 445.96 87.35 443.42 102.68 C 446.53 103.22 449.65 103.73 452.78 104.23 C 454.72 91.61 457.23 79.06 458.48 66.35 C 459.71 79.79 462.92 92.95 465.09 106.25 C 467.94 106.73 470.79 107.18 473.66 107.57 C 479.65 95.62 486.84 84.27 492.12 71.98 C 489.56 84.44 487.81 97.05 485.67 109.58 C 489.08 110.17 492.49 110.73 495.91 111.27 C 498.44 95.92 500.95 80.57 503.44 65.22 C 498.52 64.40 493.60 63.56 488.67 62.79 C 483.03 73.57 476.68 84.00 471.73 95.12 C 470.84 83.00 467.96 71.13 466.13 59.14 C 461.07 58.31 456.02 57.47 450.96 56.67 M 332.83 66.44 C 333.36 69.24 333.90 72.04 334.46 74.84 C 338.79 73.99 343.12 73.15 347.46 72.31 C 349.91 84.76 352.32 97.23 354.77 109.69 C 358.22 109.02 361.66 108.35 365.11 107.68 C 362.71 95.21 360.22 82.75 357.82 70.28 C 362.17 69.45 366.51 68.58 370.86 67.75 C 370.33 64.94 369.79 62.13 369.24 59.32 C 357.11 61.76 344.96 64.07 332.83 66.44 M 308.66 73.77 C 309.42 76.35 310.18 78.93 310.94 81.51 C 311.87 81.24 313.73 80.72 314.66 80.45 C 317.68 90.10 320.43 99.83 323.40 109.49 C 322.16 109.90 320.91 110.32 319.67 110.73 C 320.44 113.31 321.21 115.89 321.98 118.48 C 327.83 116.74 333.70 115.01 339.54 113.24 C 338.77 110.64 337.99 108.05 337.22 105.46 C 336.28 105.73 334.42 106.29 333.49 106.56 C 330.57 96.87 327.69 87.16 324.81 77.45 C 326.04 77.07 327.28 76.69 328.53 76.31 C 327.76 73.72 326.99 71.13 326.21 68.54 C 320.36 70.29 314.50 71.99 308.66 73.77 M 501.40 113.01 C 504.97 114.28 508.55 115.53 512.14 116.80 C 514.32 113.90 516.50 111.00 518.70 108.12 C 523.91 109.97 529.14 111.79 534.34 113.66 C 534.22 117.29 534.11 120.92 534.03 124.55 C 537.63 125.78 541.21 127.09 544.80 128.35 C 544.73 111.81 544.87 95.27 544.63 78.73 C 540.72 77.45 536.86 76.06 532.98 74.68 C 522.44 87.45 511.91 100.22 501.40 113.01 M 282.59 83.54 C 277.46 85.65 272.34 87.77 267.23 89.90 C 273.18 104.27 279.15 118.63 285.13 132.98 C 288.37 131.65 291.60 130.31 294.83 128.95 C 292.55 123.40 290.19 117.89 287.96 112.32 C 290.21 111.54 292.79 110.37 295.03 111.90 C 300.38 114.99 305.07 119.08 310.15 122.60 C 313.87 121.10 317.57 119.56 321.26 117.98 C 316.31 114.54 311.43 111.00 306.40 107.70 C 304.07 106.09 301.37 105.18 298.61 104.63 C 301.68 101.94 304.21 98.28 304.20 94.04 C 304.19 88.74 301.01 82.88 295.57 81.55 C 291.16 80.57 286.67 81.93 282.59 83.54 M 572.52 89.98 C 565.08 103.63 557.60 117.26 550.16 130.91 C 553.05 132.51 555.95 134.09 558.86 135.67 C 564.11 125.88 569.71 116.27 574.66 106.31 C 575.45 119.42 576.51 132.53 577.77 145.59 C 580.31 147.98 583.99 149.15 587.00 151.03 C 594.47 137.39 601.92 123.75 609.38 110.10 C 606.48 108.51 603.58 106.92 600.68 105.35 C 595.57 114.85 590.15 124.19 585.31 133.83 C 584.63 121.00 583.39 108.21 582.47 95.40 C 579.16 93.58 575.85 91.77 572.52 89.98 M 242.86 102.84 C 247.51 110.62 252.22 118.37 256.88 126.15 C 258.67 129.25 260.42 133.16 258.67 136.67 C 256.83 139.95 252.80 142.17 249.03 141.48 C 245.50 140.63 243.28 137.47 241.46 134.57 C 236.90 127.01 232.38 119.43 227.81 111.88 C 224.80 113.68 221.80 115.49 218.79 117.30 C 223.39 124.99 228.01 132.67 232.63 140.34 C 235.36 144.81 238.98 149.19 244.10 150.94 C 249.00 152.64 254.34 151.15 258.69 148.67 C 263.44 146.02 267.95 142.04 269.31 136.56 C 270.66 130.89 268.47 125.14 265.62 120.30 C 261.05 112.66 256.44 105.05 251.87 97.42 C 248.86 99.21 245.85 101.02 242.86 102.84 M 188.45 147.08 C 186.44 157.09 192.07 167.16 200.04 172.91 C 205.74 177.04 213.62 177.97 220.05 175.03 C 226.60 172.06 231.91 166.78 235.66 160.70 C 233.67 158.14 231.63 155.63 229.59 153.11 C 227.13 158.61 222.89 163.77 216.93 165.55 C 205.64 168.43 194.50 154.25 199.82 143.93 C 202.67 138.62 208.28 135.40 214.01 134.10 C 211.87 131.52 209.75 128.93 207.63 126.32 C 198.78 130.08 190.23 137.16 188.45 147.08 M 591.92 154.06 C 594.90 156.40 597.90 158.72 600.90 161.04 C 603.89 158.98 606.87 156.91 609.87 154.87 C 614.24 158.26 618.61 161.64 622.97 165.04 C 621.73 168.45 620.48 171.86 619.23 175.26 C 622.24 177.61 625.24 179.96 628.28 182.27 C 633.46 166.60 638.63 150.94 643.80 135.27 C 640.52 132.71 637.24 130.17 633.95 127.63 C 619.93 136.43 605.92 145.23 591.92 154.06 M 170.65 156.67 C 164.48 163.16 158.28 169.64 152.11 176.14 C 163.37 186.87 174.63 197.60 185.91 208.31 C 192.35 201.57 198.78 194.82 205.20 188.06 C 203.15 186.09 201.10 184.13 199.04 182.19 C 195.00 186.39 191.01 190.62 186.98 194.82 C 184.39 192.38 181.82 189.92 179.26 187.45 C 182.77 183.78 186.29 180.11 189.77 176.41 C 187.72 174.46 185.67 172.51 183.63 170.55 C 180.07 174.19 176.61 177.92 173.07 181.58 C 170.57 179.20 168.07 176.82 165.56 174.45 C 169.31 170.47 173.09 166.53 176.86 162.58 C 174.81 160.59 172.74 158.62 170.65 156.67 M 640.82 176.78 C 637.49 183.34 638.47 191.48 642.52 197.49 C 646.98 204.12 653.43 209.50 660.98 212.23 C 666.66 206.82 672.38 201.43 678.07 196.02 C 673.55 191.20 668.97 186.44 664.44 181.62 C 662.39 183.52 660.36 185.44 658.33 187.36 C 660.46 189.64 662.60 191.90 664.75 194.17 C 662.50 196.31 660.24 198.44 657.99 200.58 C 652.49 197.36 647.71 191.11 649.62 184.42 C 652.32 176.42 661.30 169.50 669.96 172.41 C 676.67 175.00 680.94 181.62 683.16 188.19 C 685.57 185.94 687.97 183.67 690.29 181.31 C 685.50 172.23 677.67 163.38 666.98 161.88 C 656.11 160.15 645.60 167.35 640.82 176.78 M 129.55 208.06 C 128.30 215.98 136.32 223.32 144.07 221.96 C 149.45 221.22 153.65 217.46 158.56 215.48 C 160.40 214.76 162.71 214.31 164.40 215.64 C 166.20 216.94 166.15 219.50 165.34 221.36 C 162.97 226.91 157.64 230.63 151.98 232.30 C 154.77 234.33 157.53 236.42 160.30 238.49 C 166.33 234.89 171.09 229.32 174.05 222.98 C 175.85 219.14 176.40 214.44 174.25 210.62 C 171.47 205.82 165.63 202.45 160.03 203.80 C 154.21 204.92 149.75 209.33 144.07 210.78 C 141.22 211.70 138.37 208.80 139.21 205.96 C 140.53 200.27 145.65 196.42 150.68 194.04 C 148.08 192.12 145.51 190.18 142.92 188.24 C 136.50 193.08 130.76 199.87 129.55 208.06 M 664.23 221.65 C 669.67 229.21 675.15 236.75 680.59 244.32 C 682.91 242.67 685.22 241.01 687.52 239.33 C 684.11 234.61 680.70 229.90 677.30 225.18 C 680.17 223.08 683.05 221.00 685.95 218.94 C 688.93 223.05 691.89 227.18 694.89 231.28 C 697.19 229.63 699.49 227.97 701.79 226.30 C 698.82 222.18 695.83 218.07 692.87 213.94 C 695.66 211.91 698.45 209.89 701.25 207.88 C 704.51 212.26 707.65 216.73 710.89 221.14 C 713.20 219.48 715.51 217.82 717.82 216.14 C 712.57 208.87 707.33 201.59 702.06 194.34 C 689.44 203.44 676.83 212.54 664.23 221.65 M 685.30 250.35 C 686.70 253.18 688.12 255.99 689.55 258.81 C 700.91 253.09 712.35 247.54 723.47 241.38 C 713.25 250.09 704.64 260.48 695.14 269.94 C 696.42 272.50 697.71 275.06 699.01 277.61 C 712.19 275.60 725.55 274.60 738.60 271.78 C 727.05 277.02 715.86 282.97 704.51 288.61 C 706.07 291.68 707.63 294.77 709.18 297.85 C 723.09 290.88 737.00 283.92 750.88 276.88 C 748.63 272.42 746.39 267.96 744.14 263.50 C 732.12 265.30 719.95 266.26 708.05 268.78 C 717.37 260.99 725.25 251.65 733.90 243.14 C 731.60 238.55 729.31 233.97 726.99 229.40 C 713.10 236.39 699.19 243.36 685.30 250.35 M 105.00 242.49 C 103.58 245.47 102.17 248.46 100.79 251.46 C 110.53 255.93 120.12 260.72 129.94 265.01 C 117.26 266.63 104.62 268.49 91.96 270.21 C 90.33 273.62 88.72 277.04 87.12 280.46 C 101.21 287.04 115.27 293.69 129.35 300.32 C 130.78 297.33 132.18 294.33 133.57 291.33 C 123.49 286.67 113.57 281.66 103.32 277.37 C 116.50 275.86 129.60 273.75 142.74 271.93 C 144.23 268.73 145.74 265.53 147.22 262.33 C 133.15 255.70 119.09 249.07 105.00 242.49 M 712.15 308.20 C 714.97 317.08 717.76 325.97 720.59 334.85 C 723.29 334.00 726.00 333.15 728.71 332.29 C 726.97 326.73 725.19 321.19 723.45 315.63 C 726.83 314.55 730.22 313.48 733.61 312.41 C 735.17 317.25 736.68 322.11 738.23 326.95 C 740.94 326.11 743.64 325.25 746.35 324.38 C 744.82 319.53 743.29 314.69 741.77 309.84 C 745.06 308.79 748.37 307.77 751.68 306.75 C 753.31 311.95 754.95 317.16 756.62 322.35 C 759.34 321.49 762.06 320.63 764.78 319.75 C 762.05 311.21 759.36 302.66 756.67 294.12 C 741.84 298.85 726.96 303.44 712.15 308.20 M 90.38 300.65 C 74.84 303.88 68.42 325.58 78.72 337.25 C 86.52 346.09 101.00 349.70 111.39 343.38 C 118.33 339.22 121.92 330.95 122.01 323.07 C 122.14 315.10 117.24 307.51 110.24 303.86 C 104.23 300.70 97.10 299.13 90.38 300.65 M 722.72 342.10 C 723.24 345.36 723.79 348.62 724.33 351.88 C 735.30 350.03 746.32 348.45 757.22 346.20 C 747.23 354.93 737.66 364.13 727.85 373.05 C 728.41 376.53 728.99 380.02 729.58 383.50 C 744.93 381.03 760.27 378.45 775.62 375.91 C 775.09 372.63 774.55 369.36 774.00 366.09 C 763.35 367.94 752.65 369.44 742.07 371.61 C 751.76 363.19 761.01 354.27 770.58 345.72 C 770.01 341.96 769.39 338.22 768.76 334.48 C 753.41 337.02 738.07 339.57 722.72 342.10 M 67.97 348.17 C 67.00 354.19 66.03 360.22 65.08 366.25 C 67.75 366.68 70.42 367.10 73.10 367.52 C 73.31 366.24 73.53 364.96 73.75 363.69 C 83.75 365.20 93.73 366.90 103.73 368.48 C 103.54 369.76 103.35 371.05 103.16 372.34 C 105.83 372.76 108.50 373.18 111.17 373.60 C 112.14 367.57 113.11 361.55 114.05 355.52 C 111.38 355.09 108.72 354.66 106.05 354.24 C 105.83 355.51 105.61 356.79 105.39 358.07 C 95.41 356.44 85.40 354.93 75.41 353.30 C 75.60 352.01 75.78 350.72 75.97 349.43 C 73.31 349.01 70.64 348.58 67.97 348.17 M 63.87 373.07 C 63.09 385.41 62.34 397.75 61.58 410.10 C 64.42 410.27 67.27 410.45 70.12 410.62 C 70.40 406.21 70.66 401.81 70.94 397.42 C 83.62 398.14 96.30 398.95 108.98 399.75 C 109.20 396.24 109.41 392.73 109.62 389.22 C 96.95 388.40 84.27 387.61 71.60 386.88 C 71.86 382.45 72.13 378.03 72.40 373.60 C 69.55 373.41 66.71 373.24 63.87 373.07 M 768.09 389.28 C 768.16 393.69 768.23 398.10 768.30 402.51 C 755.60 402.74 742.89 402.93 730.19 403.16 C 730.25 406.66 730.30 410.17 730.38 413.68 C 743.08 413.50 755.78 413.25 768.49 413.06 C 768.55 417.49 768.62 421.92 768.71 426.35 C 771.55 426.32 774.40 426.27 777.26 426.22 C 777.06 413.86 776.85 401.49 776.64 389.13 C 773.79 389.18 770.93 389.23 768.09 389.28 M 62.60 434.66 C 62.93 438.76 63.26 442.86 63.51 446.97 C 79.43 451.59 95.43 455.94 111.40 460.43 C 111.11 456.65 110.82 452.87 110.55 449.09 C 107.03 448.22 103.49 447.42 99.95 446.62 C 99.48 441.11 99.08 435.59 98.66 430.07 C 102.04 428.73 105.40 427.36 108.75 425.95 C 108.46 422.15 108.17 418.35 107.87 414.55 C 92.79 421.28 77.69 427.95 62.60 434.66 M 730.24 449.80 C 726.62 455.88 724.86 463.04 725.24 470.10 C 725.46 474.32 727.20 478.75 730.92 481.06 C 735.39 483.79 741.66 484.20 745.96 480.89 C 750.02 477.86 752.22 473.17 755.25 469.24 C 756.47 467.70 757.93 466.02 760.03 465.82 C 762.36 465.69 764.03 467.89 764.26 470.04 C 765.01 475.44 762.49 480.66 759.29 484.85 C 762.49 485.32 765.68 485.86 768.88 486.40 C 771.78 480.38 773.41 473.60 772.66 466.91 C 772.20 463.03 770.46 459.10 767.12 456.88 C 762.68 453.96 756.33 453.77 752.09 457.14 C 747.79 460.31 745.82 465.48 742.42 469.42 C 741.08 470.93 739.19 472.41 737.04 471.96 C 734.79 471.48 733.73 469.07 733.67 466.98 C 733.39 461.06 736.33 455.46 740.54 451.46 C 737.11 450.86 733.68 450.28 730.24 449.80 M 66.88 477.89 C 68.12 482.74 69.39 487.57 70.65 492.40 C 82.77 493.12 94.84 494.71 106.99 494.83 C 96.29 500.44 86.78 508.03 76.47 514.29 C 77.55 519.35 79.00 524.33 80.27 529.35 C 95.33 525.44 110.40 521.55 125.45 517.56 C 124.65 514.52 123.85 511.48 123.06 508.44 C 110.78 511.69 98.42 514.63 86.27 518.34 C 98.05 511.97 108.64 503.66 119.88 496.42 C 119.20 493.60 118.48 490.81 117.74 488.02 C 104.31 487.24 90.92 485.40 77.46 485.52 C 89.96 482.85 102.26 479.32 114.65 476.18 C 113.79 472.83 112.92 469.48 112.04 466.14 C 96.98 470.05 81.93 473.97 66.88 477.89 M 738.07 501.63 C 736.25 501.94 734.37 502.18 732.61 501.55 C 728.02 500.19 723.44 498.79 718.85 497.47 C 717.82 500.82 716.82 504.17 715.85 507.53 C 721.24 509.40 727.05 510.31 732.18 512.81 C 740.32 520.19 748.09 527.97 756.21 535.38 C 757.27 531.86 758.32 528.33 759.38 524.81 C 753.44 519.97 747.93 514.54 741.54 510.30 C 749.24 510.37 756.86 509.00 764.48 508.01 C 765.51 504.20 766.67 500.43 767.80 496.65 C 757.89 498.28 747.97 499.94 738.07 501.63 M 114.67 544.82 C 112.52 542.67 110.09 540.59 107.03 539.94 C 99.74 538.02 90.50 543.83 91.47 551.96 C 92.51 560.85 97.75 568.47 101.01 576.65 C 115.17 570.22 129.33 563.79 143.48 557.31 C 142.03 554.13 140.59 550.94 139.12 547.77 C 133.66 550.22 128.23 552.74 122.76 555.19 C 121.90 552.96 120.55 550.43 122.07 548.15 C 124.97 542.70 128.90 537.88 132.25 532.71 C 130.61 529.04 128.94 525.38 127.26 521.73 C 122.96 529.33 116.21 535.96 114.67 544.82 M 702.40 541.13 C 701.38 544.63 700.81 548.48 702.05 552.01 C 703.94 557.61 710.21 560.97 715.93 560.49 C 721.86 559.69 725.91 554.87 730.25 551.25 C 732.13 549.76 734.41 547.91 736.97 548.69 C 739.08 549.44 739.81 551.90 739.49 553.94 C 738.75 559.23 735.15 563.59 731.04 566.76 C 734.01 568.04 736.97 569.35 739.93 570.67 C 745.13 564.41 749.24 556.38 748.42 548.04 C 747.64 540.15 738.22 535.00 731.07 538.10 C 725.36 540.29 722.09 545.98 716.72 548.67 C 714.05 550.26 710.25 548.21 710.49 545.01 C 710.77 538.42 715.61 532.92 721.12 529.79 C 717.97 528.43 714.83 527.04 711.70 525.63 C 707.22 529.80 704.17 535.31 702.40 541.13 M 683.59 577.57 C 694.49 584.08 705.39 590.58 716.29 597.11 C 714.02 600.91 711.75 604.71 709.47 608.51 C 711.90 609.99 714.35 611.46 716.81 612.91 C 723.17 602.31 729.50 591.70 735.85 581.09 C 733.41 579.61 730.95 578.14 728.49 576.71 C 726.23 580.49 723.98 584.27 721.71 588.05 C 710.80 581.55 699.90 575.02 689.00 568.50 C 687.18 571.51 685.38 574.53 683.59 577.57 M 135.37 573.47 C 127.04 576.00 119.08 581.96 116.36 590.52 C 111.78 604.46 124.38 620.83 139.08 619.82 C 150.23 619.08 161.54 611.09 163.76 599.75 C 165.42 591.53 161.43 583.09 155.30 577.72 C 149.94 573.04 142.17 571.55 135.37 573.47 M 655.76 616.12 C 658.00 617.87 660.25 619.60 662.53 621.31 C 666.06 616.69 669.63 612.11 673.19 607.52 C 676.01 609.68 678.82 611.86 681.62 614.05 C 678.52 618.08 675.40 622.09 672.30 626.11 C 674.53 627.85 676.78 629.58 679.03 631.32 C 682.18 627.31 685.24 623.23 688.45 619.26 C 691.14 621.40 693.86 623.52 696.58 625.64 C 693.23 629.94 689.89 634.26 686.56 638.58 C 688.80 640.33 691.06 642.07 693.32 643.82 C 698.82 636.74 704.29 629.64 709.79 622.56 C 697.50 613.03 685.20 603.50 672.88 593.99 C 667.17 601.36 661.45 608.73 655.76 616.12 M 162.38 619.10 C 160.22 620.95 158.07 622.81 155.94 624.70 C 159.26 628.48 162.56 632.28 165.86 636.09 C 162.99 638.60 160.11 641.11 157.22 643.60 C 153.61 639.48 150.03 635.32 146.41 631.20 C 144.26 633.07 142.11 634.94 139.96 636.81 C 145.87 643.58 151.75 650.38 157.67 657.15 C 169.42 646.97 181.12 636.74 192.88 626.57 C 190.60 623.89 188.30 621.25 185.98 618.62 C 181.41 622.56 176.87 626.55 172.31 630.50 C 169.00 626.70 165.70 622.89 162.38 619.10 M 644.39 628.76 C 653.04 637.98 661.57 647.31 670.51 656.25 C 659.31 648.97 647.01 643.62 635.27 637.29 C 633.18 639.24 631.09 641.20 629.01 643.17 C 634.66 655.19 639.37 667.68 645.75 679.34 C 637.42 669.85 628.65 660.77 620.04 651.54 C 617.52 653.89 615.01 656.24 612.48 658.58 C 623.04 670.01 633.75 681.31 644.37 692.69 C 648.02 689.27 651.72 685.89 655.32 682.41 C 650.15 671.42 645.83 660.02 640.04 649.34 C 650.15 656.07 661.36 660.93 671.94 666.88 C 675.71 663.41 679.43 659.89 683.18 656.39 C 672.59 644.99 661.93 633.66 651.31 622.30 C 648.99 624.44 646.69 626.60 644.39 628.76 M 169.46 669.82 C 171.94 671.98 174.43 674.15 176.94 676.29 C 183.97 668.11 191.24 660.13 198.00 651.72 C 195.95 664.40 194.42 677.16 192.61 689.88 C 195.46 692.35 198.31 694.83 201.18 697.30 C 211.36 685.55 221.56 673.81 231.74 662.06 C 229.25 659.88 226.75 657.71 224.23 655.57 C 217.04 664.03 209.51 672.20 202.57 680.87 C 204.66 667.77 206.23 654.60 208.01 641.46 C 205.34 639.17 202.69 636.87 200.03 634.58 C 189.82 646.30 179.63 658.05 169.46 669.82 M 237.50 665.62 C 235.97 667.86 234.46 670.11 232.97 672.38 C 234.03 673.08 235.10 673.79 236.16 674.50 C 230.54 682.92 224.82 691.28 219.13 699.66 C 218.06 698.93 216.98 698.21 215.90 697.51 C 214.37 699.74 212.85 701.98 211.33 704.23 C 216.40 707.65 221.46 711.08 226.52 714.50 C 228.02 712.26 229.53 710.03 231.04 707.80 C 229.98 707.05 228.91 706.29 227.85 705.56 C 233.52 697.18 239.20 688.80 244.90 680.44 C 245.98 681.15 247.06 681.86 248.14 682.59 C 249.65 680.36 251.17 678.12 252.67 675.89 C 247.61 672.47 242.60 668.98 237.50 665.62 Z" />
<path fill="#9451a0" opacity="1.00" d=" M 523.51 101.25 C 527.62 95.55 532.37 90.30 535.91 84.21 C 534.77 91.16 535.14 98.22 534.76 105.22 C 531.00 103.92 527.25 102.59 523.51 101.25 Z" />
<path fill="#9451a0" opacity="1.00" d=" M 279.95 93.13 C 282.59 92.06 285.20 90.72 288.06 90.39 C 292.61 90.07 295.25 95.85 293.37 99.57 C 291.84 102.88 287.98 103.77 284.95 105.14 C 283.27 101.15 281.60 97.14 279.95 93.13 Z" />
<path fill="#9451a0" opacity="1.00" d=" M 616.61 149.86 C 622.31 145.76 628.43 142.22 633.76 137.62 C 630.40 143.80 628.63 150.67 626.02 157.17 C 622.87 154.75 619.74 152.31 616.61 149.86 Z" />
<path fill="#9451a0" opacity="1.00" d=" M 92.25 311.25 C 98.53 310.62 105.46 312.40 109.99 316.97 C 114.77 321.87 113.09 331.01 107.01 334.06 C 101.88 336.69 95.70 335.48 90.70 333.15 C 86.05 331.03 82.16 326.16 83.04 320.82 C 83.45 315.96 87.39 311.81 92.25 311.25 Z" />
<path fill="#9451a0" opacity="1.00" d=" M 71.05 440.51 C 77.91 438.86 84.21 435.58 90.77 433.07 C 91.10 437.04 91.41 441.01 91.70 444.98 C 84.83 443.42 78.06 441.35 71.05 440.51 Z" />
<path fill="#9451a0" opacity="1.00" d=" M 100.79 554.97 C 101.09 550.57 106.91 548.35 110.45 550.54 C 113.35 552.18 114.24 555.66 115.66 558.43 C 111.72 560.25 107.76 562.04 103.80 563.83 C 102.59 560.97 100.81 558.16 100.79 554.97 Z" />
<path fill="#9451a0" opacity="1.00" d=" M 499.38 575.54 C 508.97 575.74 519.06 574.22 528.20 577.94 C 536.19 581.77 542.15 590.12 542.24 599.11 C 542.41 646.37 542.22 693.65 542.43 740.92 C 543.29 748.26 541.87 755.62 542.68 762.96 C 543.44 772.61 542.46 782.29 542.93 791.96 C 542.97 799.54 542.24 807.96 536.82 813.80 C 531.87 819.98 523.79 822.80 516.05 822.79 C 452.68 822.81 389.31 822.82 325.94 822.72 C 315.70 822.75 306.15 815.66 302.58 806.18 C 300.47 801.06 301.03 795.43 300.96 790.04 C 300.91 727.02 300.90 664.00 300.92 600.98 C 300.56 588.07 311.89 575.89 324.97 576.11 C 372.98 576.01 421.00 576.23 469.00 575.94 C 479.11 574.87 489.25 576.45 499.38 575.54 M 490.64 626.15 C 458.81 658.24 426.79 690.15 394.81 722.10 C 382.18 709.35 369.47 696.67 356.96 683.80 C 348.44 691.91 340.34 700.45 331.86 708.60 C 352.77 729.65 373.86 750.51 394.81 771.52 C 435.23 731.47 475.42 691.18 515.58 650.87 C 507.10 642.80 498.99 634.35 490.64 626.15 Z" />
<path fill="#9451a0" opacity="1.00" d=" M 139.42 583.52 C 144.28 581.87 150.05 583.80 152.57 588.36 C 155.57 592.79 154.19 598.89 150.58 602.54 C 146.59 606.66 140.95 609.90 135.03 609.34 C 128.40 608.80 123.35 601.15 125.89 594.89 C 128.24 589.23 133.78 585.43 139.42 583.52 Z" />
</g>
<g id="#ffffffff">
<path fill="#ffffff" opacity="1.00" d=" M 405.46 56.43 C 409.16 56.18 412.85 55.93 416.56 55.71 C 412.33 65.89 407.78 75.93 403.68 86.15 C 403.17 91.82 404.32 97.55 404.43 103.24 C 400.93 103.48 397.44 103.71 393.95 103.93 C 393.55 98.93 393.39 93.93 392.94 88.94 C 392.86 87.39 392.02 86.05 391.29 84.73 C 386.18 75.97 381.20 67.13 376.14 58.34 C 380.13 58.06 384.12 57.81 388.11 57.56 C 391.43 64.44 395.54 70.98 398.09 78.21 C 399.83 70.72 403.03 63.69 405.46 56.43 Z" />
<path fill="#ffffff" opacity="1.00" d=" M 450.96 56.67 C 456.02 57.47 461.07 58.31 466.13 59.14 C 467.96 71.13 470.84 83.00 471.73 95.12 C 476.68 84.00 483.03 73.57 488.67 62.79 C 493.60 63.56 498.52 64.40 503.44 65.22 C 500.95 80.57 498.44 95.92 495.91 111.27 C 492.49 110.73 489.08 110.17 485.67 109.58 C 487.81 97.05 489.56 84.44 492.12 71.98 C 486.84 84.27 479.65 95.62 473.66 107.57 C 470.79 107.18 467.94 106.73 465.09 106.25 C 462.92 92.95 459.71 79.79 458.48 66.35 C 457.23 79.06 454.72 91.61 452.78 104.23 C 449.65 103.73 446.53 103.22 443.42 102.68 C 445.96 87.35 448.43 72.00 450.96 56.67 Z" />
<path fill="#ffffff" opacity="1.00" d=" M 332.83 66.44 C 344.96 64.07 357.11 61.76 369.24 59.32 C 369.79 62.13 370.33 64.94 370.86 67.75 C 366.51 68.58 362.17 69.45 357.82 70.28 C 360.22 82.75 362.71 95.21 365.11 107.68 C 361.66 108.35 358.22 109.02 354.77 109.69 C 352.32 97.23 349.91 84.76 347.46 72.31 C 343.12 73.15 338.79 73.99 334.46 74.84 C 333.90 72.04 333.36 69.24 332.83 66.44 Z" />
<path fill="#ffffff" opacity="1.00" d=" M 308.66 73.77 C 314.50 71.99 320.36 70.29 326.21 68.54 C 326.99 71.13 327.76 73.72 328.53 76.31 C 327.28 76.69 326.04 77.07 324.81 77.45 C 327.69 87.16 330.57 96.87 333.49 106.56 C 334.42 106.29 336.28 105.73 337.22 105.46 C 337.99 108.05 338.77 110.64 339.54 113.24 C 333.70 115.01 327.83 116.74 321.98 118.48 C 321.21 115.89 320.44 113.31 319.67 110.73 C 320.91 110.32 322.16 109.90 323.40 109.49 C 320.43 99.83 317.68 90.10 314.66 80.45 C 313.73 80.72 311.87 81.24 310.94 81.51 C 310.18 78.93 309.42 76.35 308.66 73.77 Z" />
<path fill="#ffffff" opacity="1.00" d=" M 501.40 113.01 C 511.91 100.22 522.44 87.45 532.98 74.68 C 536.86 76.06 540.72 77.45 544.63 78.73 C 544.87 95.27 544.73 111.81 544.80 128.35 C 541.21 127.09 537.63 125.78 534.03 124.55 C 534.11 120.92 534.22 117.29 534.34 113.66 C 529.14 111.79 523.91 109.97 518.70 108.12 C 516.50 111.00 514.32 113.90 512.14 116.80 C 508.55 115.53 504.97 114.28 501.40 113.01 M 523.51 101.25 C 527.25 102.59 531.00 103.92 534.76 105.22 C 535.14 98.22 534.77 91.16 535.91 84.21 C 532.37 90.30 527.62 95.55 523.51 101.25 Z" />
<path fill="#ffffff" opacity="1.00" d=" M 282.59 83.54 C 286.67 81.93 291.16 80.57 295.57 81.55 C 301.01 82.88 304.19 88.74 304.20 94.04 C 304.21 98.28 301.68 101.94 298.61 104.63 C 301.37 105.18 304.07 106.09 306.40 107.70 C 311.43 111.00 316.31 114.54 321.26 117.98 C 317.57 119.56 313.87 121.10 310.15 122.60 C 305.07 119.08 300.38 114.99 295.03 111.90 C 292.79 110.37 290.21 111.54 287.96 112.32 C 290.19 117.89 292.55 123.40 294.83 128.95 C 291.60 130.31 288.37 131.65 285.13 132.98 C 279.15 118.63 273.18 104.27 267.23 89.90 C 272.34 87.77 277.46 85.65 282.59 83.54 M 279.95 93.13 C 281.60 97.14 283.27 101.15 284.95 105.14 C 287.98 103.77 291.84 102.88 293.37 99.57 C 295.25 95.85 292.61 90.07 288.06 90.39 C 285.20 90.72 282.59 92.06 279.95 93.13 Z" />
<path fill="#ffffff" opacity="1.00" d=" M 572.52 89.98 C 575.85 91.77 579.16 93.58 582.47 95.40 C 583.39 108.21 584.63 121.00 585.31 133.83 C 590.15 124.19 595.57 114.85 600.68 105.35 C 603.58 106.92 606.48 108.51 609.38 110.10 C 601.92 123.75 594.47 137.39 587.00 151.03 C 583.99 149.15 580.31 147.98 577.77 145.59 C 576.51 132.53 575.45 119.42 574.66 106.31 C 569.71 116.27 564.11 125.88 558.86 135.67 C 555.95 134.09 553.05 132.51 550.16 130.91 C 557.60 117.26 565.08 103.63 572.52 89.98 Z" />
<path fill="#ffffff" opacity="1.00" d=" M 242.86 102.84 C 245.85 101.02 248.86 99.21 251.87 97.42 C 256.44 105.05 261.05 112.66 265.62 120.30 C 268.47 125.14 270.66 130.89 269.31 136.56 C 267.95 142.04 263.44 146.02 258.69 148.67 C 254.34 151.15 249.00 152.64 244.10 150.94 C 238.98 149.19 235.36 144.81 232.63 140.34 C 228.01 132.67 223.39 124.99 218.79 117.30 C 221.80 115.49 224.80 113.68 227.81 111.88 C 232.38 119.43 236.90 127.01 241.46 134.57 C 243.28 137.47 245.50 140.63 249.03 141.48 C 252.80 142.17 256.83 139.95 258.67 136.67 C 260.42 133.16 258.67 129.25 256.88 126.15 C 252.22 118.37 247.51 110.62 242.86 102.84 Z" />
<path fill="#ffffff" opacity="1.00" d=" M 188.45 147.08 C 190.23 137.16 198.78 130.08 207.63 126.32 C 209.75 128.93 211.87 131.52 214.01 134.10 C 208.28 135.40 202.67 138.62 199.82 143.93 C 194.50 154.25 205.64 168.43 216.93 165.55 C 222.89 163.77 227.13 158.61 229.59 153.11 C 231.63 155.63 233.67 158.14 235.66 160.70 C 231.91 166.78 226.60 172.06 220.05 175.03 C 213.62 177.97 205.74 177.04 200.04 172.91 C 192.07 167.16 186.44 157.09 188.45 147.08 Z" />
<path fill="#ffffff" opacity="1.00" d=" M 591.92 154.06 C 605.92 145.23 619.93 136.43 633.95 127.63 C 637.24 130.17 640.52 132.71 643.80 135.27 C 638.63 150.94 633.46 166.60 628.28 182.27 C 625.24 179.96 622.24 177.61 619.23 175.26 C 620.48 171.86 621.73 168.45 622.97 165.04 C 618.61 161.64 614.24 158.26 609.87 154.87 C 606.87 156.91 603.89 158.98 600.90 161.04 C 597.90 158.72 594.90 156.40 591.92 154.06 M 616.61 149.86 C 619.74 152.31 622.87 154.75 626.02 157.17 C 628.63 150.67 630.40 143.80 633.76 137.62 C 628.43 142.22 622.31 145.76 616.61 149.86 Z" />
<path fill="#ffffff" opacity="1.00" d=" M 170.65 156.67 C 172.74 158.62 174.81 160.59 176.86 162.58 C 173.09 166.53 169.31 170.47 165.56 174.45 C 168.07 176.82 170.57 179.20 173.07 181.58 C 176.61 177.92 180.07 174.19 183.63 170.55 C 185.67 172.51 187.72 174.46 189.77 176.41 C 186.29 180.11 182.77 183.78 179.26 187.45 C 181.82 189.92 184.39 192.38 186.98 194.82 C 191.01 190.62 195.00 186.39 199.04 182.19 C 201.10 184.13 203.15 186.09 205.20 188.06 C 198.78 194.82 192.35 201.57 185.91 208.31 C 174.63 197.60 163.37 186.87 152.11 176.14 C 158.28 169.64 164.48 163.16 170.65 156.67 Z" />
<path fill="#ffffff" opacity="1.00" d=" M 640.82 176.78 C 645.60 167.35 656.11 160.15 666.98 161.88 C 677.67 163.38 685.50 172.23 690.29 181.31 C 687.97 183.67 685.57 185.94 683.16 188.19 C 680.94 181.62 676.67 175.00 669.96 172.41 C 661.30 169.50 652.32 176.42 649.62 184.42 C 647.71 191.11 652.49 197.36 657.99 200.58 C 660.24 198.44 662.50 196.31 664.75 194.17 C 662.60 191.90 660.46 189.64 658.33 187.36 C 660.36 185.44 662.39 183.52 664.44 181.62 C 668.97 186.44 673.55 191.20 678.07 196.02 C 672.38 201.43 666.66 206.82 660.98 212.23 C 653.43 209.50 646.98 204.12 642.52 197.49 C 638.47 191.48 637.49 183.34 640.82 176.78 Z" />
<path fill="#ffffff" opacity="1.00" d=" M 129.55 208.06 C 130.76 199.87 136.50 193.08 142.92 188.24 C 145.51 190.18 148.08 192.12 150.68 194.04 C 145.65 196.42 140.53 200.27 139.21 205.96 C 138.37 208.80 141.22 211.70 144.07 210.78 C 149.75 209.33 154.21 204.92 160.03 203.80 C 165.63 202.45 171.47 205.82 174.25 210.62 C 176.40 214.44 175.85 219.14 174.05 222.98 C 171.09 229.32 166.33 234.89 160.30 238.49 C 157.53 236.42 154.77 234.33 151.98 232.30 C 157.64 230.63 162.97 226.91 165.34 221.36 C 166.15 219.50 166.20 216.94 164.40 215.64 C 162.71 214.31 160.40 214.76 158.56 215.48 C 153.65 217.46 149.45 221.22 144.07 221.96 C 136.32 223.32 128.30 215.98 129.55 208.06 Z" />
<path fill="#ffffff" opacity="1.00" d=" M 664.23 221.65 C 676.83 212.54 689.44 203.44 702.06 194.34 C 707.33 201.59 712.57 208.87 717.82 216.14 C 715.51 217.82 713.20 219.48 710.89 221.14 C 707.65 216.73 704.51 212.26 701.25 207.88 C 698.45 209.89 695.66 211.91 692.87 213.94 C 695.83 218.07 698.82 222.18 701.79 226.30 C 699.49 227.97 697.19 229.63 694.89 231.28 C 691.89 227.18 688.93 223.05 685.95 218.94 C 683.05 221.00 680.17 223.08 677.30 225.18 C 680.70 229.90 684.11 234.61 687.52 239.33 C 685.22 241.01 682.91 242.67 680.59 244.32 C 675.15 236.75 669.67 229.21 664.23 221.65 Z" />
<path fill="#ffffff" opacity="1.00" d=" M 685.30 250.35 C 699.19 243.36 713.10 236.39 726.99 229.40 C 729.31 233.97 731.60 238.55 733.90 243.14 C 725.25 251.65 717.37 260.99 708.05 268.78 C 719.95 266.26 732.12 265.30 744.14 263.50 C 746.39 267.96 748.63 272.42 750.88 276.88 C 737.00 283.92 723.09 290.88 709.18 297.85 C 707.63 294.77 706.07 291.68 704.51 288.61 C 715.86 282.97 727.05 277.02 738.60 271.78 C 725.55 274.60 712.19 275.60 699.01 277.61 C 697.71 275.06 696.42 272.50 695.14 269.94 C 704.64 260.48 713.25 250.09 723.47 241.38 C 712.35 247.54 700.91 253.09 689.55 258.81 C 688.12 255.99 686.70 253.18 685.30 250.35 Z" />
<path fill="#ffffff" opacity="1.00" d=" M 105.00 242.49 C 119.09 249.07 133.15 255.70 147.22 262.33 C 145.74 265.53 144.23 268.73 142.74 271.93 C 129.60 273.75 116.50 275.86 103.32 277.37 C 113.57 281.66 123.49 286.67 133.57 291.33 C 132.18 294.33 130.78 297.33 129.35 300.32 C 115.27 293.69 101.21 287.04 87.12 280.46 C 88.72 277.04 90.33 273.62 91.96 270.21 C 104.62 268.49 117.26 266.63 129.94 265.01 C 120.12 260.72 110.53 255.93 100.79 251.46 C 102.17 248.46 103.58 245.47 105.00 242.49 Z" />
<path fill="#ffffff" opacity="1.00" d=" M 712.15 308.20 C 726.96 303.44 741.84 298.85 756.67 294.12 C 759.36 302.66 762.05 311.21 764.78 319.75 C 762.06 320.63 759.34 321.49 756.62 322.35 C 754.95 317.16 753.31 311.95 751.68 306.75 C 748.37 307.77 745.06 308.79 741.77 309.84 C 743.29 314.69 744.82 319.53 746.35 324.38 C 743.64 325.25 740.94 326.11 738.23 326.95 C 736.68 322.11 735.17 317.25 733.61 312.41 C 730.22 313.48 726.83 314.55 723.45 315.63 C 725.19 321.19 726.97 326.73 728.71 332.29 C 726.00 333.15 723.29 334.00 720.59 334.85 C 717.76 325.97 714.97 317.08 712.15 308.20 Z" />
<path fill="#ffffff" opacity="1.00" d=" M 90.38 300.65 C 97.10 299.13 104.23 300.70 110.24 303.86 C 117.24 307.51 122.14 315.10 122.01 323.07 C 121.92 330.95 118.33 339.22 111.39 343.38 C 101.00 349.70 86.52 346.09 78.72 337.25 C 68.42 325.58 74.84 303.88 90.38 300.65 M 92.25 311.25 C 87.39 311.81 83.45 315.96 83.04 320.82 C 82.16 326.16 86.05 331.03 90.70 333.15 C 95.70 335.48 101.88 336.69 107.01 334.06 C 113.09 331.01 114.77 321.87 109.99 316.97 C 105.46 312.40 98.53 310.62 92.25 311.25 Z" />
<path fill="#ffffff" opacity="1.00" d=" M 722.72 342.10 C 738.07 339.57 753.41 337.02 768.76 334.48 C 769.39 338.22 770.01 341.96 770.58 345.72 C 761.01 354.27 751.76 363.19 742.07 371.61 C 752.65 369.44 763.35 367.94 774.00 366.09 C 774.55 369.36 775.09 372.63 775.62 375.91 C 760.27 378.45 744.93 381.03 729.58 383.50 C 728.99 380.02 728.41 376.53 727.85 373.05 C 737.66 364.13 747.23 354.93 757.22 346.20 C 746.32 348.45 735.30 350.03 724.33 351.88 C 723.79 348.62 723.24 345.36 722.72 342.10 Z" />
<path fill="#ffffff" opacity="1.00" d=" M 67.97 348.17 C 70.64 348.58 73.31 349.01 75.97 349.43 C 75.78 350.72 75.60 352.01 75.41 353.30 C 85.40 354.93 95.41 356.44 105.39 358.07 C 105.61 356.79 105.83 355.51 106.05 354.24 C 108.72 354.66 111.38 355.09 114.05 355.52 C 113.11 361.55 112.14 367.57 111.17 373.60 C 108.50 373.18 105.83 372.76 103.16 372.34 C 103.35 371.05 103.54 369.76 103.73 368.48 C 93.73 366.90 83.75 365.20 73.75 363.69 C 73.53 364.96 73.31 366.24 73.10 367.52 C 70.42 367.10 67.75 366.68 65.08 366.25 C 66.03 360.22 67.00 354.19 67.97 348.17 Z" />
<path fill="#ffffff" opacity="1.00" d=" M 63.87 373.07 C 66.71 373.24 69.55 373.41 72.40 373.60 C 72.13 378.03 71.86 382.45 71.60 386.88 C 84.27 387.61 96.95 388.40 109.62 389.22 C 109.41 392.73 109.20 396.24 108.98 399.75 C 96.30 398.95 83.62 398.14 70.94 397.42 C 70.66 401.81 70.40 406.21 70.12 410.62 C 67.27 410.45 64.42 410.27 61.58 410.10 C 62.34 397.75 63.09 385.41 63.87 373.07 Z" />
<path fill="#ffffff" opacity="1.00" d=" M 768.09 389.28 C 770.93 389.23 773.79 389.18 776.64 389.13 C 776.85 401.49 777.06 413.86 777.26 426.22 C 774.40 426.27 771.55 426.32 768.71 426.35 C 768.62 421.92 768.55 417.49 768.49 413.06 C 755.78 413.25 743.08 413.50 730.38 413.68 C 730.30 410.17 730.25 406.66 730.19 403.16 C 742.89 402.93 755.60 402.74 768.30 402.51 C 768.23 398.10 768.16 393.69 768.09 389.28 Z" />
<path fill="#ffffff" opacity="1.00" d=" M 62.60 434.66 C 77.69 427.95 92.79 421.28 107.87 414.55 C 108.17 418.35 108.46 422.15 108.75 425.95 C 105.40 427.36 102.04 428.73 98.66 430.07 C 99.08 435.59 99.48 441.11 99.95 446.62 C 103.49 447.42 107.03 448.22 110.55 449.09 C 110.82 452.87 111.11 456.65 111.40 460.43 C 95.43 455.94 79.43 451.59 63.51 446.97 C 63.26 442.86 62.93 438.76 62.60 434.66 M 71.05 440.51 C 78.06 441.35 84.83 443.42 91.70 444.98 C 91.41 441.01 91.10 437.04 90.77 433.07 C 84.21 435.58 77.91 438.86 71.05 440.51 Z" />
<path fill="#ffffff" opacity="1.00" d=" M 730.24 449.80 C 733.68 450.28 737.11 450.86 740.54 451.46 C 736.33 455.46 733.39 461.06 733.67 466.98 C 733.73 469.07 734.79 471.48 737.04 471.96 C 739.19 472.41 741.08 470.93 742.42 469.42 C 745.82 465.48 747.79 460.31 752.09 457.14 C 756.33 453.77 762.68 453.96 767.12 456.88 C 770.46 459.10 772.20 463.03 772.66 466.91 C 773.41 473.60 771.78 480.38 768.88 486.40 C 765.68 485.86 762.49 485.32 759.29 484.85 C 762.49 480.66 765.01 475.44 764.26 470.04 C 764.03 467.89 762.36 465.69 760.03 465.82 C 757.93 466.02 756.47 467.70 755.25 469.24 C 752.22 473.17 750.02 477.86 745.96 480.89 C 741.66 484.20 735.39 483.79 730.92 481.06 C 727.20 478.75 725.46 474.32 725.24 470.10 C 724.86 463.04 726.62 455.88 730.24 449.80 Z" />
<path fill="#ffffff" opacity="1.00" d=" M 66.88 477.89 C 81.93 473.97 96.98 470.05 112.04 466.14 C 112.92 469.48 113.79 472.83 114.65 476.18 C 102.26 479.32 89.96 482.85 77.46 485.52 C 90.92 485.40 104.31 487.24 117.74 488.02 C 118.48 490.81 119.20 493.60 119.88 496.42 C 108.64 503.66 98.05 511.97 86.27 518.34 C 98.42 514.63 110.78 511.69 123.06 508.44 C 123.85 511.48 124.65 514.52 125.45 517.56 C 110.40 521.55 95.33 525.44 80.27 529.35 C 79.00 524.33 77.55 519.35 76.47 514.29 C 86.78 508.03 96.29 500.44 106.99 494.83 C 94.84 494.71 82.77 493.12 70.65 492.40 C 69.39 487.57 68.12 482.74 66.88 477.89 Z" />
<path fill="#ffffff" opacity="1.00" d=" M 738.07 501.63 C 747.97 499.94 757.89 498.28 767.80 496.65 C 766.67 500.43 765.51 504.20 764.48 508.01 C 756.86 509.00 749.24 510.37 741.54 510.30 C 747.93 514.54 753.44 519.97 759.38 524.81 C 758.32 528.33 757.27 531.86 756.21 535.38 C 748.09 527.97 740.32 520.19 732.18 512.81 C 727.05 510.31 721.24 509.40 715.85 507.53 C 716.82 504.17 717.82 500.82 718.85 497.47 C 723.44 498.79 728.02 500.19 732.61 501.55 C 734.37 502.18 736.25 501.94 738.07 501.63 Z" />
<path fill="#ffffff" opacity="1.00" d=" M 114.67 544.82 C 116.21 535.96 122.96 529.33 127.26 521.73 C 128.94 525.38 130.61 529.04 132.25 532.71 C 128.90 537.88 124.97 542.70 122.07 548.15 C 120.55 550.43 121.90 552.96 122.76 555.19 C 128.23 552.74 133.66 550.22 139.12 547.77 C 140.59 550.94 142.03 554.13 143.48 557.31 C 129.33 563.79 115.17 570.22 101.01 576.65 C 97.75 568.47 92.51 560.85 91.47 551.96 C 90.50 543.83 99.74 538.02 107.03 539.94 C 110.09 540.59 112.52 542.67 114.67 544.82 M 100.79 554.97 C 100.81 558.16 102.59 560.97 103.80 563.83 C 107.76 562.04 111.72 560.25 115.66 558.43 C 114.24 555.66 113.35 552.18 110.45 550.54 C 106.91 548.35 101.09 550.57 100.79 554.97 Z" />
<path fill="#ffffff" opacity="1.00" d=" M 702.40 541.13 C 704.17 535.31 707.22 529.80 711.70 525.63 C 714.83 527.04 717.97 528.43 721.12 529.79 C 715.61 532.92 710.77 538.42 710.49 545.01 C 710.25 548.21 714.05 550.26 716.72 548.67 C 722.09 545.98 725.36 540.29 731.07 538.10 C 738.22 535.00 747.64 540.15 748.42 548.04 C 749.24 556.38 745.13 564.41 739.93 570.67 C 736.97 569.35 734.01 568.04 731.04 566.76 C 735.15 563.59 738.75 559.23 739.49 553.94 C 739.81 551.90 739.08 549.44 736.97 548.69 C 734.41 547.91 732.13 549.76 730.25 551.25 C 725.91 554.87 721.86 559.69 715.93 560.49 C 710.21 560.97 703.94 557.61 702.05 552.01 C 700.81 548.48 701.38 544.63 702.40 541.13 Z" />
<path fill="#ffffff" opacity="1.00" d=" M 683.59 577.57 C 685.38 574.53 687.18 571.51 689.00 568.50 C 699.90 575.02 710.80 581.55 721.71 588.05 C 723.98 584.27 726.23 580.49 728.49 576.71 C 730.95 578.14 733.41 579.61 735.85 581.09 C 729.50 591.70 723.17 602.31 716.81 612.91 C 714.35 611.46 711.90 609.99 709.47 608.51 C 711.75 604.71 714.02 600.91 716.29 597.11 C 705.39 590.58 694.49 584.08 683.59 577.57 Z" />
<path fill="#ffffff" opacity="1.00" d=" M 135.37 573.47 C 142.17 571.55 149.94 573.04 155.30 577.72 C 161.43 583.09 165.42 591.53 163.76 599.75 C 161.54 611.09 150.23 619.08 139.08 619.82 C 124.38 620.83 111.78 604.46 116.36 590.52 C 119.08 581.96 127.04 576.00 135.37 573.47 M 139.42 583.52 C 133.78 585.43 128.24 589.23 125.89 594.89 C 123.35 601.15 128.40 608.80 135.03 609.34 C 140.95 609.90 146.59 606.66 150.58 602.54 C 154.19 598.89 155.57 592.79 152.57 588.36 C 150.05 583.80 144.28 581.87 139.42 583.52 Z" />
<path fill="#ffffff" opacity="1.00" d=" M 655.76 616.12 C 661.45 608.73 667.17 601.36 672.88 593.99 C 685.20 603.50 697.50 613.03 709.79 622.56 C 704.29 629.64 698.82 636.74 693.32 643.82 C 691.06 642.07 688.80 640.33 686.56 638.58 C 689.89 634.26 693.23 629.94 696.58 625.64 C 693.86 623.52 691.14 621.40 688.45 619.26 C 685.24 623.23 682.18 627.31 679.03 631.32 C 676.78 629.58 674.53 627.85 672.30 626.11 C 675.40 622.09 678.52 618.08 681.62 614.05 C 678.82 611.86 676.01 609.68 673.19 607.52 C 669.63 612.11 666.06 616.69 662.53 621.31 C 660.25 619.60 658.00 617.87 655.76 616.12 Z" />
<path fill="#ffffff" opacity="1.00" d=" M 162.38 619.10 C 165.70 622.89 169.00 626.70 172.31 630.50 C 176.87 626.55 181.41 622.56 185.98 618.62 C 188.30 621.25 190.60 623.89 192.88 626.57 C 181.12 636.74 169.42 646.97 157.67 657.15 C 151.75 650.38 145.87 643.58 139.96 636.81 C 142.11 634.94 144.26 633.07 146.41 631.20 C 150.03 635.32 153.61 639.48 157.22 643.60 C 160.11 641.11 162.99 638.60 165.86 636.09 C 162.56 632.28 159.26 628.48 155.94 624.70 C 158.07 622.81 160.22 620.95 162.38 619.10 Z" />
<path fill="#ffffff" opacity="1.00" d=" M 644.39 628.76 C 646.69 626.60 648.99 624.44 651.31 622.30 C 661.93 633.66 672.59 644.99 683.18 656.39 C 679.43 659.89 675.71 663.41 671.94 666.88 C 661.36 660.93 650.15 656.07 640.04 649.34 C 645.83 660.02 650.15 671.42 655.32 682.41 C 651.72 685.89 648.02 689.27 644.37 692.69 C 633.75 681.31 623.04 670.01 612.48 658.58 C 615.01 656.24 617.52 653.89 620.04 651.54 C 628.65 660.77 637.42 669.85 645.75 679.34 C 639.37 667.68 634.66 655.19 629.01 643.17 C 631.09 641.20 633.18 639.24 635.27 637.29 C 647.01 643.62 659.31 648.97 670.51 656.25 C 661.57 647.31 653.04 637.98 644.39 628.76 Z" />
<path fill="#ffffff" opacity="1.00" d=" M 490.64 626.15 C 498.99 634.35 507.10 642.80 515.58 650.87 C 475.42 691.18 435.23 731.47 394.81 771.52 C 373.86 750.51 352.77 729.65 331.86 708.60 C 340.34 700.45 348.44 691.91 356.96 683.80 C 369.47 696.67 382.18 709.35 394.81 722.10 C 426.79 690.15 458.81 658.24 490.64 626.15 Z" />
<path fill="#ffffff" opacity="1.00" d=" M 169.46 669.82 C 179.63 658.05 189.82 646.30 200.03 634.58 C 202.69 636.87 205.34 639.17 208.01 641.46 C 206.23 654.60 204.66 667.77 202.57 680.87 C 209.51 672.20 217.04 664.03 224.23 655.57 C 226.75 657.71 229.25 659.88 231.74 662.06 C 221.56 673.81 211.36 685.55 201.18 697.30 C 198.31 694.83 195.46 692.35 192.61 689.88 C 194.42 677.16 195.95 664.40 198.00 651.72 C 191.24 660.13 183.97 668.11 176.94 676.29 C 174.43 674.15 171.94 671.98 169.46 669.82 Z" />
<path fill="#ffffff" opacity="1.00" d=" M 237.50 665.62 C 242.60 668.98 247.61 672.47 252.67 675.89 C 251.17 678.12 249.65 680.36 248.14 682.59 C 247.06 681.86 245.98 681.15 244.90 680.44 C 239.20 688.80 233.52 697.18 227.85 705.56 C 228.91 706.29 229.98 707.05 231.04 707.80 C 229.53 710.03 228.02 712.26 226.52 714.50 C 221.46 711.08 216.40 707.65 211.33 704.23 C 212.85 701.98 214.37 699.74 215.90 697.51 C 216.98 698.21 218.06 698.93 219.13 699.66 C 224.82 691.28 230.54 682.92 236.16 674.50 C 235.10 673.79 234.03 673.08 232.97 672.38 C 234.46 670.11 235.97 667.86 237.50 665.62 Z" />
</g>
<g id="#000000ff">
<path fill="#000000" opacity="1.00" d=" M 379.09 227.25 C 387.94 222.19 398.82 221.03 408.66 223.47 C 416.00 225.25 422.87 229.73 426.62 236.39 C 429.13 240.97 429.47 246.29 429.81 251.39 C 425.42 251.49 421.04 251.47 416.66 251.38 C 416.31 246.67 415.46 241.55 411.84 238.17 C 406.90 233.36 399.37 233.23 392.97 234.22 C 386.93 235.11 381.34 240.68 382.16 247.07 C 382.50 252.78 387.68 256.57 392.63 258.37 C 402.37 262.44 413.04 264.79 421.59 271.29 C 429.82 277.15 432.90 288.88 429.10 298.16 C 426.72 304.07 421.57 308.57 415.62 310.69 C 408.49 313.20 400.70 314.26 393.22 312.85 C 385.19 311.71 376.89 308.72 371.72 302.15 C 367.34 297.04 366.37 289.97 367.02 283.48 C 371.15 283.47 375.28 283.41 379.42 283.40 C 380.28 288.21 380.40 293.96 384.50 297.35 C 390.66 302.41 399.26 302.93 406.85 301.75 C 411.68 300.90 416.68 297.21 417.06 291.98 C 417.74 287.25 415.94 281.87 411.58 279.48 C 399.64 272.55 384.79 271.11 374.31 261.61 C 364.60 252.05 367.55 234.04 379.09 227.25 Z" />
<path fill="#000000" opacity="1.00" d=" M 469.51 222.71 C 476.30 221.72 483.40 222.39 489.70 225.21 C 497.86 228.73 504.04 236.35 506.02 244.99 C 508.01 253.18 506.89 261.67 507.20 270.00 C 507.35 280.61 507.94 292.47 501.20 301.41 C 491.15 314.95 470.37 317.14 456.48 308.50 C 448.98 303.97 444.65 295.47 443.69 286.94 C 442.89 279.98 443.37 272.97 443.25 265.99 C 443.33 256.59 442.41 246.59 446.82 237.92 C 450.79 229.08 460.15 223.79 469.51 222.71 M 468.34 234.51 C 463.20 236.17 459.12 240.69 457.99 245.97 C 455.78 255.14 456.83 264.63 456.60 273.96 C 456.54 281.43 456.30 289.68 460.92 296.01 C 468.29 305.69 485.75 304.00 491.11 293.07 C 493.70 286.75 493.81 279.75 493.83 273.02 C 493.65 264.98 494.23 256.87 492.92 248.89 C 492.19 244.25 489.99 239.65 486.07 236.90 C 480.96 233.35 474.21 232.95 468.34 234.51 Z" />
<path fill="#000000" opacity="1.00" d=" M 338.06 224.04 C 342.44 223.50 346.86 223.48 351.26 223.62 C 351.97 249.41 351.43 275.21 351.62 301.01 C 351.65 304.66 351.74 308.34 351.29 311.98 C 346.93 312.17 342.56 312.15 338.20 312.12 C 337.91 282.76 338.09 253.40 338.06 224.04 Z" />
<path fill="#000000" opacity="1.00" d=" M 200.52 355.58 C 213.74 347.47 229.88 344.67 245.15 346.90 C 253.59 348.15 261.91 351.94 267.37 358.65 C 274.49 367.33 275.43 379.96 271.38 390.20 C 267.49 400.13 260.18 408.23 252.40 415.32 C 243.21 423.45 233.58 431.09 224.31 439.14 C 240.41 439.29 256.52 439.15 272.63 439.21 C 272.62 446.00 272.63 452.80 272.62 459.60 C 246.72 459.61 220.81 459.58 194.90 459.61 C 194.83 453.20 194.83 446.78 194.90 440.36 C 204.35 431.98 213.65 423.44 223.05 415.01 C 229.99 408.65 237.30 402.50 242.76 394.75 C 246.94 388.84 248.58 380.88 245.98 374.00 C 244.12 369.18 239.04 366.57 234.13 366.09 C 221.93 364.42 209.82 369.50 200.54 377.18 C 200.53 369.98 200.56 362.78 200.52 355.58 Z" />
<path fill="#000000" opacity="1.00" d=" M 422.52 346.72 C 432.78 345.37 443.95 346.36 452.74 352.27 C 460.56 357.46 465.39 366.07 467.94 374.92 C 471.36 386.92 471.82 399.58 471.07 411.97 C 470.14 424.91 466.99 438.40 458.41 448.52 C 452.40 455.83 443.29 460.20 433.94 461.15 C 422.83 462.35 410.66 460.62 401.82 453.28 C 393.38 446.36 389.22 435.65 387.35 425.18 C 385.34 413.42 385.31 401.36 386.77 389.54 C 388.34 377.94 392.14 366.06 400.49 357.52 C 406.28 351.48 414.27 347.83 422.52 346.72 M 425.31 365.48 C 419.20 367.49 416.35 373.98 414.78 379.72 C 411.84 391.34 411.99 403.47 412.56 415.36 C 413.29 423.14 414.27 431.51 419.11 437.96 C 422.88 443.19 431.20 444.37 436.07 440.01 C 440.63 435.90 442.25 429.63 443.38 423.83 C 445.22 412.73 445.12 401.38 444.28 390.20 C 443.43 382.93 442.37 375.15 437.79 369.18 C 434.96 365.41 429.73 363.99 425.31 365.48 Z" />
<path fill="#000000" opacity="1.00" d=" M 519.49 346.73 C 529.76 345.36 540.94 346.35 549.75 352.24 C 557.60 357.43 562.43 366.06 564.98 374.92 C 568.41 386.93 568.86 399.59 568.11 411.99 C 567.19 424.92 564.04 438.40 555.47 448.50 C 549.44 455.81 540.35 460.22 530.99 461.15 C 520.28 462.29 508.63 460.76 499.86 454.07 C 492.12 448.24 487.65 439.11 485.40 429.88 C 482.52 417.80 482.32 405.22 483.42 392.91 C 484.66 380.86 487.96 368.41 496.08 359.09 C 501.96 352.19 510.56 347.93 519.49 346.73 M 522.35 365.48 C 516.50 367.39 513.60 373.52 512.03 379.03 C 508.91 390.50 509.07 402.56 509.54 414.34 C 510.21 422.43 511.12 431.14 516.08 437.87 C 519.84 443.17 528.22 444.40 533.12 440.01 C 537.69 435.90 539.29 429.63 540.43 423.83 C 542.27 412.72 542.16 401.36 541.32 390.16 C 540.47 382.90 539.40 375.12 534.82 369.15 C 531.98 365.40 526.76 364.00 522.35 365.48 Z" />
<path fill="#000000" opacity="1.00" d=" M 587.46 355.84 C 604.48 352.67 621.47 349.38 638.48 346.16 C 638.50 377.48 638.47 408.81 638.50 440.13 C 646.59 440.13 654.69 440.13 662.79 440.14 C 662.78 446.62 662.79 453.11 662.78 459.60 C 637.88 459.60 612.98 459.60 588.07 459.60 C 588.06 453.11 588.06 446.62 588.07 440.13 C 596.22 440.12 604.38 440.15 612.53 440.12 C 612.51 416.97 612.58 393.81 612.50 370.66 C 604.14 372.38 595.77 374.09 587.41 375.79 C 587.43 369.14 587.35 362.49 587.46 355.84 Z" />
<path fill="#000000" opacity="1.00" d=" M 290.84 348.00 C 318.24 348.00 345.64 348.00 373.04 348.00 C 372.78 352.41 373.79 357.04 372.27 361.29 C 358.62 394.05 345.00 426.82 331.37 459.59 C 322.20 459.61 313.03 459.60 303.86 459.60 C 317.84 429.08 331.88 398.58 345.87 368.07 C 327.53 368.06 309.18 368.08 290.84 368.06 C 290.83 361.37 290.83 354.69 290.84 348.00 Z" />
<path fill="#000000" opacity="1.00" d=" M 247.18 509.16 C 254.06 498.74 270.11 496.62 279.86 504.17 C 283.44 506.93 284.96 511.38 286.40 515.49 C 283.09 516.10 279.78 516.72 276.47 517.31 C 275.11 514.03 273.04 510.77 269.61 509.38 C 264.97 507.10 259.16 509.33 256.48 513.53 C 253.92 517.48 253.48 522.38 253.75 526.97 C 253.99 530.79 254.56 534.90 257.08 537.97 C 260.47 541.88 266.77 542.99 271.18 540.15 C 274.30 538.22 275.40 534.49 277.05 531.43 C 280.20 532.35 283.35 533.28 286.50 534.23 C 284.83 539.85 281.99 545.71 276.41 548.34 C 265.36 554.69 249.43 549.18 244.88 537.23 C 241.75 528.14 241.99 517.46 247.18 509.16 Z" />
<path fill="#000000" opacity="1.00" d=" M 294.26 500.81 C 306.51 500.74 318.77 500.71 331.02 500.74 C 331.03 503.57 331.03 506.41 331.03 509.25 C 322.27 509.40 313.50 509.21 304.73 509.44 C 304.81 513.02 304.81 516.61 304.80 520.20 C 312.91 520.29 321.02 520.32 329.13 520.33 C 329.15 523.37 329.10 526.42 329.00 529.47 C 320.92 529.48 312.85 529.44 304.78 529.48 C 304.80 533.51 304.80 537.55 304.75 541.58 C 313.91 541.84 323.09 541.58 332.25 541.92 C 332.22 544.87 332.19 547.83 332.16 550.80 C 319.52 550.80 306.89 550.80 294.26 550.80 C 294.26 534.13 294.25 517.47 294.26 500.81 Z" />
<path fill="#000000" opacity="1.00" d=" M 339.95 500.74 C 349.96 500.88 360.01 500.27 369.99 501.18 C 378.70 502.19 383.36 513.21 379.60 520.70 C 377.65 525.14 373.29 527.98 368.61 528.85 C 376.10 534.37 380.09 543.00 384.67 550.82 C 380.56 550.79 376.44 550.80 372.33 550.79 C 368.41 544.76 364.73 538.54 360.16 532.97 C 358.02 529.98 354.04 530.24 350.81 529.88 C 350.75 536.87 350.85 543.87 350.53 550.86 C 347.00 550.87 343.47 550.87 339.95 550.86 C 339.94 534.15 339.94 517.44 339.95 500.74 M 350.71 509.34 C 350.72 513.27 350.73 517.19 350.75 521.12 C 355.81 521.02 360.92 521.49 365.94 520.63 C 370.49 519.95 371.54 512.71 367.54 510.62 C 362.24 508.26 356.30 509.56 350.71 509.34 Z" />
<path fill="#000000" opacity="1.00" d=" M 387.06 509.27 C 386.93 506.42 386.94 503.55 387.48 500.75 C 400.59 500.79 413.70 500.67 426.80 500.80 C 426.81 503.62 426.82 506.44 426.82 509.27 C 421.92 509.27 417.03 509.26 412.14 509.27 C 412.12 523.10 412.14 536.94 412.13 550.78 C 408.72 550.83 405.31 550.89 401.91 550.94 C 401.50 537.05 401.73 523.16 401.67 509.27 C 396.80 509.26 391.93 509.26 387.06 509.27 Z" />
<path fill="#000000" opacity="1.00" d=" M 431.41 550.86 C 431.31 534.15 431.26 517.44 431.40 500.73 C 434.91 500.73 438.42 500.73 441.93 500.74 C 442.03 517.45 442.01 534.16 441.91 550.87 C 438.40 550.87 434.90 550.87 431.41 550.86 Z" />
<path fill="#000000" opacity="1.00" d=" M 450.69 500.81 C 462.17 500.63 473.64 500.77 485.12 500.81 C 485.11 503.62 485.10 506.44 485.09 509.26 C 477.17 509.27 469.25 509.26 461.34 509.27 C 461.33 512.94 461.33 516.61 461.34 520.28 C 468.17 520.27 475.01 520.17 481.83 520.45 C 481.81 523.43 481.77 526.41 481.73 529.39 C 474.94 529.41 468.14 529.39 461.35 529.40 C 461.34 536.54 461.34 543.69 461.33 550.83 C 457.80 550.79 454.27 550.79 450.74 550.80 C 450.61 534.14 450.60 517.47 450.69 500.81 Z" />
<path fill="#000000" opacity="1.00" d=" M 492.30 500.81 C 495.85 500.81 499.42 500.80 502.98 500.74 C 502.99 517.43 502.98 534.11 502.96 550.80 C 499.41 550.81 495.85 550.80 492.30 550.74 C 492.29 534.10 492.29 517.45 492.30 500.81 Z" />
<path fill="#000000" opacity="1.00" d=" M 511.67 500.74 C 523.85 500.68 536.03 500.81 548.21 500.80 C 548.21 503.62 548.21 506.44 548.21 509.26 C 539.45 509.27 530.70 509.26 521.94 509.27 C 521.95 512.95 521.97 516.64 522.01 520.33 C 530.15 520.34 538.30 520.31 546.44 520.35 C 546.42 523.38 546.36 526.42 546.25 529.46 C 538.14 529.48 530.04 529.48 521.93 529.39 C 521.93 533.50 521.95 537.61 521.98 541.73 C 531.04 541.77 540.10 541.69 549.17 541.67 C 549.26 544.71 549.29 547.75 549.26 550.80 C 536.73 550.80 524.20 550.80 511.67 550.80 C 511.66 534.11 511.66 517.42 511.67 500.74 Z" />
<path fill="#000000" opacity="1.00" d=" M 557.02 500.79 C 565.02 500.71 573.04 500.66 581.05 500.84 C 587.26 500.87 592.79 505.06 595.71 510.34 C 598.10 514.44 598.52 519.29 598.84 523.93 C 599.14 529.88 598.42 536.11 595.50 541.40 C 592.23 547.17 585.69 550.72 579.13 550.82 C 571.76 551.00 564.40 550.72 557.03 550.80 C 557.01 534.13 557.01 517.46 557.02 500.79 M 567.76 509.33 C 567.70 520.12 567.71 530.91 567.80 541.70 C 572.73 541.61 577.92 542.39 582.64 540.55 C 586.96 538.55 587.77 533.22 587.97 528.99 C 588.10 523.41 588.69 516.83 584.48 512.47 C 579.90 508.46 573.37 509.42 567.76 509.33 Z" />
</g>
</svg>
