<?xml version="1.0" encoding="UTF-8" ?>
<!DOCTYPE svg PUBLIC "-//W3C//DTD SVG 1.1//EN" "http://www.w3.org/Graphics/SVG/1.1/DTD/svg11.dtd">
<svg width="840pt" height="845pt" viewBox="0 0 840 845" version="1.1" xmlns="http://www.w3.org/2000/svg">
<g id="#ca2d4cff">
<path fill="#ca2d4c" opacity="1.00" d=" M 389.15 16.15 C 406.39 14.49 423.73 15.21 441.02 15.33 C 490.26 17.84 539.06 29.17 584.29 48.82 C 651.22 78.27 710.20 125.75 753.07 185.01 C 775.80 216.59 793.82 251.57 806.32 288.42 C 820.32 330.40 827.43 374.69 827.12 418.95 C 826.11 432.35 826.37 445.84 824.68 459.20 C 820.74 497.54 810.53 535.15 795.47 570.59 C 780.94 604.83 761.08 636.69 737.64 665.52 C 698.67 713.64 648.11 751.95 592.08 778.09 C 582.69 782.29 573.25 786.40 563.56 789.86 C 563.41 743.86 563.42 697.85 563.58 651.85 C 624.33 616.72 670.33 557.33 689.81 489.98 C 695.59 470.47 698.51 450.24 700.06 429.99 C 700.71 420.20 700.98 410.36 700.21 400.57 C 699.26 393.73 699.44 386.79 698.39 379.96 C 693.56 341.20 680.01 303.64 659.50 270.44 C 619.40 204.95 551.02 157.48 475.52 143.23 C 433.42 135.09 389.48 136.82 348.10 148.01 C 305.96 159.39 266.63 180.97 234.38 210.38 C 195.40 245.69 166.27 292.05 152.54 342.91 C 136.46 402.93 141.10 468.53 166.57 525.31 C 181.98 559.81 204.52 591.12 232.42 616.62 C 246.81 629.92 262.30 642.18 279.45 651.76 C 279.72 697.54 279.59 743.32 279.62 789.10 C 243.83 776.35 210.26 757.77 179.70 735.29 C 146.22 710.87 116.71 681.10 92.27 647.65 C 69.13 615.86 50.21 580.84 37.64 543.53 C 30.34 522.23 25.05 500.27 21.29 478.09 C 19.27 461.76 16.63 445.43 16.64 428.93 C 16.43 417.95 16.11 406.95 16.68 395.97 C 18.48 368.27 22.37 340.65 29.59 313.82 C 48.16 242.20 88.54 176.88 142.28 126.28 C 174.34 96.38 210.99 71.37 250.72 52.80 C 294.14 32.34 341.30 19.88 389.15 16.15 M 407.06 56.26 C 407.05 71.82 407.06 87.38 407.07 102.93 C 416.40 102.93 425.73 102.94 435.06 102.93 C 435.06 100.09 435.06 97.24 435.05 94.40 C 429.23 94.39 423.41 94.41 417.58 94.39 C 417.57 90.84 417.57 87.29 417.58 83.74 C 422.67 83.73 427.75 83.74 432.84 83.73 C 432.84 80.89 432.84 78.05 432.84 75.20 C 427.75 75.19 422.67 75.21 417.58 75.19 C 417.57 71.73 417.56 68.27 417.58 64.81 C 423.04 64.79 428.51 64.80 433.97 64.80 C 433.98 61.96 433.98 59.11 433.97 56.26 C 425.00 56.27 416.03 56.27 407.06 56.26 M 379.40 58.40 C 380.26 64.54 381.13 70.68 381.98 76.83 C 375.61 77.78 369.22 78.59 362.84 79.50 C 361.98 73.36 361.11 67.22 360.26 61.08 C 356.78 61.56 353.30 62.04 349.83 62.54 C 352.01 77.94 354.17 93.33 356.32 108.73 C 359.79 108.27 363.26 107.78 366.73 107.28 C 365.87 101.00 364.96 94.73 364.11 88.45 C 370.49 87.65 376.85 86.65 383.23 85.79 C 384.14 92.05 384.99 98.32 385.89 104.59 C 389.37 104.11 392.85 103.63 396.32 103.13 C 394.18 87.73 392.01 72.34 389.85 56.94 C 386.37 57.45 382.88 57.94 379.40 58.40 M 437.63 102.59 C 441.38 103.10 445.14 103.59 448.90 104.09 C 450.46 100.81 451.99 97.51 453.56 94.24 C 459.03 94.97 464.52 95.64 469.99 96.44 C 470.64 100.00 471.27 103.57 471.92 107.14 C 475.70 107.67 479.48 108.17 483.28 108.66 C 479.84 92.52 476.42 76.37 472.98 60.22 C 468.87 59.63 464.75 59.10 460.64 58.58 C 452.93 73.23 445.29 87.92 437.63 102.59 M 494.95 72.57 C 499.19 73.71 503.40 74.95 507.66 76.06 C 504.39 88.33 500.88 100.54 497.53 112.80 C 500.95 113.73 504.33 114.80 507.81 115.55 C 510.96 103.29 514.54 91.14 517.87 78.93 C 522.14 80.12 526.44 81.23 530.70 82.47 C 531.46 79.72 532.23 76.97 532.98 74.21 C 521.06 70.94 509.16 67.58 497.24 64.32 C 496.45 67.06 495.68 69.81 494.95 72.57 M 290.75 80.06 C 295.87 94.74 300.98 109.42 306.12 124.10 C 314.88 121.07 323.63 118.04 332.36 114.95 C 331.43 112.27 330.50 109.60 329.57 106.92 C 324.09 108.76 318.69 110.83 313.17 112.54 C 309.09 100.53 304.82 88.59 300.68 76.60 C 297.37 77.76 294.06 78.89 290.75 80.06 M 545.36 78.54 C 539.09 92.77 532.79 106.98 526.54 121.22 C 529.73 122.64 532.93 124.05 536.14 125.45 C 538.71 119.67 541.24 113.87 543.82 108.08 C 549.72 110.66 555.61 113.26 561.50 115.89 C 558.95 121.68 556.38 127.46 553.84 133.26 C 557.04 134.69 560.26 136.10 563.47 137.51 C 569.77 123.30 576.03 109.07 582.32 94.85 C 579.12 93.38 575.91 91.97 572.68 90.59 C 570.15 96.25 567.68 101.93 565.16 107.59 C 559.25 105.00 553.35 102.41 547.48 99.77 C 549.98 94.10 552.50 88.44 554.98 82.77 C 551.79 81.32 548.57 79.93 545.36 78.54 M 253.49 97.08 C 255.42 113.53 257.33 129.97 259.28 146.41 C 262.68 144.72 266.06 143.00 269.45 141.28 C 268.87 137.71 268.30 134.13 267.72 130.56 C 272.67 128.07 277.61 125.56 282.58 123.10 C 285.11 125.68 287.65 128.27 290.18 130.86 C 293.60 129.16 297.02 127.48 300.42 125.74 C 288.57 114.29 276.55 103.02 264.75 91.52 C 260.95 93.30 257.24 95.23 253.49 97.08 M 219.06 117.52 C 225.44 126.22 231.51 135.17 238.20 143.63 C 226.30 138.76 214.21 134.36 202.24 129.68 C 199.18 131.89 196.12 134.10 193.07 136.32 C 202.18 148.92 211.29 161.52 220.40 174.12 C 223.10 172.20 225.78 170.26 228.45 168.31 C 221.86 159.36 215.61 150.15 208.73 141.42 C 220.98 146.48 233.49 150.91 245.83 155.75 C 248.73 153.71 251.59 151.63 254.44 149.53 C 245.32 136.93 236.22 124.32 227.09 111.73 C 224.42 113.67 221.73 115.59 219.06 117.52 M 584.59 149.33 C 587.60 151.56 590.67 153.72 593.61 156.05 C 596.70 154.05 599.59 151.77 602.60 149.65 C 607.04 152.91 611.47 156.19 615.93 159.43 C 614.80 162.89 613.63 166.33 612.49 169.78 C 615.56 172.04 618.64 174.30 621.73 176.54 C 626.47 160.73 631.19 144.91 635.92 129.10 C 632.59 126.63 629.22 124.20 625.88 121.75 C 612.10 130.92 598.36 140.15 584.59 149.33 M 659.35 147.78 C 648.26 158.68 637.19 169.61 626.11 180.52 C 628.42 182.89 630.74 185.25 633.08 187.60 C 640.93 179.72 649.10 172.15 656.68 164.00 C 653.52 176.89 651.00 189.93 648.15 202.88 C 650.62 205.39 653.10 207.90 655.57 210.42 C 666.68 199.52 677.74 188.59 688.82 177.66 C 686.50 175.30 684.18 172.95 681.86 170.61 C 674.23 178.24 666.32 185.59 658.95 193.48 C 661.96 180.99 664.48 168.39 667.29 155.86 C 664.67 153.14 662.00 150.47 659.35 147.78 M 174.49 155.64 C 163.59 159.20 155.37 171.35 158.42 182.87 C 160.89 192.11 168.53 200.11 177.84 202.56 C 192.16 206.36 207.28 192.44 205.52 177.96 C 204.75 170.06 199.46 163.32 193.14 158.88 C 187.81 155.12 180.78 153.72 174.49 155.64 M 132.25 200.74 C 134.39 202.41 136.53 204.07 138.68 205.73 C 139.47 204.71 140.27 203.69 141.07 202.68 C 149.07 208.88 157.02 215.15 165.01 221.37 C 164.21 222.40 163.42 223.44 162.63 224.48 C 164.76 226.14 166.90 227.80 169.04 229.45 C 172.80 224.64 176.57 219.84 180.32 215.02 C 178.18 213.35 176.04 211.69 173.91 210.03 C 173.10 211.05 172.30 212.07 171.51 213.09 C 163.51 206.86 155.52 200.63 147.55 194.37 C 148.34 193.36 149.14 192.34 149.94 191.33 C 147.82 189.64 145.68 187.97 143.54 186.30 C 139.77 191.10 136.01 195.92 132.25 200.74 M 662.38 218.76 C 668.78 226.82 673.18 237.49 683.13 241.86 C 691.04 245.50 700.49 243.25 707.03 237.87 C 713.21 233.45 717.73 225.81 715.91 218.04 C 713.69 207.90 705.93 200.39 700.53 191.88 C 687.79 200.80 675.11 209.82 662.38 218.76 M 107.98 237.42 C 110.40 238.98 112.80 240.57 115.34 241.94 C 117.54 238.17 119.96 234.54 122.30 230.85 C 133.04 237.63 143.73 244.49 154.49 251.26 C 156.36 248.30 158.26 245.35 160.11 242.38 C 149.39 235.57 138.68 228.75 127.97 221.94 C 130.33 218.19 132.74 214.47 135.10 210.71 C 132.70 209.16 130.30 207.64 127.88 206.12 C 121.25 216.56 114.58 226.97 107.98 237.42 M 721.67 266.52 C 719.37 271.72 720.70 277.51 720.00 282.97 C 719.71 284.92 718.96 287.19 716.95 287.94 C 714.76 288.93 712.52 287.33 711.29 285.61 C 707.89 280.84 707.20 274.54 708.58 268.93 C 705.43 270.37 702.27 271.76 699.11 273.16 C 699.20 279.32 701.26 285.32 704.41 290.57 C 706.64 294.19 709.77 297.70 714.09 298.66 C 719.26 299.76 725.07 297.39 728.05 293.02 C 731.20 287.99 730.27 281.82 730.59 276.19 C 730.78 274.03 730.95 271.34 733.04 270.11 C 735.11 268.70 737.70 270.18 739.02 271.94 C 742.21 276.03 742.99 281.49 742.55 286.54 C 745.51 285.20 748.49 283.91 751.45 282.54 C 750.30 274.62 747.22 266.35 740.75 261.27 C 734.60 256.46 724.61 259.44 721.67 266.52 M 91.80 270.74 C 103.60 282.34 115.38 293.97 127.21 305.55 C 128.79 302.10 130.36 298.66 131.93 295.21 C 129.25 292.77 126.55 290.35 123.87 287.92 C 126.14 282.87 128.45 277.84 130.76 272.81 C 134.37 273.24 137.98 273.69 141.59 274.08 C 143.16 270.61 144.75 267.16 146.33 263.70 C 129.88 262.24 113.43 260.84 96.98 259.40 C 95.25 263.18 93.51 266.95 91.80 270.74 M 80.91 302.87 C 76.24 310.11 75.17 318.92 72.39 326.95 C 87.32 331.29 102.22 335.75 117.15 340.12 C 118.15 336.77 119.14 333.43 120.12 330.08 C 115.02 328.47 109.85 327.08 104.72 325.52 C 106.52 319.60 108.59 313.05 106.00 307.02 C 102.47 297.35 87.01 293.81 80.91 302.87 M 711.78 305.37 C 712.81 309.02 713.87 312.67 714.93 316.31 C 718.54 316.40 722.15 316.50 725.77 316.58 C 727.38 321.87 728.83 327.20 730.42 332.50 C 727.43 334.60 724.38 336.59 721.35 338.62 C 722.41 342.27 723.46 345.93 724.52 349.59 C 737.98 340.02 751.36 330.36 764.78 320.75 C 763.63 316.75 762.48 312.75 761.32 308.76 C 744.81 307.63 728.29 306.48 711.78 305.37 M 68.48 343.39 C 67.97 346.85 67.47 350.31 66.98 353.78 C 76.15 355.14 85.33 356.34 94.48 357.77 C 97.63 358.29 101.11 359.36 102.86 362.26 C 104.54 365.32 104.00 369.32 102.09 372.15 C 99.77 375.24 95.48 375.51 91.95 375.07 C 82.78 373.87 73.64 372.36 64.46 371.14 C 63.96 374.62 63.45 378.09 62.97 381.57 C 71.72 382.82 80.46 384.11 89.21 385.37 C 94.55 386.12 100.44 386.17 105.16 383.17 C 109.61 380.36 111.81 375.15 112.58 370.12 C 113.45 364.81 113.16 358.83 109.71 354.44 C 106.21 349.97 100.52 348.08 95.11 347.23 C 86.25 345.87 77.37 344.61 68.48 343.39 M 725.09 355.49 C 725.59 358.95 726.11 362.41 726.64 365.87 C 732.62 365.00 738.59 364.09 744.57 363.19 C 745.33 368.17 746.06 373.16 746.83 378.14 C 749.63 377.73 752.44 377.31 755.25 376.87 C 754.51 371.89 753.75 366.91 753.01 361.93 C 756.78 361.35 760.55 360.78 764.34 360.23 C 765.16 365.64 765.96 371.07 766.79 376.49 C 769.61 376.07 772.43 375.65 775.25 375.21 C 773.92 366.33 772.58 357.44 771.23 348.56 C 755.85 350.86 740.47 353.18 725.09 355.49 M 729.67 389.87 C 730.00 399.18 730.34 408.50 730.69 417.81 C 733.52 417.72 736.36 417.61 739.21 417.50 C 739.00 411.68 738.77 405.86 738.59 400.04 C 742.13 399.91 745.68 399.78 749.23 399.66 C 749.43 404.73 749.61 409.81 749.80 414.89 C 752.64 414.80 755.48 414.70 758.33 414.57 C 758.13 409.50 757.95 404.43 757.77 399.36 C 761.22 399.21 764.68 399.08 768.14 398.98 C 768.35 404.44 768.53 409.90 768.75 415.35 C 771.59 415.25 774.44 415.14 777.29 415.03 C 776.98 406.08 776.62 397.12 776.32 388.17 C 760.77 388.70 745.22 389.28 729.67 389.87 M 62.91 395.93 C 60.15 405.19 60.33 416.36 66.96 423.99 C 73.63 431.99 85.39 433.91 95.01 431.00 C 101.82 428.94 107.27 423.06 108.76 416.09 C 110.17 409.39 109.67 402.22 107.09 395.86 C 103.90 395.87 100.71 395.87 97.52 395.86 C 100.56 401.72 101.87 409.34 98.23 415.22 C 92.19 423.95 76.27 423.16 71.71 413.33 C 69.29 407.74 70.22 401.20 73.01 395.92 C 69.64 395.94 66.28 395.93 62.91 395.93 M 768.78 424.20 C 768.40 428.60 768.05 433.00 767.66 437.40 C 755.01 436.24 742.34 435.26 729.68 434.22 C 729.38 437.72 729.09 441.22 728.82 444.72 C 741.48 445.71 754.13 446.86 766.79 447.90 C 766.43 452.32 766.04 456.73 765.70 461.16 C 768.53 461.40 771.37 461.63 774.22 461.86 C 775.24 449.54 776.28 437.23 777.30 424.91 C 774.45 424.66 771.61 424.42 768.78 424.20 M 98.02 438.99 C 102.43 445.07 104.83 454.41 99.61 460.72 C 93.55 467.26 81.04 468.06 75.39 460.55 C 71.57 455.32 71.63 448.17 73.73 442.26 C 70.40 442.74 67.07 443.19 63.74 443.65 C 62.29 453.10 63.85 464.04 71.29 470.74 C 78.91 477.91 90.87 478.34 100.08 474.21 C 106.77 471.23 111.51 464.41 111.91 457.09 C 112.28 450.40 110.88 443.51 107.49 437.69 C 104.34 438.16 101.18 438.59 98.02 438.99 M 740.90 476.75 C 735.39 476.10 730.02 474.47 724.56 473.46 C 723.80 476.89 723.06 480.31 722.36 483.75 C 727.74 485.00 733.23 485.85 738.55 487.35 C 747.44 494.16 756.01 501.40 764.79 508.37 C 765.58 504.73 766.39 501.10 767.10 497.45 C 760.71 493.20 754.89 488.05 748.09 484.46 C 755.77 484.03 763.21 481.81 770.77 480.52 C 771.62 476.61 772.46 472.70 773.29 468.79 C 762.48 471.39 751.73 474.25 740.90 476.75 M 96.13 484.07 C 89.26 485.20 82.29 488.31 78.18 494.15 C 69.89 505.40 75.77 523.67 88.80 528.41 C 96.12 531.22 104.49 529.83 111.33 526.34 C 118.41 522.73 123.24 515.00 122.97 507.00 C 122.70 499.62 119.49 491.98 113.27 487.71 C 108.35 484.23 102.03 483.05 96.13 484.07 Z" />
<path fill="#ca2d4c" opacity="1.00" d=" M 465.50 67.25 C 465.70 74.30 467.64 81.15 468.67 88.10 C 464.73 87.55 460.79 87.05 456.85 86.54 C 459.69 80.09 463.27 73.95 465.50 67.25 Z" />
<path fill="#ca2d4c" opacity="1.00" d=" M 262.38 101.55 C 266.57 107.21 272.00 111.79 276.77 116.95 C 273.23 118.78 269.67 120.55 266.11 122.31 C 264.82 115.40 264.37 108.31 262.38 101.55 Z" />
<path fill="#ca2d4c" opacity="1.00" d=" M 609.14 144.44 C 614.80 140.22 620.81 136.43 626.05 131.68 C 622.73 137.92 621.22 144.91 618.78 151.50 C 615.56 149.16 612.34 146.81 609.14 144.44 Z" />
<path fill="#ca2d4c" opacity="1.00" d=" M 175.39 165.51 C 179.60 164.06 184.15 165.86 187.50 168.49 C 191.45 171.62 195.18 175.82 195.67 181.06 C 196.35 188.11 188.95 194.50 182.06 192.54 C 175.77 190.83 170.49 185.61 168.39 179.48 C 166.39 173.86 169.89 167.43 175.39 165.51 Z" />
<path fill="#ca2d4c" opacity="1.00" d=" M 675.41 222.42 C 683.47 216.74 691.54 211.09 699.57 205.38 C 703.00 210.03 707.14 215.50 705.42 221.66 C 703.24 228.78 695.38 233.78 688.03 233.08 C 682.03 232.41 678.49 227.00 675.41 222.42 Z" />
<path fill="#ca2d4c" opacity="1.00" d=" M 117.45 282.51 C 112.15 277.90 107.31 272.74 101.59 268.65 C 108.39 270.45 115.47 270.61 122.40 271.66 C 120.75 275.28 119.10 278.89 117.45 282.51 Z" />
<path fill="#ca2d4c" opacity="1.00" d=" M 86.18 311.18 C 89.57 306.45 98.61 309.22 98.79 315.04 C 98.89 317.87 97.83 320.56 97.06 323.24 C 92.42 321.83 87.75 320.53 83.10 319.14 C 83.94 316.43 84.50 313.53 86.18 311.18 Z" />
<path fill="#ca2d4c" opacity="1.00" d=" M 734.21 316.51 C 741.23 316.54 748.27 317.37 755.28 316.70 C 748.95 319.78 743.45 324.25 737.50 327.98 C 736.39 324.16 735.29 320.34 734.21 316.51 Z" />
<path fill="#ca2d4c" opacity="1.00" d=" M 95.40 495.55 C 99.85 494.19 105.17 493.84 109.12 496.73 C 114.31 500.50 115.17 508.95 110.41 513.43 C 105.50 518.08 97.92 520.21 91.37 518.35 C 85.13 516.60 81.76 508.62 84.82 502.94 C 86.98 498.98 91.24 496.79 95.40 495.55 Z" />
<path fill="#ca2d4c" opacity="1.00" d=" M 499.44 575.53 C 509.01 575.73 519.06 574.24 528.17 577.92 C 536.46 581.87 542.50 590.68 542.27 600.00 C 542.36 646.90 542.26 693.80 542.41 740.70 C 543.33 748.46 541.78 756.22 542.76 763.97 C 543.37 772.97 542.50 781.99 542.91 790.99 C 543.04 798.87 542.47 807.70 536.82 813.79 C 531.87 819.99 523.78 822.80 516.04 822.79 C 452.66 822.81 389.27 822.82 325.90 822.72 C 312.80 822.79 301.06 811.07 300.99 798.00 C 300.88 732.33 300.91 666.67 300.92 601.00 C 300.55 588.09 311.87 575.91 324.95 576.11 C 363.96 575.89 402.98 576.38 442.00 575.95 C 451.67 576.03 461.35 576.27 471.02 575.84 C 480.48 574.91 489.97 576.49 499.44 575.53 M 394.86 722.00 C 382.21 709.29 369.52 696.61 357.00 683.77 C 348.42 691.92 340.11 700.36 331.81 708.81 C 352.88 729.68 373.82 750.70 394.82 771.64 C 435.26 731.53 475.48 691.20 515.72 650.89 C 507.20 642.79 499.03 634.33 490.69 626.05 C 458.84 658.13 426.81 690.03 394.86 722.00 Z" />
</g>
<g id="#feffffff">
<path fill="#feffff" opacity="1.00" d=" M 407.06 56.26 C 416.03 56.27 425.00 56.27 433.97 56.26 C 433.98 59.11 433.98 61.96 433.97 64.80 C 428.51 64.80 423.04 64.79 417.58 64.81 C 417.56 68.27 417.57 71.73 417.58 75.19 C 422.67 75.21 427.75 75.19 432.84 75.20 C 432.84 78.05 432.84 80.89 432.84 83.73 C 427.75 83.74 422.67 83.73 417.58 83.74 C 417.57 87.29 417.57 90.84 417.58 94.39 C 423.41 94.41 429.23 94.39 435.05 94.40 C 435.06 97.24 435.06 100.09 435.06 102.93 C 425.73 102.94 416.40 102.93 407.07 102.93 C 407.06 87.38 407.05 71.82 407.06 56.26 Z" />
<path fill="#feffff" opacity="1.00" d=" M 379.40 58.40 C 382.88 57.94 386.37 57.45 389.85 56.94 C 392.01 72.34 394.18 87.73 396.32 103.13 C 392.85 103.63 389.37 104.11 385.89 104.59 C 384.99 98.32 384.14 92.05 383.23 85.79 C 376.85 86.65 370.49 87.65 364.11 88.45 C 364.96 94.73 365.87 101.00 366.73 107.28 C 363.26 107.78 359.79 108.27 356.32 108.73 C 354.17 93.33 352.01 77.94 349.83 62.54 C 353.30 62.04 356.78 61.56 360.26 61.08 C 361.11 67.22 361.98 73.36 362.84 79.50 C 369.22 78.59 375.61 77.78 381.98 76.83 C 381.13 70.68 380.26 64.54 379.40 58.40 Z" />
<path fill="#feffff" opacity="1.00" d=" M 437.63 102.59 C 445.29 87.92 452.93 73.23 460.64 58.58 C 464.75 59.10 468.87 59.63 472.98 60.22 C 476.42 76.37 479.84 92.52 483.28 108.66 C 479.48 108.17 475.70 107.67 471.92 107.14 C 471.27 103.57 470.64 100.00 469.99 96.44 C 464.52 95.64 459.03 94.97 453.56 94.24 C 451.99 97.51 450.46 100.81 448.90 104.09 C 445.14 103.59 441.38 103.10 437.63 102.59 M 465.50 67.25 C 463.27 73.95 459.69 80.09 456.85 86.54 C 460.79 87.05 464.73 87.55 468.67 88.10 C 467.64 81.15 465.70 74.30 465.50 67.25 Z" />
<path fill="#feffff" opacity="1.00" d=" M 494.95 72.57 C 495.68 69.81 496.45 67.06 497.24 64.32 C 509.16 67.58 521.06 70.94 532.98 74.21 C 532.23 76.97 531.46 79.72 530.70 82.47 C 526.44 81.23 522.14 80.12 517.87 78.93 C 514.54 91.14 510.96 103.29 507.81 115.55 C 504.33 114.80 500.95 113.73 497.53 112.80 C 500.88 100.54 504.39 88.33 507.66 76.06 C 503.40 74.95 499.19 73.71 494.95 72.57 Z" />
<path fill="#feffff" opacity="1.00" d=" M 290.75 80.06 C 294.06 78.89 297.37 77.76 300.68 76.60 C 304.82 88.59 309.09 100.53 313.17 112.54 C 318.69 110.83 324.09 108.76 329.57 106.92 C 330.50 109.60 331.43 112.27 332.36 114.95 C 323.63 118.04 314.88 121.07 306.12 124.10 C 300.98 109.42 295.87 94.74 290.75 80.06 Z" />
<path fill="#feffff" opacity="1.00" d=" M 545.36 78.54 C 548.57 79.93 551.79 81.32 554.98 82.77 C 552.50 88.44 549.98 94.10 547.48 99.77 C 553.35 102.41 559.25 105.00 565.16 107.59 C 567.68 101.93 570.15 96.25 572.68 90.59 C 575.91 91.97 579.12 93.38 582.32 94.85 C 576.03 109.07 569.77 123.30 563.47 137.51 C 560.26 136.10 557.04 134.69 553.84 133.26 C 556.38 127.46 558.95 121.68 561.50 115.89 C 555.61 113.26 549.72 110.66 543.82 108.08 C 541.24 113.87 538.71 119.67 536.14 125.45 C 532.93 124.05 529.73 122.64 526.54 121.22 C 532.79 106.98 539.09 92.77 545.36 78.54 Z" />
<path fill="#feffff" opacity="1.00" d=" M 253.49 97.08 C 257.24 95.23 260.95 93.30 264.75 91.52 C 276.55 103.02 288.57 114.29 300.42 125.74 C 297.02 127.48 293.60 129.16 290.18 130.86 C 287.65 128.27 285.11 125.68 282.58 123.10 C 277.61 125.56 272.67 128.07 267.72 130.56 C 268.30 134.13 268.87 137.71 269.45 141.28 C 266.06 143.00 262.68 144.72 259.28 146.41 C 257.33 129.97 255.42 113.53 253.49 97.08 M 262.38 101.55 C 264.37 108.31 264.82 115.40 266.11 122.31 C 269.67 120.55 273.23 118.78 276.77 116.95 C 272.00 111.79 266.57 107.21 262.38 101.55 Z" />
<path fill="#feffff" opacity="1.00" d=" M 219.06 117.52 C 221.73 115.59 224.42 113.67 227.09 111.73 C 236.22 124.32 245.32 136.93 254.44 149.53 C 251.59 151.63 248.73 153.71 245.83 155.75 C 233.49 150.91 220.98 146.48 208.73 141.42 C 215.61 150.15 221.86 159.36 228.45 168.31 C 225.78 170.26 223.10 172.20 220.40 174.12 C 211.29 161.52 202.18 148.92 193.07 136.32 C 196.12 134.10 199.18 131.89 202.24 129.68 C 214.21 134.36 226.30 138.76 238.20 143.63 C 231.51 135.17 225.44 126.22 219.06 117.52 Z" />
<path fill="#feffff" opacity="1.00" d=" M 584.59 149.33 C 598.36 140.15 612.10 130.92 625.88 121.75 C 629.22 124.20 632.59 126.63 635.92 129.10 C 631.19 144.91 626.47 160.73 621.73 176.54 C 618.64 174.30 615.56 172.04 612.49 169.78 C 613.63 166.33 614.80 162.89 615.93 159.43 C 611.47 156.19 607.04 152.91 602.60 149.65 C 599.59 151.77 596.70 154.05 593.61 156.05 C 590.67 153.72 587.60 151.56 584.59 149.33 M 609.14 144.44 C 612.34 146.81 615.56 149.16 618.78 151.50 C 621.22 144.91 622.73 137.92 626.05 131.68 C 620.81 136.43 614.80 140.22 609.14 144.44 Z" />
<path fill="#feffff" opacity="1.00" d=" M 659.35 147.78 C 662.00 150.47 664.67 153.14 667.29 155.86 C 664.48 168.39 661.96 180.99 658.95 193.48 C 666.32 185.59 674.23 178.24 681.86 170.61 C 684.18 172.95 686.50 175.30 688.82 177.66 C 677.74 188.59 666.68 199.52 655.57 210.42 C 653.10 207.90 650.62 205.39 648.15 202.88 C 651.00 189.93 653.52 176.89 656.68 164.00 C 649.10 172.15 640.93 179.72 633.08 187.60 C 630.74 185.25 628.42 182.89 626.11 180.52 C 637.19 169.61 648.26 158.68 659.35 147.78 Z" />
<path fill="#feffff" opacity="1.00" d=" M 174.49 155.64 C 180.78 153.72 187.81 155.12 193.14 158.88 C 199.46 163.32 204.75 170.06 205.52 177.96 C 207.28 192.44 192.16 206.36 177.84 202.56 C 168.53 200.11 160.89 192.11 158.42 182.87 C 155.37 171.35 163.59 159.20 174.49 155.64 M 175.39 165.51 C 169.89 167.43 166.39 173.86 168.39 179.48 C 170.49 185.61 175.77 190.83 182.06 192.54 C 188.95 194.50 196.35 188.11 195.67 181.06 C 195.18 175.82 191.45 171.62 187.50 168.49 C 184.15 165.86 179.60 164.06 175.39 165.51 Z" />
<path fill="#feffff" opacity="1.00" d=" M 132.25 200.74 C 136.01 195.92 139.77 191.10 143.54 186.30 C 145.68 187.97 147.82 189.64 149.94 191.33 C 149.14 192.34 148.34 193.36 147.55 194.37 C 155.52 200.63 163.51 206.86 171.51 213.09 C 172.30 212.07 173.10 211.05 173.91 210.03 C 176.04 211.69 178.18 213.35 180.32 215.02 C 176.57 219.84 172.80 224.64 169.04 229.45 C 166.90 227.80 164.76 226.14 162.63 224.48 C 163.42 223.44 164.21 222.40 165.01 221.37 C 157.02 215.15 149.07 208.88 141.07 202.68 C 140.27 203.69 139.47 204.71 138.68 205.73 C 136.53 204.07 134.39 202.41 132.25 200.74 Z" />
<path fill="#feffff" opacity="1.00" d=" M 662.38 218.76 C 675.11 209.82 687.79 200.80 700.53 191.88 C 705.93 200.39 713.69 207.90 715.91 218.04 C 717.73 225.81 713.21 233.45 707.03 237.87 C 700.49 243.25 691.04 245.50 683.13 241.86 C 673.18 237.49 668.78 226.82 662.38 218.76 M 675.41 222.42 C 678.49 227.00 682.03 232.41 688.03 233.08 C 695.38 233.78 703.24 228.78 705.42 221.66 C 707.14 215.50 703.00 210.03 699.57 205.38 C 691.54 211.09 683.47 216.74 675.41 222.42 Z" />
<path fill="#feffff" opacity="1.00" d=" M 107.98 237.42 C 114.58 226.97 121.25 216.56 127.88 206.12 C 130.30 207.64 132.70 209.16 135.10 210.71 C 132.74 214.47 130.33 218.19 127.97 221.94 C 138.68 228.75 149.39 235.57 160.11 242.38 C 158.26 245.35 156.36 248.30 154.49 251.26 C 143.73 244.49 133.04 237.63 122.30 230.85 C 119.96 234.54 117.54 238.17 115.34 241.94 C 112.80 240.57 110.40 238.98 107.98 237.42 Z" />
<path fill="#feffff" opacity="1.00" d=" M 721.67 266.52 C 724.61 259.44 734.60 256.46 740.75 261.27 C 747.22 266.35 750.30 274.62 751.45 282.54 C 748.49 283.91 745.51 285.20 742.55 286.54 C 742.99 281.49 742.21 276.03 739.02 271.94 C 737.70 270.18 735.11 268.70 733.04 270.11 C 730.95 271.34 730.78 274.03 730.59 276.19 C 730.27 281.82 731.20 287.99 728.05 293.02 C 725.07 297.39 719.26 299.76 714.09 298.66 C 709.77 297.70 706.64 294.19 704.41 290.57 C 701.26 285.32 699.20 279.32 699.11 273.16 C 702.27 271.76 705.43 270.37 708.58 268.93 C 707.20 274.54 707.89 280.84 711.29 285.61 C 712.52 287.33 714.76 288.93 716.95 287.94 C 718.96 287.19 719.71 284.92 720.00 282.97 C 720.70 277.51 719.37 271.72 721.67 266.52 Z" />
<path fill="#feffff" opacity="1.00" d=" M 91.80 270.74 C 93.51 266.95 95.25 263.18 96.98 259.40 C 113.43 260.84 129.88 262.24 146.33 263.70 C 144.75 267.16 143.16 270.61 141.59 274.08 C 137.98 273.69 134.37 273.24 130.76 272.81 C 128.45 277.84 126.14 282.87 123.87 287.92 C 126.55 290.35 129.25 292.77 131.93 295.21 C 130.36 298.66 128.79 302.10 127.21 305.55 C 115.38 293.97 103.60 282.34 91.80 270.74 M 117.45 282.51 C 119.10 278.89 120.75 275.28 122.40 271.66 C 115.47 270.61 108.39 270.45 101.59 268.65 C 107.31 272.74 112.15 277.90 117.45 282.51 Z" />
<path fill="#feffff" opacity="1.00" d=" M 80.91 302.87 C 87.01 293.81 102.47 297.35 106.00 307.02 C 108.59 313.05 106.52 319.60 104.72 325.52 C 109.85 327.08 115.02 328.47 120.12 330.08 C 119.14 333.43 118.15 336.77 117.15 340.12 C 102.22 335.75 87.32 331.29 72.39 326.95 C 75.17 318.92 76.24 310.11 80.91 302.87 M 86.18 311.18 C 84.50 313.53 83.94 316.43 83.10 319.14 C 87.75 320.53 92.42 321.83 97.06 323.24 C 97.83 320.56 98.89 317.87 98.79 315.04 C 98.61 309.22 89.57 306.45 86.18 311.18 Z" />
<path fill="#feffff" opacity="1.00" d=" M 711.78 305.37 C 728.29 306.48 744.81 307.63 761.32 308.76 C 762.48 312.75 763.63 316.75 764.78 320.75 C 751.36 330.36 737.98 340.02 724.52 349.59 C 723.46 345.93 722.41 342.27 721.35 338.62 C 724.38 336.59 727.43 334.60 730.42 332.50 C 728.83 327.20 727.38 321.87 725.77 316.58 C 722.15 316.50 718.54 316.40 714.93 316.31 C 713.87 312.67 712.81 309.02 711.78 305.37 M 734.21 316.51 C 735.29 320.34 736.39 324.16 737.50 327.98 C 743.45 324.25 748.95 319.78 755.28 316.70 C 748.27 317.37 741.23 316.54 734.21 316.51 Z" />
<path fill="#feffff" opacity="1.00" d=" M 68.48 343.39 C 77.37 344.61 86.25 345.87 95.11 347.23 C 100.52 348.08 106.21 349.97 109.71 354.44 C 113.16 358.83 113.45 364.81 112.58 370.12 C 111.81 375.15 109.61 380.36 105.16 383.17 C 100.44 386.17 94.55 386.12 89.21 385.37 C 80.46 384.11 71.72 382.82 62.97 381.57 C 63.45 378.09 63.96 374.62 64.46 371.14 C 73.64 372.36 82.78 373.87 91.95 375.07 C 95.48 375.51 99.77 375.24 102.09 372.15 C 104.00 369.32 104.54 365.32 102.86 362.26 C 101.11 359.36 97.63 358.29 94.48 357.77 C 85.33 356.34 76.15 355.14 66.98 353.78 C 67.47 350.31 67.97 346.85 68.48 343.39 Z" />
<path fill="#feffff" opacity="1.00" d=" M 725.09 355.49 C 740.47 353.18 755.85 350.86 771.23 348.56 C 772.58 357.44 773.92 366.33 775.25 375.21 C 772.43 375.65 769.61 376.07 766.79 376.49 C 765.96 371.07 765.16 365.64 764.34 360.23 C 760.55 360.78 756.78 361.35 753.01 361.93 C 753.75 366.91 754.51 371.89 755.25 376.87 C 752.44 377.31 749.63 377.73 746.83 378.14 C 746.06 373.16 745.33 368.17 744.57 363.19 C 738.59 364.09 732.62 365.00 726.64 365.87 C 726.11 362.41 725.59 358.95 725.09 355.49 Z" />
<path fill="#feffff" opacity="1.00" d=" M 729.67 389.87 C 745.22 389.28 760.77 388.70 776.32 388.17 C 776.62 397.12 776.98 406.08 777.29 415.03 C 774.44 415.14 771.59 415.25 768.75 415.35 C 768.53 409.90 768.35 404.44 768.14 398.98 C 764.68 399.08 761.22 399.21 757.77 399.36 C 757.95 404.43 758.13 409.50 758.33 414.57 C 755.48 414.70 752.64 414.80 749.80 414.89 C 749.61 409.81 749.43 404.73 749.23 399.66 C 745.68 399.78 742.13 399.91 738.59 400.04 C 738.77 405.86 739.00 411.68 739.21 417.50 C 736.36 417.61 733.52 417.72 730.69 417.81 C 730.34 408.50 730.00 399.18 729.67 389.87 Z" />
<path fill="#feffff" opacity="1.00" d=" M 62.91 395.93 C 66.28 395.93 69.64 395.94 73.01 395.92 C 70.22 401.20 69.29 407.74 71.71 413.33 C 76.27 423.16 92.19 423.95 98.23 415.22 C 101.87 409.34 100.56 401.72 97.52 395.86 C 100.71 395.87 103.90 395.87 107.09 395.86 C 109.67 402.22 110.17 409.39 108.76 416.09 C 107.27 423.06 101.82 428.94 95.01 431.00 C 85.39 433.91 73.63 431.99 66.96 423.99 C 60.33 416.36 60.15 405.19 62.91 395.93 Z" />
<path fill="#feffff" opacity="1.00" d=" M 768.78 424.20 C 771.61 424.42 774.45 424.66 777.30 424.91 C 776.28 437.23 775.24 449.54 774.22 461.86 C 771.37 461.63 768.53 461.40 765.70 461.16 C 766.04 456.73 766.43 452.32 766.79 447.90 C 754.13 446.86 741.48 445.71 728.82 444.72 C 729.09 441.22 729.38 437.72 729.68 434.22 C 742.34 435.26 755.01 436.24 767.66 437.40 C 768.05 433.00 768.40 428.60 768.78 424.20 Z" />
<path fill="#feffff" opacity="1.00" d=" M 98.02 438.99 C 101.18 438.59 104.34 438.16 107.49 437.69 C 110.88 443.51 112.28 450.40 111.91 457.09 C 111.51 464.41 106.77 471.23 100.08 474.21 C 90.87 478.34 78.91 477.91 71.29 470.74 C 63.85 464.04 62.29 453.10 63.74 443.65 C 67.07 443.19 70.40 442.74 73.73 442.26 C 71.63 448.17 71.57 455.32 75.39 460.55 C 81.04 468.06 93.55 467.26 99.61 460.72 C 104.83 454.41 102.43 445.07 98.02 438.99 Z" />
<path fill="#feffff" opacity="1.00" d=" M 740.90 476.75 C 751.73 474.25 762.48 471.39 773.29 468.79 C 772.46 472.70 771.62 476.61 770.77 480.52 C 763.21 481.81 755.77 484.03 748.09 484.46 C 754.89 488.05 760.71 493.20 767.10 497.45 C 766.39 501.10 765.58 504.73 764.79 508.37 C 756.01 501.40 747.44 494.16 738.55 487.35 C 733.23 485.85 727.74 485.00 722.36 483.75 C 723.06 480.31 723.80 476.89 724.56 473.46 C 730.02 474.47 735.39 476.10 740.90 476.75 Z" />
<path fill="#feffff" opacity="1.00" d=" M 96.13 484.07 C 102.03 483.05 108.35 484.23 113.27 487.71 C 119.49 491.98 122.70 499.62 122.97 507.00 C 123.24 515.00 118.41 522.73 111.33 526.34 C 104.49 529.83 96.12 531.22 88.80 528.41 C 75.77 523.67 69.89 505.40 78.18 494.15 C 82.29 488.31 89.26 485.20 96.13 484.07 M 95.40 495.55 C 91.24 496.79 86.98 498.98 84.82 502.94 C 81.76 508.62 85.13 516.60 91.37 518.35 C 97.92 520.21 105.50 518.08 110.41 513.43 C 115.17 508.95 114.31 500.50 109.12 496.73 C 105.17 493.84 99.85 494.19 95.40 495.55 Z" />
<path fill="#feffff" opacity="1.00" d=" M 394.86 722.00 C 426.81 690.03 458.84 658.13 490.69 626.05 C 499.03 634.33 507.20 642.79 515.72 650.89 C 475.48 691.20 435.26 731.53 394.82 771.64 C 373.82 750.70 352.88 729.68 331.81 708.81 C 340.11 700.36 348.42 691.92 357.00 683.77 C 369.52 696.61 382.21 709.29 394.86 722.00 Z" />
</g>
<g id="#000000ff">
<path fill="#000000" opacity="1.00" d=" M 379.09 227.25 C 388.15 222.08 399.34 220.96 409.37 223.66 C 416.44 225.52 422.99 229.96 426.63 236.40 C 429.12 240.98 429.49 246.29 429.79 251.38 C 425.41 251.49 421.02 251.47 416.63 251.38 C 416.37 246.44 415.30 241.05 411.33 237.69 C 406.34 233.32 399.15 233.29 392.94 234.22 C 386.93 235.13 381.36 240.68 382.15 247.05 C 382.48 252.78 387.69 256.59 392.67 258.38 C 402.39 262.45 413.06 264.80 421.59 271.30 C 429.82 277.15 432.90 288.89 429.10 298.17 C 426.63 304.31 421.18 308.86 414.98 310.93 C 408.02 313.22 400.49 314.25 393.23 312.85 C 385.23 311.72 376.94 308.74 371.77 302.21 C 367.35 297.11 366.38 290.01 366.99 283.50 C 371.13 283.46 375.28 283.40 379.42 283.40 C 380.24 287.87 380.33 292.96 383.59 296.50 C 387.88 300.72 394.14 302.24 400.01 302.27 C 404.49 302.24 409.43 302.00 413.04 298.97 C 419.41 294.38 418.26 283.24 411.58 279.47 C 399.64 272.56 384.81 271.11 374.33 261.63 C 364.60 252.07 367.54 234.05 379.09 227.25 Z" />
<path fill="#000000" opacity="1.00" d=" M 469.52 222.71 C 476.30 221.71 483.40 222.39 489.70 225.21 C 497.86 228.73 504.05 236.35 506.02 245.00 C 507.89 252.52 507.00 260.31 507.17 267.98 C 507.26 279.22 508.35 291.84 501.22 301.39 C 491.16 314.97 470.32 317.15 456.42 308.47 C 448.95 303.92 444.65 295.45 443.69 286.94 C 442.89 279.99 443.37 272.98 443.25 266.00 C 443.33 256.59 442.40 246.58 446.83 237.90 C 450.80 229.06 460.16 223.78 469.52 222.71 M 468.33 234.51 C 463.75 236.02 459.93 239.78 458.45 244.38 C 455.75 253.36 456.78 262.84 456.61 272.06 C 456.62 279.94 455.95 288.60 460.54 295.48 C 467.63 305.74 485.72 304.20 491.14 293.02 C 493.68 286.72 493.81 279.76 493.83 273.05 C 493.65 265.02 494.23 256.91 492.94 248.94 C 492.20 244.28 490.00 239.65 486.05 236.89 C 480.95 233.34 474.20 232.96 468.33 234.51 Z" />
<path fill="#000000" opacity="1.00" d=" M 338.06 224.06 C 342.44 223.46 346.85 223.49 351.26 223.62 C 352.01 251.08 351.37 278.55 351.64 306.01 C 351.68 308.01 351.61 310.03 351.19 312.00 C 346.86 312.17 342.53 312.15 338.21 312.13 C 337.91 282.77 338.10 253.42 338.06 224.06 Z" />
<path fill="#000000" opacity="1.00" d=" M 422.50 346.72 C 432.55 345.39 443.44 346.32 452.18 351.88 C 460.31 357.03 465.34 365.86 467.94 374.93 C 471.37 386.94 471.82 399.62 471.07 412.03 C 470.13 424.98 466.97 438.47 458.36 448.57 C 452.35 455.86 443.27 460.20 433.94 461.15 C 423.24 462.29 411.60 460.77 402.83 454.08 C 395.10 448.27 390.62 439.16 388.37 429.94 C 385.47 417.84 385.27 405.23 386.38 392.89 C 387.61 380.83 390.93 368.38 399.05 359.07 C 404.95 352.17 413.56 347.90 422.50 346.72 M 425.33 365.47 C 422.32 366.40 419.90 368.68 418.27 371.32 C 414.48 377.58 413.44 385.03 412.70 392.18 C 412.00 402.94 411.83 413.84 413.73 424.49 C 414.83 429.87 416.45 435.55 420.51 439.48 C 424.76 443.65 432.36 443.84 436.60 439.53 C 440.77 435.36 442.30 429.38 443.39 423.76 C 445.20 412.94 445.09 401.87 444.35 390.95 C 443.56 383.64 442.55 375.89 438.22 369.72 C 435.45 365.63 429.99 363.88 425.33 365.47 Z" />
<path fill="#000000" opacity="1.00" d=" M 519.56 346.72 C 530.05 345.33 541.53 346.42 550.39 352.68 C 558.53 358.36 563.22 367.72 565.60 377.14 C 568.58 389.17 568.91 401.72 567.95 414.03 C 566.83 426.51 563.46 439.42 555.02 449.03 C 548.98 456.05 540.09 460.25 530.94 461.16 C 520.03 462.31 508.13 460.68 499.34 453.66 C 490.96 447.07 486.64 436.71 484.65 426.51 C 482.40 414.56 482.33 402.25 483.73 390.20 C 485.25 378.35 489.05 366.18 497.59 357.46 C 503.38 351.45 511.35 347.83 519.56 346.72 M 522.29 365.50 C 516.47 367.44 513.60 373.55 512.03 379.04 C 508.92 390.51 509.07 402.55 509.54 414.33 C 510.21 422.44 511.12 431.17 516.11 437.91 C 519.88 443.18 528.22 444.39 533.12 440.01 C 537.51 436.07 539.15 430.09 540.30 424.51 C 542.27 413.45 542.14 402.11 541.39 390.94 C 540.61 383.65 539.60 375.92 535.29 369.76 C 532.52 365.62 526.98 363.86 522.29 365.50 Z" />
<path fill="#000000" opacity="1.00" d=" M 587.49 355.82 C 604.51 352.72 621.48 349.34 638.48 346.16 C 638.49 377.49 638.48 408.81 638.49 440.14 C 646.59 440.13 654.69 440.13 662.79 440.14 C 662.78 446.63 662.79 453.11 662.78 459.60 C 637.88 459.60 612.98 459.59 588.08 459.60 C 588.05 453.11 588.06 446.62 588.07 440.13 C 596.22 440.12 604.38 440.15 612.53 440.12 C 612.53 416.96 612.53 393.81 612.53 370.65 C 604.16 372.40 595.79 374.11 587.41 375.79 C 587.46 369.13 587.31 362.47 587.49 355.82 Z" />
<path fill="#000000" opacity="1.00" d=" M 190.71 417.81 C 206.80 394.57 222.68 371.19 238.78 347.97 C 247.29 348.04 255.80 347.97 264.31 348.01 C 264.32 371.45 264.29 394.89 264.32 418.34 C 269.04 418.33 273.76 418.32 278.48 418.34 C 278.48 424.18 278.48 430.01 278.48 435.85 C 273.76 435.88 269.03 435.85 264.31 435.88 C 264.30 443.78 264.31 451.68 264.31 459.58 C 256.40 459.61 248.49 459.61 240.58 459.59 C 240.58 451.69 240.57 443.80 240.59 435.90 C 223.42 435.82 206.26 435.89 189.10 435.86 C 189.15 430.89 188.99 425.92 189.14 420.95 C 189.15 419.72 190.14 418.81 190.71 417.81 M 234.91 382.89 C 226.83 394.69 218.76 406.50 210.71 418.32 C 220.66 418.34 230.61 418.33 240.57 418.33 C 240.67 402.92 240.36 387.50 240.88 372.09 C 238.83 375.65 237.22 379.47 234.91 382.89 Z" />
<path fill="#000000" opacity="1.00" d=" M 299.82 348.01 C 321.62 348.00 343.42 347.99 365.22 348.01 C 365.23 354.69 365.23 361.37 365.22 368.06 C 350.83 368.08 336.45 368.06 322.06 368.07 C 322.05 375.51 322.06 382.96 322.06 390.41 C 332.20 389.59 342.85 389.56 352.29 393.85 C 360.28 397.35 366.79 404.31 369.20 412.76 C 372.53 424.63 370.18 438.42 361.66 447.61 C 353.95 456.36 342.28 460.52 330.88 461.29 C 319.28 462.00 307.33 461.03 296.44 456.74 C 296.44 449.74 296.44 442.74 296.44 435.74 C 306.06 441.20 317.42 443.85 328.43 442.21 C 334.46 441.30 340.58 437.87 342.93 431.99 C 344.90 426.80 344.60 420.39 341.07 415.93 C 337.85 411.98 332.71 410.30 327.83 409.55 C 318.52 408.23 309.11 409.40 299.82 410.33 C 299.80 389.56 299.81 368.78 299.82 348.01 Z" />
<path fill="#000000" opacity="1.00" d=" M 247.16 509.20 C 254.15 498.55 270.72 496.53 280.39 504.60 C 283.62 507.40 285.02 511.58 286.40 515.48 C 283.09 516.10 279.77 516.71 276.47 517.34 C 275.15 514.03 273.05 510.80 269.63 509.39 C 264.98 507.08 259.12 509.34 256.44 513.58 C 253.93 517.51 253.48 522.37 253.75 526.93 C 253.99 530.78 254.56 534.92 257.10 538.00 C 260.36 541.70 266.23 542.91 270.59 540.49 C 274.14 538.73 275.31 534.66 277.05 531.42 C 280.19 532.34 283.34 533.28 286.48 534.22 C 284.86 539.87 281.96 545.75 276.36 548.36 C 265.31 554.68 249.42 549.16 244.88 537.22 C 241.75 528.15 241.99 517.49 247.16 509.20 Z" />
<path fill="#000000" opacity="1.00" d=" M 294.26 500.81 C 306.51 500.74 318.76 500.71 331.02 500.74 C 331.03 503.57 331.03 506.41 331.03 509.25 C 322.29 509.34 313.55 509.34 304.81 509.34 C 304.79 512.95 304.79 516.57 304.81 520.19 C 312.91 520.30 321.02 520.32 329.12 520.34 C 329.17 523.38 329.12 526.42 328.98 529.46 C 320.91 529.51 312.83 529.38 304.76 529.53 C 304.81 533.58 304.72 537.65 304.89 541.71 C 314.00 541.69 323.13 541.64 332.25 541.92 C 332.22 544.88 332.19 547.83 332.15 550.80 C 319.52 550.80 306.89 550.81 294.26 550.79 C 294.26 534.13 294.25 517.47 294.26 500.81 Z" />
<path fill="#000000" opacity="1.00" d=" M 339.95 500.74 C 349.99 500.87 360.07 500.27 370.08 501.19 C 378.72 502.27 383.34 513.21 379.61 520.67 C 377.65 525.11 373.29 528.07 368.56 528.82 C 376.10 534.31 380.07 543.00 384.67 550.82 C 380.56 550.79 376.45 550.80 372.34 550.79 C 368.26 544.58 364.51 538.10 359.68 532.43 C 357.47 529.91 353.81 530.26 350.81 529.91 C 350.74 536.89 350.86 543.88 350.52 550.86 C 347.00 550.87 343.47 550.87 339.95 550.86 C 339.94 534.15 339.94 517.45 339.95 500.74 M 350.72 509.33 C 350.72 513.26 350.73 517.19 350.75 521.12 C 355.81 521.01 360.93 521.49 365.95 520.64 C 370.49 519.94 371.54 512.70 367.53 510.61 C 362.23 508.24 356.31 509.59 350.72 509.33 Z" />
<path fill="#000000" opacity="1.00" d=" M 387.08 509.26 C 387.01 506.42 386.75 503.51 387.56 500.74 C 400.64 500.79 413.72 500.67 426.80 500.80 C 426.82 503.62 426.82 506.44 426.82 509.26 C 421.92 509.27 417.03 509.26 412.14 509.27 C 412.12 523.10 412.15 536.94 412.13 550.78 C 408.72 550.83 405.31 550.89 401.91 550.94 C 401.50 537.05 401.74 523.16 401.67 509.27 C 396.81 509.26 391.94 509.27 387.08 509.26 Z" />
<path fill="#000000" opacity="1.00" d=" M 431.41 550.85 C 431.30 534.15 431.27 517.44 431.39 500.74 C 434.90 500.73 438.41 500.73 441.93 500.74 C 442.03 517.45 442.02 534.15 441.90 550.86 C 438.40 550.87 434.91 550.87 431.41 550.85 Z" />
<path fill="#000000" opacity="1.00" d=" M 450.69 500.82 C 462.17 500.62 473.64 500.78 485.11 500.81 C 485.11 503.62 485.10 506.44 485.08 509.26 C 477.17 509.28 469.25 509.25 461.34 509.27 C 461.33 512.94 461.33 516.60 461.34 520.28 C 468.17 520.28 475.00 520.16 481.83 520.46 C 481.82 523.44 481.78 526.43 481.70 529.41 C 474.92 529.39 468.13 529.40 461.35 529.40 C 461.33 536.55 461.34 543.69 461.33 550.84 C 457.80 550.79 454.27 550.79 450.74 550.80 C 450.60 534.14 450.59 517.48 450.69 500.82 Z" />
<path fill="#000000" opacity="1.00" d=" M 492.30 500.81 C 495.85 500.81 499.41 500.80 502.98 500.74 C 502.99 517.42 502.98 534.11 502.96 550.80 C 499.40 550.81 495.85 550.81 492.30 550.74 C 492.29 534.09 492.29 517.45 492.30 500.81 Z" />
<path fill="#000000" opacity="1.00" d=" M 511.67 500.74 C 523.85 500.68 536.03 500.81 548.21 500.81 C 548.22 503.62 548.22 506.44 548.21 509.26 C 539.45 509.28 530.70 509.25 521.94 509.27 C 521.95 512.95 521.97 516.64 522.01 520.33 C 530.15 520.35 538.29 520.31 546.43 520.35 C 546.43 523.38 546.37 526.42 546.24 529.46 C 538.13 529.48 530.03 529.47 521.92 529.39 C 521.93 533.50 521.95 537.61 521.98 541.73 C 531.04 541.78 540.10 541.68 549.15 541.67 C 549.27 544.71 549.31 547.75 549.25 550.80 C 536.72 550.80 524.20 550.80 511.67 550.80 C 511.66 534.11 511.66 517.42 511.67 500.74 Z" />
<path fill="#000000" opacity="1.00" d=" M 557.02 500.80 C 564.99 500.68 572.97 500.69 580.94 500.83 C 589.67 500.90 596.73 508.67 598.05 516.94 C 599.39 524.86 599.51 533.44 595.84 540.78 C 592.70 546.91 585.90 550.73 579.09 550.83 C 571.74 550.99 564.39 550.73 557.04 550.80 C 557.01 534.13 557.01 517.47 557.02 500.80 M 567.73 509.38 C 567.73 520.15 567.69 530.92 567.80 541.70 C 572.73 541.61 577.91 542.38 582.62 540.56 C 586.95 538.56 587.77 533.22 587.97 528.98 C 588.10 523.42 588.68 516.88 584.52 512.50 C 579.93 508.47 573.37 509.36 567.73 509.38 Z" />
</g>
</svg>
