<?xml version="1.0" encoding="UTF-8" ?>
<!DOCTYPE svg PUBLIC "-//W3C//DTD SVG 1.1//EN" "http://www.w3.org/Graphics/SVG/1.1/DTD/svg11.dtd">
<svg width="626pt" height="626pt" viewBox="0 0 626 626" version="1.1" xmlns="http://www.w3.org/2000/svg">
<g id="#fdfdfdff">
<path fill="#fdfdfd" opacity="1.00" d=" M 294.49 37.48 C 302.10 37.56 309.72 37.34 317.32 37.54 C 317.48 39.22 317.61 40.90 317.71 42.59 C 312.03 42.71 306.35 42.66 300.67 42.66 C 300.68 45.57 300.68 48.48 300.69 51.40 C 305.33 51.53 309.98 51.47 314.63 51.38 C 314.64 53.13 314.64 54.89 314.64 56.64 C 310.23 56.58 305.82 56.65 301.41 56.67 C 301.36 59.94 301.33 63.21 301.31 66.48 C 306.70 66.41 312.09 66.43 317.49 66.39 C 317.50 68.15 317.51 69.91 317.52 71.67 C 309.83 71.66 302.15 71.58 294.46 71.65 C 294.47 60.26 294.52 48.87 294.49 37.48 Z" />
<path fill="#fdfdfd" opacity="1.00" d=" M 270.17 39.50 C 272.21 39.45 274.24 39.38 276.28 39.31 C 277.36 45.39 277.95 51.55 278.88 57.66 C 279.81 62.51 280.61 67.38 280.94 72.32 C 278.97 72.83 277.01 73.35 275.04 73.83 C 273.78 69.04 273.21 64.10 272.45 59.21 C 267.71 59.93 262.97 60.72 258.26 61.61 C 258.98 66.56 259.83 71.50 259.71 76.52 C 257.71 76.52 255.71 76.58 253.72 76.63 C 252.77 65.98 249.93 55.55 249.32 44.87 C 248.90 41.51 253.27 42.86 255.30 42.23 C 255.51 46.80 256.55 51.26 257.66 55.68 C 262.30 54.69 267.01 54.14 271.67 53.28 C 270.60 48.76 270.34 44.12 270.17 39.50 Z" />
<path fill="#fdfdfd" opacity="1.00" d=" M 326.01 71.38 C 331.65 60.82 337.85 50.57 343.69 40.13 C 345.46 40.34 347.26 40.42 349.03 40.76 C 351.50 44.92 351.63 49.94 352.84 54.53 C 354.11 61.99 356.18 69.32 356.76 76.89 C 354.73 76.37 352.65 76.03 350.70 75.29 C 348.86 73.31 349.61 70.24 349.21 67.77 C 345.00 67.38 340.84 65.97 336.59 66.47 C 334.62 68.12 333.73 70.67 332.37 72.79 C 330.24 72.33 328.12 71.86 326.01 71.38 M 339.13 60.58 C 341.99 61.03 344.86 61.44 347.75 61.73 C 347.27 57.65 346.40 53.62 345.14 49.70 C 342.96 53.23 341.02 56.90 339.13 60.58 Z" />
<path fill="#fdfdfd" opacity="1.00" d=" M 373.75 45.64 C 382.47 48.62 391.38 51.01 399.95 54.43 C 399.40 55.98 398.85 57.54 398.30 59.09 C 395.00 58.33 391.80 57.13 388.47 56.57 C 384.83 65.19 382.76 74.37 379.34 83.07 C 377.24 82.52 375.14 81.95 373.05 81.37 C 375.78 72.25 378.97 63.28 381.85 54.20 C 378.57 53.04 375.29 51.87 372.09 50.51 C 372.45 48.82 372.97 47.17 373.75 45.64 Z" />
<path fill="#fdfdfd" opacity="1.00" d=" M 190.54 63.82 C 192.27 62.87 194.00 61.93 195.74 61.00 C 200.72 69.06 202.73 78.54 207.45 86.70 C 212.77 86.20 217.10 81.73 222.61 82.30 C 223.13 83.59 223.50 84.96 223.60 86.36 C 217.04 89.54 210.23 92.18 203.47 94.91 C 198.96 84.63 194.79 74.21 190.54 63.82 Z" />
<path fill="#fdfdfd" opacity="1.00" d=" M 407.51 74.76 C 409.85 69.73 412.86 65.06 415.66 60.28 C 417.44 61.37 419.23 62.46 421.01 63.59 C 418.92 67.49 417.00 71.46 415.05 75.43 C 419.05 78.17 423.52 80.05 427.91 82.05 C 429.80 77.80 432.08 73.73 434.65 69.86 C 436.29 70.90 437.97 71.89 439.53 73.07 C 439.58 74.98 438.19 76.55 437.43 78.22 C 432.60 86.44 428.85 95.27 423.44 103.15 C 421.67 102.17 419.91 101.17 418.15 100.18 C 420.59 96.03 422.51 91.61 424.69 87.33 C 420.57 84.95 416.31 82.81 411.91 80.98 C 409.71 85.07 407.48 89.14 405.30 93.24 C 403.45 92.67 401.60 92.11 399.76 91.53 C 401.38 85.53 404.93 80.35 407.51 74.76 Z" />
<path fill="#fdfdfd" opacity="1.00" d=" M 161.11 80.40 C 162.46 79.29 163.81 78.18 165.16 77.08 C 175.10 84.02 184.33 91.92 194.03 99.20 C 192.38 100.45 190.70 101.66 189.01 102.85 C 186.57 101.60 184.38 98.75 181.38 99.39 C 178.18 100.75 175.33 102.78 172.25 104.36 C 172.40 107.33 172.62 110.30 172.79 113.27 C 171.09 114.25 169.38 115.22 167.68 116.19 C 166.48 111.47 165.52 106.69 164.66 101.89 C 163.42 94.73 161.12 87.73 161.11 80.40 M 167.50 86.51 C 168.33 90.72 169.22 94.91 170.31 99.06 C 172.70 97.73 175.11 96.44 177.58 95.28 C 174.79 91.73 171.61 88.50 167.50 86.51 Z" />
<path fill="#fdfdfd" opacity="1.00" d=" M 132.07 101.99 C 133.72 100.62 135.39 99.26 137.06 97.90 C 144.97 105.87 151.87 114.77 159.55 122.96 C 157.79 124.54 156.07 126.16 154.34 127.77 C 146.32 124.90 138.30 121.87 129.92 120.16 C 134.12 126.17 139.35 131.33 143.92 137.05 C 142.30 138.57 140.68 140.07 139.08 141.60 C 132.43 132.40 124.30 124.45 116.90 115.88 C 118.50 114.31 120.08 112.71 121.72 111.18 C 129.91 113.75 137.96 116.83 146.34 118.78 C 142.25 112.64 136.95 107.47 132.07 101.99 Z" />
<path fill="#fdfdfd" opacity="1.00" d=" M 480.36 104.22 C 482.58 103.76 484.28 105.67 486.10 106.62 C 484.14 113.36 481.30 119.79 478.61 126.26 C 476.75 131.31 474.91 136.39 472.29 141.11 C 470.90 139.44 469.25 137.94 468.23 136.00 C 468.69 133.47 470.08 131.17 470.32 128.61 C 467.87 125.83 464.95 123.44 461.84 121.43 C 459.26 122.03 456.94 123.60 454.26 123.79 C 452.37 122.84 450.90 121.24 449.28 119.93 C 457.22 115.50 465.64 112.00 473.49 107.38 C 475.71 106.22 477.85 104.73 480.36 104.22 M 466.69 117.88 C 468.85 119.84 470.96 121.87 473.06 123.91 C 474.62 120.16 476.21 116.43 477.68 112.65 C 473.81 113.92 470.15 115.74 466.69 117.88 Z" />
<path fill="#fdfdfd" opacity="1.00" d=" M 479.22 148.24 C 488.19 141.15 497.31 134.24 506.23 127.07 C 507.75 128.63 509.25 130.22 510.77 131.79 C 508.30 138.21 506.03 144.71 503.27 151.02 C 502.78 152.82 501.36 154.73 502.11 156.63 C 508.18 152.60 513.50 147.55 519.25 143.08 C 520.66 144.73 522.08 146.38 523.53 148.01 C 514.72 155.53 505.20 162.16 496.37 169.66 C 494.79 167.26 492.45 164.75 493.43 161.64 C 495.32 154.11 499.90 147.43 500.89 139.63 C 494.93 143.77 489.53 148.62 483.79 153.04 C 482.28 151.42 480.75 149.82 479.22 148.24 Z" />
<path fill="#fdfdfd" opacity="1.00" d=" M 100.78 135.12 C 106.17 133.29 112.52 134.36 116.87 138.14 C 121.08 141.63 125.83 146.06 125.66 151.99 C 126.46 159.41 119.68 167.33 112.01 166.65 C 105.04 166.98 99.23 161.75 95.19 156.62 C 89.68 149.72 92.99 138.71 100.78 135.12 M 102.23 140.81 C 100.56 142.11 98.34 143.62 98.43 145.99 C 97.82 150.22 101.13 153.43 103.95 156.05 C 107.08 158.97 111.33 161.65 115.77 160.20 C 117.96 158.94 119.99 156.74 119.65 154.03 C 120.15 149.80 116.71 146.62 113.70 144.23 C 110.52 141.72 106.38 139.22 102.23 140.81 Z" />
<path fill="#fdfdfd" opacity="1.00" d=" M 503.50 179.91 C 513.91 174.85 523.78 168.78 534.20 163.75 C 536.77 168.78 539.97 173.63 541.26 179.20 C 542.51 185.72 537.18 191.06 532.24 194.40 C 527.68 197.77 521.58 198.56 516.20 197.10 C 509.51 193.66 507.61 185.67 503.50 179.91 M 512.15 183.38 C 514.18 186.47 515.44 191.87 520.04 191.57 C 525.50 191.42 530.77 188.30 534.19 184.14 C 537.25 180.48 534.17 175.86 532.76 172.17 C 525.55 175.28 518.90 179.43 512.15 183.38 Z" />
<path fill="#fdfdfd" opacity="1.00" d=" M 74.00 170.36 C 75.26 168.62 76.49 166.85 77.76 165.11 C 82.78 168.52 88.05 171.54 93.10 174.91 C 97.30 177.74 102.09 179.75 105.83 183.22 C 105.67 185.15 104.54 188.33 102.11 187.75 C 99.67 187.36 97.73 185.64 95.67 184.40 C 88.65 179.41 80.88 175.57 74.00 170.36 Z" />
<path fill="#fdfdfd" opacity="1.00" d=" M 55.05 209.35 C 58.98 201.26 62.09 192.78 66.52 184.92 C 67.98 185.80 69.45 186.69 70.90 187.59 C 69.51 190.57 68.14 193.56 66.94 196.62 C 75.26 201.01 84.09 204.34 92.35 208.86 C 91.00 210.68 90.20 212.80 89.65 214.99 C 81.04 210.97 72.75 206.27 63.82 203.00 C 62.32 205.99 60.82 208.98 59.31 211.97 C 57.89 211.10 56.46 210.23 55.05 209.35 Z" />
<path fill="#fdfdfd" opacity="1.00" d=" M 548.18 229.37 C 550.13 225.78 554.82 224.46 558.41 226.38 C 565.76 229.40 567.64 239.50 563.80 245.88 C 562.65 248.11 560.01 248.56 557.86 249.25 C 557.02 246.11 558.01 243.19 559.59 240.50 C 561.91 236.84 558.27 230.77 553.79 232.63 C 550.79 236.06 551.90 240.81 551.30 244.93 C 550.54 248.39 549.04 252.31 545.54 253.80 C 540.85 255.87 535.07 253.65 532.67 249.18 C 528.41 242.46 529.55 230.65 538.58 228.63 C 538.88 231.75 538.67 234.94 536.77 237.56 C 534.47 240.59 536.34 244.28 538.00 247.11 C 539.85 247.65 541.81 247.60 543.72 247.76 C 546.45 241.87 544.28 234.81 548.18 229.37 Z" />
<path fill="#fdfdfd" opacity="1.00" d=" M 48.85 232.56 C 60.55 232.25 72.20 231.16 83.86 230.36 C 83.39 232.41 82.86 234.46 82.36 236.52 C 79.78 236.94 77.19 237.35 74.59 237.59 C 73.50 241.48 72.37 245.35 71.21 249.21 C 73.40 250.68 75.62 252.15 77.46 254.04 C 77.71 256.32 76.85 258.51 76.41 260.71 C 66.71 253.47 56.68 246.69 47.06 239.35 C 47.50 237.07 47.02 234.33 48.85 232.56 M 56.49 237.83 C 58.99 241.38 62.48 243.93 66.58 245.37 C 67.20 242.75 67.99 240.16 69.03 237.67 C 64.85 237.66 60.67 237.71 56.49 237.83 Z" />
<path fill="#fdfdfd" opacity="1.00" d=" M 46.86 263.55 C 52.01 262.73 58.56 262.75 61.29 268.12 C 62.15 272.94 61.42 277.88 61.49 282.75 C 65.52 283.50 69.62 283.56 73.70 283.61 C 73.63 285.97 73.57 288.32 73.49 290.68 C 65.95 290.43 58.59 288.35 51.03 288.42 C 47.07 288.05 43.11 287.40 39.20 286.66 C 39.42 281.29 40.24 275.97 41.36 270.72 C 41.95 267.66 44.08 264.92 46.86 263.55 M 49.09 269.57 C 45.11 271.84 45.51 276.87 45.24 280.79 C 48.68 281.34 52.16 281.51 55.63 281.80 C 56.40 278.68 56.75 275.40 56.24 272.21 C 54.81 269.54 51.83 269.09 49.09 269.57 Z" />
<path fill="#fdfdfd" opacity="1.00" d=" M 536.49 265.46 C 539.00 265.58 541.41 266.34 543.83 266.95 C 553.05 269.60 562.44 271.64 571.61 274.49 C 571.62 276.78 571.65 279.07 571.69 281.37 C 560.85 286.08 550.41 291.67 539.49 296.20 C 539.14 294.40 538.69 292.63 538.54 290.82 C 540.52 288.82 543.17 287.73 545.62 286.42 C 545.65 282.17 545.03 277.98 544.42 273.78 C 542.14 273.04 539.79 272.43 537.67 271.29 C 535.83 269.95 536.56 267.38 536.49 265.46 M 550.38 275.07 C 550.40 278.06 550.47 281.06 550.62 284.05 C 554.33 282.67 557.95 281.05 561.52 279.32 C 561.56 278.90 561.63 278.05 561.66 277.62 C 557.91 276.73 554.17 275.78 550.38 275.07 Z" />
<path fill="#fdfdfd" opacity="1.00" d=" M 39.30 305.48 C 47.50 304.21 55.82 304.38 64.08 304.44 C 69.36 304.25 74.22 308.76 74.48 314.02 C 74.63 317.88 75.14 322.29 72.46 325.48 C 68.86 330.11 62.44 330.47 57.04 330.51 C 51.50 330.34 46.06 331.63 40.53 331.75 C 40.44 329.59 40.37 327.43 40.30 325.27 C 48.76 324.01 57.55 324.88 65.83 322.53 C 70.49 320.38 68.48 314.21 66.69 310.67 C 63.12 310.64 59.52 310.48 55.97 310.97 C 50.48 311.80 44.91 311.34 39.39 311.59 C 39.36 309.55 39.33 307.51 39.30 305.48 Z" />
<path fill="#fdfdfd" opacity="1.00" d=" M 539.33 307.29 C 543.31 307.46 547.32 307.23 551.28 307.69 C 558.57 309.05 566.01 308.28 573.37 308.63 C 573.75 312.45 573.42 316.31 572.83 320.09 C 572.28 324.11 573.18 328.50 570.74 332.06 C 569.84 331.63 568.06 330.76 567.16 330.33 C 567.46 325.41 567.54 320.48 567.56 315.55 C 564.56 315.48 561.58 315.42 558.59 315.35 C 558.53 319.49 558.43 323.65 557.74 327.75 C 556.58 327.73 554.25 327.69 553.08 327.68 C 553.25 323.35 553.33 319.02 553.40 314.69 C 548.70 314.19 544.02 313.41 539.27 313.62 C 539.28 311.51 539.30 309.40 539.33 307.29 Z" />
<path fill="#fdfdfd" opacity="1.00" d=" M 535.87 341.12 C 542.41 341.21 548.61 343.46 554.98 344.65 C 559.93 345.59 564.85 346.66 569.78 347.70 C 568.15 355.09 566.81 362.55 564.65 369.81 C 563.09 369.32 561.54 368.81 560.01 368.28 C 561.04 363.10 562.29 357.95 562.73 352.67 C 559.99 352.55 557.26 352.44 554.54 352.34 C 553.49 356.44 552.54 360.57 551.50 364.68 C 550.40 364.61 548.19 364.49 547.09 364.43 C 547.38 359.49 548.39 354.65 548.80 349.74 C 545.81 349.46 542.88 348.84 539.94 348.28 C 538.87 353.57 537.33 358.75 536.21 364.03 C 534.65 363.35 532.21 363.89 531.33 362.18 C 532.24 355.05 534.86 348.25 535.87 341.12 Z" />
<path fill="#fdfdfd" opacity="1.00" d=" M 65.32 343.21 C 68.06 343.49 71.06 343.03 73.56 344.44 C 81.23 348.22 83.18 360.01 77.04 365.99 C 72.94 370.44 66.65 371.51 60.94 372.31 C 55.79 373.03 49.96 371.42 46.98 366.89 C 43.60 361.80 43.03 354.09 47.47 349.44 C 49.19 347.39 51.88 346.67 54.24 345.64 C 54.43 347.59 54.60 349.54 54.75 351.50 C 52.91 353.36 49.97 355.00 50.37 358.05 C 49.80 361.27 51.61 365.15 55.14 365.48 C 60.89 365.93 66.98 364.93 72.02 362.05 C 75.36 360.14 74.86 355.88 74.22 352.67 C 72.57 349.96 69.16 349.56 66.41 348.62 C 66.11 346.80 65.51 345.04 65.32 343.21 Z" />
<path fill="#fdfdfd" opacity="1.00" d=" M 75.21 381.36 C 78.07 381.42 80.99 381.09 83.80 381.76 C 90.35 384.57 94.59 392.67 91.83 399.51 C 89.07 406.03 82.19 409.45 75.73 411.22 C 71.63 411.72 66.96 412.26 63.37 409.77 C 58.91 406.95 56.60 401.52 57.28 396.33 C 57.04 391.79 61.06 388.82 64.23 386.31 C 64.71 387.97 65.43 389.60 65.66 391.34 C 64.75 394.39 62.57 397.26 63.43 400.62 C 64.54 403.88 68.10 406.47 71.65 405.41 C 76.97 404.04 82.92 402.06 86.15 397.31 C 86.92 394.62 86.76 391.36 84.77 389.22 C 82.92 386.68 79.44 387.62 76.77 387.38 C 76.26 385.37 75.72 383.36 75.21 381.36 Z" />
<path fill="#fdfdfd" opacity="1.00" d=" M 525.44 381.57 C 534.56 384.18 543.06 388.55 552.20 391.12 C 553.60 388.05 554.99 384.97 556.50 381.96 C 558.02 382.82 559.53 383.70 561.04 384.60 C 557.44 392.46 555.33 400.96 551.19 408.58 C 549.79 408.47 548.39 408.32 547.01 408.12 C 547.59 404.45 548.82 400.95 549.85 397.39 C 541.16 394.24 532.35 391.41 523.84 387.79 C 524.55 385.77 525.09 383.68 525.44 381.57 Z" />
<path fill="#fdfdfd" opacity="1.00" d=" M 506.92 419.36 C 508.11 417.54 509.34 415.74 510.60 413.96 C 514.47 416.11 518.06 418.92 522.28 420.39 C 529.92 421.10 537.70 419.63 545.25 421.35 C 544.14 423.02 543.17 424.79 541.95 426.39 C 536.68 427.23 531.28 426.39 525.97 426.65 C 528.09 430.74 530.55 434.66 532.44 438.87 C 533.57 441.53 531.49 444.01 530.45 446.30 C 527.06 440.94 523.87 435.46 520.94 429.84 C 518.22 424.26 511.54 422.86 506.92 419.36 Z" />
<path fill="#fdfdfd" opacity="1.00" d=" M 94.31 417.80 C 101.29 416.11 108.61 420.81 110.77 427.48 C 112.79 432.54 110.66 438.26 106.84 441.84 C 102.27 446.09 96.52 450.06 89.99 449.67 C 81.72 450.48 74.83 441.02 76.92 433.31 C 79.70 425.75 86.73 420.10 94.31 417.80 M 94.68 424.92 C 90.31 426.73 86.35 429.72 83.70 433.66 C 80.59 437.76 84.85 444.68 89.92 443.60 C 94.74 442.87 99.18 440.03 102.61 436.62 C 105.03 434.23 106.57 430.25 104.78 427.09 C 102.76 423.58 98.03 423.94 94.68 424.92 Z" />
<path fill="#fdfdfd" opacity="1.00" d=" M 286.17 530.78 C 310.06 506.75 334.19 482.96 358.11 458.97 C 364.41 465.25 370.72 471.53 377.09 477.74 C 346.75 508.06 316.44 538.41 286.17 568.80 C 270.30 552.94 254.45 537.06 238.54 521.24 C 244.90 514.91 251.27 508.60 257.54 502.19 C 267.05 511.76 276.66 521.22 286.17 530.78 Z" />
</g>
<g id="#c62f4aff">
<path fill="#c62f4a" opacity="1.00" d=" M 286.86 10.45 C 298.25 10.29 309.63 10.24 321.01 10.37 C 332.98 10.21 344.87 11.96 356.68 13.73 C 440.51 26.90 516.79 78.89 561.56 150.72 C 584.27 187.20 598.97 228.80 603.24 271.60 C 605.51 286.28 604.41 301.20 604.57 316.00 C 604.91 325.89 603.20 335.66 602.11 345.46 C 595.95 387.64 581.05 428.73 557.53 464.37 C 535.49 497.08 507.40 525.90 474.42 547.63 C 454.55 560.96 433.11 572.05 410.51 579.93 C 410.37 545.80 410.45 511.68 410.47 477.55 C 440.57 460.06 466.48 435.00 484.11 404.90 C 501.24 375.95 510.98 342.64 511.78 309.01 C 513.09 302.00 511.39 294.99 511.53 287.96 C 507.69 221.18 466.73 158.49 408.30 126.39 C 383.46 112.16 355.45 103.81 327.01 101.13 C 317.46 99.64 307.75 100.61 298.13 100.34 C 264.82 102.12 231.64 111.50 203.07 128.95 C 153.44 157.96 117.38 209.19 107.34 265.84 C 105.54 274.80 105.13 283.96 103.74 292.98 C 103.75 299.97 103.14 307.04 104.52 313.94 C 105.89 346.51 116.29 378.40 133.01 406.29 C 150.32 435.98 176.09 460.16 205.46 477.75 C 205.38 511.80 205.47 545.86 205.36 579.92 C 170.18 567.55 137.78 547.75 109.64 523.37 C 90.85 506.09 73.29 487.24 59.33 465.78 C 39.26 435.87 25.37 401.95 17.91 366.74 C 13.73 348.08 12.11 329.00 10.70 310.00 C 10.94 302.69 10.23 295.33 11.35 288.08 C 12.72 268.46 15.38 248.88 20.40 229.84 C 28.22 200.87 40.00 172.84 56.46 147.70 C 62.87 137.58 69.79 127.78 77.55 118.65 C 109.81 80.17 151.32 49.15 198.17 30.78 C 226.40 19.31 256.58 13.05 286.86 10.45 M 294.49 37.48 C 294.52 48.87 294.47 60.26 294.46 71.65 C 302.15 71.58 309.83 71.66 317.52 71.67 C 317.51 69.91 317.50 68.15 317.49 66.39 C 312.09 66.43 306.70 66.41 301.31 66.48 C 301.33 63.21 301.36 59.94 301.41 56.67 C 305.82 56.65 310.23 56.58 314.64 56.64 C 314.64 54.89 314.64 53.13 314.63 51.38 C 309.98 51.47 305.33 51.53 300.69 51.40 C 300.68 48.48 300.68 45.57 300.67 42.66 C 306.35 42.66 312.03 42.71 317.71 42.59 C 317.61 40.90 317.48 39.22 317.32 37.54 C 309.72 37.34 302.10 37.56 294.49 37.48 M 270.17 39.50 C 270.34 44.12 270.60 48.76 271.67 53.28 C 267.01 54.14 262.30 54.69 257.66 55.68 C 256.55 51.26 255.51 46.80 255.30 42.23 C 253.27 42.86 248.90 41.51 249.32 44.87 C 249.93 55.55 252.77 65.98 253.72 76.63 C 255.71 76.58 257.71 76.52 259.71 76.52 C 259.83 71.50 258.98 66.56 258.26 61.61 C 262.97 60.72 267.71 59.93 272.45 59.21 C 273.21 64.10 273.78 69.04 275.04 73.83 C 277.01 73.35 278.97 72.83 280.94 72.32 C 280.61 67.38 279.81 62.51 278.88 57.66 C 277.95 51.55 277.36 45.39 276.28 39.31 C 274.24 39.38 272.21 39.45 270.17 39.50 M 326.01 71.38 C 328.12 71.86 330.24 72.33 332.37 72.79 C 333.73 70.67 334.62 68.12 336.59 66.47 C 340.84 65.97 345.00 67.38 349.21 67.77 C 349.61 70.24 348.86 73.31 350.70 75.29 C 352.65 76.03 354.73 76.37 356.76 76.89 C 356.18 69.32 354.11 61.99 352.84 54.53 C 351.63 49.94 351.50 44.92 349.03 40.76 C 347.26 40.42 345.46 40.34 343.69 40.13 C 337.85 50.57 331.65 60.82 326.01 71.38 M 373.75 45.64 C 372.97 47.17 372.45 48.82 372.09 50.51 C 375.29 51.87 378.57 53.04 381.85 54.20 C 378.97 63.28 375.78 72.25 373.05 81.37 C 375.14 81.95 377.24 82.52 379.34 83.07 C 382.76 74.37 384.83 65.19 388.47 56.57 C 391.80 57.13 395.00 58.33 398.30 59.09 C 398.85 57.54 399.40 55.98 399.95 54.43 C 391.38 51.01 382.47 48.62 373.75 45.64 M 190.54 63.82 C 194.79 74.21 198.96 84.63 203.47 94.91 C 210.23 92.18 217.04 89.54 223.60 86.36 C 223.50 84.96 223.13 83.59 222.61 82.30 C 217.10 81.73 212.77 86.20 207.45 86.70 C 202.73 78.54 200.72 69.06 195.74 61.00 C 194.00 61.93 192.27 62.87 190.54 63.82 M 407.51 74.76 C 404.93 80.35 401.38 85.53 399.76 91.53 C 401.60 92.11 403.45 92.67 405.30 93.24 C 407.48 89.14 409.71 85.07 411.91 80.98 C 416.31 82.81 420.57 84.95 424.69 87.33 C 422.51 91.61 420.59 96.03 418.15 100.18 C 419.91 101.17 421.67 102.17 423.44 103.15 C 428.85 95.27 432.60 86.44 437.43 78.22 C 438.19 76.55 439.58 74.98 439.53 73.07 C 437.97 71.89 436.29 70.90 434.65 69.86 C 432.08 73.73 429.80 77.80 427.91 82.05 C 423.52 80.05 419.05 78.17 415.05 75.43 C 417.00 71.46 418.92 67.49 421.01 63.59 C 419.23 62.46 417.44 61.37 415.66 60.28 C 412.86 65.06 409.85 69.73 407.51 74.76 M 161.11 80.40 C 161.12 87.73 163.42 94.73 164.66 101.89 C 165.52 106.69 166.48 111.47 167.68 116.19 C 169.38 115.22 171.09 114.25 172.79 113.27 C 172.62 110.30 172.40 107.33 172.25 104.36 C 175.33 102.78 178.18 100.75 181.38 99.39 C 184.38 98.75 186.57 101.60 189.01 102.85 C 190.70 101.66 192.38 100.45 194.03 99.20 C 184.33 91.92 175.10 84.02 165.16 77.08 C 163.81 78.18 162.46 79.29 161.11 80.40 M 132.07 101.99 C 136.95 107.47 142.25 112.64 146.34 118.78 C 137.96 116.83 129.91 113.75 121.72 111.18 C 120.08 112.71 118.50 114.31 116.90 115.88 C 124.30 124.45 132.43 132.40 139.08 141.60 C 140.68 140.07 142.30 138.57 143.92 137.05 C 139.35 131.33 134.12 126.17 129.92 120.16 C 138.30 121.87 146.32 124.90 154.34 127.77 C 156.07 126.16 157.79 124.54 159.55 122.96 C 151.87 114.77 144.97 105.87 137.06 97.90 C 135.39 99.26 133.72 100.62 132.07 101.99 M 480.36 104.22 C 477.85 104.73 475.71 106.22 473.49 107.38 C 465.64 112.00 457.22 115.50 449.28 119.93 C 450.90 121.24 452.37 122.84 454.26 123.79 C 456.94 123.60 459.26 122.03 461.84 121.43 C 464.95 123.44 467.87 125.83 470.32 128.61 C 470.08 131.17 468.69 133.47 468.23 136.00 C 469.25 137.94 470.90 139.44 472.29 141.11 C 474.91 136.39 476.75 131.31 478.61 126.26 C 481.30 119.79 484.14 113.36 486.10 106.62 C 484.28 105.67 482.58 103.76 480.36 104.22 M 479.22 148.24 C 480.75 149.82 482.28 151.42 483.79 153.04 C 489.53 148.62 494.93 143.77 500.89 139.63 C 499.90 147.43 495.32 154.11 493.43 161.64 C 492.45 164.75 494.79 167.26 496.37 169.66 C 505.20 162.16 514.72 155.53 523.53 148.01 C 522.08 146.38 520.66 144.73 519.25 143.08 C 513.50 147.55 508.18 152.60 502.11 156.63 C 501.36 154.73 502.78 152.82 503.27 151.02 C 506.03 144.71 508.30 138.21 510.77 131.79 C 509.25 130.22 507.75 128.63 506.23 127.07 C 497.31 134.24 488.19 141.15 479.22 148.24 M 100.78 135.12 C 92.99 138.71 89.68 149.72 95.19 156.62 C 99.23 161.75 105.04 166.98 112.01 166.65 C 119.68 167.33 126.46 159.41 125.66 151.99 C 125.83 146.06 121.08 141.63 116.87 138.14 C 112.52 134.36 106.17 133.29 100.78 135.12 M 503.50 179.91 C 507.61 185.67 509.51 193.66 516.20 197.10 C 521.58 198.56 527.68 197.77 532.24 194.40 C 537.18 191.06 542.51 185.72 541.26 179.20 C 539.97 173.63 536.77 168.78 534.20 163.75 C 523.78 168.78 513.91 174.85 503.50 179.91 M 74.00 170.36 C 80.88 175.57 88.65 179.41 95.67 184.40 C 97.73 185.64 99.67 187.36 102.11 187.75 C 104.54 188.33 105.67 185.15 105.83 183.22 C 102.09 179.75 97.30 177.74 93.10 174.91 C 88.05 171.54 82.78 168.52 77.76 165.11 C 76.49 166.85 75.26 168.62 74.00 170.36 M 55.05 209.35 C 56.46 210.23 57.89 211.10 59.31 211.97 C 60.82 208.98 62.32 205.99 63.82 203.00 C 72.75 206.27 81.04 210.97 89.65 214.99 C 90.20 212.80 91.00 210.68 92.35 208.86 C 84.09 204.34 75.26 201.01 66.94 196.62 C 68.14 193.56 69.51 190.57 70.90 187.59 C 69.45 186.69 67.98 185.80 66.52 184.92 C 62.09 192.78 58.98 201.26 55.05 209.35 M 548.18 229.37 C 544.28 234.81 546.45 241.87 543.72 247.76 C 541.81 247.60 539.85 247.65 538.00 247.11 C 536.34 244.28 534.47 240.59 536.77 237.56 C 538.67 234.94 538.88 231.75 538.58 228.63 C 529.55 230.65 528.41 242.46 532.67 249.18 C 535.07 253.65 540.85 255.87 545.54 253.80 C 549.04 252.31 550.54 248.39 551.30 244.93 C 551.90 240.81 550.79 236.06 553.79 232.63 C 558.27 230.77 561.91 236.84 559.59 240.50 C 558.01 243.19 557.02 246.11 557.86 249.25 C 560.01 248.56 562.65 248.11 563.80 245.88 C 567.64 239.50 565.76 229.40 558.41 226.38 C 554.82 224.46 550.13 225.78 548.18 229.37 M 48.85 232.56 C 47.02 234.33 47.50 237.07 47.06 239.35 C 56.68 246.69 66.71 253.47 76.41 260.71 C 76.85 258.51 77.71 256.32 77.46 254.04 C 75.62 252.15 73.40 250.68 71.21 249.21 C 72.37 245.35 73.50 241.48 74.59 237.59 C 77.19 237.35 79.78 236.94 82.36 236.52 C 82.86 234.46 83.39 232.41 83.86 230.36 C 72.20 231.16 60.55 232.25 48.85 232.56 M 46.86 263.55 C 44.08 264.92 41.95 267.66 41.36 270.72 C 40.24 275.97 39.42 281.29 39.20 286.66 C 43.11 287.40 47.07 288.05 51.03 288.42 C 58.59 288.35 65.95 290.43 73.49 290.68 C 73.57 288.32 73.63 285.97 73.70 283.61 C 69.62 283.56 65.52 283.50 61.49 282.75 C 61.42 277.88 62.15 272.94 61.29 268.12 C 58.56 262.75 52.01 262.73 46.86 263.55 M 536.49 265.46 C 536.56 267.38 535.83 269.95 537.67 271.29 C 539.79 272.43 542.14 273.04 544.42 273.78 C 545.03 277.98 545.65 282.17 545.62 286.42 C 543.17 287.73 540.52 288.82 538.54 290.82 C 538.69 292.63 539.14 294.40 539.49 296.20 C 550.41 291.67 560.85 286.08 571.69 281.37 C 571.65 279.07 571.62 276.78 571.61 274.49 C 562.44 271.64 553.05 269.60 543.83 266.95 C 541.41 266.34 539.00 265.58 536.49 265.46 M 39.30 305.48 C 39.33 307.51 39.36 309.55 39.39 311.59 C 44.91 311.34 50.48 311.80 55.97 310.97 C 59.52 310.48 63.12 310.64 66.69 310.67 C 68.48 314.21 70.49 320.38 65.83 322.53 C 57.55 324.88 48.76 324.01 40.30 325.27 C 40.37 327.43 40.44 329.59 40.53 331.75 C 46.06 331.63 51.50 330.34 57.04 330.51 C 62.44 330.47 68.86 330.11 72.46 325.48 C 75.14 322.29 74.63 317.88 74.48 314.02 C 74.22 308.76 69.36 304.25 64.08 304.44 C 55.82 304.38 47.50 304.21 39.30 305.48 M 539.33 307.29 C 539.30 309.40 539.28 311.51 539.27 313.62 C 544.02 313.41 548.70 314.19 553.40 314.69 C 553.33 319.02 553.25 323.35 553.08 327.68 C 554.25 327.69 556.58 327.73 557.74 327.75 C 558.43 323.65 558.53 319.49 558.59 315.35 C 561.58 315.42 564.56 315.48 567.56 315.55 C 567.54 320.48 567.46 325.41 567.16 330.33 C 568.06 330.76 569.84 331.63 570.74 332.06 C 573.18 328.50 572.28 324.11 572.83 320.09 C 573.42 316.31 573.75 312.45 573.37 308.63 C 566.01 308.28 558.57 309.05 551.28 307.69 C 547.32 307.23 543.31 307.46 539.33 307.29 M 535.87 341.12 C 534.86 348.25 532.24 355.05 531.33 362.18 C 532.21 363.89 534.65 363.35 536.21 364.03 C 537.33 358.75 538.87 353.57 539.94 348.28 C 542.88 348.84 545.81 349.46 548.80 349.74 C 548.39 354.65 547.38 359.49 547.09 364.43 C 548.19 364.49 550.40 364.61 551.50 364.68 C 552.54 360.57 553.49 356.44 554.54 352.34 C 557.26 352.44 559.99 352.55 562.73 352.67 C 562.29 357.95 561.04 363.10 560.01 368.28 C 561.54 368.81 563.09 369.32 564.65 369.81 C 566.81 362.55 568.15 355.09 569.78 347.70 C 564.85 346.66 559.93 345.59 554.98 344.65 C 548.61 343.46 542.41 341.21 535.87 341.12 M 65.32 343.21 C 65.51 345.04 66.11 346.80 66.41 348.62 C 69.16 349.56 72.57 349.96 74.22 352.67 C 74.86 355.88 75.36 360.14 72.02 362.05 C 66.98 364.93 60.89 365.93 55.14 365.48 C 51.61 365.15 49.80 361.27 50.37 358.05 C 49.97 355.00 52.91 353.36 54.75 351.50 C 54.60 349.54 54.43 347.59 54.24 345.64 C 51.88 346.67 49.19 347.39 47.47 349.44 C 43.03 354.09 43.60 361.80 46.98 366.89 C 49.96 371.42 55.79 373.03 60.94 372.31 C 66.65 371.51 72.94 370.44 77.04 365.99 C 83.18 360.01 81.23 348.22 73.56 344.44 C 71.06 343.03 68.06 343.49 65.32 343.21 M 75.21 381.36 C 75.72 383.36 76.26 385.37 76.77 387.38 C 79.44 387.62 82.92 386.68 84.77 389.22 C 86.76 391.36 86.92 394.62 86.15 397.31 C 82.92 402.06 76.97 404.04 71.65 405.41 C 68.10 406.47 64.54 403.88 63.43 400.62 C 62.57 397.26 64.75 394.39 65.66 391.34 C 65.43 389.60 64.71 387.97 64.23 386.31 C 61.06 388.82 57.04 391.79 57.28 396.33 C 56.60 401.52 58.91 406.95 63.37 409.77 C 66.96 412.26 71.63 411.72 75.73 411.22 C 82.19 409.45 89.07 406.03 91.83 399.51 C 94.59 392.67 90.35 384.57 83.80 381.76 C 80.99 381.09 78.07 381.42 75.21 381.36 M 525.44 381.57 C 525.09 383.68 524.55 385.77 523.84 387.79 C 532.35 391.41 541.16 394.24 549.85 397.39 C 548.82 400.95 547.59 404.45 547.01 408.12 C 548.39 408.32 549.79 408.47 551.19 408.58 C 555.33 400.96 557.44 392.46 561.04 384.60 C 559.53 383.70 558.02 382.82 556.50 381.96 C 554.99 384.97 553.60 388.05 552.20 391.12 C 543.06 388.55 534.56 384.18 525.44 381.57 M 506.92 419.36 C 511.54 422.86 518.22 424.26 520.94 429.84 C 523.87 435.46 527.06 440.94 530.45 446.30 C 531.49 444.01 533.57 441.53 532.44 438.87 C 530.55 434.66 528.09 430.74 525.97 426.65 C 531.28 426.39 536.68 427.23 541.95 426.39 C 543.17 424.79 544.14 423.02 545.25 421.35 C 537.70 419.63 529.92 421.10 522.28 420.39 C 518.06 418.92 514.47 416.11 510.60 413.96 C 509.34 415.74 508.11 417.54 506.92 419.36 M 94.31 417.80 C 86.73 420.10 79.70 425.75 76.92 433.31 C 74.83 441.02 81.72 450.48 89.99 449.67 C 96.52 450.06 102.27 446.09 106.84 441.84 C 110.66 438.26 112.79 432.54 110.77 427.48 C 108.61 420.81 101.29 416.11 94.31 417.80 Z" />
<path fill="#c62f4a" opacity="1.00" d=" M 339.13 60.58 C 341.02 56.90 342.96 53.23 345.14 49.70 C 346.40 53.62 347.27 57.65 347.75 61.73 C 344.86 61.44 341.99 61.03 339.13 60.58 Z" />
<path fill="#c62f4a" opacity="1.00" d=" M 167.50 86.51 C 171.61 88.50 174.79 91.73 177.58 95.28 C 175.11 96.44 172.70 97.73 170.31 99.06 C 169.22 94.91 168.33 90.72 167.50 86.51 Z" />
<path fill="#c62f4a" opacity="1.00" d=" M 466.69 117.88 C 470.15 115.74 473.81 113.92 477.68 112.65 C 476.21 116.43 474.62 120.16 473.06 123.91 C 470.96 121.87 468.85 119.84 466.69 117.88 Z" />
<path fill="#c62f4a" opacity="1.00" d=" M 102.23 140.81 C 106.38 139.22 110.52 141.72 113.70 144.23 C 116.71 146.62 120.15 149.80 119.65 154.03 C 119.99 156.74 117.96 158.94 115.77 160.20 C 111.33 161.65 107.08 158.97 103.95 156.05 C 101.13 153.43 97.82 150.22 98.43 145.99 C 98.34 143.62 100.56 142.11 102.23 140.81 Z" />
<path fill="#c62f4a" opacity="1.00" d=" M 512.15 183.38 C 518.90 179.43 525.55 175.28 532.76 172.17 C 534.17 175.86 537.25 180.48 534.19 184.14 C 530.77 188.30 525.50 191.42 520.04 191.57 C 515.44 191.87 514.18 186.47 512.15 183.38 Z" />
<path fill="#c62f4a" opacity="1.00" d=" M 56.49 237.83 C 60.67 237.71 64.85 237.66 69.03 237.67 C 67.99 240.16 67.20 242.75 66.58 245.37 C 62.48 243.93 58.99 241.38 56.49 237.83 Z" />
<path fill="#c62f4a" opacity="1.00" d=" M 49.09 269.57 C 51.83 269.09 54.81 269.54 56.24 272.21 C 56.75 275.40 56.40 278.68 55.63 281.80 C 52.16 281.51 48.68 281.34 45.24 280.79 C 45.51 276.87 45.11 271.84 49.09 269.57 Z" />
<path fill="#c62f4a" opacity="1.00" d=" M 550.38 275.07 C 554.17 275.78 557.91 276.73 561.66 277.62 C 561.63 278.05 561.56 278.90 561.52 279.32 C 557.95 281.05 554.33 282.67 550.62 284.05 C 550.47 281.06 550.40 278.06 550.38 275.07 Z" />
<path fill="#c62f4a" opacity="1.00" d=" M 234.26 422.86 C 235.78 422.49 237.36 422.51 238.93 422.48 C 285.31 422.47 331.69 422.47 378.07 422.44 C 386.97 422.05 395.58 429.89 395.50 438.91 C 395.49 488.30 395.45 537.69 395.47 587.08 C 395.88 596.16 386.90 604.00 378.07 603.62 C 331.41 603.69 284.74 603.65 238.08 603.67 C 229.06 604.22 220.20 596.27 220.52 587.08 C 220.49 538.03 220.55 488.99 220.48 439.95 C 219.84 431.78 226.83 424.89 234.26 422.86 M 286.17 530.78 C 276.66 521.22 267.05 511.76 257.54 502.19 C 251.27 508.60 244.90 514.91 238.54 521.24 C 254.45 537.06 270.30 552.94 286.17 568.80 C 316.44 538.41 346.75 508.06 377.09 477.74 C 370.72 471.53 364.41 465.25 358.11 458.97 C 334.19 482.96 310.06 506.75 286.17 530.78 Z" />
<path fill="#c62f4a" opacity="1.00" d=" M 94.68 424.92 C 98.03 423.94 102.76 423.58 104.78 427.09 C 106.57 430.25 105.03 434.23 102.61 436.62 C 99.18 440.03 94.74 442.87 89.92 443.60 C 84.85 444.68 80.59 437.76 83.70 433.66 C 86.35 429.72 90.31 426.73 94.68 424.92 Z" />
</g>
<g id="#2c2e32ff">
<path fill="#2c2e32" opacity="1.00" d=" M 271.23 174.21 C 274.82 170.59 279.86 168.44 284.95 168.27 C 291.52 168.00 298.69 167.70 304.41 171.53 C 309.77 174.57 312.46 180.67 312.95 186.61 C 308.80 186.86 304.66 187.33 300.51 187.53 C 299.56 184.77 298.81 181.51 296.06 179.96 C 291.33 177.39 285.20 177.78 280.68 180.62 C 277.80 182.48 278.25 187.29 281.32 188.73 C 289.99 193.42 300.93 192.77 308.76 199.21 C 318.05 206.93 315.74 223.75 304.84 228.87 C 295.97 232.77 285.47 232.80 276.43 229.40 C 269.08 226.43 265.46 218.64 264.22 211.26 C 268.23 210.54 272.31 210.43 276.34 209.88 C 277.42 214.34 279.78 219.04 284.41 220.64 C 289.49 222.30 296.04 222.09 299.94 217.97 C 301.97 216.13 302.14 213.05 301.44 210.57 C 299.03 206.74 294.10 206.17 290.10 205.06 C 283.29 203.25 275.63 201.79 270.77 196.23 C 265.28 190.23 265.51 179.99 271.23 174.21 Z" />
<path fill="#2c2e32" opacity="1.00" d=" M 347.35 168.24 C 356.89 166.88 367.53 169.53 374.06 176.95 C 380.15 183.31 381.88 192.50 381.77 201.02 C 381.67 209.60 379.12 218.64 372.55 224.54 C 367.14 229.81 359.39 231.84 352.01 231.83 C 345.33 231.73 338.38 230.16 333.10 225.86 C 325.33 219.84 322.10 209.55 322.39 200.00 C 322.09 191.32 324.74 182.24 330.94 175.95 C 335.18 171.42 341.22 168.81 347.35 168.24 M 349.45 178.49 C 344.84 179.29 340.47 181.99 338.25 186.18 C 334.91 192.12 334.99 199.19 335.65 205.76 C 336.52 211.00 339.06 216.36 343.77 219.17 C 349.85 223.21 358.76 222.07 363.61 216.59 C 366.93 213.24 368.11 208.45 368.61 203.89 C 369.12 198.09 368.75 192.03 366.34 186.65 C 363.33 180.57 356.02 177.35 349.45 178.49 Z" />
<path fill="#2c2e32" opacity="1.00" d=" M 243.42 169.28 C 247.76 169.26 252.10 169.22 256.45 169.37 C 255.88 189.71 256.34 210.08 256.21 230.44 C 251.97 230.46 247.72 230.46 243.48 230.46 C 243.46 210.07 243.57 189.67 243.42 169.28 Z" />
<path fill="#2c2e32" opacity="1.00" d=" M 297.14 261.07 C 306.07 250.83 321.30 248.46 333.97 251.75 C 341.01 253.36 347.34 258.01 350.54 264.55 C 354.04 271.13 353.67 278.79 353.68 286.01 C 353.56 295.35 353.82 304.70 353.65 314.04 C 353.60 321.07 351.30 328.24 346.40 333.40 C 341.67 338.50 334.62 340.54 327.91 341.36 C 319.14 342.31 309.47 341.44 302.39 335.65 C 296.39 331.06 293.02 323.57 293.23 316.05 C 293.28 300.67 292.99 285.29 293.38 269.92 C 293.59 266.65 295.51 263.80 297.14 261.07 M 314.90 267.77 C 314.60 268.04 314.00 268.58 313.71 268.84 C 311.52 271.77 309.51 275.11 309.71 278.92 C 309.71 288.96 309.83 299.00 309.70 309.04 C 309.60 313.83 310.06 319.03 313.19 322.91 C 316.78 327.64 323.87 328.57 328.97 325.85 C 333.55 323.86 336.39 318.99 336.28 314.05 C 336.37 302.68 336.28 291.30 336.31 279.93 C 336.43 274.57 334.34 268.35 329.00 266.18 C 324.35 264.62 319.00 264.93 314.90 267.77 Z" />
<path fill="#2c2e32" opacity="1.00" d=" M 391.33 250.69 C 398.94 249.76 406.88 250.77 413.85 254.02 C 422.00 258.46 427.08 267.75 426.84 276.98 C 426.81 290.00 426.85 303.02 426.74 316.04 C 426.82 324.49 422.50 332.92 415.21 337.32 C 408.02 341.84 399.16 342.04 390.95 341.50 C 381.50 340.96 372.13 335.22 368.47 326.31 C 366.11 320.86 366.33 314.80 366.29 309.00 C 366.38 297.99 366.28 286.99 366.33 275.99 C 366.28 271.43 367.27 266.78 369.89 262.98 C 374.39 255.47 382.88 251.61 391.33 250.69 M 391.38 266.35 C 387.48 267.78 384.29 271.63 384.41 275.89 C 384.30 288.95 384.38 302.02 384.43 315.09 C 384.24 318.60 385.97 322.06 388.55 324.37 C 391.75 327.09 396.21 326.65 400.11 326.39 C 405.27 325.51 409.21 320.28 408.75 315.06 C 408.74 302.02 408.90 288.97 408.67 275.93 C 408.52 267.61 398.39 263.07 391.38 266.35 Z" />
<path fill="#2c2e32" opacity="1.00" d=" M 143.94 302.34 C 151.73 285.43 159.59 268.55 166.94 251.44 C 173.43 251.37 179.92 251.26 186.40 251.44 C 179.80 268.82 170.74 285.14 163.77 302.37 C 170.69 302.63 177.61 302.42 184.52 302.53 C 184.48 296.17 184.61 289.81 184.51 283.45 C 190.83 283.34 197.16 283.37 203.49 283.43 C 203.49 289.58 203.29 295.75 203.60 301.90 C 205.98 303.09 208.92 302.16 211.52 302.50 C 211.36 307.38 211.58 312.28 211.39 317.16 C 209.48 319.55 206.04 318.09 203.41 318.46 C 203.17 325.83 204.01 333.29 202.77 340.60 C 196.82 340.32 190.67 341.25 184.83 340.16 C 184.06 332.98 184.67 325.64 184.53 318.39 C 170.84 318.09 157.10 318.97 143.45 317.91 C 143.65 312.74 142.63 307.39 143.94 302.34 Z" />
<path fill="#2c2e32" opacity="1.00" d=" M 223.29 251.33 C 242.01 251.41 260.74 251.27 279.46 251.41 C 279.46 256.44 279.39 261.48 279.54 266.51 C 266.81 266.73 254.08 266.54 241.34 266.57 C 241.27 273.28 241.25 279.99 241.35 286.70 C 252.86 280.86 269.03 282.09 277.03 293.15 C 283.51 304.64 283.54 319.40 277.09 330.91 C 271.20 338.45 261.54 342.62 252.01 341.72 C 237.76 343.14 221.95 331.37 223.06 316.25 C 228.89 316.23 234.71 316.19 240.54 316.24 C 241.60 318.76 242.37 321.58 244.43 323.53 C 248.82 328.11 257.27 327.48 260.84 322.17 C 265.57 315.40 264.69 303.88 256.92 299.68 C 253.64 299.11 250.25 299.13 246.96 299.56 C 244.14 300.28 242.35 302.81 240.35 304.74 C 234.66 304.70 228.97 304.72 223.28 304.65 C 223.17 286.88 223.25 269.10 223.29 251.33 Z" />
<path fill="#2c2e32" opacity="1.00" d=" M 435.34 256.56 C 440.54 254.85 445.69 252.94 450.99 251.56 C 456.83 251.07 462.71 251.42 468.56 251.34 C 468.57 281.14 468.60 310.94 468.52 340.74 C 462.51 340.58 456.50 340.70 450.49 340.59 C 450.44 316.44 450.55 292.29 450.47 268.14 C 445.37 268.59 440.42 269.93 435.42 270.95 C 435.30 266.16 435.35 261.36 435.34 256.56 Z" />
<path fill="#2c2e32" opacity="1.00" d=" M 180.03 376.04 C 183.85 366.70 196.80 363.39 204.89 369.13 C 208.02 371.17 209.47 374.78 210.79 378.11 C 208.34 378.44 205.88 378.72 203.45 379.16 C 202.05 376.81 200.67 373.93 197.73 373.28 C 193.12 371.81 187.67 374.78 186.65 379.57 C 186.01 383.21 186.07 386.98 186.54 390.65 C 187.24 395.78 193.38 399.82 198.23 397.39 C 201.28 396.21 202.46 392.98 203.70 390.24 C 206.09 390.91 208.47 391.55 210.85 392.27 C 209.31 396.43 207.18 400.91 202.89 402.83 C 196.37 405.79 187.61 404.85 182.81 399.17 C 177.23 393.00 177.10 383.45 180.03 376.04 Z" />
<path fill="#2c2e32" opacity="1.00" d=" M 216.77 366.89 C 225.91 367.04 235.07 366.65 244.21 367.18 C 244.21 369.28 244.25 371.39 244.31 373.50 C 237.66 373.58 231.01 373.64 224.37 373.47 C 224.34 376.25 224.34 379.04 224.33 381.82 C 230.43 381.76 236.53 381.90 242.63 381.70 C 242.65 383.90 242.67 386.11 242.69 388.31 C 236.57 388.19 230.45 388.29 224.33 388.23 C 224.34 391.57 224.35 394.90 224.38 398.24 C 231.16 398.04 237.95 398.22 244.73 398.10 C 244.73 400.20 244.74 402.30 244.74 404.41 C 235.41 404.31 226.08 404.39 216.76 404.37 C 216.78 391.88 216.76 379.38 216.77 366.89 Z" />
<path fill="#2c2e32" opacity="1.00" d=" M 251.24 366.86 C 256.84 366.98 262.44 366.85 268.05 366.93 C 271.55 367.12 275.46 367.33 278.21 369.79 C 282.45 373.71 282.55 381.33 278.25 385.24 C 276.54 386.83 274.18 387.31 272.07 388.11 C 277.91 392.04 280.51 398.81 284.42 404.37 C 281.36 404.36 278.30 404.37 275.24 404.35 C 272.36 400.03 269.68 395.57 266.52 391.46 C 264.75 388.98 261.47 389.12 258.79 388.74 C 258.76 393.96 258.78 399.17 258.77 404.38 C 256.24 404.38 253.71 404.36 251.18 404.38 C 251.24 391.87 251.13 379.37 251.24 366.86 M 258.77 373.57 C 258.78 376.55 258.77 379.54 258.70 382.52 C 262.56 382.45 266.46 382.80 270.31 382.26 C 274.29 381.45 274.75 375.09 270.79 373.87 C 266.83 373.20 262.77 373.69 258.77 373.57 Z" />
<path fill="#2c2e32" opacity="1.00" d=" M 286.39 366.94 C 296.16 366.85 305.93 366.99 315.70 366.87 C 315.73 369.10 315.75 371.34 315.78 373.58 C 312.10 373.56 308.42 373.56 304.75 373.58 C 304.79 383.84 304.75 394.11 304.77 404.38 C 302.30 404.36 299.84 404.38 297.37 404.43 C 297.36 394.14 297.34 383.86 297.38 373.57 C 293.70 373.56 290.02 373.56 286.34 373.59 C 286.35 371.37 286.37 369.15 286.39 366.94 Z" />
<path fill="#2c2e32" opacity="1.00" d=" M 319.52 366.93 C 322.09 366.91 324.65 366.91 327.22 366.90 C 327.22 379.39 327.20 391.88 327.24 404.37 C 324.65 404.36 322.07 404.36 319.50 404.37 C 319.54 391.89 319.50 379.41 319.52 366.93 Z" />
<path fill="#2c2e32" opacity="1.00" d=" M 334.26 366.93 C 342.68 366.94 351.10 366.81 359.52 367.02 C 359.52 369.20 359.53 371.39 359.55 373.58 C 353.62 373.55 347.70 373.56 341.78 373.58 C 341.78 376.31 341.77 379.04 341.73 381.77 C 346.89 381.83 352.04 381.80 357.20 381.80 C 357.21 383.95 357.21 386.10 357.21 388.26 C 352.05 388.25 346.89 388.24 341.73 388.28 C 341.81 393.64 341.77 399.01 341.78 404.38 C 339.26 404.37 336.74 404.37 334.23 404.39 C 334.25 391.90 334.19 379.41 334.26 366.93 Z" />
<path fill="#2c2e32" opacity="1.00" d=" M 365.32 366.88 C 367.83 366.89 370.34 366.91 372.85 366.91 C 372.92 379.40 372.83 391.89 372.90 404.38 C 370.35 404.34 367.81 404.39 365.27 404.40 C 365.32 391.89 365.23 379.38 365.32 366.88 Z" />
<path fill="#2c2e32" opacity="1.00" d=" M 379.64 367.08 C 388.79 366.80 397.96 366.84 407.11 367.04 C 407.11 369.21 407.14 371.37 407.16 373.54 C 400.56 373.54 393.97 373.66 387.37 373.47 C 387.35 376.25 387.35 379.04 387.34 381.82 C 393.38 381.71 399.43 382.02 405.47 381.59 C 405.50 383.83 405.53 386.08 405.54 388.34 C 399.47 388.17 393.40 388.29 387.33 388.24 C 387.35 391.55 387.35 394.87 387.38 398.20 C 394.17 398.08 400.96 398.20 407.76 398.10 C 407.76 400.20 407.76 402.30 407.77 404.40 C 398.39 404.32 389.02 404.39 379.64 404.36 C 379.67 391.94 379.67 379.51 379.64 367.08 Z" />
<path fill="#2c2e32" opacity="1.00" d=" M 413.80 366.90 C 420.09 367.11 426.43 366.48 432.69 367.31 C 438.06 367.93 442.24 372.27 443.88 377.25 C 446.14 384.46 445.81 392.98 441.22 399.23 C 438.69 402.74 434.25 404.30 430.07 404.36 C 424.64 404.42 419.22 404.32 413.81 404.38 C 413.80 391.89 413.81 379.39 413.80 366.90 M 421.48 373.55 C 421.52 381.75 421.49 389.95 421.50 398.15 C 425.33 398.03 429.38 398.64 433.01 397.10 C 436.67 395.26 437.09 390.67 437.27 387.05 C 437.39 382.75 437.27 377.38 433.24 374.77 C 429.61 372.91 425.39 373.73 421.48 373.55 Z" />
</g>
</svg>
