<?xml version="1.0" encoding="UTF-8" ?>
<!DOCTYPE svg PUBLIC "-//W3C//DTD SVG 1.1//EN" "http://www.w3.org/Graphics/SVG/1.1/DTD/svg11.dtd">
<svg width="840pt" height="845pt" viewBox="0 0 840 845" version="1.1" xmlns="http://www.w3.org/2000/svg">
<g id="#80808080">
</g>
<g id="#f69606ff">
<path fill="#f69606" opacity="1.00" d=" M 389.96 16.08 C 406.95 14.51 424.03 15.21 441.05 15.33 C 489.23 17.78 536.98 28.70 581.39 47.56 C 641.44 73.37 695.14 113.77 736.86 164.06 C 760.14 192.13 779.43 223.48 794.08 256.88 C 815.81 306.24 826.67 360.17 827.19 414.04 C 827.28 422.38 826.10 430.66 826.19 439.00 C 824.48 478.02 815.97 516.60 802.43 553.19 C 782.28 607.73 749.27 657.22 708.03 698.07 C 684.11 721.74 656.99 742.05 628.06 759.18 C 607.53 771.29 585.95 781.66 563.56 789.85 C 563.41 743.85 563.39 697.84 563.60 651.83 C 637.03 609.40 689.01 531.30 698.39 446.86 C 700.30 430.70 701.57 414.32 699.93 398.09 C 696.26 326.13 661.78 256.73 607.99 209.03 C 578.01 182.29 542.29 161.95 503.85 150.24 C 446.60 132.77 383.78 134.34 327.43 154.51 C 257.93 179.04 199.58 232.69 168.51 299.43 C 138.32 363.27 135.23 439.04 158.65 505.53 C 172.27 543.82 194.51 579.01 223.22 607.79 C 240.16 624.54 258.59 640.07 279.44 651.76 C 279.72 697.54 279.60 743.32 279.61 789.10 C 242.70 775.96 208.18 756.58 176.82 733.18 C 118.00 689.30 71.38 629.06 44.03 560.94 C 35.21 538.63 28.50 515.49 23.87 491.96 C 20.29 475.86 19.05 459.37 17.10 443.02 C 16.44 422.34 15.48 401.55 17.94 380.95 C 20.32 352.27 26.05 323.90 34.57 296.42 C 57.87 222.15 104.32 155.66 164.71 106.75 C 195.22 82.06 229.13 61.52 265.32 46.30 C 304.85 29.54 347.15 19.36 389.96 16.08 M 434.70 55.97 C 433.13 71.45 431.54 86.92 430.00 102.40 C 433.29 102.73 436.58 103.06 439.87 103.39 C 440.90 92.33 442.32 81.31 443.00 70.23 C 448.84 82.13 455.16 93.80 461.24 105.58 C 464.75 105.92 468.26 106.27 471.77 106.62 C 473.33 91.14 474.92 75.67 476.47 60.20 C 473.17 59.87 469.88 59.53 466.59 59.21 C 465.60 69.95 464.21 80.66 463.53 91.42 C 457.89 79.87 451.81 68.55 445.95 57.11 C 442.20 56.73 438.45 56.35 434.70 55.97 M 392.29 57.26 C 387.58 73.12 382.82 88.97 378.10 104.82 C 381.88 104.61 385.66 104.38 389.44 104.17 C 390.37 100.65 391.25 97.12 392.15 93.60 C 397.67 93.28 403.19 92.94 408.72 92.63 C 410.02 96.01 411.33 99.40 412.63 102.78 C 416.44 102.57 420.25 102.34 424.07 102.10 C 417.65 86.90 411.18 71.72 404.76 56.52 C 400.60 56.75 396.45 57.00 392.29 57.26 M 346.81 63.57 C 345.90 75.68 344.04 87.72 343.82 99.87 C 338.31 89.04 331.01 79.25 324.69 68.90 C 319.69 70.06 314.72 71.35 309.73 72.51 C 313.38 87.62 317.03 102.73 320.68 117.85 C 323.75 117.12 326.82 116.38 329.89 115.64 C 326.84 103.26 324.12 90.79 320.55 78.55 C 326.73 90.50 334.91 101.28 342.02 112.70 C 344.80 112.03 347.58 111.36 350.37 110.68 C 351.39 97.26 353.49 83.91 353.63 70.44 C 356.00 83.01 359.40 95.34 362.28 107.79 C 365.66 107.00 369.02 106.19 372.39 105.36 C 368.74 90.24 365.07 75.13 361.43 60.01 C 356.56 61.22 351.68 62.38 346.81 63.57 M 477.47 107.50 C 481.14 108.43 484.79 109.44 488.44 110.45 C 490.41 107.39 492.36 104.31 494.35 101.25 C 499.68 102.71 505.02 104.10 510.36 105.55 C 510.54 109.14 510.72 112.73 510.83 116.33 C 514.50 117.45 518.23 118.40 521.95 119.38 C 520.63 102.93 519.30 86.48 517.97 70.03 C 513.96 68.94 509.94 67.88 505.93 66.81 C 496.44 80.37 486.94 93.92 477.47 107.50 M 267.72 89.96 C 268.31 97.61 268.07 105.35 269.40 112.93 C 264.28 107.20 257.89 102.83 252.17 97.74 C 248.59 99.52 245.01 101.31 241.44 103.11 C 249.85 109.52 258.25 115.94 266.66 122.33 C 268.32 123.44 269.15 125.30 270.01 127.03 C 271.82 130.78 273.71 134.49 275.58 138.21 C 278.70 136.64 281.83 135.07 284.96 133.51 C 282.74 128.90 280.31 124.39 278.12 119.77 C 277.35 118.32 277.59 116.62 277.53 115.04 C 277.63 105.02 277.61 95.00 277.68 84.98 C 274.35 86.63 271.04 88.29 267.72 89.96 M 537.10 94.07 C 533.41 99.22 531.01 105.56 531.39 111.97 C 531.76 118.23 535.41 123.96 540.51 127.50 C 547.24 132.16 555.52 134.67 563.73 134.26 C 566.86 127.06 570.02 119.89 573.17 112.70 C 567.12 110.01 561.06 107.36 554.99 104.73 C 553.86 107.28 552.74 109.83 551.62 112.39 C 554.46 113.65 557.31 114.90 560.17 116.16 C 558.93 119.02 557.67 121.88 556.37 124.71 C 550.07 123.88 543.21 119.87 542.46 112.99 C 541.88 104.82 547.12 95.24 555.86 94.16 C 563.29 93.56 570.12 98.15 574.82 103.54 C 576.11 100.53 577.43 97.54 578.75 94.54 C 573.18 89.74 566.40 86.10 559.08 85.00 C 550.82 83.70 542.01 87.29 537.10 94.07 M 570.37 141.70 C 578.35 146.52 586.31 151.39 594.29 156.22 C 595.77 153.79 597.24 151.37 598.71 148.94 C 593.74 145.90 588.76 142.89 583.79 139.86 C 585.62 136.81 587.47 133.78 589.33 130.75 C 593.68 133.37 598.02 136.03 602.37 138.66 C 603.85 136.24 605.32 133.82 606.80 131.40 C 602.47 128.72 598.13 126.07 593.76 123.46 C 595.54 120.50 597.34 117.54 599.16 114.59 C 603.83 117.42 608.49 120.26 613.17 123.09 C 614.65 120.66 616.13 118.23 617.61 115.79 C 609.99 111.11 602.31 106.53 594.71 101.82 C 586.45 115.03 578.49 128.41 570.37 141.70 M 212.72 122.67 C 207.61 128.85 206.06 137.76 208.91 145.27 C 211.18 151.03 215.10 156.31 220.43 159.57 C 226.32 163.18 233.93 163.11 240.09 160.21 C 247.26 156.82 253.53 151.29 257.34 144.28 C 252.85 137.85 248.41 131.38 243.92 124.94 C 238.49 128.71 233.03 132.45 227.60 136.22 C 229.18 138.52 230.78 140.82 232.37 143.12 C 234.93 141.36 237.49 139.59 240.05 137.82 C 241.82 140.35 243.57 142.89 245.34 145.43 C 241.41 150.56 234.16 154.22 227.89 151.13 C 220.53 147.20 215.22 137.40 219.32 129.39 C 222.89 123.12 230.13 119.87 237.00 118.73 C 235.11 116.04 233.25 113.33 231.36 110.64 C 224.27 112.95 217.50 116.86 212.72 122.67 M 600.94 159.94 C 603.33 162.00 605.73 164.04 608.14 166.08 C 616.46 156.33 624.87 146.65 632.87 136.62 C 631.45 139.33 629.92 142.00 628.83 144.87 C 625.12 154.64 621.36 164.40 617.64 174.17 C 619.82 176.03 622.00 177.89 624.18 179.75 C 635.63 172.73 647.64 166.56 658.62 158.80 C 649.86 168.07 641.91 178.07 633.52 187.67 C 636.14 189.93 638.77 192.18 641.40 194.43 C 651.52 182.62 661.59 170.76 671.69 158.93 C 667.89 155.68 664.08 152.44 660.28 149.20 C 649.90 155.55 639.04 161.14 629.06 168.11 C 634.62 157.30 638.25 145.61 642.93 134.41 C 639.01 131.09 635.14 127.74 631.22 124.44 C 621.12 136.27 611.02 148.10 600.94 159.94 M 176.04 152.00 C 171.79 155.88 167.63 159.84 163.42 163.76 C 174.06 175.11 184.66 186.50 195.31 197.84 C 197.87 195.45 200.42 193.06 202.98 190.67 C 198.90 186.27 194.75 181.94 190.72 177.51 C 192.50 176.06 194.37 173.99 196.93 174.60 C 203.12 175.57 209.02 177.80 215.07 179.35 C 218.03 176.62 220.97 173.87 223.90 171.10 C 218.30 169.65 212.70 168.21 207.08 166.85 C 204.11 166.09 201.01 166.00 198.01 166.58 C 200.08 162.72 201.09 157.96 199.17 153.82 C 197.14 149.58 192.94 145.82 188.00 145.94 C 183.35 146.13 179.41 149.04 176.04 152.00 M 648.17 202.80 C 654.22 209.90 660.27 216.99 666.31 224.10 C 668.48 222.27 670.64 220.43 672.80 218.58 C 669.03 214.14 665.25 209.71 661.48 205.27 C 664.18 202.97 666.89 200.68 669.59 198.36 C 672.91 202.21 676.19 206.09 679.48 209.97 C 681.66 208.14 683.84 206.31 685.99 204.44 C 682.69 200.58 679.40 196.70 676.11 192.83 C 678.74 190.59 681.37 188.34 684.01 186.11 C 687.57 190.25 691.09 194.43 694.65 198.58 C 696.82 196.74 698.98 194.89 701.15 193.04 C 695.36 186.20 689.53 179.39 683.72 172.56 C 671.86 182.63 660.02 192.71 648.17 202.80 M 136.37 195.13 C 148.35 205.05 160.33 214.97 172.31 224.90 C 178.27 217.72 184.23 210.55 190.16 203.35 C 187.99 201.53 185.80 199.72 183.61 197.93 C 179.89 202.39 176.18 206.86 172.50 211.35 C 169.72 209.12 166.99 206.83 164.24 204.57 C 167.48 200.64 170.73 196.73 173.97 192.81 C 171.79 190.99 169.61 189.18 167.43 187.37 C 164.17 191.28 160.92 195.20 157.66 199.11 C 155.01 196.90 152.34 194.70 149.67 192.51 C 153.16 188.29 156.65 184.08 160.14 179.87 C 157.96 178.04 155.76 176.22 153.55 174.42 C 147.82 181.31 142.10 188.23 136.37 195.13 M 671.10 229.95 C 672.85 232.75 674.62 235.56 676.41 238.34 C 685.75 232.33 695.31 226.66 704.46 220.36 C 698.64 232.24 693.46 244.42 687.85 256.40 C 689.69 259.44 691.60 262.45 693.54 265.44 C 706.68 257.15 719.80 248.81 732.97 240.57 C 731.23 237.74 729.45 234.93 727.67 232.13 C 718.63 238.00 709.30 243.45 700.42 249.58 C 706.05 238.06 711.10 226.28 716.61 214.70 C 714.64 211.45 712.59 208.25 710.56 205.04 C 697.40 213.33 684.26 221.66 671.10 229.95 M 120.60 217.33 C 129.85 222.88 138.89 228.78 148.30 234.06 C 135.44 234.15 122.60 234.70 109.75 235.00 C 107.77 238.21 105.79 241.43 103.84 244.66 C 117.11 252.77 130.35 260.94 143.65 269.03 C 145.35 266.21 147.07 263.40 148.80 260.59 C 139.28 254.82 129.93 248.76 120.22 243.32 C 133.49 243.33 146.75 242.61 160.02 242.30 C 161.88 239.30 163.73 236.28 165.57 233.27 C 152.33 225.11 139.06 216.99 125.79 208.88 C 124.05 211.69 122.32 214.51 120.60 217.33 M 731.25 255.80 C 733.02 259.84 734.82 263.88 736.60 267.94 C 724.96 273.04 713.34 278.17 701.74 283.33 C 703.14 286.53 704.56 289.74 705.98 292.94 C 717.61 287.84 729.22 282.69 740.85 277.57 C 742.65 281.61 744.42 285.67 746.23 289.72 C 748.87 288.61 751.48 287.43 754.07 286.20 C 749.00 274.95 744.09 263.62 739.07 252.34 C 736.46 253.50 733.85 254.65 731.25 255.80 M 97.21 258.37 C 93.64 266.60 90.07 274.83 86.52 283.06 C 100.79 289.25 115.10 295.36 129.35 301.59 C 133.07 293.04 136.77 284.48 140.47 275.92 C 137.87 274.76 135.27 273.63 132.66 272.52 C 130.34 277.86 128.02 283.20 125.72 288.55 C 122.46 287.14 119.19 285.72 115.92 284.33 C 117.91 279.65 119.96 274.99 121.96 270.31 C 119.36 269.18 116.76 268.05 114.15 266.94 C 112.11 271.60 110.11 276.28 108.08 280.94 C 104.91 279.55 101.74 278.17 98.55 276.82 C 100.71 271.80 102.90 266.79 105.06 261.77 C 102.45 260.62 99.83 259.48 97.21 258.37 M 73.28 324.24 C 79.58 328.65 85.39 333.83 92.11 337.60 C 84.42 337.89 76.94 339.99 69.36 341.18 C 68.47 345.07 67.56 348.96 66.67 352.86 C 76.47 350.59 86.28 348.34 96.07 346.02 C 97.62 345.72 99.23 345.13 100.82 345.58 C 105.73 346.61 110.58 347.87 115.48 348.94 C 116.27 345.53 117.06 342.11 117.84 338.71 C 112.41 337.26 106.77 336.53 101.47 334.67 C 92.77 327.77 84.39 320.44 75.79 313.41 C 74.94 317.01 74.11 320.62 73.28 324.24 M 743.17 324.06 C 740.28 328.53 740.36 334.04 738.93 339.00 C 738.32 341.06 737.24 343.43 734.95 343.98 C 732.47 344.64 730.46 342.47 729.57 340.43 C 727.21 335.16 727.74 329.00 730.03 323.80 C 726.68 324.62 723.32 325.42 719.96 326.20 C 718.96 332.42 719.87 338.86 722.18 344.71 C 723.46 347.83 725.22 350.95 728.07 352.89 C 732.78 356.23 739.56 355.33 743.93 351.84 C 748.19 348.14 748.88 342.20 749.92 336.99 C 750.54 334.38 750.91 331.14 753.40 329.58 C 755.53 328.30 758.10 329.80 759.16 331.78 C 761.90 336.44 761.58 342.20 760.28 347.26 C 763.41 346.47 766.56 345.73 769.71 344.98 C 770.05 338.75 769.06 332.37 766.28 326.76 C 764.48 323.15 761.56 319.80 757.55 318.68 C 752.31 317.27 746.06 319.34 743.17 324.06 M 744.55 372.52 C 739.11 373.77 733.44 373.80 727.92 374.61 C 728.29 378.08 728.67 381.56 729.06 385.04 C 733.74 384.56 738.41 384.00 743.09 383.50 C 744.69 383.25 746.31 383.40 747.80 384.08 C 757.56 387.75 767.34 391.40 777.10 395.08 C 776.70 391.40 776.30 387.73 775.90 384.06 C 768.54 381.84 761.32 379.04 753.76 377.57 C 760.93 374.85 767.26 370.37 774.02 366.79 C 773.59 362.81 773.15 358.84 772.72 354.87 C 763.28 360.67 754.05 366.84 744.55 372.52 M 61.98 396.67 C 64.81 396.95 67.64 397.23 70.48 397.51 C 70.92 393.12 71.35 388.73 71.79 384.34 C 84.44 385.60 97.08 386.80 109.72 388.10 C 110.08 384.60 110.42 381.11 110.76 377.61 C 98.12 376.35 85.48 375.07 72.84 373.84 C 73.27 369.43 73.71 365.02 74.15 360.61 C 71.32 360.31 68.48 360.03 65.64 359.76 C 64.41 372.06 63.17 384.36 61.98 396.67 M 100.61 403.67 C 100.60 404.98 100.59 406.28 100.59 407.60 C 90.46 407.56 80.34 407.50 70.21 407.54 C 70.20 406.22 70.20 404.91 70.19 403.60 C 67.48 403.59 64.77 403.59 62.07 403.60 C 62.05 409.71 62.03 415.82 62.02 421.93 C 64.73 421.93 67.44 421.93 70.15 421.93 C 70.16 420.61 70.17 419.30 70.18 418.00 C 80.31 418.15 90.44 418.02 100.57 418.08 C 100.57 419.38 100.57 420.69 100.56 422.00 C 103.28 422.00 105.99 422.00 108.71 421.99 C 108.70 415.88 108.74 409.77 108.74 403.66 C 106.03 403.66 103.32 403.66 100.61 403.67 M 732.24 403.38 C 729.35 410.12 728.78 417.79 730.41 424.92 C 731.29 428.88 733.80 432.65 737.63 434.28 C 742.54 436.27 748.90 435.64 752.59 431.54 C 756.74 427.24 757.83 421.03 761.50 416.42 C 763.15 414.12 766.93 414.32 768.18 416.92 C 770.79 422.36 768.88 428.76 766.06 433.74 C 769.30 433.75 772.54 433.81 775.80 433.87 C 777.71 427.79 778.32 421.20 776.90 414.95 C 775.99 410.93 773.74 406.95 769.95 405.05 C 765.01 402.63 758.41 403.43 754.67 407.62 C 750.45 411.91 749.68 418.35 745.70 422.78 C 743.77 425.19 739.62 424.52 738.66 421.56 C 736.44 415.40 738.71 408.47 742.63 403.51 C 739.16 403.48 735.70 403.42 732.24 403.38 M 100.00 425.16 C 100.48 430.90 101.00 436.63 101.48 442.37 C 88.82 443.46 76.16 444.62 63.49 445.67 C 63.78 449.16 64.09 452.65 64.39 456.15 C 79.90 454.87 95.39 453.48 110.89 452.11 C 110.10 442.88 109.29 433.65 108.49 424.43 C 105.66 424.66 102.83 424.91 100.00 425.16 M 767.63 443.84 C 767.00 448.21 766.39 452.59 765.78 456.96 C 753.20 455.16 740.62 453.40 728.04 451.66 C 727.53 455.14 727.04 458.62 726.56 462.10 C 739.15 463.85 751.74 465.54 764.30 467.43 C 763.68 471.81 763.07 476.19 762.45 480.58 C 765.27 480.98 768.10 481.38 770.94 481.78 C 772.65 469.53 774.38 457.29 776.09 445.04 C 773.27 444.62 770.45 444.20 767.63 443.84 M 69.05 484.28 C 69.94 488.33 70.83 492.37 71.72 496.43 C 88.14 498.60 104.56 500.74 120.96 502.98 C 119.96 499.34 119.72 495.34 118.22 491.94 C 114.74 491.31 111.17 491.29 107.66 490.88 C 106.49 485.47 105.28 480.08 104.10 474.68 C 107.25 472.87 110.40 471.07 113.53 469.21 C 112.71 465.49 111.89 461.77 111.06 458.06 C 97.04 466.77 83.05 475.54 69.05 484.28 M 723.09 481.40 C 720.70 490.41 718.28 499.42 715.92 508.44 C 718.66 509.13 721.40 509.86 724.14 510.62 C 725.65 505.00 727.13 499.36 728.64 493.74 C 732.08 494.61 735.51 495.53 738.94 496.47 C 737.66 501.40 736.32 506.31 735.04 511.23 C 737.78 511.95 740.52 512.67 743.27 513.42 C 744.59 508.50 745.88 503.58 747.20 498.67 C 750.54 499.54 753.88 500.43 757.22 501.34 C 755.84 506.62 754.41 511.90 753.03 517.19 C 755.78 517.92 758.53 518.65 761.29 519.38 C 763.61 510.72 765.88 502.04 768.22 493.38 C 753.17 489.39 738.14 485.35 723.09 481.40 M 104.77 514.89 C 96.23 518.12 87.76 521.51 79.23 524.76 C 80.49 528.02 81.76 531.29 83.03 534.56 C 90.59 531.67 98.13 528.74 105.65 525.78 C 108.94 524.54 112.37 522.98 115.97 523.47 C 120.65 524.13 123.24 529.50 122.55 533.83 C 121.80 537.54 118.18 539.61 114.96 540.97 C 106.46 544.34 97.89 547.58 89.37 550.92 C 90.63 554.20 91.91 557.47 93.20 560.75 C 101.27 557.61 109.34 554.49 117.41 551.37 C 122.32 549.46 127.37 546.86 130.25 542.25 C 133.03 537.94 132.78 532.40 131.23 527.68 C 129.51 522.44 126.56 517.10 121.43 514.55 C 116.21 511.95 110.04 512.94 104.77 514.89 M 714.21 515.88 C 712.92 518.75 711.63 521.63 710.35 524.51 C 722.06 529.67 733.65 535.08 745.53 539.83 C 732.27 537.31 718.69 537.20 705.27 535.90 C 704.10 538.51 702.93 541.12 701.78 543.74 C 711.77 552.74 721.07 562.53 731.63 570.87 C 720.25 565.07 708.40 560.25 696.78 554.95 C 695.36 558.10 693.95 561.26 692.55 564.42 C 706.76 570.76 720.96 577.10 735.18 583.42 C 737.22 578.87 739.24 574.30 741.29 569.74 C 732.30 561.56 723.83 552.79 714.36 545.16 C 726.30 547.43 738.52 547.60 750.59 548.91 C 752.65 544.22 754.76 539.55 756.84 534.87 C 742.64 528.52 728.43 522.19 714.21 515.88 M 141.80 545.31 C 146.56 549.95 148.41 556.95 146.16 563.29 C 143.37 561.39 140.42 559.55 137.04 558.97 C 128.78 557.25 120.30 560.80 114.10 566.15 C 107.86 571.48 104.90 580.57 107.52 588.46 C 109.88 595.55 115.13 602.09 122.41 604.44 C 133.11 607.91 145.29 602.54 151.62 593.63 C 156.32 587.15 156.39 578.22 152.67 571.27 C 154.29 565.96 156.27 560.59 156.05 554.95 C 155.94 549.67 153.08 544.88 149.52 541.17 C 146.71 541.99 144.39 543.98 141.80 545.31 Z" />
<path fill="#f69606" opacity="1.00" d=" M 393.91 85.41 C 395.51 78.53 397.82 71.80 398.74 64.77 C 400.25 71.69 403.49 78.06 405.83 84.71 C 401.86 84.95 397.88 85.18 393.91 85.41 Z" />
<path fill="#f69606" opacity="1.00" d=" M 498.59 94.04 C 502.25 87.99 506.63 82.35 509.67 75.94 C 508.92 82.99 509.98 90.06 510.11 97.11 C 506.26 96.10 502.42 95.07 498.59 94.04 Z" />
<path fill="#f69606" opacity="1.00" d=" M 176.48 162.32 C 178.83 160.26 180.92 157.59 184.00 156.62 C 188.11 155.62 191.90 160.09 191.26 164.02 C 190.78 167.48 187.68 169.55 185.38 171.82 C 182.40 168.67 179.43 165.50 176.48 162.32 Z" />
<path fill="#f69606" opacity="1.00" d=" M 78.21 488.82 C 84.83 486.36 90.55 482.09 96.74 478.79 C 97.59 482.67 98.45 486.54 99.29 490.43 C 92.27 489.83 85.27 488.77 78.21 488.82 Z" />
<path fill="#f69606" opacity="1.00" d=" M 130.39 569.51 C 135.29 567.82 141.31 569.54 143.84 574.26 C 146.75 578.56 145.67 584.53 142.13 588.13 C 137.99 592.39 132.06 595.56 125.98 594.90 C 119.26 594.28 114.25 586.28 117.15 580.06 C 119.56 574.69 124.99 571.32 130.39 569.51 Z" />
<path fill="#f69606" opacity="1.00" d=" M 322.25 576.31 C 360.14 575.57 398.07 576.59 435.97 575.93 C 449.02 575.88 462.10 576.51 475.13 575.59 C 480.42 575.26 485.70 575.93 491.00 575.86 C 500.99 575.62 511.06 574.89 521.03 575.98 C 530.58 576.91 538.75 584.34 541.42 593.42 C 542.55 597.49 542.25 601.77 542.29 605.96 C 542.30 638.65 542.33 671.34 542.35 704.04 C 542.50 718.68 541.95 733.35 542.74 747.98 C 542.77 752.32 542.07 756.65 542.53 760.99 C 543.55 771.29 542.46 781.65 542.93 791.98 C 543.07 800.04 541.99 809.01 535.85 814.89 C 529.68 821.81 519.84 823.29 511.04 822.81 C 452.38 822.78 393.72 822.84 335.06 822.73 C 329.81 822.59 324.41 823.27 319.31 821.74 C 310.96 819.30 304.15 812.31 301.85 803.94 C 300.63 799.74 301.02 795.31 300.96 791.00 C 300.91 727.66 300.90 664.32 300.92 600.98 C 300.63 589.04 310.26 577.54 322.25 576.31 M 490.64 625.91 C 458.86 658.02 426.79 689.86 394.88 721.84 C 382.18 709.12 369.52 696.38 356.90 683.58 C 348.41 691.91 339.99 700.30 331.63 708.76 C 352.75 729.76 373.78 750.85 394.87 771.87 C 435.30 731.62 475.63 691.28 515.94 650.92 C 507.33 642.76 499.18 634.14 490.64 625.91 Z" />
</g>
<g id="#ffffffff">
<path fill="#ffffff" opacity="1.00" d=" M 434.70 55.97 C 438.45 56.35 442.20 56.73 445.95 57.11 C 451.81 68.55 457.89 79.87 463.53 91.42 C 464.21 80.66 465.60 69.95 466.59 59.21 C 469.88 59.53 473.17 59.87 476.47 60.20 C 474.92 75.67 473.33 91.14 471.77 106.62 C 468.26 106.27 464.75 105.92 461.24 105.58 C 455.16 93.80 448.84 82.13 443.00 70.23 C 442.32 81.31 440.90 92.33 439.87 103.39 C 436.58 103.06 433.29 102.73 430.00 102.40 C 431.54 86.92 433.13 71.45 434.70 55.97 Z" />
<path fill="#ffffff" opacity="1.00" d=" M 392.29 57.26 C 396.45 57.00 400.60 56.75 404.76 56.52 C 411.18 71.72 417.65 86.90 424.07 102.10 C 420.25 102.34 416.44 102.57 412.63 102.78 C 411.33 99.40 410.02 96.01 408.72 92.63 C 403.19 92.94 397.67 93.28 392.15 93.60 C 391.25 97.12 390.37 100.65 389.44 104.17 C 385.66 104.38 381.88 104.61 378.10 104.82 C 382.82 88.97 387.58 73.12 392.29 57.26 M 393.91 85.41 C 397.88 85.18 401.86 84.95 405.83 84.71 C 403.49 78.06 400.25 71.69 398.74 64.77 C 397.82 71.80 395.51 78.53 393.91 85.41 Z" />
<path fill="#ffffff" opacity="1.00" d=" M 346.81 63.57 C 351.68 62.38 356.56 61.22 361.43 60.01 C 365.07 75.13 368.74 90.24 372.39 105.36 C 369.02 106.19 365.66 107.00 362.28 107.79 C 359.40 95.34 356.00 83.01 353.63 70.44 C 353.49 83.91 351.39 97.26 350.37 110.68 C 347.58 111.36 344.80 112.03 342.02 112.70 C 334.91 101.28 326.73 90.50 320.55 78.55 C 324.12 90.79 326.84 103.26 329.89 115.64 C 326.82 116.38 323.75 117.12 320.68 117.85 C 317.03 102.73 313.38 87.62 309.73 72.51 C 314.72 71.35 319.69 70.06 324.69 68.90 C 331.01 79.25 338.31 89.04 343.82 99.87 C 344.04 87.72 345.90 75.68 346.81 63.57 Z" />
<path fill="#ffffff" opacity="1.00" d=" M 477.47 107.50 C 486.94 93.92 496.44 80.37 505.93 66.81 C 509.94 67.88 513.96 68.94 517.97 70.03 C 519.30 86.48 520.63 102.93 521.95 119.38 C 518.23 118.40 514.50 117.45 510.83 116.33 C 510.72 112.73 510.54 109.14 510.36 105.55 C 505.02 104.10 499.68 102.71 494.35 101.25 C 492.36 104.31 490.41 107.39 488.44 110.45 C 484.79 109.44 481.14 108.43 477.47 107.50 M 498.59 94.04 C 502.42 95.07 506.26 96.10 510.11 97.11 C 509.98 90.06 508.92 82.99 509.67 75.94 C 506.63 82.35 502.25 87.99 498.59 94.04 Z" />
<path fill="#ffffff" opacity="1.00" d=" M 267.72 89.96 C 271.04 88.29 274.35 86.63 277.68 84.98 C 277.61 95.00 277.63 105.02 277.53 115.04 C 277.59 116.62 277.35 118.32 278.12 119.77 C 280.31 124.39 282.74 128.90 284.96 133.51 C 281.83 135.07 278.70 136.64 275.58 138.21 C 273.71 134.49 271.82 130.78 270.01 127.03 C 269.15 125.30 268.32 123.44 266.66 122.33 C 258.25 115.94 249.85 109.52 241.44 103.11 C 245.01 101.31 248.59 99.52 252.17 97.74 C 257.89 102.83 264.28 107.20 269.40 112.93 C 268.07 105.35 268.31 97.61 267.72 89.96 Z" />
<path fill="#ffffff" opacity="1.00" d=" M 537.10 94.07 C 542.01 87.29 550.82 83.70 559.08 85.00 C 566.40 86.10 573.18 89.74 578.75 94.54 C 577.43 97.54 576.11 100.53 574.82 103.54 C 570.12 98.15 563.29 93.56 555.86 94.16 C 547.12 95.24 541.88 104.82 542.46 112.99 C 543.21 119.87 550.07 123.88 556.37 124.71 C 557.67 121.88 558.93 119.02 560.17 116.16 C 557.31 114.90 554.46 113.65 551.62 112.39 C 552.74 109.83 553.86 107.28 554.99 104.73 C 561.06 107.36 567.12 110.01 573.17 112.70 C 570.02 119.89 566.86 127.06 563.73 134.26 C 555.52 134.67 547.24 132.16 540.51 127.50 C 535.41 123.96 531.76 118.23 531.39 111.97 C 531.01 105.56 533.41 99.22 537.10 94.07 Z" />
<path fill="#ffffff" opacity="1.00" d=" M 570.37 141.70 C 578.49 128.41 586.45 115.03 594.71 101.82 C 602.31 106.53 609.99 111.11 617.61 115.79 C 616.13 118.23 614.65 120.66 613.17 123.09 C 608.49 120.26 603.83 117.42 599.16 114.59 C 597.34 117.54 595.54 120.50 593.76 123.46 C 598.13 126.07 602.47 128.72 606.80 131.40 C 605.32 133.82 603.85 136.24 602.37 138.66 C 598.02 136.03 593.68 133.37 589.33 130.75 C 587.47 133.78 585.62 136.81 583.79 139.86 C 588.76 142.89 593.74 145.90 598.71 148.94 C 597.24 151.37 595.77 153.79 594.29 156.22 C 586.31 151.39 578.35 146.52 570.37 141.70 Z" />
<path fill="#ffffff" opacity="1.00" d=" M 212.72 122.67 C 217.50 116.86 224.27 112.95 231.36 110.64 C 233.25 113.33 235.11 116.04 237.00 118.73 C 230.13 119.87 222.89 123.12 219.32 129.39 C 215.22 137.40 220.53 147.20 227.89 151.13 C 234.16 154.22 241.41 150.56 245.34 145.43 C 243.57 142.89 241.82 140.35 240.05 137.82 C 237.49 139.59 234.93 141.36 232.37 143.12 C 230.78 140.82 229.18 138.52 227.60 136.22 C 233.03 132.45 238.49 128.71 243.92 124.94 C 248.41 131.38 252.85 137.85 257.34 144.28 C 253.53 151.29 247.26 156.82 240.09 160.21 C 233.93 163.11 226.32 163.18 220.43 159.57 C 215.10 156.31 211.18 151.03 208.91 145.27 C 206.06 137.76 207.61 128.85 212.72 122.67 Z" />
<path fill="#ffffff" opacity="1.00" d=" M 600.94 159.94 C 611.02 148.10 621.12 136.27 631.22 124.44 C 635.14 127.74 639.01 131.09 642.93 134.41 C 638.25 145.61 634.62 157.30 629.06 168.11 C 639.04 161.14 649.90 155.55 660.28 149.20 C 664.08 152.44 667.89 155.68 671.69 158.93 C 661.59 170.76 651.52 182.62 641.40 194.43 C 638.77 192.18 636.14 189.93 633.52 187.67 C 641.91 178.07 649.86 168.07 658.62 158.80 C 647.64 166.56 635.63 172.73 624.18 179.75 C 622.00 177.89 619.82 176.03 617.64 174.17 C 621.36 164.40 625.12 154.64 628.83 144.87 C 629.92 142.00 631.45 139.33 632.87 136.62 C 624.87 146.65 616.46 156.33 608.14 166.08 C 605.73 164.04 603.33 162.00 600.94 159.94 Z" />
<path fill="#ffffff" opacity="1.00" d=" M 176.04 152.00 C 179.41 149.04 183.35 146.13 188.00 145.94 C 192.94 145.82 197.14 149.58 199.17 153.82 C 201.09 157.96 200.08 162.72 198.01 166.58 C 201.01 166.00 204.11 166.09 207.08 166.85 C 212.70 168.21 218.30 169.65 223.90 171.10 C 220.97 173.87 218.03 176.62 215.07 179.35 C 209.02 177.80 203.12 175.57 196.93 174.60 C 194.37 173.99 192.50 176.06 190.72 177.51 C 194.75 181.94 198.90 186.27 202.98 190.67 C 200.42 193.06 197.87 195.45 195.31 197.84 C 184.66 186.50 174.06 175.11 163.42 163.76 C 167.63 159.84 171.79 155.88 176.04 152.00 M 176.48 162.32 C 179.43 165.50 182.40 168.67 185.38 171.82 C 187.68 169.55 190.78 167.48 191.26 164.02 C 191.90 160.09 188.11 155.62 184.00 156.62 C 180.92 157.59 178.83 160.26 176.48 162.32 Z" />
<path fill="#ffffff" opacity="1.00" d=" M 648.17 202.80 C 660.02 192.71 671.86 182.63 683.72 172.56 C 689.53 179.39 695.36 186.20 701.15 193.04 C 698.98 194.89 696.82 196.74 694.65 198.58 C 691.09 194.43 687.57 190.25 684.01 186.11 C 681.37 188.34 678.74 190.59 676.11 192.83 C 679.40 196.70 682.69 200.58 685.99 204.44 C 683.84 206.31 681.66 208.14 679.48 209.97 C 676.19 206.09 672.91 202.21 669.59 198.36 C 666.89 200.68 664.18 202.97 661.48 205.27 C 665.25 209.71 669.03 214.14 672.80 218.58 C 670.64 220.43 668.48 222.27 666.31 224.10 C 660.27 216.99 654.22 209.90 648.17 202.80 Z" />
<path fill="#ffffff" opacity="1.00" d=" M 136.37 195.13 C 142.10 188.23 147.82 181.31 153.55 174.42 C 155.76 176.22 157.96 178.04 160.14 179.87 C 156.65 184.08 153.16 188.29 149.67 192.51 C 152.34 194.70 155.01 196.90 157.66 199.11 C 160.92 195.20 164.17 191.28 167.43 187.37 C 169.61 189.18 171.79 190.99 173.97 192.81 C 170.73 196.73 167.48 200.64 164.24 204.57 C 166.99 206.83 169.72 209.12 172.50 211.35 C 176.18 206.86 179.89 202.39 183.61 197.93 C 185.80 199.72 187.99 201.53 190.16 203.35 C 184.23 210.55 178.27 217.72 172.31 224.90 C 160.33 214.97 148.35 205.05 136.37 195.13 Z" />
<path fill="#ffffff" opacity="1.00" d=" M 671.10 229.95 C 684.26 221.66 697.40 213.33 710.56 205.04 C 712.59 208.25 714.64 211.45 716.61 214.70 C 711.10 226.28 706.05 238.06 700.42 249.58 C 709.30 243.45 718.63 238.00 727.67 232.13 C 729.45 234.93 731.23 237.74 732.97 240.57 C 719.80 248.81 706.68 257.15 693.54 265.44 C 691.60 262.45 689.69 259.44 687.85 256.40 C 693.46 244.42 698.64 232.24 704.46 220.36 C 695.31 226.66 685.75 232.33 676.41 238.34 C 674.62 235.56 672.85 232.75 671.10 229.95 Z" />
<path fill="#ffffff" opacity="1.00" d=" M 120.60 217.33 C 122.32 214.51 124.05 211.69 125.79 208.88 C 139.06 216.99 152.33 225.11 165.57 233.27 C 163.73 236.28 161.88 239.30 160.02 242.30 C 146.75 242.61 133.49 243.33 120.22 243.32 C 129.93 248.76 139.28 254.82 148.80 260.59 C 147.07 263.40 145.35 266.21 143.65 269.03 C 130.35 260.94 117.11 252.77 103.84 244.66 C 105.79 241.43 107.77 238.21 109.75 235.00 C 122.60 234.70 135.44 234.15 148.30 234.06 C 138.89 228.78 129.85 222.88 120.60 217.33 Z" />
<path fill="#ffffff" opacity="1.00" d=" M 731.25 255.80 C 733.85 254.65 736.46 253.50 739.07 252.34 C 744.09 263.62 749.00 274.95 754.07 286.20 C 751.48 287.43 748.87 288.61 746.23 289.72 C 744.42 285.67 742.65 281.61 740.85 277.57 C 729.22 282.69 717.61 287.84 705.98 292.94 C 704.56 289.74 703.14 286.53 701.74 283.33 C 713.34 278.17 724.96 273.04 736.60 267.94 C 734.82 263.88 733.02 259.84 731.25 255.80 Z" />
<path fill="#ffffff" opacity="1.00" d=" M 97.21 258.37 C 99.83 259.48 102.45 260.62 105.06 261.77 C 102.90 266.79 100.71 271.80 98.55 276.82 C 101.74 278.17 104.91 279.55 108.08 280.94 C 110.11 276.28 112.11 271.60 114.15 266.94 C 116.76 268.05 119.36 269.18 121.96 270.31 C 119.96 274.99 117.91 279.65 115.92 284.33 C 119.19 285.72 122.46 287.14 125.72 288.55 C 128.02 283.20 130.34 277.86 132.66 272.52 C 135.27 273.63 137.87 274.76 140.47 275.92 C 136.77 284.48 133.07 293.04 129.35 301.59 C 115.10 295.36 100.79 289.25 86.52 283.06 C 90.07 274.83 93.64 266.60 97.21 258.37 Z" />
<path fill="#ffffff" opacity="1.00" d=" M 73.28 324.24 C 74.11 320.62 74.94 317.01 75.79 313.41 C 84.39 320.44 92.77 327.77 101.47 334.67 C 106.77 336.53 112.41 337.26 117.84 338.71 C 117.06 342.11 116.27 345.53 115.48 348.94 C 110.58 347.87 105.73 346.61 100.82 345.58 C 99.23 345.13 97.62 345.72 96.07 346.02 C 86.28 348.34 76.47 350.59 66.67 352.86 C 67.56 348.96 68.47 345.07 69.36 341.18 C 76.94 339.99 84.42 337.89 92.11 337.60 C 85.39 333.83 79.58 328.65 73.28 324.24 Z" />
<path fill="#ffffff" opacity="1.00" d=" M 743.17 324.06 C 746.06 319.34 752.31 317.27 757.55 318.68 C 761.56 319.80 764.48 323.15 766.28 326.76 C 769.06 332.37 770.05 338.75 769.71 344.98 C 766.56 345.73 763.41 346.47 760.28 347.26 C 761.58 342.20 761.90 336.44 759.16 331.78 C 758.10 329.80 755.53 328.30 753.40 329.58 C 750.91 331.14 750.54 334.38 749.92 336.99 C 748.88 342.20 748.19 348.14 743.93 351.84 C 739.56 355.33 732.78 356.23 728.07 352.89 C 725.22 350.95 723.46 347.83 722.18 344.71 C 719.87 338.86 718.96 332.42 719.96 326.20 C 723.32 325.42 726.68 324.62 730.03 323.80 C 727.74 329.00 727.21 335.16 729.57 340.43 C 730.46 342.47 732.47 344.64 734.95 343.98 C 737.24 343.43 738.32 341.06 738.93 339.00 C 740.36 334.04 740.28 328.53 743.17 324.06 Z" />
<path fill="#ffffff" opacity="1.00" d=" M 744.55 372.52 C 754.05 366.84 763.28 360.67 772.72 354.87 C 773.15 358.84 773.59 362.81 774.02 366.79 C 767.26 370.37 760.93 374.85 753.76 377.57 C 761.32 379.04 768.54 381.84 775.90 384.06 C 776.30 387.73 776.70 391.40 777.10 395.08 C 767.34 391.40 757.56 387.75 747.80 384.08 C 746.31 383.40 744.69 383.25 743.09 383.50 C 738.41 384.00 733.74 384.56 729.06 385.04 C 728.67 381.56 728.29 378.08 727.92 374.61 C 733.44 373.80 739.11 373.77 744.55 372.52 Z" />
<path fill="#ffffff" opacity="1.00" d=" M 61.98 396.67 C 63.17 384.36 64.41 372.06 65.64 359.76 C 68.48 360.03 71.32 360.31 74.15 360.61 C 73.71 365.02 73.27 369.43 72.84 373.84 C 85.48 375.07 98.12 376.35 110.76 377.61 C 110.42 381.11 110.08 384.60 109.72 388.10 C 97.08 386.80 84.44 385.60 71.79 384.34 C 71.35 388.73 70.92 393.12 70.48 397.51 C 67.64 397.23 64.81 396.95 61.98 396.67 Z" />
<path fill="#ffffff" opacity="1.00" d=" M 100.61 403.67 C 103.32 403.66 106.03 403.66 108.74 403.66 C 108.74 409.77 108.70 415.88 108.71 421.99 C 105.99 422.00 103.28 422.00 100.56 422.00 C 100.57 420.69 100.57 419.38 100.57 418.08 C 90.44 418.02 80.31 418.15 70.18 418.00 C 70.17 419.30 70.16 420.61 70.15 421.93 C 67.44 421.93 64.73 421.93 62.02 421.93 C 62.03 415.82 62.05 409.71 62.07 403.60 C 64.77 403.59 67.48 403.59 70.19 403.60 C 70.20 404.91 70.20 406.22 70.21 407.54 C 80.34 407.50 90.46 407.56 100.59 407.60 C 100.59 406.28 100.60 404.98 100.61 403.67 Z" />
<path fill="#ffffff" opacity="1.00" d=" M 732.24 403.38 C 735.70 403.42 739.16 403.48 742.63 403.51 C 738.71 408.47 736.44 415.40 738.66 421.56 C 739.62 424.52 743.77 425.19 745.70 422.78 C 749.68 418.35 750.45 411.91 754.67 407.62 C 758.41 403.43 765.01 402.63 769.95 405.05 C 773.74 406.95 775.99 410.93 776.90 414.95 C 778.32 421.20 777.71 427.79 775.80 433.87 C 772.54 433.81 769.30 433.75 766.06 433.74 C 768.88 428.76 770.79 422.36 768.18 416.92 C 766.93 414.32 763.15 414.12 761.50 416.42 C 757.83 421.03 756.74 427.24 752.59 431.54 C 748.90 435.64 742.54 436.27 737.63 434.28 C 733.80 432.65 731.29 428.88 730.41 424.92 C 728.78 417.79 729.35 410.12 732.24 403.38 Z" />
<path fill="#ffffff" opacity="1.00" d=" M 100.00 425.16 C 102.83 424.91 105.66 424.66 108.49 424.43 C 109.29 433.65 110.10 442.88 110.89 452.11 C 95.39 453.48 79.90 454.87 64.39 456.15 C 64.09 452.65 63.78 449.16 63.49 445.67 C 76.16 444.62 88.82 443.46 101.48 442.37 C 101.00 436.63 100.48 430.90 100.00 425.16 Z" />
<path fill="#ffffff" opacity="1.00" d=" M 767.63 443.84 C 770.45 444.20 773.27 444.62 776.09 445.04 C 774.38 457.29 772.65 469.53 770.94 481.78 C 768.10 481.38 765.27 480.98 762.45 480.58 C 763.07 476.19 763.68 471.81 764.30 467.43 C 751.74 465.54 739.15 463.85 726.56 462.10 C 727.04 458.62 727.53 455.14 728.04 451.66 C 740.62 453.40 753.20 455.16 765.78 456.96 C 766.39 452.59 767.00 448.21 767.63 443.84 Z" />
<path fill="#ffffff" opacity="1.00" d=" M 69.05 484.28 C 83.05 475.54 97.04 466.77 111.06 458.06 C 111.89 461.77 112.71 465.49 113.53 469.21 C 110.40 471.07 107.25 472.87 104.10 474.68 C 105.28 480.08 106.49 485.47 107.66 490.88 C 111.17 491.29 114.74 491.31 118.22 491.94 C 119.72 495.34 119.96 499.34 120.96 502.98 C 104.56 500.74 88.14 498.60 71.72 496.43 C 70.83 492.37 69.94 488.33 69.05 484.28 M 78.21 488.82 C 85.27 488.77 92.27 489.83 99.29 490.43 C 98.45 486.54 97.59 482.67 96.74 478.79 C 90.55 482.09 84.83 486.36 78.21 488.82 Z" />
<path fill="#ffffff" opacity="1.00" d=" M 723.09 481.40 C 738.14 485.35 753.17 489.39 768.22 493.38 C 765.88 502.04 763.61 510.72 761.29 519.38 C 758.53 518.65 755.78 517.92 753.03 517.19 C 754.41 511.90 755.84 506.62 757.22 501.34 C 753.88 500.43 750.54 499.54 747.20 498.67 C 745.88 503.58 744.59 508.50 743.27 513.42 C 740.52 512.67 737.78 511.95 735.04 511.23 C 736.32 506.31 737.66 501.40 738.94 496.47 C 735.51 495.53 732.08 494.61 728.64 493.74 C 727.13 499.36 725.65 505.00 724.14 510.62 C 721.40 509.86 718.66 509.13 715.92 508.44 C 718.28 499.42 720.70 490.41 723.09 481.40 Z" />
<path fill="#ffffff" opacity="1.00" d=" M 104.77 514.89 C 110.04 512.94 116.21 511.95 121.43 514.55 C 126.56 517.10 129.51 522.44 131.23 527.68 C 132.78 532.40 133.03 537.94 130.25 542.25 C 127.37 546.86 122.32 549.46 117.41 551.37 C 109.34 554.49 101.27 557.61 93.20 560.75 C 91.91 557.47 90.63 554.20 89.37 550.92 C 97.89 547.58 106.46 544.34 114.96 540.97 C 118.18 539.61 121.80 537.54 122.55 533.83 C 123.24 529.50 120.65 524.13 115.97 523.47 C 112.37 522.98 108.94 524.54 105.65 525.78 C 98.13 528.74 90.59 531.67 83.03 534.56 C 81.76 531.29 80.49 528.02 79.23 524.76 C 87.76 521.51 96.23 518.12 104.77 514.89 Z" />
<path fill="#ffffff" opacity="1.00" d=" M 714.21 515.88 C 728.43 522.19 742.64 528.52 756.84 534.87 C 754.76 539.55 752.65 544.22 750.59 548.91 C 738.52 547.60 726.30 547.43 714.36 545.16 C 723.83 552.79 732.30 561.56 741.29 569.74 C 739.24 574.30 737.22 578.87 735.18 583.42 C 720.96 577.10 706.76 570.76 692.55 564.42 C 693.95 561.26 695.36 558.10 696.78 554.95 C 708.40 560.25 720.25 565.07 731.63 570.87 C 721.07 562.53 711.77 552.74 701.78 543.74 C 702.93 541.12 704.10 538.51 705.27 535.90 C 718.69 537.20 732.27 537.31 745.53 539.83 C 733.65 535.08 722.06 529.67 710.35 524.51 C 711.63 521.63 712.92 518.75 714.21 515.88 Z" />
<path fill="#ffffff" opacity="1.00" d=" M 141.80 545.31 C 144.39 543.98 146.71 541.99 149.52 541.17 C 153.08 544.88 155.94 549.67 156.05 554.95 C 156.27 560.59 154.29 565.96 152.67 571.27 C 156.39 578.22 156.32 587.15 151.62 593.63 C 145.29 602.54 133.11 607.91 122.41 604.44 C 115.13 602.09 109.88 595.55 107.52 588.46 C 104.90 580.57 107.86 571.48 114.10 566.15 C 120.30 560.80 128.78 557.25 137.04 558.97 C 140.42 559.55 143.37 561.39 146.16 563.29 C 148.41 556.95 146.56 549.95 141.80 545.31 M 130.39 569.51 C 124.99 571.32 119.56 574.69 117.15 580.06 C 114.25 586.28 119.26 594.28 125.98 594.90 C 132.06 595.56 137.99 592.39 142.13 588.13 C 145.67 584.53 146.75 578.56 143.84 574.26 C 141.31 569.54 135.29 567.82 130.39 569.51 Z" />
<path fill="#ffffff" opacity="1.00" d=" M 490.64 625.91 C 499.18 634.14 507.33 642.76 515.94 650.92 C 475.63 691.28 435.30 731.62 394.87 771.87 C 373.78 750.85 352.75 729.76 331.63 708.76 C 339.99 700.30 348.41 691.91 356.90 683.58 C 369.52 696.38 382.18 709.12 394.88 721.84 C 426.79 689.86 458.86 658.02 490.64 625.91 Z" />
</g>
<g id="#000000ff">
<path fill="#000000" opacity="1.00" d=" M 377.98 227.97 C 385.05 223.35 393.80 221.77 402.13 222.38 C 410.87 223.04 419.77 226.75 425.06 233.98 C 428.90 238.91 429.47 245.38 429.81 251.39 C 425.42 251.49 421.03 251.47 416.64 251.38 C 416.32 246.67 415.45 241.55 411.84 238.17 C 406.89 233.35 399.34 233.24 392.94 234.23 C 387.29 235.12 381.93 240.02 382.12 246.02 C 381.91 251.00 385.67 255.16 389.95 257.16 C 400.41 262.09 412.28 264.18 421.63 271.32 C 428.10 275.95 431.41 284.27 430.60 292.10 C 429.97 298.98 425.77 305.41 419.73 308.75 C 413.74 312.13 406.75 313.27 399.96 313.53 C 390.00 312.98 379.01 310.73 372.23 302.76 C 367.47 297.61 366.30 290.23 367.01 283.47 C 371.15 283.46 375.28 283.40 379.42 283.40 C 380.28 288.24 380.42 294.02 384.56 297.40 C 390.71 302.38 399.22 302.91 406.75 301.77 C 411.60 300.94 416.63 297.28 417.05 292.06 C 417.76 287.30 415.94 281.88 411.56 279.47 C 399.64 272.57 384.84 271.12 374.36 261.66 C 364.93 252.43 367.31 235.24 377.98 227.97 Z" />
<path fill="#000000" opacity="1.00" d=" M 469.53 222.70 C 476.33 221.71 483.43 222.40 489.74 225.22 C 497.88 228.75 504.06 236.37 506.03 245.01 C 508.02 253.20 506.89 261.67 507.21 270.00 C 507.35 280.57 507.94 292.36 501.29 301.30 C 491.25 314.96 470.35 317.18 456.41 308.47 C 448.95 303.91 444.64 295.45 443.69 286.94 C 442.86 279.65 443.39 272.29 443.25 264.97 C 443.27 255.87 442.55 246.22 446.85 237.86 C 450.84 229.04 460.18 223.78 469.53 222.70 M 468.29 234.52 C 463.18 236.20 459.13 240.70 457.99 245.95 C 455.78 255.15 456.84 264.68 456.60 274.04 C 456.53 281.51 456.33 289.74 460.96 296.06 C 468.49 305.88 486.49 303.88 491.40 292.42 C 494.85 282.66 493.54 272.14 493.80 262.00 C 493.57 254.72 493.95 246.69 489.60 240.43 C 484.91 233.82 475.66 232.47 468.29 234.52 Z" />
<path fill="#000000" opacity="1.00" d=" M 338.06 224.04 C 342.44 223.50 346.86 223.48 351.27 223.62 C 351.98 249.76 351.42 275.90 351.62 302.04 C 351.66 305.37 351.76 308.71 351.24 312.01 C 346.90 312.15 342.55 312.16 338.21 312.14 C 337.90 282.77 338.09 253.40 338.06 224.04 Z" />
<path fill="#000000" opacity="1.00" d=" M 325.50 346.71 C 335.76 345.37 346.92 346.36 355.70 352.26 C 363.57 357.48 368.39 366.15 370.93 375.05 C 374.33 387.02 374.77 399.63 374.03 411.98 C 373.10 424.88 369.97 438.33 361.44 448.44 C 355.43 455.77 346.34 460.18 336.98 461.15 C 326.29 462.29 314.67 460.80 305.88 454.15 C 297.59 447.98 293.06 438.08 290.91 428.21 C 288.37 416.30 288.23 403.97 289.44 391.89 C 290.74 380.16 294.10 368.10 302.02 359.06 C 307.92 352.14 316.55 347.88 325.50 346.71 M 328.36 365.45 C 322.20 367.42 319.32 373.96 317.74 379.71 C 314.76 391.56 314.92 403.94 315.58 416.05 C 316.35 423.83 317.41 432.26 322.53 438.52 C 326.60 443.53 334.99 444.19 339.56 439.52 C 344.05 434.98 345.52 428.46 346.58 422.38 C 348.14 411.75 348.05 400.92 347.24 390.22 C 346.39 382.98 345.34 375.24 340.81 369.26 C 338.01 365.47 332.79 364.00 328.36 365.45 Z" />
<path fill="#000000" opacity="1.00" d=" M 422.51 346.71 C 432.55 345.39 443.41 346.32 452.14 351.85 C 460.06 356.86 465.06 365.36 467.71 374.16 C 471.35 386.35 471.82 399.27 471.08 411.90 C 470.15 425.09 466.90 438.87 457.96 449.04 C 451.75 456.34 442.41 460.49 432.95 461.26 C 422.11 462.23 410.32 460.40 401.75 453.23 C 393.33 446.30 389.20 435.57 387.33 425.10 C 385.37 413.58 385.31 401.76 386.69 390.17 C 388.15 378.81 391.68 367.18 399.52 358.53 C 405.40 351.93 413.80 347.88 422.51 346.71 M 425.38 365.46 C 422.36 366.38 419.93 368.65 418.29 371.30 C 414.49 377.56 413.44 385.01 412.71 392.17 C 412.03 402.03 411.91 412.00 413.28 421.81 C 414.28 427.88 415.72 434.36 420.04 439.02 C 424.19 443.58 432.12 444.01 436.53 439.59 C 440.72 435.45 442.27 429.49 443.36 423.89 C 445.23 412.78 445.11 401.41 444.28 390.21 C 443.42 382.93 442.36 375.13 437.76 369.15 C 434.95 365.41 429.77 364.02 425.38 365.46 Z" />
<path fill="#000000" opacity="1.00" d=" M 519.45 346.73 C 529.75 345.36 540.96 346.34 549.78 352.26 C 557.62 357.45 562.45 366.10 565.00 374.96 C 568.42 386.97 568.86 399.62 568.12 412.01 C 567.18 424.92 564.05 438.39 555.49 448.49 C 549.45 455.81 540.35 460.23 530.96 461.16 C 520.06 462.31 508.15 460.70 499.36 453.67 C 491.15 447.24 486.82 437.17 484.79 427.19 C 482.42 415.28 482.32 402.98 483.64 390.94 C 485.05 379.30 488.56 367.34 496.61 358.49 C 502.45 351.93 510.80 347.91 519.45 346.73 M 522.36 365.48 C 519.10 366.49 516.57 369.07 514.93 371.98 C 511.36 378.37 510.35 385.79 509.69 392.98 C 509.09 402.77 508.97 412.66 510.41 422.38 C 511.43 428.26 512.89 434.50 517.07 439.00 C 521.21 443.57 529.14 444.01 533.56 439.61 C 537.77 435.46 539.32 429.47 540.42 423.85 C 542.24 413.01 542.13 401.94 541.40 391.01 C 540.62 383.69 539.60 375.94 535.29 369.76 C 532.53 365.63 527.03 363.89 522.36 365.48 Z" />
<path fill="#000000" opacity="1.00" d=" M 587.63 355.91 C 604.55 352.54 621.54 349.41 638.49 346.15 C 638.49 377.48 638.46 408.80 638.50 440.13 C 646.60 440.13 654.69 440.11 662.79 440.14 C 662.79 446.62 662.80 453.11 662.79 459.60 C 637.88 459.60 612.98 459.60 588.07 459.60 C 588.05 453.11 588.06 446.62 588.07 440.13 C 596.22 440.12 604.37 440.14 612.53 440.12 C 612.54 416.97 612.53 393.82 612.54 370.67 C 604.16 372.38 595.79 374.13 587.41 375.79 C 587.59 369.17 587.08 362.50 587.63 355.91 Z" />
<path fill="#000000" opacity="1.00" d=" M 202.76 348.00 C 224.57 348.00 246.38 348.00 268.18 348.01 C 268.19 354.69 268.19 361.38 268.18 368.07 C 253.79 368.08 239.41 368.07 225.02 368.07 C 225.02 375.51 225.02 382.96 225.02 390.40 C 234.93 389.61 245.32 389.56 254.61 393.56 C 262.94 397.04 269.82 404.19 272.22 412.98 C 275.46 424.78 273.10 438.45 264.65 447.57 C 257.22 456.05 246.01 460.25 234.99 461.19 C 223.01 462.12 210.66 461.14 199.39 456.75 C 199.38 449.75 199.39 442.74 199.38 435.74 C 209.25 441.30 220.95 444.02 232.20 442.06 C 238.21 440.99 244.17 437.22 246.17 431.21 C 247.84 425.98 247.35 419.63 243.57 415.41 C 240.09 411.59 234.85 410.09 229.90 409.42 C 220.86 408.31 211.77 409.43 202.76 410.34 C 202.76 389.56 202.76 368.78 202.76 348.00 Z" />
<path fill="#000000" opacity="1.00" d=" M 251.53 504.46 C 259.89 498.02 272.98 497.89 280.92 505.09 C 283.80 507.88 285.09 511.80 286.40 515.49 C 283.08 516.11 279.77 516.73 276.45 517.32 C 275.07 513.78 272.67 510.34 268.91 509.10 C 264.16 507.19 258.56 509.80 256.13 514.10 C 253.71 518.27 253.44 523.30 253.83 528.00 C 254.11 531.49 254.78 535.18 257.07 537.96 C 260.32 541.68 266.19 542.91 270.56 540.50 C 274.11 538.74 275.30 534.67 277.05 531.42 C 280.20 532.34 283.35 533.28 286.50 534.22 C 284.87 539.62 282.26 545.30 277.01 548.02 C 268.03 553.47 255.60 551.14 248.70 543.41 C 244.11 538.49 242.94 531.46 242.84 524.98 C 242.91 517.43 245.33 509.24 251.53 504.46 Z" />
<path fill="#000000" opacity="1.00" d=" M 294.26 500.80 C 306.52 500.74 318.77 500.71 331.03 500.74 C 331.03 503.57 331.03 506.41 331.03 509.25 C 322.29 509.34 313.55 509.34 304.81 509.34 C 304.79 512.95 304.79 516.58 304.81 520.20 C 312.92 520.27 321.03 520.32 329.14 520.33 C 329.16 523.37 329.11 526.42 329.00 529.46 C 320.93 529.48 312.86 529.45 304.79 529.48 C 304.79 533.54 304.79 537.60 304.81 541.66 C 313.95 541.74 323.10 541.62 332.25 541.91 C 332.22 544.87 332.19 547.83 332.16 550.80 C 319.53 550.80 306.89 550.80 294.26 550.79 C 294.26 534.13 294.26 517.47 294.26 500.80 Z" />
<path fill="#000000" opacity="1.00" d=" M 339.95 500.74 C 349.98 500.88 360.04 500.26 370.04 501.19 C 378.99 502.27 383.58 513.85 379.28 521.34 C 377.23 525.46 373.04 528.01 368.61 528.85 C 376.11 534.35 380.09 543.01 384.67 550.82 C 380.56 550.79 376.44 550.80 372.33 550.79 C 368.39 544.73 364.68 538.47 360.08 532.87 C 357.93 529.97 354.00 530.24 350.81 529.89 C 350.75 536.88 350.85 543.87 350.53 550.86 C 347.00 550.87 343.47 550.87 339.95 550.87 C 339.95 534.16 339.94 517.45 339.95 500.74 M 350.71 509.34 C 350.73 513.26 350.74 517.19 350.75 521.12 C 355.81 521.01 360.92 521.48 365.94 520.63 C 370.53 519.94 371.55 512.58 367.43 510.57 C 362.15 508.28 356.27 509.56 350.71 509.34 Z" />
<path fill="#000000" opacity="1.00" d=" M 387.06 509.27 C 386.93 506.42 386.93 503.56 387.47 500.75 C 400.58 500.78 413.70 500.68 426.81 500.80 C 426.82 503.62 426.82 506.44 426.82 509.27 C 421.93 509.26 417.04 509.26 412.14 509.26 C 412.13 523.10 412.14 536.94 412.14 550.78 C 408.72 550.83 405.31 550.89 401.90 550.95 C 401.50 537.06 401.73 523.16 401.67 509.27 C 396.80 509.26 391.93 509.27 387.06 509.27 Z" />
<path fill="#000000" opacity="1.00" d=" M 431.41 550.86 C 431.30 534.15 431.27 517.44 431.39 500.73 C 434.90 500.73 438.42 500.73 441.94 500.74 C 442.03 517.45 442.02 534.16 441.91 550.87 C 438.41 550.87 434.91 550.87 431.41 550.86 Z" />
<path fill="#000000" opacity="1.00" d=" M 450.69 500.81 C 462.16 500.63 473.64 500.77 485.12 500.81 C 485.11 503.62 485.10 506.44 485.09 509.26 C 477.17 509.27 469.25 509.25 461.34 509.27 C 461.33 512.93 461.33 516.60 461.33 520.27 C 468.17 520.27 475.00 520.17 481.83 520.45 C 481.81 523.43 481.77 526.41 481.74 529.40 C 474.94 529.40 468.14 529.39 461.35 529.40 C 461.35 536.55 461.33 543.69 461.34 550.83 C 457.80 550.79 454.27 550.79 450.73 550.80 C 450.60 534.13 450.59 517.47 450.69 500.81 Z" />
<path fill="#000000" opacity="1.00" d=" M 492.29 500.80 C 495.85 500.81 499.42 500.80 502.98 500.74 C 502.99 517.42 502.98 534.11 502.97 550.80 C 499.41 550.81 495.85 550.80 492.29 550.75 C 492.29 534.10 492.29 517.45 492.29 500.80 Z" />
<path fill="#000000" opacity="1.00" d=" M 511.67 500.74 C 523.85 500.68 536.03 500.81 548.21 500.80 C 548.21 503.62 548.21 506.44 548.21 509.26 C 539.46 509.27 530.70 509.26 521.95 509.27 C 521.95 512.95 521.97 516.64 522.01 520.33 C 530.15 520.34 538.29 520.31 546.44 520.34 C 546.42 523.38 546.37 526.42 546.26 529.46 C 538.15 529.48 530.04 529.48 521.94 529.39 C 521.93 533.50 521.95 537.61 521.99 541.73 C 531.05 541.77 540.11 541.69 549.17 541.67 C 549.26 544.70 549.30 547.75 549.26 550.80 C 536.73 550.80 524.20 550.80 511.67 550.80 C 511.66 534.11 511.66 517.42 511.67 500.74 Z" />
<path fill="#000000" opacity="1.00" d=" M 557.01 500.80 C 565.01 500.70 573.01 500.67 581.00 500.83 C 589.37 500.92 596.23 508.14 597.87 516.02 C 599.38 523.98 599.61 532.62 596.17 540.14 C 593.18 546.61 586.17 550.73 579.12 550.83 C 571.76 551.01 564.39 550.72 557.03 550.80 C 557.00 534.13 557.01 517.46 557.01 500.80 M 567.73 509.36 C 567.73 520.14 567.70 530.92 567.79 541.70 C 572.73 541.61 577.92 542.38 582.64 540.55 C 586.95 538.56 587.76 533.24 587.97 529.02 C 588.10 523.43 588.70 516.84 584.49 512.48 C 579.89 508.47 573.35 509.39 567.73 509.36 Z" />
</g>
</svg>
