<?xml version="1.0" encoding="UTF-8" ?>
<!DOCTYPE svg PUBLIC "-//W3C//DTD SVG 1.1//EN" "http://www.w3.org/Graphics/SVG/1.1/DTD/svg11.dtd">
<svg width="630pt" height="634pt" viewBox="0 0 630 634" version="1.1" xmlns="http://www.w3.org/2000/svg">
<g id="#feffffff">
<path fill="#feffff" opacity="1.00" d=" M 299.56 39.33 C 302.66 39.26 305.77 39.25 308.88 39.29 C 311.82 47.57 313.96 56.16 317.58 64.19 C 320.90 56.03 323.83 47.73 326.85 39.45 C 330.03 39.43 333.21 39.48 336.40 39.58 C 336.43 51.29 336.49 63.01 336.08 74.72 C 333.64 74.73 331.20 74.74 328.76 74.76 C 328.06 66.73 329.78 58.76 329.41 50.72 C 325.79 58.57 323.15 66.82 319.53 74.67 C 317.92 74.63 316.31 74.59 314.71 74.53 C 311.99 67.37 310.41 59.73 306.73 52.97 C 305.96 60.15 306.76 67.37 306.50 74.57 C 304.11 74.58 301.71 74.59 299.32 74.60 C 299.25 62.84 299.57 51.08 299.56 39.33 Z" />
<path fill="#feffff" opacity="1.00" d=" M 245.47 47.83 C 253.23 46.55 260.82 44.46 268.56 43.14 C 268.99 44.90 269.40 46.66 269.82 48.43 C 264.56 50.21 258.97 50.58 253.67 52.17 C 254.05 54.68 254.45 57.18 254.78 59.70 C 259.55 59.73 264.10 58.14 268.80 57.63 C 270.08 58.98 269.49 61.15 269.86 62.85 C 265.39 63.87 260.91 64.87 256.47 65.99 C 257.06 68.94 257.68 71.89 258.31 74.83 C 263.81 74.27 269.12 72.49 274.66 72.16 C 275.03 73.89 275.38 75.62 275.73 77.35 C 268.20 79.73 260.31 80.57 252.64 82.32 C 249.84 70.92 247.89 59.32 245.47 47.83 Z" />
<path fill="#feffff" opacity="1.00" d=" M 341.96 75.37 C 348.15 64.60 354.75 54.09 361.14 43.44 C 363.31 43.65 365.46 44.00 367.61 44.41 C 369.05 50.62 369.98 56.93 371.01 63.22 C 371.99 69.33 373.55 75.38 373.77 81.59 C 371.38 81.04 368.99 80.44 366.63 79.77 C 366.37 77.23 366.03 74.69 365.65 72.17 C 361.66 71.17 357.59 70.14 353.45 70.27 C 351.41 71.88 350.50 74.52 349.10 76.65 C 346.71 76.25 344.33 75.80 341.96 75.37 M 356.85 64.39 C 359.41 64.83 361.96 65.28 364.54 65.61 C 364.09 61.41 363.47 57.22 362.68 53.07 C 360.51 56.72 358.32 60.39 356.85 64.39 Z" />
<path fill="#feffff" opacity="1.00" d=" M 391.69 50.12 C 394.05 50.50 396.31 51.31 398.47 52.33 C 400.26 60.94 401.78 69.63 404.23 78.08 C 407.17 71.27 409.62 64.26 412.12 57.28 C 414.46 57.77 416.74 58.53 418.99 59.37 C 417.86 63.87 415.75 68.03 414.26 72.40 C 411.94 79.12 409.53 85.81 406.93 92.43 C 404.74 91.77 402.55 91.12 400.37 90.48 C 398.10 82.01 396.89 73.29 394.52 64.84 C 391.22 71.27 389.16 78.23 386.51 84.94 C 384.20 84.62 382.00 83.87 379.87 82.96 C 383.43 71.89 387.59 61.01 391.69 50.12 Z" />
<path fill="#feffff" opacity="1.00" d=" M 211.71 63.63 C 214.37 56.49 223.07 52.72 230.22 54.89 C 233.72 56.15 235.97 59.28 237.94 62.26 C 235.97 63.10 234.05 64.15 231.93 64.55 C 229.62 63.87 228.33 61.17 225.92 60.61 C 222.11 60.15 217.80 62.92 217.74 67.01 C 218.09 70.84 219.33 74.55 220.84 78.08 C 221.97 80.57 223.35 83.33 226.07 84.39 C 228.89 84.96 231.96 84.07 233.94 81.96 C 235.09 80.02 235.17 77.67 235.63 75.51 C 237.55 74.74 239.46 73.95 241.38 73.16 C 245.16 81.72 236.63 90.95 227.99 90.68 C 221.43 91.33 215.87 86.16 213.79 80.30 C 211.90 75.03 209.60 69.19 211.71 63.63 Z" />
<path fill="#feffff" opacity="1.00" d=" M 189.05 69.47 C 191.09 68.34 193.14 67.24 195.21 66.15 C 198.43 71.57 201.01 77.35 204.15 82.82 C 206.78 87.91 209.82 92.82 211.86 98.20 C 209.87 99.06 207.90 99.95 205.93 100.87 C 197.70 96.85 190.16 91.59 182.16 87.16 C 185.32 94.25 189.61 100.78 192.44 108.03 C 190.53 109.11 188.57 110.12 186.54 110.96 C 181.22 100.37 175.17 90.15 170.13 79.43 C 172.10 78.44 174.07 77.44 176.03 76.42 C 184.03 80.91 191.65 86.05 199.82 90.26 C 196.42 83.23 192.41 76.52 189.05 69.47 Z" />
<path fill="#feffff" opacity="1.00" d=" M 412.86 94.32 C 422.19 86.12 431.50 77.87 441.17 70.07 C 443.09 71.01 444.98 72.03 446.85 73.08 C 445.00 85.37 443.75 97.77 441.58 110.01 C 439.38 109.12 437.27 108.04 435.24 106.82 C 435.44 103.99 435.66 101.15 435.79 98.31 C 432.39 96.28 428.89 94.40 425.21 92.93 C 423.19 94.66 421.12 96.32 419.02 97.96 C 416.82 97.02 414.70 95.86 412.86 94.32 M 430.10 88.15 C 432.36 89.74 434.79 91.10 437.38 92.09 C 438.27 88.03 439.19 83.97 439.66 79.83 C 436.18 82.25 433.04 85.11 430.10 88.15 Z" />
<path fill="#feffff" opacity="1.00" d=" M 458.57 94.56 C 462.13 90.29 468.04 88.11 473.45 89.80 C 478.21 91.52 482.58 95.20 484.11 100.14 C 485.14 103.53 483.92 106.98 482.66 110.12 C 480.83 109.07 479.08 107.89 477.38 106.66 C 477.39 104.48 477.65 102.26 477.25 100.10 C 475.81 96.56 471.02 94.07 467.62 96.54 C 463.20 99.75 459.52 104.25 457.56 109.36 C 455.96 114.79 461.19 118.87 465.98 119.71 C 467.31 117.94 468.64 116.17 469.90 114.35 C 468.39 113.07 466.79 111.89 465.43 110.45 C 464.93 108.59 466.96 107.46 467.84 106.07 C 471.37 108.59 475.10 110.84 478.44 113.61 C 478.48 113.91 478.56 114.49 478.60 114.79 C 476.07 118.45 473.42 122.09 470.38 125.35 C 462.35 127.56 453.44 121.62 450.88 113.95 C 448.67 106.48 454.00 99.84 458.57 94.56 Z" />
<path fill="#feffff" opacity="1.00" d=" M 145.18 97.77 C 147.32 96.12 149.97 92.72 152.79 95.17 C 162.51 101.43 172.19 107.76 181.88 114.08 C 179.97 115.61 178.00 117.06 176.01 118.50 C 173.73 117.10 171.45 115.69 169.12 114.37 C 165.74 116.70 162.45 119.15 159.36 121.87 C 160.12 124.53 160.83 127.21 161.46 129.91 C 159.51 131.30 157.56 132.69 155.54 133.98 C 152.13 121.90 148.75 109.81 145.18 97.77 M 153.85 103.86 C 154.68 107.83 155.85 111.72 157.13 115.57 C 159.43 114.08 161.62 112.43 163.77 110.72 C 160.76 108.03 157.38 105.79 153.85 103.86 Z" />
<path fill="#feffff" opacity="1.00" d=" M 473.77 135.03 C 482.19 126.68 489.94 117.61 498.91 109.84 C 504.43 115.33 510.09 120.67 515.71 126.06 C 514.44 127.38 513.17 128.70 511.90 130.01 C 507.35 126.95 503.96 122.56 499.85 118.98 C 497.80 120.83 495.87 122.81 494.06 124.88 C 497.13 128.20 500.58 131.14 503.85 134.26 C 502.57 135.60 501.29 136.93 500.01 138.26 C 496.24 135.44 493.37 131.57 489.44 128.96 C 487.32 131.24 485.24 133.55 483.23 135.92 C 486.81 139.83 490.92 143.21 494.53 147.09 C 493.28 148.62 491.89 150.03 490.30 151.20 C 484.88 145.72 479.10 140.60 473.77 135.03 Z" />
<path fill="#feffff" opacity="1.00" d=" M 124.57 117.52 C 129.18 115.11 134.43 117.95 137.10 121.87 C 139.36 124.56 138.53 128.28 138.39 131.47 C 143.12 133.62 148.25 134.61 153.08 136.48 C 151.49 138.47 149.65 140.25 147.74 141.93 C 143.04 140.82 138.60 138.85 133.97 137.49 C 132.68 138.92 131.41 140.36 130.20 141.84 C 133.19 144.90 136.18 147.96 139.15 151.04 C 137.47 152.74 135.75 154.42 134.00 156.06 C 125.70 147.70 117.44 139.30 109.09 130.99 C 114.10 126.37 118.33 120.57 124.57 117.52 M 118.75 130.00 C 120.89 132.64 123.31 135.03 125.99 137.11 C 128.67 134.84 131.22 132.31 132.64 129.03 C 131.60 126.53 129.91 124.03 127.00 123.64 C 123.52 124.60 121.26 127.63 118.75 130.00 Z" />
<path fill="#feffff" opacity="1.00" d=" M 494.85 155.34 C 504.33 148.48 513.61 141.34 523.15 134.57 C 525.35 136.78 527.30 139.23 528.92 141.89 C 524.12 149.36 518.51 156.28 513.99 163.92 C 522.80 161.93 531.05 157.93 539.95 156.24 C 541.85 158.58 543.72 160.98 545.14 163.67 C 535.71 170.78 526.05 177.58 516.75 184.85 C 515.12 183.12 513.69 181.22 512.42 179.21 C 518.48 174.27 525.19 170.18 531.13 165.09 C 522.88 166.55 515.29 170.36 507.08 171.96 C 506.12 170.87 505.17 169.79 504.22 168.71 C 507.96 160.96 513.61 154.35 517.95 146.94 C 511.23 151.19 505.44 156.68 498.95 161.25 C 497.36 159.44 495.94 157.48 494.85 155.34 Z" />
<path fill="#feffff" opacity="1.00" d=" M 96.28 146.13 C 97.75 144.32 99.27 142.55 100.86 140.84 C 107.50 145.96 114.36 150.83 120.79 156.21 C 125.61 160.07 125.67 167.47 122.23 172.25 C 118.81 177.89 111.11 182.06 104.97 178.01 C 97.85 173.07 91.03 167.67 84.38 162.12 C 85.76 160.44 87.14 158.75 88.50 157.05 C 96.02 161.01 101.75 167.63 109.08 171.90 C 113.30 174.53 118.49 169.52 117.78 165.13 C 117.87 162.75 115.56 161.41 114.06 159.94 C 108.17 155.29 101.91 151.12 96.28 146.13 Z" />
<path fill="#feffff" opacity="1.00" d=" M 78.70 176.84 C 81.70 175.70 85.10 176.20 87.91 177.66 C 86.45 179.94 85.32 183.19 82.05 183.06 C 76.68 182.88 73.56 191.38 78.97 193.72 C 83.98 191.37 87.49 186.82 92.44 184.41 C 97.13 182.02 103.46 184.64 105.35 189.49 C 107.56 197.11 102.87 205.67 95.52 208.37 C 92.83 209.11 90.02 208.57 87.30 208.36 C 87.13 205.54 88.62 201.51 91.99 201.73 C 96.66 202.26 100.62 197.14 99.43 192.73 C 98.36 191.11 96.11 189.84 94.29 191.04 C 89.59 193.75 86.30 198.65 80.94 200.24 C 76.00 201.64 70.79 197.77 69.69 192.98 C 68.83 186.45 72.65 179.51 78.70 176.84 Z" />
<path fill="#feffff" opacity="1.00" d=" M 544.47 179.51 C 547.19 177.97 550.05 176.67 552.93 175.45 C 556.55 182.28 560.08 189.16 563.60 196.04 C 561.99 196.94 560.38 197.84 558.78 198.76 C 555.80 194.31 553.55 189.44 550.84 184.83 C 548.19 185.90 545.67 187.25 543.28 188.80 C 545.44 192.83 547.72 196.80 549.74 200.90 C 548.12 201.78 546.50 202.67 544.89 203.56 C 542.42 199.60 540.27 195.45 537.91 191.42 C 534.95 192.67 532.10 194.15 529.37 195.84 C 531.84 200.81 534.81 205.55 536.93 210.70 C 535.15 211.48 533.36 212.24 531.54 212.92 C 528.05 205.95 524.36 199.09 520.99 192.07 C 528.69 187.65 536.75 183.89 544.47 179.51 Z" />
<path fill="#feffff" opacity="1.00" d=" M 552.38 212.36 C 557.64 210.49 562.81 208.25 568.30 207.13 C 568.96 209.39 569.67 211.65 570.39 213.90 C 565.03 221.03 558.62 227.32 553.63 234.74 C 560.96 232.45 568.05 229.48 575.34 227.07 C 576.22 229.28 576.99 231.55 577.64 233.85 C 566.30 237.56 555.33 242.30 543.93 245.82 C 543.26 243.57 542.60 241.33 542.01 239.07 C 547.09 231.68 553.56 225.40 558.70 218.06 C 551.21 220.01 544.16 223.27 536.82 225.66 C 536.00 223.41 535.19 221.17 534.41 218.91 C 540.28 216.40 546.45 214.71 552.38 212.36 Z" />
<path fill="#feffff" opacity="1.00" d=" M 62.71 208.85 C 65.24 207.35 68.24 207.68 71.03 207.96 C 70.61 210.04 70.02 212.08 69.32 214.09 C 66.86 214.79 63.73 214.99 62.42 217.57 C 60.65 220.13 60.93 225.56 65.02 225.33 C 70.34 223.21 72.66 217.32 77.46 214.44 C 82.07 211.56 89.01 213.68 91.01 218.82 C 93.38 225.55 90.07 233.33 84.38 237.31 C 81.65 239.36 78.06 238.68 74.89 238.64 C 75.36 236.72 75.82 234.75 76.82 233.02 C 79.26 231.74 82.80 231.93 84.15 229.12 C 85.56 226.75 86.72 222.54 83.75 220.93 C 82.49 220.01 80.65 220.35 79.60 221.43 C 75.29 224.91 72.28 230.13 66.93 232.23 C 62.46 233.57 57.34 230.80 55.77 226.45 C 53.89 219.90 56.66 212.20 62.71 208.85 Z" />
<path fill="#feffff" opacity="1.00" d=" M 575.37 244.96 C 577.19 244.70 579.02 244.44 580.85 244.21 C 582.69 253.17 585.25 262.10 585.62 271.27 C 583.88 271.38 582.14 271.51 580.41 271.64 C 579.69 268.49 579.10 265.32 578.45 262.17 C 568.88 263.52 559.49 266.00 549.92 267.33 C 547.96 265.60 548.65 262.48 548.21 260.12 C 557.75 258.42 567.29 256.74 576.77 254.73 C 576.35 251.46 575.72 248.23 575.37 244.96 Z" />
<path fill="#feffff" opacity="1.00" d=" M 47.24 249.42 C 59.50 248.19 71.75 246.73 84.01 245.46 C 83.63 247.82 83.24 250.18 82.77 252.52 C 80.09 252.85 77.40 253.21 74.72 253.55 C 73.74 257.52 72.63 261.47 72.21 265.54 C 74.54 267.60 79.79 268.66 78.46 272.70 C 78.22 274.11 77.85 275.49 77.52 276.89 C 66.65 270.42 56.27 263.15 45.92 255.89 C 46.35 253.73 46.78 251.57 47.24 249.42 M 56.47 254.87 C 59.44 257.79 62.87 260.19 66.63 261.97 C 67.23 259.39 67.79 256.80 68.41 254.22 C 64.43 254.30 60.44 254.44 56.47 254.87 Z" />
<path fill="#feffff" opacity="1.00" d=" M 40.63 294.75 C 46.84 297.48 52.50 301.27 58.41 304.56 C 63.40 307.62 69.48 305.92 74.99 306.39 C 75.20 308.78 75.23 311.19 75.11 313.59 C 70.50 313.82 65.75 313.06 61.25 314.20 C 54.08 317.43 47.82 322.39 40.58 325.51 C 40.49 322.98 40.45 320.45 40.44 317.92 C 45.07 315.19 50.01 312.98 54.50 309.99 C 49.89 307.24 44.96 305.04 40.42 302.17 C 40.47 299.69 40.53 297.22 40.63 294.75 Z" />
<path fill="#feffff" opacity="1.00" d=" M 553.87 303.86 C 555.69 299.66 560.07 297.03 564.61 297.04 C 564.57 299.11 564.53 301.18 564.47 303.25 C 562.37 304.51 559.63 305.53 558.88 308.13 C 558.11 311.01 558.53 314.50 561.12 316.36 C 562.86 316.83 564.87 316.57 565.90 314.91 C 569.09 309.99 569.50 303.23 574.54 299.58 C 578.72 296.92 584.94 298.09 587.59 302.42 C 590.58 306.95 590.33 313.24 588.07 318.03 C 586.34 321.68 582.28 323.13 578.59 323.84 C 578.52 321.85 578.48 319.87 578.45 317.89 C 580.18 316.52 582.17 315.35 583.45 313.49 C 584.02 310.67 584.27 306.61 580.97 305.39 C 580.26 305.45 578.84 305.58 578.12 305.65 C 574.28 309.88 574.56 316.39 570.55 320.55 C 566.79 325.26 558.59 324.64 555.21 319.80 C 551.97 315.25 551.71 308.92 553.87 303.86 Z" />
<path fill="#feffff" opacity="1.00" d=" M 41.24 333.23 C 43.08 333.22 44.93 333.21 46.78 333.22 C 47.24 336.34 47.55 339.47 47.96 342.60 C 57.56 341.93 66.95 339.28 76.60 339.21 C 76.94 341.50 77.28 343.79 77.59 346.09 C 68.21 347.72 58.69 348.30 49.27 349.67 C 49.41 353.19 49.62 356.70 49.76 360.23 C 47.90 359.99 44.36 361.76 43.97 358.94 C 43.00 350.38 41.34 341.87 41.24 333.23 Z" />
<path fill="#feffff" opacity="1.00" d=" M 565.00 340.31 C 572.95 338.18 580.36 334.37 588.39 332.47 C 588.34 335.11 588.09 337.74 587.55 340.33 C 582.12 341.99 576.58 343.29 571.18 345.03 C 575.83 348.60 580.93 351.52 585.72 354.91 C 585.46 357.35 585.15 359.79 584.73 362.22 C 577.20 358.44 571.38 351.96 563.83 348.23 C 559.44 347.18 554.85 347.29 550.45 346.21 C 550.71 343.86 551.02 341.51 551.36 339.17 C 555.94 339.16 560.43 340.40 565.00 340.31 Z" />
<path fill="#feffff" opacity="1.00" d=" M 62.46 366.71 C 68.63 365.48 74.66 363.38 80.98 363.06 C 81.54 365.18 82.12 367.29 82.75 369.39 C 77.39 371.28 71.75 372.12 66.25 373.45 C 60.20 374.76 54.22 376.55 48.01 376.92 C 47.56 374.83 47.08 372.76 46.55 370.70 C 51.68 368.76 57.14 367.99 62.46 366.71 Z" />
<path fill="#feffff" opacity="1.00" d=" M 550.65 364.67 C 553.12 363.11 556.13 363.44 558.91 363.29 C 558.68 365.25 558.44 367.21 558.21 369.18 C 555.47 370.23 551.79 370.51 550.46 373.55 C 548.92 376.41 548.61 380.95 552.07 382.57 C 553.55 382.72 555.07 382.26 556.05 381.08 C 559.94 377.24 562.12 371.57 567.34 369.18 C 572.54 366.57 578.98 370.65 580.20 376.03 C 581.27 381.46 579.81 387.74 575.44 391.39 C 572.74 393.61 569.14 393.69 565.83 393.61 C 566.33 391.60 566.85 389.60 567.39 387.60 C 570.52 386.53 574.49 384.99 574.46 381.00 C 575.13 378.31 573.10 376.42 570.99 375.24 C 565.05 378.19 563.66 385.68 558.00 388.96 C 552.97 391.34 546.52 388.91 544.27 383.81 C 541.57 377.03 544.41 368.47 550.65 364.67 Z" />
<path fill="#feffff" opacity="1.00" d=" M 79.13 378.20 C 81.00 377.76 82.89 377.37 84.78 377.03 C 87.38 383.96 89.58 391.05 91.72 398.14 C 83.12 401.09 74.45 403.82 65.84 406.75 C 63.13 407.70 60.36 408.49 57.51 408.86 C 56.96 406.71 56.44 404.55 56.07 402.37 C 65.20 399.09 74.47 396.21 83.61 392.95 C 82.28 387.98 80.42 383.17 79.13 378.20 Z" />
<path fill="#feffff" opacity="1.00" d=" M 532.86 406.93 C 533.70 404.68 534.69 402.50 535.78 400.38 C 544.82 404.10 553.55 408.56 562.71 411.97 C 564.15 409.06 565.48 406.10 566.68 403.08 C 568.80 403.30 570.82 403.98 572.77 404.82 C 569.19 413.62 565.37 422.32 561.43 430.96 C 559.27 430.59 557.27 429.69 555.62 428.25 C 557.11 425.22 558.47 422.12 559.69 418.98 C 550.84 414.75 541.55 411.48 532.86 406.93 Z" />
<path fill="#feffff" opacity="1.00" d=" M 68.25 431.04 C 76.69 422.22 84.24 412.54 93.17 404.23 C 95.81 404.42 95.92 408.03 97.10 409.89 C 95.48 411.91 93.85 413.93 92.21 415.94 C 93.83 419.62 95.59 423.24 97.78 426.63 C 100.25 426.39 102.71 426.08 105.17 425.69 C 106.74 427.71 108.06 429.92 109.04 432.30 C 100.78 433.55 92.42 434.03 84.18 435.40 C 79.87 436.13 75.53 436.70 71.16 436.87 C 70.17 434.94 69.20 432.99 68.25 431.04 M 78.12 429.87 C 82.49 429.45 86.81 428.59 91.10 427.68 C 90.18 425.06 88.87 422.59 87.29 420.31 C 84.19 423.45 81.05 426.57 78.12 429.87 Z" />
<path fill="#feffff" opacity="1.00" d=" M 512.19 442.31 C 516.61 435.69 520.68 428.85 524.94 422.14 C 535.09 428.24 545.18 434.50 554.93 441.24 C 551.34 448.10 547.06 454.59 542.71 461.00 C 541.24 459.77 538.43 459.34 538.29 457.12 C 540.63 452.55 543.87 448.51 546.22 443.95 C 544.09 442.32 541.82 440.87 539.33 439.88 C 536.59 443.85 534.10 448.00 531.15 451.84 C 529.82 450.63 527.06 450.27 527.13 448.09 C 529.09 444.10 531.99 440.66 534.23 436.82 C 531.98 434.58 529.36 432.71 526.26 431.87 C 523.07 436.48 520.39 441.44 516.97 445.90 C 515.33 444.76 513.72 443.58 512.19 442.31 Z" />
<path fill="#feffff" opacity="1.00" d=" M 101.28 443.27 C 104.24 441.06 108.00 438.95 111.81 440.08 C 117.24 441.22 121.28 445.68 123.44 450.59 C 125.09 454.06 124.98 458.50 122.52 461.57 C 120.16 464.54 116.97 466.69 113.97 468.97 C 109.27 472.41 104.70 476.04 99.87 479.30 C 98.44 477.56 97.08 475.77 95.80 473.94 C 102.01 467.99 109.61 463.74 115.91 457.91 C 120.11 454.02 115.70 447.51 110.96 446.74 C 108.62 447.00 106.67 448.48 104.80 449.77 C 99.00 454.16 93.45 458.90 87.31 462.82 C 85.98 460.91 84.67 458.99 83.38 457.07 C 89.14 452.20 95.30 447.86 101.28 443.27 Z" />
<path fill="#feffff" opacity="1.00" d=" M 504.60 453.04 C 505.98 451.27 507.44 449.56 508.98 447.94 C 513.41 451.14 517.25 455.06 521.39 458.63 C 526.08 463.03 531.24 466.93 535.52 471.76 C 533.75 473.91 531.94 476.02 529.98 478.00 C 521.53 474.90 513.20 471.48 504.77 468.34 C 508.82 476.60 513.58 484.49 517.43 492.86 C 515.67 494.83 513.89 496.78 512.05 498.68 C 503.01 491.31 494.23 483.63 485.34 476.10 C 486.86 474.37 488.41 472.67 489.96 470.98 C 496.22 475.61 501.65 481.26 507.84 485.99 C 504.51 479.21 500.44 472.83 496.87 466.19 C 495.22 464.13 497.12 461.05 499.18 460.37 C 507.05 462.36 514.28 466.37 522.09 468.66 C 516.56 463.11 510.14 458.57 504.60 453.04 Z" />
<path fill="#feffff" opacity="1.00" d=" M 135.58 461.95 C 137.76 462.28 140.29 462.71 141.38 464.92 C 141.48 466.81 140.89 468.78 141.40 470.64 C 143.89 473.95 147.59 476.64 148.36 480.97 C 149.55 486.56 146.64 491.96 142.96 495.97 C 139.27 499.97 134.62 503.69 129.00 504.22 C 121.82 504.42 115.51 498.66 113.72 491.94 C 112.43 486.83 115.70 482.25 117.98 477.97 C 121.97 472.58 128.06 468.52 134.82 467.74 C 135.10 465.81 135.32 463.87 135.58 461.95 M 132.59 475.61 C 128.03 478.60 124.38 482.81 121.15 487.16 C 118.01 491.68 122.84 498.11 127.98 497.39 C 132.02 496.70 134.98 493.51 137.71 490.70 C 139.59 488.52 141.94 486.11 141.72 483.00 C 142.03 478.45 137.09 473.80 132.59 475.61 Z" />
<path fill="#feffff" opacity="1.00" d=" M 296.12 541.35 C 320.32 517.67 343.94 493.40 368.06 469.64 C 374.55 475.69 380.62 482.16 386.97 488.34 C 364.72 511.28 341.70 533.49 319.21 556.21 C 311.48 563.83 303.98 571.69 296.08 579.15 C 280.26 563.42 264.46 547.67 248.73 531.85 C 254.84 525.33 261.14 518.95 267.70 512.89 C 277.20 522.35 286.54 531.98 296.12 541.35 Z" />
</g>
<g id="#3964a0ff">
<path fill="#3964a0" opacity="1.00" d=" M 218.99 27.00 C 250.84 16.48 284.40 10.61 318.00 11.35 C 344.72 10.95 371.29 15.32 397.08 22.08 C 430.06 31.21 461.59 45.74 489.60 65.42 C 520.08 86.36 546.76 112.78 567.89 143.14 C 590.95 176.50 607.23 214.61 614.75 254.49 C 622.81 294.88 622.05 336.92 613.14 377.10 C 597.52 447.79 554.27 511.50 495.60 553.61 C 479.17 565.44 461.62 575.72 443.25 584.20 C 436.52 587.18 429.81 590.27 422.74 592.37 C 422.38 564.25 422.69 536.12 422.58 508.00 C 422.82 501.77 422.02 495.44 422.93 489.27 C 446.24 474.93 467.40 456.78 483.73 434.73 C 507.72 402.80 522.76 363.90 524.77 323.90 C 525.73 315.31 525.88 306.60 524.88 298.00 C 522.97 259.93 509.20 222.81 487.27 191.75 C 458.20 150.65 413.81 120.58 364.74 109.18 C 325.38 99.94 283.33 102.22 245.30 116.04 C 181.98 138.28 131.33 193.18 114.18 258.06 C 106.90 286.17 105.31 315.80 110.12 344.47 C 115.92 381.51 132.70 416.53 157.08 444.92 C 172.24 462.12 189.65 477.60 209.55 489.10 C 209.86 523.41 209.74 557.73 209.65 592.04 C 189.87 585.28 171.21 575.48 153.47 564.50 C 97.46 529.45 53.19 475.75 30.25 413.72 C 16.00 374.50 10.12 332.30 12.90 290.67 C 14.89 266.33 19.38 242.14 27.03 218.92 C 40.49 177.42 63.96 139.48 93.68 107.66 C 128.20 71.28 171.55 43.32 218.99 27.00 M 299.56 39.33 C 299.57 51.08 299.25 62.84 299.32 74.60 C 301.71 74.59 304.11 74.58 306.50 74.57 C 306.76 67.37 305.96 60.15 306.73 52.97 C 310.41 59.73 311.99 67.37 314.71 74.53 C 316.31 74.59 317.92 74.63 319.53 74.67 C 323.15 66.82 325.79 58.57 329.41 50.72 C 329.78 58.76 328.06 66.73 328.76 74.76 C 331.20 74.74 333.64 74.73 336.08 74.72 C 336.49 63.01 336.43 51.29 336.40 39.58 C 333.21 39.48 330.03 39.43 326.85 39.45 C 323.83 47.73 320.90 56.03 317.58 64.19 C 313.96 56.16 311.82 47.57 308.88 39.29 C 305.77 39.25 302.66 39.26 299.56 39.33 M 245.47 47.83 C 247.89 59.32 249.84 70.92 252.64 82.32 C 260.31 80.57 268.20 79.73 275.73 77.35 C 275.38 75.62 275.03 73.89 274.66 72.16 C 269.12 72.49 263.81 74.27 258.31 74.83 C 257.68 71.89 257.06 68.94 256.47 65.99 C 260.91 64.87 265.39 63.87 269.86 62.85 C 269.49 61.15 270.08 58.98 268.80 57.63 C 264.10 58.14 259.55 59.73 254.78 59.70 C 254.45 57.18 254.05 54.68 253.67 52.17 C 258.97 50.58 264.56 50.21 269.82 48.43 C 269.40 46.66 268.99 44.90 268.56 43.14 C 260.82 44.46 253.23 46.55 245.47 47.83 M 341.96 75.37 C 344.33 75.80 346.71 76.25 349.10 76.65 C 350.50 74.52 351.41 71.88 353.45 70.27 C 357.59 70.14 361.66 71.17 365.65 72.17 C 366.03 74.69 366.37 77.23 366.63 79.77 C 368.99 80.44 371.38 81.04 373.77 81.59 C 373.55 75.38 371.99 69.33 371.01 63.22 C 369.98 56.93 369.05 50.62 367.61 44.41 C 365.46 44.00 363.31 43.65 361.14 43.44 C 354.75 54.09 348.15 64.60 341.96 75.37 M 391.69 50.12 C 387.59 61.01 383.43 71.89 379.87 82.96 C 382.00 83.87 384.20 84.62 386.51 84.94 C 389.16 78.23 391.22 71.27 394.52 64.84 C 396.89 73.29 398.10 82.01 400.37 90.48 C 402.55 91.12 404.74 91.77 406.93 92.43 C 409.53 85.81 411.94 79.12 414.26 72.40 C 415.75 68.03 417.86 63.87 418.99 59.37 C 416.74 58.53 414.46 57.77 412.12 57.28 C 409.62 64.26 407.17 71.27 404.23 78.08 C 401.78 69.63 400.26 60.94 398.47 52.33 C 396.31 51.31 394.05 50.50 391.69 50.12 M 211.71 63.63 C 209.60 69.19 211.90 75.03 213.79 80.30 C 215.87 86.16 221.43 91.33 227.99 90.68 C 236.63 90.95 245.16 81.72 241.38 73.16 C 239.46 73.95 237.55 74.74 235.63 75.51 C 235.17 77.67 235.09 80.02 233.94 81.96 C 231.96 84.07 228.89 84.96 226.07 84.39 C 223.35 83.33 221.97 80.57 220.84 78.08 C 219.33 74.55 218.09 70.84 217.74 67.01 C 217.80 62.92 222.11 60.15 225.92 60.61 C 228.33 61.17 229.62 63.87 231.93 64.55 C 234.05 64.15 235.97 63.10 237.94 62.26 C 235.97 59.28 233.72 56.15 230.22 54.89 C 223.07 52.72 214.37 56.49 211.71 63.63 M 189.05 69.47 C 192.41 76.52 196.42 83.23 199.82 90.26 C 191.65 86.05 184.03 80.91 176.03 76.42 C 174.07 77.44 172.10 78.44 170.13 79.43 C 175.17 90.15 181.22 100.37 186.54 110.96 C 188.57 110.12 190.53 109.11 192.44 108.03 C 189.61 100.78 185.32 94.25 182.16 87.16 C 190.16 91.59 197.70 96.85 205.93 100.87 C 207.90 99.95 209.87 99.06 211.86 98.20 C 209.82 92.82 206.78 87.91 204.15 82.82 C 201.01 77.35 198.43 71.57 195.21 66.15 C 193.14 67.24 191.09 68.34 189.05 69.47 M 412.86 94.32 C 414.70 95.86 416.82 97.02 419.02 97.96 C 421.12 96.32 423.19 94.66 425.21 92.93 C 428.89 94.40 432.39 96.28 435.79 98.31 C 435.66 101.15 435.44 103.99 435.24 106.82 C 437.27 108.04 439.38 109.12 441.58 110.01 C 443.75 97.77 445.00 85.37 446.85 73.08 C 444.98 72.03 443.09 71.01 441.17 70.07 C 431.50 77.87 422.19 86.12 412.86 94.32 M 458.57 94.56 C 454.00 99.84 448.67 106.48 450.88 113.95 C 453.44 121.62 462.35 127.56 470.38 125.35 C 473.42 122.09 476.07 118.45 478.60 114.79 C 478.56 114.49 478.48 113.91 478.44 113.61 C 475.10 110.84 471.37 108.59 467.84 106.07 C 466.96 107.46 464.93 108.59 465.43 110.45 C 466.79 111.89 468.39 113.07 469.90 114.35 C 468.64 116.17 467.31 117.94 465.98 119.71 C 461.19 118.87 455.96 114.79 457.56 109.36 C 459.52 104.25 463.20 99.75 467.62 96.54 C 471.02 94.07 475.81 96.56 477.25 100.10 C 477.65 102.26 477.39 104.48 477.38 106.66 C 479.08 107.89 480.83 109.07 482.66 110.12 C 483.92 106.98 485.14 103.53 484.11 100.14 C 482.58 95.20 478.21 91.52 473.45 89.80 C 468.04 88.11 462.13 90.29 458.57 94.56 M 145.18 97.77 C 148.75 109.81 152.13 121.90 155.54 133.98 C 157.56 132.69 159.51 131.30 161.46 129.91 C 160.83 127.21 160.12 124.53 159.36 121.87 C 162.45 119.15 165.74 116.70 169.12 114.37 C 171.45 115.69 173.73 117.10 176.01 118.50 C 178.00 117.06 179.97 115.61 181.88 114.08 C 172.19 107.76 162.51 101.43 152.79 95.17 C 149.97 92.72 147.32 96.12 145.18 97.77 M 473.77 135.03 C 479.10 140.60 484.88 145.72 490.30 151.20 C 491.89 150.03 493.28 148.62 494.53 147.09 C 490.92 143.21 486.81 139.83 483.23 135.92 C 485.24 133.55 487.32 131.24 489.44 128.96 C 493.37 131.57 496.24 135.44 500.01 138.26 C 501.29 136.93 502.57 135.60 503.85 134.26 C 500.58 131.14 497.13 128.20 494.06 124.88 C 495.87 122.81 497.80 120.83 499.85 118.98 C 503.96 122.56 507.35 126.95 511.90 130.01 C 513.17 128.70 514.44 127.38 515.71 126.06 C 510.09 120.67 504.43 115.33 498.91 109.84 C 489.94 117.61 482.19 126.68 473.77 135.03 M 124.57 117.52 C 118.33 120.57 114.10 126.37 109.09 130.99 C 117.44 139.30 125.70 147.70 134.00 156.06 C 135.75 154.42 137.47 152.74 139.15 151.04 C 136.18 147.96 133.19 144.90 130.20 141.84 C 131.41 140.36 132.68 138.92 133.97 137.49 C 138.60 138.85 143.04 140.82 147.74 141.93 C 149.65 140.25 151.49 138.47 153.08 136.48 C 148.25 134.61 143.12 133.62 138.39 131.47 C 138.53 128.28 139.36 124.56 137.10 121.87 C 134.43 117.95 129.18 115.11 124.57 117.52 M 494.85 155.34 C 495.94 157.48 497.36 159.44 498.95 161.25 C 505.44 156.68 511.23 151.19 517.95 146.94 C 513.61 154.35 507.96 160.96 504.22 168.71 C 505.17 169.79 506.12 170.87 507.08 171.96 C 515.29 170.36 522.88 166.55 531.13 165.09 C 525.19 170.18 518.48 174.27 512.42 179.21 C 513.69 181.22 515.12 183.12 516.75 184.85 C 526.05 177.58 535.71 170.78 545.14 163.67 C 543.72 160.98 541.85 158.58 539.95 156.24 C 531.05 157.93 522.80 161.93 513.99 163.92 C 518.51 156.28 524.12 149.36 528.92 141.89 C 527.30 139.23 525.35 136.78 523.15 134.57 C 513.61 141.34 504.33 148.48 494.85 155.34 M 96.28 146.13 C 101.91 151.12 108.17 155.29 114.06 159.94 C 115.56 161.41 117.87 162.75 117.78 165.13 C 118.49 169.52 113.30 174.53 109.08 171.90 C 101.75 167.63 96.02 161.01 88.50 157.05 C 87.14 158.75 85.76 160.44 84.38 162.12 C 91.03 167.67 97.85 173.07 104.97 178.01 C 111.11 182.06 118.81 177.89 122.23 172.25 C 125.67 167.47 125.61 160.07 120.79 156.21 C 114.36 150.83 107.50 145.96 100.86 140.84 C 99.27 142.55 97.75 144.32 96.28 146.13 M 78.70 176.84 C 72.65 179.51 68.83 186.45 69.69 192.98 C 70.79 197.77 76.00 201.64 80.94 200.24 C 86.30 198.65 89.59 193.75 94.29 191.04 C 96.11 189.84 98.36 191.11 99.43 192.73 C 100.62 197.14 96.66 202.26 91.99 201.73 C 88.62 201.51 87.13 205.54 87.30 208.36 C 90.02 208.57 92.83 209.11 95.52 208.37 C 102.87 205.67 107.56 197.11 105.35 189.49 C 103.46 184.64 97.13 182.02 92.44 184.41 C 87.49 186.82 83.98 191.37 78.97 193.72 C 73.56 191.38 76.68 182.88 82.05 183.06 C 85.32 183.19 86.45 179.94 87.91 177.66 C 85.10 176.20 81.70 175.70 78.70 176.84 M 544.47 179.51 C 536.75 183.89 528.69 187.65 520.99 192.07 C 524.36 199.09 528.05 205.95 531.54 212.92 C 533.36 212.24 535.15 211.48 536.93 210.70 C 534.81 205.55 531.84 200.81 529.37 195.84 C 532.10 194.15 534.95 192.67 537.91 191.42 C 540.27 195.45 542.42 199.60 544.89 203.56 C 546.50 202.67 548.12 201.78 549.74 200.90 C 547.72 196.80 545.44 192.83 543.28 188.80 C 545.67 187.25 548.19 185.90 550.84 184.83 C 553.55 189.44 555.80 194.31 558.78 198.76 C 560.38 197.84 561.99 196.94 563.60 196.04 C 560.08 189.16 556.55 182.28 552.93 175.45 C 550.05 176.67 547.19 177.97 544.47 179.51 M 552.38 212.36 C 546.45 214.71 540.28 216.40 534.41 218.91 C 535.19 221.17 536.00 223.41 536.82 225.66 C 544.16 223.27 551.21 220.01 558.70 218.06 C 553.56 225.40 547.09 231.68 542.01 239.07 C 542.60 241.33 543.26 243.57 543.93 245.82 C 555.33 242.30 566.30 237.56 577.64 233.85 C 576.99 231.55 576.22 229.28 575.34 227.07 C 568.05 229.48 560.96 232.45 553.63 234.74 C 558.62 227.32 565.03 221.03 570.39 213.90 C 569.67 211.65 568.96 209.39 568.30 207.13 C 562.81 208.25 557.64 210.49 552.38 212.36 M 62.71 208.85 C 56.66 212.20 53.89 219.90 55.77 226.45 C 57.34 230.80 62.46 233.57 66.93 232.23 C 72.28 230.13 75.29 224.91 79.60 221.43 C 80.65 220.35 82.49 220.01 83.75 220.93 C 86.72 222.54 85.56 226.75 84.15 229.12 C 82.80 231.93 79.26 231.74 76.82 233.02 C 75.82 234.75 75.36 236.72 74.89 238.64 C 78.06 238.68 81.65 239.36 84.38 237.31 C 90.07 233.33 93.38 225.55 91.01 218.82 C 89.01 213.68 82.07 211.56 77.46 214.44 C 72.66 217.32 70.34 223.21 65.02 225.33 C 60.93 225.56 60.65 220.13 62.42 217.57 C 63.73 214.99 66.86 214.79 69.32 214.09 C 70.02 212.08 70.61 210.04 71.03 207.96 C 68.24 207.68 65.24 207.35 62.71 208.85 M 575.37 244.96 C 575.72 248.23 576.35 251.46 576.77 254.73 C 567.29 256.74 557.75 258.42 548.21 260.12 C 548.65 262.48 547.96 265.60 549.92 267.33 C 559.49 266.00 568.88 263.52 578.45 262.17 C 579.10 265.32 579.69 268.49 580.41 271.64 C 582.14 271.51 583.88 271.38 585.62 271.27 C 585.25 262.10 582.69 253.17 580.85 244.21 C 579.02 244.44 577.19 244.70 575.37 244.96 M 47.24 249.42 C 46.78 251.57 46.35 253.73 45.92 255.89 C 56.27 263.15 66.65 270.42 77.52 276.89 C 77.85 275.49 78.22 274.11 78.46 272.70 C 79.79 268.66 74.54 267.60 72.21 265.54 C 72.63 261.47 73.74 257.52 74.72 253.55 C 77.40 253.21 80.09 252.85 82.77 252.52 C 83.24 250.18 83.63 247.82 84.01 245.46 C 71.75 246.73 59.50 248.19 47.24 249.42 M 40.63 294.75 C 40.53 297.22 40.47 299.69 40.42 302.17 C 44.96 305.04 49.89 307.24 54.50 309.99 C 50.01 312.98 45.07 315.19 40.44 317.92 C 40.45 320.45 40.49 322.98 40.58 325.51 C 47.82 322.39 54.08 317.43 61.25 314.20 C 65.75 313.06 70.50 313.82 75.11 313.59 C 75.23 311.19 75.20 308.78 74.99 306.39 C 69.48 305.92 63.40 307.62 58.41 304.56 C 52.50 301.27 46.84 297.48 40.63 294.75 M 553.87 303.86 C 551.71 308.92 551.97 315.25 555.21 319.80 C 558.59 324.64 566.79 325.26 570.55 320.55 C 574.56 316.39 574.28 309.88 578.12 305.65 C 578.84 305.58 580.26 305.45 580.97 305.39 C 584.27 306.61 584.02 310.67 583.45 313.49 C 582.17 315.35 580.18 316.52 578.45 317.89 C 578.48 319.87 578.52 321.85 578.59 323.84 C 582.28 323.13 586.34 321.68 588.07 318.03 C 590.33 313.24 590.58 306.95 587.59 302.42 C 584.94 298.09 578.72 296.92 574.54 299.58 C 569.50 303.23 569.09 309.99 565.90 314.91 C 564.87 316.57 562.86 316.83 561.12 316.36 C 558.53 314.50 558.11 311.01 558.88 308.13 C 559.63 305.53 562.37 304.51 564.47 303.25 C 564.53 301.18 564.57 299.11 564.61 297.04 C 560.07 297.03 555.69 299.66 553.87 303.86 M 41.24 333.23 C 41.34 341.87 43.00 350.38 43.97 358.94 C 44.36 361.76 47.90 359.99 49.76 360.23 C 49.62 356.70 49.41 353.19 49.27 349.67 C 58.69 348.30 68.21 347.72 77.59 346.09 C 77.28 343.79 76.94 341.50 76.60 339.21 C 66.95 339.28 57.56 341.93 47.96 342.60 C 47.55 339.47 47.24 336.34 46.78 333.22 C 44.93 333.21 43.08 333.22 41.24 333.23 M 565.00 340.31 C 560.43 340.40 555.94 339.16 551.36 339.17 C 551.02 341.51 550.71 343.86 550.45 346.21 C 554.85 347.29 559.44 347.18 563.83 348.23 C 571.38 351.96 577.20 358.44 584.73 362.22 C 585.15 359.79 585.46 357.35 585.72 354.91 C 580.93 351.52 575.83 348.60 571.18 345.03 C 576.58 343.29 582.12 341.99 587.55 340.33 C 588.09 337.74 588.34 335.11 588.39 332.47 C 580.36 334.37 572.95 338.18 565.00 340.31 M 62.46 366.71 C 57.14 367.99 51.68 368.76 46.55 370.70 C 47.08 372.76 47.56 374.83 48.01 376.92 C 54.22 376.55 60.20 374.76 66.25 373.45 C 71.75 372.12 77.39 371.28 82.75 369.39 C 82.12 367.29 81.54 365.18 80.98 363.06 C 74.66 363.38 68.63 365.48 62.46 366.71 M 550.65 364.67 C 544.41 368.47 541.57 377.03 544.27 383.81 C 546.52 388.91 552.97 391.34 558.00 388.96 C 563.66 385.68 565.05 378.19 570.99 375.24 C 573.10 376.42 575.13 378.31 574.46 381.00 C 574.49 384.99 570.52 386.53 567.39 387.60 C 566.85 389.60 566.33 391.60 565.83 393.61 C 569.14 393.69 572.74 393.61 575.44 391.39 C 579.81 387.74 581.27 381.46 580.20 376.03 C 578.98 370.65 572.54 366.57 567.34 369.18 C 562.12 371.57 559.94 377.24 556.05 381.08 C 555.07 382.26 553.55 382.72 552.07 382.57 C 548.61 380.95 548.92 376.41 550.46 373.55 C 551.79 370.51 555.47 370.23 558.21 369.18 C 558.44 367.21 558.68 365.25 558.91 363.29 C 556.13 363.44 553.12 363.11 550.65 364.67 M 79.13 378.20 C 80.42 383.17 82.28 387.98 83.61 392.95 C 74.47 396.21 65.20 399.09 56.07 402.37 C 56.44 404.55 56.96 406.71 57.51 408.86 C 60.36 408.49 63.13 407.70 65.84 406.75 C 74.45 403.82 83.12 401.09 91.72 398.14 C 89.58 391.05 87.38 383.96 84.78 377.03 C 82.89 377.37 81.00 377.76 79.13 378.20 M 532.86 406.93 C 541.55 411.48 550.84 414.75 559.69 418.98 C 558.47 422.12 557.11 425.22 555.62 428.25 C 557.27 429.69 559.27 430.59 561.43 430.96 C 565.37 422.32 569.19 413.62 572.77 404.82 C 570.82 403.98 568.80 403.30 566.68 403.08 C 565.48 406.10 564.15 409.06 562.71 411.97 C 553.55 408.56 544.82 404.10 535.78 400.38 C 534.69 402.50 533.70 404.68 532.86 406.93 M 68.25 431.04 C 69.20 432.99 70.17 434.94 71.16 436.87 C 75.53 436.70 79.87 436.13 84.18 435.40 C 92.42 434.03 100.78 433.55 109.04 432.30 C 108.06 429.92 106.74 427.71 105.17 425.69 C 102.71 426.08 100.25 426.39 97.78 426.63 C 95.59 423.24 93.83 419.62 92.21 415.94 C 93.85 413.93 95.48 411.91 97.10 409.89 C 95.92 408.03 95.81 404.42 93.17 404.23 C 84.24 412.54 76.69 422.22 68.25 431.04 M 512.19 442.31 C 513.72 443.58 515.33 444.76 516.97 445.90 C 520.39 441.44 523.07 436.48 526.26 431.87 C 529.36 432.71 531.98 434.58 534.23 436.82 C 531.99 440.66 529.09 444.10 527.13 448.09 C 527.06 450.27 529.82 450.63 531.15 451.84 C 534.10 448.00 536.59 443.85 539.33 439.88 C 541.82 440.87 544.09 442.32 546.22 443.95 C 543.87 448.51 540.63 452.55 538.29 457.12 C 538.43 459.34 541.24 459.77 542.71 461.00 C 547.06 454.59 551.34 448.10 554.93 441.24 C 545.18 434.50 535.09 428.24 524.94 422.14 C 520.68 428.85 516.61 435.69 512.19 442.31 M 101.28 443.27 C 95.30 447.86 89.14 452.20 83.38 457.07 C 84.67 458.99 85.98 460.91 87.31 462.82 C 93.45 458.90 99.00 454.16 104.80 449.77 C 106.67 448.48 108.62 447.00 110.96 446.74 C 115.70 447.51 120.11 454.02 115.91 457.91 C 109.61 463.74 102.01 467.99 95.80 473.94 C 97.08 475.77 98.44 477.56 99.87 479.30 C 104.70 476.04 109.27 472.41 113.97 468.97 C 116.97 466.69 120.16 464.54 122.52 461.57 C 124.98 458.50 125.09 454.06 123.44 450.59 C 121.28 445.68 117.24 441.22 111.81 440.08 C 108.00 438.95 104.24 441.06 101.28 443.27 M 504.60 453.04 C 510.14 458.57 516.56 463.11 522.09 468.66 C 514.28 466.37 507.05 462.36 499.18 460.37 C 497.12 461.05 495.22 464.13 496.87 466.19 C 500.44 472.83 504.51 479.21 507.84 485.99 C 501.65 481.26 496.22 475.61 489.96 470.98 C 488.41 472.67 486.86 474.37 485.34 476.10 C 494.23 483.63 503.01 491.31 512.05 498.68 C 513.89 496.78 515.67 494.83 517.43 492.86 C 513.58 484.49 508.82 476.60 504.77 468.34 C 513.20 471.48 521.53 474.90 529.98 478.00 C 531.94 476.02 533.75 473.91 535.52 471.76 C 531.24 466.93 526.08 463.03 521.39 458.63 C 517.25 455.06 513.41 451.14 508.98 447.94 C 507.44 449.56 505.98 451.27 504.60 453.04 M 135.58 461.95 C 135.32 463.87 135.10 465.81 134.82 467.74 C 128.06 468.52 121.97 472.58 117.98 477.97 C 115.70 482.25 112.43 486.83 113.72 491.94 C 115.51 498.66 121.82 504.42 129.00 504.22 C 134.62 503.69 139.27 499.97 142.96 495.97 C 146.64 491.96 149.55 486.56 148.36 480.97 C 147.59 476.64 143.89 473.95 141.40 470.64 C 140.89 468.78 141.48 466.81 141.38 464.92 C 140.29 462.71 137.76 462.28 135.58 461.95 Z" />
<path fill="#3964a0" opacity="1.00" d=" M 356.85 64.39 C 358.32 60.39 360.51 56.72 362.68 53.07 C 363.47 57.22 364.09 61.41 364.54 65.61 C 361.96 65.28 359.41 64.83 356.85 64.39 Z" />
<path fill="#3964a0" opacity="1.00" d=" M 430.10 88.15 C 433.04 85.11 436.18 82.25 439.66 79.83 C 439.19 83.97 438.27 88.03 437.38 92.09 C 434.79 91.10 432.36 89.74 430.10 88.15 Z" />
<path fill="#3964a0" opacity="1.00" d=" M 153.85 103.86 C 157.38 105.79 160.76 108.03 163.77 110.72 C 161.62 112.43 159.43 114.08 157.13 115.57 C 155.85 111.72 154.68 107.83 153.85 103.86 Z" />
<path fill="#3964a0" opacity="1.00" d=" M 118.75 130.00 C 121.26 127.63 123.52 124.60 127.00 123.64 C 129.91 124.03 131.60 126.53 132.64 129.03 C 131.22 132.31 128.67 134.84 125.99 137.11 C 123.31 135.03 120.89 132.64 118.75 130.00 Z" />
<path fill="#3964a0" opacity="1.00" d=" M 56.47 254.87 C 60.44 254.44 64.43 254.30 68.41 254.22 C 67.79 256.80 67.23 259.39 66.63 261.97 C 62.87 260.19 59.44 257.79 56.47 254.87 Z" />
<path fill="#3964a0" opacity="1.00" d=" M 78.12 429.87 C 81.05 426.57 84.19 423.45 87.29 420.31 C 88.87 422.59 90.18 425.06 91.10 427.68 C 86.81 428.59 82.49 429.45 78.12 429.87 Z" />
<path fill="#3964a0" opacity="1.00" d=" M 240.38 432.56 C 241.89 432.29 243.42 432.25 244.95 432.23 C 275.30 432.30 305.65 432.21 336.00 432.24 C 346.34 432.19 356.68 432.45 367.00 431.78 C 375.00 431.97 383.05 431.28 391.02 432.20 C 400.07 433.06 407.31 441.95 406.73 450.95 C 406.78 490.97 406.71 530.99 406.80 571.00 C 407.39 578.99 407.22 587.00 407.24 595.01 C 407.17 600.23 406.65 605.92 403.07 610.05 C 399.59 614.74 393.81 617.24 388.05 617.33 C 340.69 617.39 293.32 617.30 245.96 617.36 C 240.64 617.27 235.01 615.71 231.29 611.71 C 227.40 607.91 225.68 602.39 225.66 597.05 C 225.70 548.35 225.68 499.64 225.70 450.94 C 225.52 442.38 231.94 434.18 240.38 432.56 M 296.12 541.35 C 286.54 531.98 277.20 522.35 267.70 512.89 C 261.14 518.95 254.84 525.33 248.73 531.85 C 264.46 547.67 280.26 563.42 296.08 579.15 C 303.98 571.69 311.48 563.83 319.21 556.21 C 341.70 533.49 364.72 511.28 386.97 488.34 C 380.62 482.16 374.55 475.69 368.06 469.64 C 343.94 493.40 320.32 517.67 296.12 541.35 Z" />
<path fill="#3964a0" opacity="1.00" d=" M 132.59 475.61 C 137.09 473.80 142.03 478.45 141.72 483.00 C 141.94 486.11 139.59 488.52 137.71 490.70 C 134.98 493.51 132.02 496.70 127.98 497.39 C 122.84 498.11 118.01 491.68 121.15 487.16 C 124.38 482.81 128.03 478.60 132.59 475.61 Z" />
</g>
<g id="#36393eff">
<path fill="#36393e" opacity="1.00" d=" M 284.57 170.52 C 293.33 165.71 304.74 165.53 313.39 170.71 C 316.49 172.86 319.33 175.68 320.68 179.27 C 321.90 182.21 321.78 185.46 321.96 188.58 C 318.87 188.57 315.79 188.53 312.70 188.51 C 312.32 184.86 311.66 180.84 308.70 178.33 C 305.37 175.07 300.39 175.15 296.07 175.39 C 291.14 175.62 285.84 179.62 286.47 184.99 C 286.31 188.87 289.44 191.79 292.72 193.26 C 301.11 197.14 310.92 198.64 317.87 205.18 C 324.50 211.53 324.54 223.48 317.54 229.56 C 311.94 234.47 304.05 235.18 296.92 234.66 C 288.98 234.45 280.32 230.82 276.81 223.26 C 275.11 220.10 275.31 216.44 275.30 212.97 C 278.34 212.64 281.41 212.64 284.46 212.95 C 285.03 217.08 285.61 222.12 289.72 224.31 C 295.70 227.62 303.71 228.38 309.65 224.62 C 314.72 221.23 314.30 213.05 309.25 209.86 C 300.32 204.25 288.70 203.58 280.85 196.12 C 273.48 189.00 275.88 175.50 284.57 170.52 Z" />
<path fill="#36393e" opacity="1.00" d=" M 349.42 167.71 C 357.29 166.41 366.35 166.79 372.54 172.46 C 378.44 177.46 380.64 185.50 380.33 193.00 C 380.04 201.25 381.11 209.62 379.44 217.78 C 378.01 225.22 372.25 231.64 364.96 233.76 C 355.29 237.01 343.06 234.69 336.89 226.09 C 331.92 219.10 332.49 210.14 332.55 202.00 C 332.74 194.14 331.56 185.76 335.26 178.48 C 337.87 172.84 343.43 169.00 349.42 167.71 M 351.44 175.71 C 346.21 177.11 343.18 182.26 342.71 187.39 C 342.05 195.26 342.46 203.17 342.40 211.06 C 342.35 216.32 344.00 222.40 348.86 225.20 C 351.84 227.10 355.54 226.90 358.92 226.65 C 364.60 226.25 369.09 221.16 369.86 215.69 C 370.99 209.19 370.27 202.55 370.48 196.00 C 370.50 190.13 370.60 183.32 366.10 178.89 C 362.41 174.91 356.41 174.75 351.44 175.71 Z" />
<path fill="#36393e" opacity="1.00" d=" M 253.74 168.17 C 257.00 167.68 260.31 167.73 263.56 168.25 C 263.63 190.10 263.53 211.95 263.58 233.80 C 260.28 234.18 256.96 234.23 253.65 234.09 C 253.66 212.11 253.53 190.14 253.74 168.17 Z" />
<path fill="#36393e" opacity="1.00" d=" M 202.02 257.04 C 210.19 254.99 219.03 255.25 226.93 258.26 C 235.51 261.62 241.69 269.86 243.22 278.85 C 244.82 288.15 244.14 297.62 244.23 307.01 C 243.44 313.99 243.86 321.01 243.62 328.01 C 243.45 335.83 238.70 343.22 231.88 346.95 C 223.68 351.56 213.79 352.48 204.68 350.58 C 196.18 348.72 188.14 342.83 185.47 334.30 C 184.15 330.75 184.27 326.91 184.19 323.19 C 190.25 323.18 196.31 323.09 202.37 323.25 C 202.67 327.38 203.37 332.34 207.42 334.51 C 213.11 337.25 221.85 335.78 223.99 329.06 C 225.45 323.50 225.60 317.64 224.91 311.96 C 218.20 315.37 210.54 317.82 203.00 315.90 C 193.84 314.11 185.67 307.19 183.18 298.09 C 181.05 290.11 180.70 281.37 183.62 273.54 C 186.63 265.50 193.79 259.30 202.02 257.04 M 209.25 272.07 C 204.94 273.35 201.46 277.41 201.31 281.97 C 201.21 286.36 200.61 291.16 202.91 295.14 C 206.90 302.50 219.06 302.52 223.39 295.49 C 224.83 293.28 224.61 290.54 224.74 288.03 C 224.71 284.09 225.02 279.78 222.62 276.39 C 220.01 271.85 213.98 270.59 209.25 272.07 Z" />
<path fill="#36393e" opacity="1.00" d=" M 276.44 256.91 C 285.12 254.80 294.49 255.21 302.86 258.38 C 313.05 262.45 319.04 273.35 319.46 283.98 C 319.61 292.98 319.47 301.99 319.53 311.00 C 319.46 318.51 320.17 326.30 317.35 333.45 C 314.23 342.31 306.00 348.69 296.92 350.53 C 287.11 352.49 276.22 351.81 267.61 346.29 C 259.38 340.85 255.25 330.69 255.43 321.05 C 255.48 308.37 255.31 295.68 255.45 283.00 C 255.73 270.94 264.45 259.42 276.44 256.91 M 283.51 271.73 C 277.60 273.04 274.42 279.29 274.52 284.96 C 274.47 296.97 274.49 309.00 274.48 321.02 C 274.19 326.70 276.69 333.40 282.59 335.21 C 286.62 335.98 291.19 336.06 294.78 333.79 C 298.62 331.24 300.58 326.55 300.46 322.04 C 300.55 310.02 300.47 298.01 300.49 286.00 C 300.55 281.90 299.57 277.45 296.43 274.58 C 293.03 271.35 287.93 270.73 283.51 271.73 Z" />
<path fill="#36393e" opacity="1.00" d=" M 357.33 256.17 C 366.82 255.02 377.50 255.54 385.32 261.71 C 393.11 267.52 396.37 277.58 396.43 286.98 C 396.44 298.32 396.48 309.66 396.44 321.00 C 396.43 328.80 393.99 336.81 388.58 342.57 C 382.65 349.03 373.52 351.53 364.99 351.49 C 356.10 351.79 346.62 349.23 340.24 342.77 C 334.88 337.31 332.14 329.61 332.27 322.01 C 332.21 309.36 332.19 296.72 332.27 284.07 C 332.26 276.75 335.07 269.46 340.07 264.09 C 344.55 259.35 351.00 257.06 357.33 256.17 M 359.31 272.10 C 354.39 273.79 351.30 278.86 351.45 283.97 C 351.24 295.98 351.41 307.98 351.35 319.99 C 351.26 324.24 351.54 329.02 354.86 332.12 C 358.20 336.08 363.87 336.11 368.55 335.24 C 374.24 333.71 377.41 327.63 377.40 322.04 C 377.48 310.35 377.41 298.66 377.44 286.96 C 377.47 282.59 376.39 277.95 373.42 274.61 C 369.77 271.06 363.97 270.60 359.31 272.10 Z" />
<path fill="#36393e" opacity="1.00" d=" M 417.32 258.42 C 424.43 255.84 432.12 256.78 439.52 256.86 C 439.60 287.94 439.55 319.01 439.52 350.09 C 433.11 350.32 426.69 350.25 420.28 350.15 C 420.26 324.80 420.41 299.46 420.16 274.11 C 415.13 274.52 410.28 276.03 405.30 276.79 C 404.59 272.02 404.42 267.13 405.30 262.37 C 409.27 260.96 413.32 259.76 417.32 258.42 Z" />
<path fill="#36393e" opacity="1.00" d=" M 186.13 375.14 C 191.07 368.65 200.94 367.41 207.93 371.07 C 211.53 373.03 213.34 376.84 214.72 380.50 C 212.34 381.14 209.92 381.58 207.49 381.96 C 205.96 379.35 204.26 376.15 200.97 375.58 C 196.35 374.55 191.51 377.96 190.70 382.58 C 189.96 386.65 189.82 391.03 191.15 395.01 C 192.49 399.65 198.45 401.99 202.67 399.77 C 205.35 398.70 206.12 395.66 207.57 393.44 C 209.94 392.90 212.38 394.45 214.73 394.90 C 213.64 397.85 212.65 401.06 210.18 403.18 C 203.85 409.17 192.74 408.50 186.97 402.05 C 183.55 398.64 182.27 393.70 182.25 389.00 C 182.20 384.16 182.98 378.99 186.13 375.14 Z" />
<path fill="#36393e" opacity="1.00" d=" M 220.74 369.80 C 229.89 369.71 239.04 369.72 248.19 369.80 C 248.20 371.88 248.20 373.97 248.20 376.06 C 241.62 376.15 235.04 376.07 228.47 376.10 C 228.44 378.88 228.44 381.67 228.46 384.46 C 234.53 384.54 240.60 384.46 246.67 384.51 C 246.66 386.66 246.65 388.82 246.65 390.98 C 240.59 391.39 234.51 391.09 228.43 391.20 C 228.45 394.31 228.44 397.43 228.46 400.54 C 235.27 400.60 242.09 400.50 248.91 400.60 C 248.87 402.81 248.84 405.01 248.81 407.22 C 239.45 407.25 230.10 407.29 220.75 407.20 C 220.66 394.73 220.68 382.27 220.74 369.80 Z" />
<path fill="#36393e" opacity="1.00" d=" M 254.99 369.78 C 261.35 369.76 267.70 369.67 274.06 369.79 C 276.56 370.02 279.25 370.20 281.41 371.63 C 285.79 375.05 286.99 382.05 283.48 386.51 C 281.86 388.92 279.04 389.95 276.39 390.79 C 281.86 394.98 284.93 401.33 288.23 407.20 C 285.29 407.08 282.16 407.77 279.35 406.80 C 275.60 402.41 273.38 396.84 269.15 392.86 C 267.44 391.23 264.91 391.73 262.78 391.51 C 262.69 396.73 262.76 401.96 262.70 407.18 C 260.15 407.23 257.59 407.25 255.04 407.25 C 254.85 394.76 254.93 382.27 254.99 369.78 M 262.75 376.12 C 262.72 379.12 262.72 382.12 262.75 385.13 C 266.73 385.06 270.82 385.61 274.73 384.64 C 278.27 383.84 278.72 377.98 275.24 376.82 C 271.26 375.39 266.89 376.34 262.75 376.12 Z" />
<path fill="#36393e" opacity="1.00" d=" M 290.38 369.89 C 300.17 369.62 309.96 369.75 319.75 369.82 C 319.75 371.88 319.76 373.95 319.76 376.02 C 316.12 376.12 312.47 376.09 308.82 376.15 C 308.73 386.51 308.85 396.88 308.76 407.24 C 306.30 407.24 303.83 407.23 301.37 407.16 C 301.32 396.81 301.41 386.46 301.33 376.11 C 297.68 376.10 294.02 376.14 290.37 375.97 C 290.38 373.94 290.38 371.91 290.38 369.89 Z" />
<path fill="#36393e" opacity="1.00" d=" M 323.58 369.77 C 326.16 369.75 328.75 369.75 331.34 369.77 C 331.40 382.25 331.42 394.74 331.33 407.23 C 328.75 407.24 326.17 407.24 323.60 407.23 C 323.49 394.74 323.52 382.26 323.58 369.77 Z" />
<path fill="#36393e" opacity="1.00" d=" M 338.15 369.78 C 346.65 369.78 355.15 369.62 363.64 369.87 C 363.63 371.91 363.64 373.94 363.65 375.99 C 357.71 376.21 351.77 376.06 345.83 376.09 C 345.80 378.89 345.82 381.70 345.94 384.51 C 351.05 384.49 356.16 384.44 361.27 384.56 C 361.26 386.69 361.24 388.83 361.21 390.96 C 356.16 391.35 351.09 391.15 346.03 391.17 C 345.95 396.53 346.04 401.88 345.92 407.24 C 343.34 407.24 340.76 407.24 338.18 407.23 C 338.09 394.75 338.13 382.26 338.15 369.78 Z" />
<path fill="#36393e" opacity="1.00" d=" M 369.31 369.82 C 371.92 369.75 374.54 369.75 377.15 369.78 C 377.20 382.26 377.20 394.74 377.15 407.22 C 374.54 407.24 371.94 407.24 369.34 407.18 C 369.26 394.72 369.31 382.27 369.31 369.82 Z" />
<path fill="#36393e" opacity="1.00" d=" M 383.77 369.79 C 392.87 369.72 401.97 369.72 411.08 369.80 C 411.10 371.84 411.11 373.88 411.11 375.93 C 404.50 376.27 397.89 376.03 391.29 376.09 C 391.30 378.89 391.30 381.69 391.32 384.49 C 397.43 384.51 403.54 384.45 409.65 384.53 C 409.63 386.74 409.60 388.95 409.54 391.17 C 403.45 391.21 397.38 391.16 391.30 391.20 C 391.29 394.31 391.29 397.43 391.32 400.56 C 398.15 400.60 404.98 400.46 411.81 400.64 C 411.77 402.82 411.74 405.00 411.72 407.19 C 402.40 407.29 393.09 407.26 383.77 407.21 C 383.69 394.74 383.70 382.26 383.77 369.79 Z" />
<path fill="#36393e" opacity="1.00" d=" M 417.81 369.80 C 423.90 369.81 430.00 369.53 436.08 369.90 C 442.01 370.20 446.76 375.19 448.14 380.74 C 449.49 386.24 449.52 392.19 447.67 397.59 C 445.96 402.60 441.32 406.47 436.01 407.00 C 429.97 407.56 423.88 407.14 417.82 407.20 C 417.75 394.73 417.76 382.26 417.81 369.80 M 425.63 376.08 C 425.69 384.26 425.33 392.45 425.82 400.61 C 429.87 400.28 434.42 401.44 438.04 399.09 C 440.89 396.64 441.02 392.48 441.18 389.00 C 441.16 385.20 441.10 380.68 437.97 377.99 C 434.39 375.47 429.74 376.22 425.63 376.08 Z" />
</g>
</svg>
