<?xml version="1.0" encoding="UTF-8" ?>
<!DOCTYPE svg PUBLIC "-//W3C//DTD SVG 1.1//EN" "http://www.w3.org/Graphics/SVG/1.1/DTD/svg11.dtd">
<svg width="1081pt" height="1077pt" viewBox="0 0 1081 1077" version="1.1" xmlns="http://www.w3.org/2000/svg">
<g id="#39639fff">
<path fill="#39639f" opacity="1.00" d=" M 525.35 0.00 L 559.90 0.00 C 643.02 3.59 725.65 25.32 798.66 65.45 C 864.04 101.20 922.32 150.03 968.47 208.57 C 1004.61 254.22 1032.85 306.06 1051.94 361.05 C 1069.98 413.25 1079.19 468.29 1081.00 523.43 L 1081.00 539.70 C 1080.08 549.12 1079.72 558.56 1079.48 568.02 C 1077.18 613.68 1067.95 658.88 1053.35 702.17 C 1030.02 771.98 991.07 836.24 941.45 890.47 C 915.83 918.63 887.09 943.93 855.99 965.88 C 816.93 993.52 774.49 1016.61 729.49 1032.99 C 729.37 971.74 729.40 910.49 729.46 849.23 C 818.13 797.59 883.62 707.47 904.29 606.86 C 908.38 586.82 910.62 566.44 911.91 546.05 C 913.08 528.65 911.44 511.26 909.98 493.94 C 903.47 428.42 877.77 365.24 838.42 312.60 C 797.29 257.91 740.84 214.87 677.17 189.77 C 589.23 155.01 488.10 155.82 400.52 191.34 C 332.18 218.86 272.78 267.56 231.58 328.56 C 200.37 374.55 179.63 427.71 172.42 482.87 C 166.07 530.05 168.85 578.48 180.77 624.58 C 197.57 689.73 233.33 749.66 281.81 796.20 C 302.16 815.59 324.05 833.62 348.51 847.60 C 349.30 848.27 350.86 848.71 350.70 850.03 C 351.03 910.69 350.98 971.36 350.98 1032.02 C 299.45 1013.61 251.36 986.22 208.02 952.94 C 150.00 908.55 101.54 851.92 65.79 788.27 C 39.26 741.33 20.85 690.00 10.29 637.18 C 5.82 617.04 4.00 596.47 1.57 576.03 C 0.17 563.29 0.64 550.45 0.00 537.67 L 0.00 514.44 C 1.40 491.24 3.64 468.06 7.58 445.14 C 17.43 385.69 37.86 328.04 67.71 275.70 C 92.74 231.51 124.15 190.97 160.48 155.49 C 209.18 108.05 266.67 69.64 329.15 42.85 C 391.05 16.29 458.01 1.65 525.35 0.00 M 543.41 55.00 C 538.69 70.11 533.51 85.07 529.12 100.28 C 524.11 85.23 518.46 70.38 513.00 55.48 C 506.23 55.64 499.47 55.77 492.71 55.86 C 492.86 76.55 493.67 97.21 493.90 117.89 C 498.02 117.79 502.13 117.70 506.25 117.59 C 506.07 109.52 506.10 101.44 505.91 93.36 C 505.71 84.51 504.89 75.65 505.25 66.79 C 509.43 84.15 517.26 100.31 523.04 117.14 C 526.87 117.21 530.70 117.16 534.53 116.91 C 537.27 107.87 540.30 98.92 543.16 89.92 C 545.53 82.29 548.47 74.79 549.75 66.87 C 550.12 69.21 550.21 71.58 550.23 73.95 C 550.31 88.20 550.80 102.45 550.95 116.70 C 555.47 116.59 560.00 116.48 564.52 116.38 C 564.14 95.74 563.85 75.11 563.30 54.48 C 556.67 54.70 550.03 54.59 543.41 55.00 M 572.80 117.53 C 577.63 118.16 582.43 118.94 587.24 119.70 C 589.39 115.37 591.56 111.04 593.83 106.77 C 601.13 107.87 608.42 109.09 615.71 110.30 C 616.48 115.11 617.11 119.94 618.04 124.72 C 622.97 125.36 627.88 126.17 632.78 127.03 C 628.77 105.43 624.71 83.84 620.73 62.23 C 615.37 61.40 610.02 60.54 604.67 59.67 C 593.91 78.88 582.86 97.95 572.80 117.53 M 408.84 72.39 C 413.49 92.49 418.73 112.46 423.30 132.57 C 435.43 130.06 447.40 126.81 459.46 123.96 C 458.62 120.34 457.74 116.73 456.87 113.11 C 449.29 114.94 441.76 116.97 434.09 118.37 C 433.04 113.74 431.82 109.14 430.94 104.47 C 437.51 103.10 443.98 101.31 450.53 99.83 C 449.71 96.18 448.82 92.55 447.92 88.92 C 441.42 90.61 434.86 92.06 428.37 93.77 C 426.96 89.30 426.00 84.71 424.89 80.15 C 431.95 78.36 439.04 76.69 446.11 74.94 C 445.19 71.35 444.32 67.75 443.52 64.14 C 431.94 66.80 420.43 69.78 408.84 72.39 M 640.66 129.09 C 644.78 130.42 648.91 131.76 653.01 133.17 C 657.67 119.24 662.30 105.30 666.61 91.26 C 671.33 108.15 675.70 125.16 680.25 142.10 C 684.73 143.62 689.23 145.06 693.75 146.48 C 700.02 126.81 706.73 107.28 712.94 87.59 C 708.96 86.33 705.08 84.74 701.00 83.84 C 700.01 84.83 699.83 86.32 699.32 87.57 C 695.32 99.86 691.14 112.08 687.43 124.46 C 682.87 108.00 678.78 91.39 674.22 74.93 C 669.57 73.34 664.88 71.85 660.25 70.21 C 653.41 89.73 647.25 109.49 640.66 129.09 M 360.32 93.50 C 354.21 101.53 353.02 112.52 356.01 122.01 C 358.40 129.61 362.68 137.07 369.65 141.29 C 375.59 145.10 383.01 146.21 389.87 144.71 C 397.84 142.96 405.67 139.50 411.58 133.76 C 411.10 129.75 408.73 125.90 407.63 121.90 C 404.28 125.18 400.66 128.32 396.29 130.13 C 390.90 132.50 384.23 133.06 379.07 129.84 C 369.56 124.05 365.46 110.15 371.35 100.47 C 376.61 92.61 386.83 90.10 395.79 90.99 C 394.25 86.90 392.74 82.80 391.16 78.73 C 379.59 79.55 367.47 83.93 360.32 93.50 M 315.93 109.37 C 322.91 121.95 330.06 134.44 337.29 146.87 C 322.89 139.15 308.33 131.73 293.85 124.15 C 292.88 123.75 291.75 122.84 290.73 123.73 C 286.66 125.81 282.80 128.28 278.79 130.47 C 288.75 148.55 299.16 166.38 309.22 184.41 C 313.03 182.35 316.79 180.22 320.55 178.08 C 313.42 165.15 306.09 152.34 298.65 139.61 C 314.31 147.67 329.91 155.86 345.61 163.86 C 349.65 161.57 353.71 159.31 357.76 157.01 C 347.69 139.00 337.36 121.14 327.37 103.09 C 323.48 105.05 319.78 107.33 315.93 109.37 M 749.49 104.84 C 733.44 119.84 717.10 134.52 701.07 149.53 C 705.52 151.66 709.90 153.96 714.23 156.32 C 717.74 152.98 721.17 149.55 724.55 146.08 C 731.17 149.32 737.65 152.84 744.23 156.17 C 743.59 161.02 742.72 165.83 741.91 170.65 C 746.39 172.86 750.81 175.21 755.26 177.49 C 758.37 155.75 761.25 133.97 764.17 112.20 C 759.25 109.79 754.45 107.15 749.49 104.84 M 788.26 145.22 C 779.58 149.94 773.18 158.44 770.49 167.90 C 768.17 176.53 770.76 186.06 776.57 192.76 C 784.08 201.13 794.38 207.09 805.51 208.96 C 811.49 200.46 817.73 192.15 823.81 183.73 C 816.76 178.56 809.68 173.42 802.62 168.27 C 800.41 171.21 798.25 174.17 796.20 177.22 C 799.54 179.61 802.85 182.05 806.17 184.48 C 803.75 187.91 801.23 191.26 798.75 194.64 C 791.31 191.83 783.78 185.60 783.78 177.01 C 784.26 165.56 794.06 154.05 806.04 154.43 C 816.14 155.53 824.00 163.44 828.65 171.98 C 831.31 168.63 833.75 165.11 836.30 161.67 C 830.42 154.07 822.99 147.31 813.90 143.88 C 805.69 140.67 796.04 140.95 788.26 145.22 M 246.32 154.21 C 242.10 157.74 237.69 161.03 233.52 164.62 C 240.62 185.25 247.56 205.94 254.47 226.63 C 246.27 225.18 238.10 223.51 229.85 222.33 C 226.60 221.81 223.34 222.46 220.17 223.12 C 222.04 218.71 223.19 213.75 221.80 209.03 C 219.82 202.54 213.83 197.12 206.95 196.60 C 201.05 196.31 195.90 199.94 191.81 203.81 C 185.80 209.88 180.05 216.17 174.21 222.40 C 189.30 236.52 204.49 250.52 219.54 264.69 C 222.73 261.38 225.80 257.95 229.02 254.65 C 223.22 249.22 217.44 243.78 211.59 238.42 C 213.49 236.22 215.68 233.50 218.92 233.67 C 227.43 234.32 235.68 236.68 244.03 238.34 C 250.89 230.96 257.93 223.61 266.25 217.83 C 264.69 213.22 262.94 208.67 261.12 204.16 C 266.91 199.47 272.73 194.83 278.58 190.21 C 282.55 192.88 286.57 195.46 290.49 198.21 C 294.53 195.21 298.41 191.99 302.33 188.82 C 283.66 177.27 265.06 165.62 246.32 154.21 M 854.70 175.95 C 840.65 190.98 826.35 205.79 812.15 220.68 C 821.07 229.22 830.01 237.76 838.97 246.27 C 841.55 243.61 844.12 240.93 846.65 238.22 C 841.12 232.88 835.56 227.57 829.92 222.34 C 833.21 218.87 836.12 214.75 840.04 212.05 C 845.03 216.42 849.63 221.21 854.47 225.74 C 857.12 223.09 859.70 220.38 862.23 217.62 C 857.33 213.01 852.54 208.28 847.63 203.69 C 850.69 200.18 854.00 196.91 857.20 193.54 C 862.55 198.48 867.79 203.55 873.07 208.57 C 875.65 205.90 878.22 203.21 880.80 200.54 C 872.15 192.30 863.74 183.77 854.70 175.95 M 846.70 253.21 C 849.17 256.51 851.68 259.80 854.17 263.09 C 864.25 255.56 874.33 248.03 884.24 240.27 C 887.51 237.74 890.55 234.90 894.06 232.68 C 883.41 246.60 874.26 261.59 864.62 276.20 C 866.36 279.40 868.58 283.18 871.65 285.24 C 888.25 279.93 904.99 274.97 921.18 268.50 C 907.89 278.65 894.41 288.56 881.13 298.74 C 883.91 302.36 886.62 306.03 889.42 309.64 C 905.77 297.02 922.36 284.71 938.77 272.18 C 934.81 266.89 930.81 261.61 926.79 256.37 C 911.45 261.68 895.75 265.93 880.70 272.04 C 890.80 259.32 899.20 245.38 908.40 232.02 C 904.35 226.66 900.30 221.29 896.28 215.90 C 879.66 228.21 863.23 240.77 846.70 253.21 M 151.83 251.61 C 161.69 258.21 171.40 265.04 181.18 271.77 C 185.07 274.46 189.22 277.99 189.59 283.07 C 189.55 289.13 184.46 295.57 178.04 295.27 C 174.02 295.12 170.51 292.96 167.28 290.80 C 157.63 284.18 148.01 277.52 138.34 270.93 C 135.80 274.75 133.21 278.52 130.54 282.24 C 139.57 288.69 148.80 294.84 157.90 301.19 C 163.85 305.28 170.48 309.34 177.96 309.20 C 184.47 309.26 190.33 305.38 194.35 300.52 C 199.51 294.35 203.63 286.34 202.21 278.07 C 200.92 270.65 195.32 264.92 189.42 260.68 C 179.54 253.76 169.52 247.02 159.62 240.12 C 157.01 243.95 154.31 247.71 151.83 251.61 M 895.86 322.64 C 901.69 333.53 907.45 344.46 913.26 355.37 C 916.61 353.66 919.92 351.85 923.16 349.93 C 919.41 343.23 915.84 336.42 912.20 329.65 C 916.38 327.26 920.68 325.07 924.97 322.86 C 928.17 328.81 931.30 334.79 934.50 340.74 C 937.76 339.02 941.04 337.32 944.33 335.63 C 941.27 329.52 937.82 323.61 934.90 317.43 C 939.05 315.50 942.92 313.03 947.08 311.13 C 950.74 317.36 954.04 323.81 957.36 330.23 C 960.74 328.59 964.06 326.83 967.33 324.97 C 961.70 314.51 956.28 303.93 950.53 293.53 C 932.38 303.36 914.07 312.91 895.86 322.64 M 121.26 301.28 C 113.93 309.32 107.87 319.66 108.65 330.90 C 109.15 341.56 121.96 348.85 131.56 344.67 C 139.16 341.84 143.88 334.41 151.44 331.55 C 155.44 329.86 159.75 334.01 158.80 338.10 C 157.45 346.41 151.05 353.09 143.73 356.78 C 147.81 358.72 151.83 360.77 155.88 362.78 C 164.12 355.46 169.95 345.05 171.01 334.02 C 171.88 323.14 160.34 314.47 150.06 316.75 C 141.28 318.76 135.96 326.97 127.97 330.54 C 124.38 332.38 119.92 328.95 120.46 325.06 C 121.07 317.35 126.59 311.24 132.57 306.87 C 128.83 304.95 125.07 303.06 121.26 301.28 M 917.86 364.68 C 919.39 368.70 920.83 372.77 922.33 376.81 C 936.27 371.81 950.25 366.90 964.03 361.48 C 954.41 374.07 944.87 386.74 935.37 399.43 C 934.34 400.97 932.75 402.30 932.29 404.13 C 933.51 408.53 935.34 412.74 936.91 417.04 C 956.30 409.95 975.74 403.00 995.16 395.98 C 993.68 392.00 992.30 387.99 990.94 383.97 C 977.20 388.22 963.86 393.61 950.33 398.47 C 960.62 384.72 971.26 371.23 981.33 357.31 C 979.47 352.79 977.97 348.15 976.24 343.59 C 956.79 350.64 937.25 357.46 917.86 364.68 M 87.19 379.02 C 87.28 382.29 87.68 385.71 89.44 388.55 C 93.88 395.84 104.19 398.98 111.79 394.87 C 118.84 391.20 122.82 383.77 129.53 379.66 C 132.84 377.34 138.40 379.73 138.18 384.02 C 138.57 392.81 132.64 400.30 125.86 405.21 C 130.04 406.72 134.25 408.19 138.41 409.76 C 143.79 403.56 147.77 396.03 149.21 387.90 C 149.95 383.67 150.59 379.16 149.09 375.02 C 146.01 366.43 135.28 361.60 126.80 364.86 C 118.34 368.11 114.09 376.97 106.38 381.31 C 103.34 383.12 98.91 380.58 98.90 377.05 C 98.00 369.11 103.21 362.32 108.45 357.00 C 104.60 355.55 100.71 354.19 96.84 352.78 C 91.13 360.30 87.14 369.46 87.19 379.02 M 988.91 415.42 C 989.69 421.26 991.20 426.98 992.14 432.80 C 975.60 436.22 959.03 439.53 942.47 442.85 C 943.29 447.37 944.26 451.86 945.13 456.37 C 961.77 453.19 978.38 449.86 994.97 446.42 C 996.19 452.18 997.28 457.97 998.49 463.74 C 1002.17 463.09 1005.84 462.35 1009.48 461.50 C 1006.23 445.45 1002.90 429.42 999.81 413.34 C 996.18 414.07 992.55 414.79 988.91 415.42 M 73.18 424.08 C 72.10 429.44 70.94 434.78 69.75 440.11 C 88.43 451.81 107.11 463.49 125.80 475.16 C 126.68 470.30 127.79 465.49 128.92 460.69 C 124.78 458.05 120.45 455.73 116.20 453.28 C 117.81 446.06 119.37 438.84 120.81 431.60 C 125.64 431.10 130.48 430.63 135.30 430.06 C 136.39 425.20 137.40 420.33 138.44 415.46 C 116.68 418.30 94.94 421.30 73.18 424.08 M 61.33 499.78 C 61.55 504.61 60.61 509.70 61.51 514.38 C 70.62 518.70 79.82 522.86 89.24 526.48 C 80.64 528.98 72.58 532.92 64.30 536.26 C 63.21 536.80 61.88 537.05 61.03 537.99 C 60.70 543.12 60.96 548.27 60.83 553.42 C 73.94 547.42 86.77 540.82 99.94 534.94 C 101.81 534.04 103.93 534.23 105.94 534.18 C 111.64 534.19 117.34 534.27 123.03 534.37 C 123.06 529.79 123.09 525.21 123.12 520.63 C 117.73 520.58 112.34 520.53 106.96 520.46 C 104.26 520.38 101.39 520.56 98.96 519.15 C 86.35 512.83 73.91 506.18 61.33 499.78 M 985.23 507.22 C 979.77 512.19 978.22 519.71 974.83 525.98 C 973.40 528.59 971.20 531.28 968.00 531.47 C 965.03 531.29 962.85 528.73 962.27 525.97 C 960.32 518.27 962.76 510.12 967.25 503.77 C 962.66 503.81 958.06 503.82 953.48 504.17 C 950.00 515.22 949.24 527.88 954.80 538.40 C 960.27 547.51 974.71 548.53 981.74 540.71 C 987.53 534.53 988.47 525.43 993.99 519.09 C 996.46 516.32 1001.48 517.62 1002.66 521.03 C 1005.60 528.11 1003.68 536.15 1000.33 542.73 C 1004.54 542.57 1008.76 542.49 1012.98 542.44 C 1015.83 532.01 1016.23 520.19 1010.66 510.56 C 1005.63 501.91 992.39 500.45 985.23 507.22 M 974.58 570.58 C 973.12 571.04 971.64 571.54 970.11 571.34 C 963.44 570.85 956.83 569.74 950.16 569.29 C 949.84 573.86 949.23 578.41 948.75 582.97 C 955.22 583.65 961.70 584.33 968.17 585.10 C 971.48 585.30 974.08 587.58 976.79 589.25 C 987.24 596.08 997.69 602.91 1008.17 609.68 C 1008.78 604.92 1009.27 600.15 1009.88 595.39 C 1000.98 590.19 992.19 584.78 982.85 580.42 C 992.93 578.70 1002.53 575.06 1012.29 572.09 C 1012.99 566.89 1013.35 561.64 1014.09 556.45 C 1000.93 561.19 987.82 566.06 974.58 570.58 M 61.49 562.99 C 63.23 579.28 65.48 595.52 67.12 611.82 C 70.86 611.40 74.60 611.04 78.34 610.58 C 77.69 604.75 76.99 598.93 76.31 593.11 C 93.13 591.11 109.95 589.13 126.76 587.00 C 126.21 582.45 125.68 577.90 125.06 573.37 C 108.20 575.11 91.41 577.73 74.51 578.99 C 74.02 573.20 73.21 567.44 72.57 561.67 C 68.87 562.04 65.18 562.54 61.49 562.99 M 119.65 610.15 C 119.95 611.79 120.38 613.43 120.55 615.12 C 107.42 618.25 94.18 620.91 81.01 623.89 C 80.59 622.19 80.16 620.49 79.74 618.80 C 76.31 619.61 72.87 620.34 69.43 621.10 C 71.08 628.97 72.85 636.82 74.54 644.68 C 77.90 644.01 81.26 643.33 84.64 642.75 C 84.41 640.94 84.21 639.13 84.01 637.34 C 97.24 634.56 110.41 631.53 123.64 628.78 C 124.01 630.42 124.39 632.06 124.76 633.71 C 128.21 633.02 131.66 632.31 135.10 631.57 C 133.49 623.64 131.69 615.75 129.97 607.84 C 126.54 608.66 123.10 609.41 119.65 610.15 M 939.43 638.84 C 940.66 650.08 954.62 656.39 964.26 651.22 C 971.54 647.26 975.08 639.29 980.99 633.82 C 982.72 632.10 985.41 631.31 987.73 632.31 C 989.71 633.43 990.87 635.70 990.92 637.95 C 991.37 645.09 987.72 651.73 983.13 656.93 C 987.21 657.90 991.30 658.88 995.38 659.92 C 999.68 652.02 1002.96 643.09 1002.10 633.97 C 1001.67 630.06 1000.54 626.06 998.06 622.94 C 992.88 616.90 983.21 615.06 976.40 619.38 C 970.16 623.12 966.96 629.94 962.04 635.02 C 960.15 636.82 957.69 638.66 954.92 638.08 C 951.63 637.63 950.18 633.93 950.33 630.99 C 950.54 623.17 954.91 616.05 960.71 611.04 C 956.39 609.98 952.06 609.00 947.76 607.88 C 941.36 616.65 938.05 628.04 939.43 638.84 M 124.96 638.23 C 127.26 645.58 129.63 652.90 131.81 660.28 C 115.67 665.27 99.62 670.53 83.43 675.32 C 84.64 679.80 86.06 684.21 87.54 688.60 C 107.20 682.40 126.90 676.32 146.55 670.08 C 143.14 658.30 139.18 646.68 135.62 634.95 C 132.06 636.02 128.52 637.16 124.96 638.23 M 928.14 669.72 C 926.57 674.05 924.90 678.33 923.50 682.72 C 939.40 688.42 955.20 694.42 971.00 700.41 C 968.97 705.91 966.90 711.40 964.84 716.90 C 968.34 718.22 971.84 719.55 975.34 720.90 C 981.05 705.53 986.81 690.19 992.52 674.83 C 989.06 673.42 985.57 672.10 982.06 670.84 C 979.95 676.32 977.96 681.84 975.85 687.32 C 959.94 681.47 944.13 675.36 928.14 669.72 M 101.66 724.05 C 104.00 729.01 106.24 734.02 108.56 738.98 C 130.41 737.06 152.30 735.45 174.14 733.39 C 172.31 728.76 170.08 724.30 167.99 719.79 C 163.24 720.51 158.48 721.11 153.71 721.65 C 150.61 714.87 147.27 708.21 144.33 701.37 C 147.91 698.16 151.42 694.89 154.99 691.67 C 152.90 687.10 150.77 682.55 148.72 677.97 C 133.03 693.32 117.36 708.71 101.66 724.05 M 896.29 739.93 C 899.58 741.59 902.86 743.30 906.16 744.98 C 909.68 738.11 913.33 731.30 916.77 724.39 C 921.12 726.41 925.34 728.71 929.62 730.89 C 926.62 736.99 923.34 742.95 920.41 749.09 C 923.70 750.71 926.97 752.39 930.21 754.13 C 933.36 748.15 936.47 742.15 939.53 736.12 C 943.74 738.10 947.80 740.38 952.00 742.41 C 948.85 748.93 945.51 755.36 942.06 761.73 C 945.26 763.68 948.63 765.33 951.97 767.06 C 957.44 756.50 962.95 745.96 968.33 735.36 C 950.10 725.90 931.74 716.65 913.66 706.89 C 907.39 717.64 901.94 728.84 896.29 739.93 M 157.53 753.35 C 147.21 760.15 136.87 766.94 126.60 773.83 C 129.10 777.69 131.66 781.52 134.29 785.30 C 144.54 778.54 154.72 771.66 164.98 764.93 C 168.72 762.56 173.43 760.33 177.87 762.07 C 182.44 764.07 185.60 769.00 185.50 773.98 C 185.00 779.22 180.56 782.72 176.55 785.51 C 166.82 792.02 157.10 798.55 147.32 804.99 C 149.85 808.84 152.40 812.66 154.95 816.50 C 165.38 809.71 175.67 802.72 185.99 795.79 C 191.63 791.98 196.60 786.61 198.32 779.88 C 200.08 773.60 197.32 767.15 194.28 761.74 C 190.36 755.41 184.47 749.49 176.87 748.18 C 170.05 747.15 163.20 749.72 157.53 753.35 M 884.42 759.20 C 897.89 769.28 911.45 779.24 925.14 789.02 C 908.58 782.49 891.31 778.11 874.36 772.78 C 872.09 775.83 869.86 778.91 867.71 782.04 C 877.94 796.38 887.37 811.28 898.14 825.23 C 884.84 815.05 871.41 805.03 857.86 795.18 C 855.15 798.79 852.47 802.43 849.80 806.07 C 866.40 818.40 883.01 830.72 899.67 842.98 C 903.50 837.59 907.51 832.34 911.39 826.99 C 902.27 814.17 894.03 800.72 884.21 788.42 C 884.22 788.15 884.22 787.59 884.22 787.31 C 893.18 791.41 902.70 794.04 912.07 797.01 C 918.00 798.58 923.75 800.91 929.75 802.14 C 933.89 796.94 937.65 791.45 941.63 786.12 C 925.00 773.87 908.44 761.54 891.80 749.30 C 889.30 752.57 886.86 755.89 884.42 759.20 M 213.91 782.50 C 221.32 787.27 225.86 796.05 224.80 804.89 C 220.38 803.26 215.82 801.52 211.03 801.84 C 201.12 802.18 192.23 807.93 185.85 815.20 C 180.76 820.84 177.84 828.43 178.01 836.03 C 178.87 852.62 195.31 867.22 212.02 864.95 C 221.72 863.78 230.27 857.70 236.12 850.08 C 241.69 842.84 244.07 832.94 241.22 824.13 C 240.13 820.00 237.44 816.64 235.36 813.02 C 235.90 805.00 237.14 796.63 234.30 788.87 C 232.26 782.88 227.37 778.58 222.50 774.85 C 219.61 777.37 216.80 779.97 213.91 782.50 Z" />
<path fill="#39639f" opacity="1.00" d=" M 598.35 96.81 C 602.38 88.45 606.81 80.28 610.62 71.80 C 611.01 81.07 613.12 90.13 614.20 99.31 C 608.91 98.51 603.63 97.64 598.35 96.81 Z" />
<path fill="#39639f" opacity="1.00" d=" M 732.08 138.04 C 738.68 131.35 745.56 124.94 751.80 117.90 C 749.15 126.83 748.11 136.13 746.52 145.28 C 741.55 143.20 736.91 140.42 732.08 138.04 Z" />
<path fill="#39639f" opacity="1.00" d=" M 246.29 167.78 C 253.52 173.85 261.77 178.48 269.42 183.96 C 265.19 187.27 261.09 190.75 256.78 193.95 C 253.34 185.20 250.34 176.27 246.29 167.78 Z" />
<path fill="#39639f" opacity="1.00" d=" M 191.20 219.47 C 194.36 216.08 197.22 211.57 202.12 210.67 C 207.06 210.27 211.47 215.09 211.15 219.95 C 211.06 224.75 206.96 227.94 204.02 231.23 C 199.75 227.31 195.49 223.38 191.20 219.47 Z" />
<path fill="#39639f" opacity="1.00" d=" M 81.89 434.67 C 91.26 434.68 100.54 433.33 109.85 432.46 C 108.77 437.70 107.63 442.93 106.54 448.17 C 98.28 443.74 90.37 438.68 81.89 434.67 Z" />
<path fill="#39639f" opacity="1.00" d=" M 114.97 727.45 C 122.37 721.76 128.82 714.96 136.00 709.03 C 138.56 713.69 140.53 718.67 142.80 723.48 C 133.51 724.72 124.11 725.32 114.97 727.45 Z" />
<path fill="#39639f" opacity="1.00" d=" M 579.98 748.00 C 589.62 747.95 599.29 748.22 608.92 747.52 C 617.60 746.84 626.28 747.91 634.96 747.63 C 647.67 747.39 660.44 746.44 673.11 747.97 C 686.94 749.42 698.71 761.19 700.74 774.84 C 701.44 780.53 701.01 786.27 701.12 791.98 C 701.16 828.33 701.16 864.67 701.23 901.01 C 701.42 926.36 700.98 951.73 701.68 977.07 C 701.60 983.34 701.08 989.63 701.56 995.90 C 702.65 1008.90 701.51 1021.95 701.99 1034.97 C 702.17 1045.37 701.14 1056.85 693.90 1064.97 C 688.01 1072.28 678.78 1075.87 669.69 1077.00 L 410.43 1077.00 C 393.99 1075.33 379.56 1060.67 379.49 1043.90 C 379.42 956.26 379.41 868.62 379.38 780.97 C 379.05 764.07 393.80 748.12 410.89 748.09 C 467.25 748.00 523.61 747.98 579.98 748.00 M 632.42 814.76 C 589.88 857.48 547.20 900.07 504.61 942.74 C 487.55 925.81 470.84 908.52 453.64 891.75 C 443.18 903.18 431.38 913.32 421.22 925.04 C 448.69 953.29 476.97 980.75 504.61 1008.84 C 557.75 955.55 611.07 902.42 664.22 849.13 C 666.29 847.83 663.86 846.18 662.90 845.06 C 652.60 835.10 642.62 824.81 632.42 814.76 Z" />
<path fill="#39639f" opacity="1.00" d=" M 210.36 815.44 C 218.64 813.00 227.96 819.37 228.87 827.88 C 229.58 833.41 227.00 838.78 223.31 842.76 C 219.12 847.45 213.48 851.34 207.05 851.82 C 198.00 852.78 189.49 843.40 191.59 834.50 C 194.15 825.57 201.65 818.39 210.36 815.44 Z" />
</g>
<g id="#ffffffff">
<path fill="#ffffff" opacity="1.00" d=" M 543.41 55.00 C 550.03 54.59 556.67 54.70 563.30 54.48 C 563.85 75.11 564.14 95.74 564.52 116.38 C 560.00 116.48 555.47 116.59 550.95 116.70 C 550.80 102.45 550.31 88.20 550.23 73.95 C 550.21 71.58 550.12 69.21 549.75 66.87 C 548.47 74.79 545.53 82.29 543.16 89.92 C 540.30 98.92 537.27 107.87 534.53 116.91 C 530.70 117.16 526.87 117.21 523.04 117.14 C 517.26 100.31 509.43 84.15 505.25 66.79 C 504.89 75.65 505.71 84.51 505.91 93.36 C 506.10 101.44 506.07 109.52 506.25 117.59 C 502.13 117.70 498.02 117.79 493.90 117.89 C 493.67 97.21 492.86 76.55 492.71 55.86 C 499.47 55.77 506.23 55.64 513.00 55.48 C 518.46 70.38 524.11 85.23 529.12 100.28 C 533.51 85.07 538.69 70.11 543.41 55.00 Z" />
<path fill="#ffffff" opacity="1.00" d=" M 572.80 117.53 C 582.86 97.95 593.91 78.88 604.67 59.67 C 610.02 60.54 615.37 61.40 620.73 62.23 C 624.71 83.84 628.77 105.43 632.78 127.03 C 627.88 126.17 622.97 125.36 618.04 124.72 C 617.11 119.94 616.48 115.11 615.71 110.30 C 608.42 109.09 601.13 107.87 593.83 106.77 C 591.56 111.04 589.39 115.37 587.24 119.70 C 582.43 118.94 577.63 118.16 572.80 117.53 M 598.35 96.81 C 603.63 97.64 608.91 98.51 614.20 99.31 C 613.12 90.13 611.01 81.07 610.62 71.80 C 606.81 80.28 602.38 88.45 598.35 96.81 Z" />
<path fill="#ffffff" opacity="1.00" d=" M 408.84 72.39 C 420.43 69.78 431.94 66.80 443.52 64.14 C 444.32 67.75 445.19 71.35 446.11 74.94 C 439.04 76.69 431.95 78.36 424.89 80.15 C 426.00 84.71 426.96 89.30 428.37 93.77 C 434.86 92.06 441.42 90.61 447.92 88.92 C 448.82 92.55 449.71 96.18 450.53 99.83 C 443.98 101.31 437.51 103.10 430.94 104.47 C 431.82 109.14 433.04 113.74 434.09 118.37 C 441.76 116.97 449.29 114.94 456.87 113.11 C 457.74 116.73 458.62 120.34 459.46 123.96 C 447.40 126.81 435.43 130.06 423.30 132.57 C 418.73 112.46 413.49 92.49 408.84 72.39 Z" />
<path fill="#ffffff" opacity="1.00" d=" M 640.66 129.09 C 647.25 109.49 653.41 89.73 660.25 70.21 C 664.88 71.85 669.57 73.34 674.22 74.93 C 678.78 91.39 682.87 108.00 687.43 124.46 C 691.14 112.08 695.32 99.86 699.32 87.57 C 699.83 86.32 700.01 84.83 701.00 83.84 C 705.08 84.74 708.96 86.33 712.94 87.59 C 706.73 107.28 700.02 126.81 693.75 146.48 C 689.23 145.06 684.73 143.62 680.25 142.10 C 675.70 125.16 671.33 108.15 666.61 91.26 C 662.30 105.30 657.67 119.24 653.01 133.17 C 648.91 131.76 644.78 130.42 640.66 129.09 Z" />
<path fill="#ffffff" opacity="1.00" d=" M 360.32 93.50 C 367.47 83.93 379.59 79.55 391.16 78.73 C 392.74 82.80 394.25 86.90 395.79 90.99 C 386.83 90.10 376.61 92.61 371.35 100.47 C 365.46 110.15 369.56 124.05 379.07 129.84 C 384.23 133.06 390.90 132.50 396.29 130.13 C 400.66 128.32 404.28 125.18 407.63 121.90 C 408.73 125.90 411.10 129.75 411.58 133.76 C 405.67 139.50 397.84 142.96 389.87 144.71 C 383.01 146.21 375.59 145.10 369.65 141.29 C 362.68 137.07 358.40 129.61 356.01 122.01 C 353.02 112.52 354.21 101.53 360.32 93.50 Z" />
<path fill="#ffffff" opacity="1.00" d=" M 315.93 109.37 C 319.78 107.33 323.48 105.05 327.37 103.09 C 337.36 121.14 347.69 139.00 357.76 157.01 C 353.71 159.31 349.65 161.57 345.61 163.86 C 329.91 155.86 314.31 147.67 298.65 139.61 C 306.09 152.34 313.42 165.15 320.55 178.08 C 316.79 180.22 313.03 182.35 309.22 184.41 C 299.16 166.38 288.75 148.55 278.79 130.47 C 282.80 128.28 286.66 125.81 290.73 123.73 C 291.75 122.84 292.88 123.75 293.85 124.15 C 308.33 131.73 322.89 139.15 337.29 146.87 C 330.06 134.44 322.91 121.95 315.93 109.37 Z" />
<path fill="#ffffff" opacity="1.00" d=" M 749.49 104.84 C 754.45 107.15 759.25 109.79 764.17 112.20 C 761.25 133.97 758.37 155.75 755.26 177.49 C 750.81 175.21 746.39 172.86 741.91 170.65 C 742.72 165.83 743.59 161.02 744.23 156.17 C 737.65 152.84 731.17 149.32 724.55 146.08 C 721.17 149.55 717.74 152.98 714.23 156.32 C 709.90 153.96 705.52 151.66 701.07 149.53 C 717.10 134.52 733.44 119.84 749.49 104.84 M 732.08 138.04 C 736.91 140.42 741.55 143.20 746.52 145.28 C 748.11 136.13 749.15 126.83 751.80 117.90 C 745.56 124.94 738.68 131.35 732.08 138.04 Z" />
<path fill="#ffffff" opacity="1.00" d=" M 788.26 145.22 C 796.04 140.95 805.69 140.67 813.90 143.88 C 822.99 147.31 830.42 154.07 836.30 161.67 C 833.75 165.11 831.31 168.63 828.65 171.98 C 824.00 163.44 816.14 155.53 806.04 154.43 C 794.06 154.05 784.26 165.56 783.78 177.01 C 783.78 185.60 791.31 191.83 798.75 194.64 C 801.23 191.26 803.75 187.91 806.17 184.48 C 802.85 182.05 799.54 179.61 796.20 177.22 C 798.25 174.17 800.41 171.21 802.62 168.27 C 809.68 173.42 816.76 178.56 823.81 183.73 C 817.73 192.15 811.49 200.46 805.51 208.96 C 794.38 207.09 784.08 201.13 776.57 192.76 C 770.76 186.06 768.17 176.53 770.49 167.90 C 773.18 158.44 779.58 149.94 788.26 145.22 Z" />
<path fill="#ffffff" opacity="1.00" d=" M 246.32 154.21 C 265.06 165.62 283.66 177.27 302.33 188.82 C 298.41 191.99 294.53 195.21 290.49 198.21 C 286.57 195.46 282.55 192.88 278.58 190.21 C 272.73 194.83 266.91 199.47 261.12 204.16 C 262.94 208.67 264.69 213.22 266.25 217.83 C 257.93 223.61 250.89 230.96 244.03 238.34 C 235.68 236.68 227.43 234.32 218.92 233.67 C 215.68 233.50 213.49 236.22 211.59 238.42 C 217.44 243.78 223.22 249.22 229.02 254.65 C 225.80 257.95 222.73 261.38 219.54 264.69 C 204.49 250.52 189.30 236.52 174.21 222.40 C 180.05 216.17 185.80 209.88 191.81 203.81 C 195.90 199.94 201.05 196.31 206.95 196.60 C 213.83 197.12 219.82 202.54 221.80 209.03 C 223.19 213.75 222.04 218.71 220.17 223.12 C 223.34 222.46 226.60 221.81 229.85 222.33 C 238.10 223.51 246.27 225.18 254.47 226.63 C 247.56 205.94 240.62 185.25 233.52 164.62 C 237.69 161.03 242.10 157.74 246.32 154.21 M 246.29 167.78 C 250.34 176.27 253.34 185.20 256.78 193.95 C 261.09 190.75 265.19 187.27 269.42 183.96 C 261.77 178.48 253.52 173.85 246.29 167.78 M 191.20 219.47 C 195.49 223.38 199.75 227.31 204.02 231.23 C 206.96 227.94 211.06 224.75 211.15 219.95 C 211.47 215.09 207.06 210.27 202.12 210.67 C 197.22 211.57 194.36 216.08 191.20 219.47 Z" />
<path fill="#ffffff" opacity="1.00" d=" M 854.70 175.95 C 863.74 183.77 872.15 192.30 880.80 200.54 C 878.22 203.21 875.65 205.90 873.07 208.57 C 867.79 203.55 862.55 198.48 857.20 193.54 C 854.00 196.91 850.69 200.18 847.63 203.69 C 852.54 208.28 857.33 213.01 862.23 217.62 C 859.70 220.38 857.12 223.09 854.47 225.74 C 849.63 221.21 845.03 216.42 840.04 212.05 C 836.12 214.75 833.21 218.87 829.92 222.34 C 835.56 227.57 841.12 232.88 846.65 238.22 C 844.12 240.93 841.55 243.61 838.97 246.27 C 830.01 237.76 821.07 229.22 812.15 220.68 C 826.35 205.79 840.65 190.98 854.70 175.95 Z" />
<path fill="#ffffff" opacity="1.00" d=" M 846.70 253.21 C 863.23 240.77 879.66 228.21 896.28 215.90 C 900.30 221.29 904.35 226.66 908.40 232.02 C 899.20 245.38 890.80 259.32 880.70 272.04 C 895.75 265.93 911.45 261.68 926.79 256.37 C 930.81 261.61 934.81 266.89 938.77 272.18 C 922.36 284.71 905.77 297.02 889.42 309.64 C 886.62 306.03 883.91 302.36 881.13 298.74 C 894.41 288.56 907.89 278.65 921.18 268.50 C 904.99 274.97 888.25 279.93 871.65 285.24 C 868.58 283.18 866.36 279.40 864.62 276.20 C 874.26 261.59 883.41 246.60 894.06 232.68 C 890.55 234.90 887.51 237.74 884.24 240.27 C 874.33 248.03 864.25 255.56 854.17 263.09 C 851.68 259.80 849.17 256.51 846.70 253.21 Z" />
<path fill="#ffffff" opacity="1.00" d=" M 151.83 251.61 C 154.31 247.71 157.01 243.95 159.62 240.12 C 169.52 247.02 179.54 253.76 189.42 260.68 C 195.32 264.92 200.92 270.65 202.21 278.07 C 203.63 286.34 199.51 294.35 194.35 300.52 C 190.33 305.38 184.47 309.26 177.96 309.20 C 170.48 309.34 163.85 305.28 157.90 301.19 C 148.80 294.84 139.57 288.69 130.54 282.24 C 133.21 278.52 135.80 274.75 138.34 270.93 C 148.01 277.52 157.63 284.18 167.28 290.80 C 170.51 292.96 174.02 295.12 178.04 295.27 C 184.46 295.57 189.55 289.13 189.59 283.07 C 189.22 277.99 185.07 274.46 181.18 271.77 C 171.40 265.04 161.69 258.21 151.83 251.61 Z" />
<path fill="#ffffff" opacity="1.00" d=" M 895.86 322.64 C 914.07 312.91 932.38 303.36 950.53 293.53 C 956.28 303.93 961.70 314.51 967.33 324.97 C 964.06 326.83 960.74 328.59 957.36 330.23 C 954.04 323.81 950.74 317.36 947.08 311.13 C 942.92 313.03 939.05 315.50 934.90 317.43 C 937.82 323.61 941.27 329.52 944.33 335.63 C 941.04 337.32 937.76 339.02 934.50 340.74 C 931.30 334.79 928.17 328.81 924.97 322.86 C 920.68 325.07 916.38 327.26 912.20 329.65 C 915.84 336.42 919.41 343.23 923.16 349.93 C 919.92 351.85 916.61 353.66 913.26 355.37 C 907.45 344.46 901.69 333.53 895.86 322.64 Z" />
<path fill="#ffffff" opacity="1.00" d=" M 121.26 301.28 C 125.07 303.06 128.83 304.95 132.57 306.87 C 126.59 311.24 121.07 317.35 120.46 325.06 C 119.92 328.95 124.38 332.38 127.97 330.54 C 135.96 326.97 141.28 318.76 150.06 316.75 C 160.34 314.47 171.88 323.14 171.01 334.02 C 169.95 345.05 164.12 355.46 155.88 362.78 C 151.83 360.77 147.81 358.72 143.73 356.78 C 151.05 353.09 157.45 346.41 158.80 338.10 C 159.75 334.01 155.44 329.86 151.44 331.55 C 143.88 334.41 139.16 341.84 131.56 344.67 C 121.96 348.85 109.15 341.56 108.65 330.90 C 107.87 319.66 113.93 309.32 121.26 301.28 Z" />
<path fill="#ffffff" opacity="1.00" d=" M 917.86 364.68 C 937.25 357.46 956.79 350.64 976.24 343.59 C 977.97 348.15 979.47 352.79 981.33 357.31 C 971.26 371.23 960.62 384.72 950.33 398.47 C 963.86 393.61 977.20 388.22 990.94 383.97 C 992.30 387.99 993.68 392.00 995.16 395.98 C 975.74 403.00 956.30 409.95 936.91 417.04 C 935.34 412.74 933.51 408.53 932.29 404.13 C 932.75 402.30 934.34 400.97 935.37 399.43 C 944.87 386.74 954.41 374.07 964.03 361.48 C 950.25 366.90 936.27 371.81 922.33 376.81 C 920.83 372.77 919.39 368.70 917.86 364.68 Z" />
<path fill="#ffffff" opacity="1.00" d=" M 87.19 379.02 C 87.14 369.46 91.13 360.30 96.84 352.78 C 100.71 354.19 104.60 355.55 108.45 357.00 C 103.21 362.32 98.00 369.11 98.90 377.05 C 98.91 380.58 103.34 383.12 106.38 381.31 C 114.09 376.97 118.34 368.11 126.80 364.86 C 135.28 361.60 146.01 366.43 149.09 375.02 C 150.59 379.16 149.95 383.67 149.21 387.90 C 147.77 396.03 143.79 403.56 138.41 409.76 C 134.25 408.19 130.04 406.72 125.86 405.21 C 132.64 400.30 138.57 392.81 138.18 384.02 C 138.40 379.73 132.84 377.34 129.53 379.66 C 122.82 383.77 118.84 391.20 111.79 394.87 C 104.19 398.98 93.88 395.84 89.44 388.55 C 87.68 385.71 87.28 382.29 87.19 379.02 Z" />
<path fill="#ffffff" opacity="1.00" d=" M 988.91 415.42 C 992.55 414.79 996.18 414.07 999.81 413.34 C 1002.90 429.42 1006.23 445.45 1009.48 461.50 C 1005.84 462.35 1002.17 463.09 998.49 463.74 C 997.28 457.97 996.19 452.18 994.97 446.42 C 978.38 449.86 961.77 453.19 945.13 456.37 C 944.26 451.86 943.29 447.37 942.47 442.85 C 959.03 439.53 975.60 436.22 992.14 432.80 C 991.20 426.98 989.69 421.26 988.91 415.42 Z" />
<path fill="#ffffff" opacity="1.00" d=" M 73.18 424.08 C 94.94 421.30 116.68 418.30 138.44 415.46 C 137.40 420.33 136.39 425.20 135.30 430.06 C 130.48 430.63 125.64 431.10 120.81 431.60 C 119.37 438.84 117.81 446.06 116.20 453.28 C 120.45 455.73 124.78 458.05 128.92 460.69 C 127.79 465.49 126.68 470.30 125.80 475.16 C 107.11 463.49 88.43 451.81 69.75 440.11 C 70.94 434.78 72.10 429.44 73.18 424.08 M 81.89 434.67 C 90.37 438.68 98.28 443.74 106.54 448.17 C 107.63 442.93 108.77 437.70 109.85 432.46 C 100.54 433.33 91.26 434.68 81.89 434.67 Z" />
<path fill="#ffffff" opacity="1.00" d=" M 61.33 499.78 C 73.91 506.18 86.35 512.83 98.96 519.15 C 101.39 520.56 104.26 520.38 106.96 520.46 C 112.34 520.53 117.73 520.58 123.12 520.63 C 123.09 525.21 123.06 529.79 123.03 534.37 C 117.34 534.27 111.64 534.19 105.94 534.18 C 103.93 534.23 101.81 534.04 99.94 534.94 C 86.77 540.82 73.94 547.42 60.83 553.42 C 60.96 548.27 60.70 543.12 61.03 537.99 C 61.88 537.05 63.21 536.80 64.30 536.26 C 72.58 532.92 80.64 528.98 89.24 526.48 C 79.82 522.86 70.62 518.70 61.51 514.38 C 60.61 509.70 61.55 504.61 61.33 499.78 Z" />
<path fill="#ffffff" opacity="1.00" d=" M 985.23 507.22 C 992.39 500.45 1005.63 501.91 1010.66 510.56 C 1016.23 520.19 1015.83 532.01 1012.98 542.44 C 1008.76 542.49 1004.54 542.57 1000.33 542.73 C 1003.68 536.15 1005.60 528.11 1002.66 521.03 C 1001.48 517.62 996.46 516.32 993.99 519.09 C 988.47 525.43 987.53 534.53 981.74 540.71 C 974.71 548.53 960.27 547.51 954.80 538.40 C 949.24 527.88 950.00 515.22 953.48 504.17 C 958.06 503.82 962.66 503.81 967.25 503.77 C 962.76 510.12 960.32 518.27 962.27 525.97 C 962.85 528.73 965.03 531.29 968.00 531.47 C 971.20 531.28 973.40 528.59 974.83 525.98 C 978.22 519.71 979.77 512.19 985.23 507.22 Z" />
<path fill="#ffffff" opacity="1.00" d=" M 974.58 570.58 C 987.82 566.06 1000.93 561.19 1014.09 556.45 C 1013.35 561.64 1012.99 566.89 1012.29 572.09 C 1002.53 575.06 992.93 578.70 982.85 580.42 C 992.19 584.78 1000.98 590.19 1009.88 595.39 C 1009.27 600.15 1008.78 604.92 1008.17 609.68 C 997.69 602.91 987.24 596.08 976.79 589.25 C 974.08 587.58 971.48 585.30 968.17 585.10 C 961.70 584.33 955.22 583.65 948.75 582.97 C 949.23 578.41 949.84 573.86 950.16 569.29 C 956.83 569.74 963.44 570.85 970.11 571.34 C 971.64 571.54 973.12 571.04 974.58 570.58 Z" />
<path fill="#ffffff" opacity="1.00" d=" M 61.49 562.99 C 65.18 562.54 68.87 562.04 72.57 561.67 C 73.21 567.44 74.02 573.20 74.51 578.99 C 91.41 577.73 108.20 575.11 125.06 573.37 C 125.68 577.90 126.21 582.45 126.76 587.00 C 109.95 589.13 93.13 591.11 76.31 593.11 C 76.99 598.93 77.69 604.75 78.34 610.58 C 74.60 611.04 70.86 611.40 67.12 611.82 C 65.48 595.52 63.23 579.28 61.49 562.99 Z" />
<path fill="#ffffff" opacity="1.00" d=" M 119.65 610.15 C 123.10 609.41 126.54 608.66 129.97 607.84 C 131.69 615.75 133.49 623.64 135.10 631.57 C 131.66 632.31 128.21 633.02 124.76 633.71 C 124.39 632.06 124.01 630.42 123.64 628.78 C 110.41 631.53 97.24 634.56 84.01 637.34 C 84.21 639.13 84.41 640.94 84.64 642.75 C 81.26 643.33 77.90 644.01 74.54 644.68 C 72.85 636.82 71.08 628.97 69.43 621.10 C 72.87 620.34 76.31 619.61 79.74 618.80 C 80.16 620.49 80.59 622.19 81.01 623.89 C 94.18 620.91 107.42 618.25 120.55 615.12 C 120.38 613.43 119.95 611.79 119.65 610.15 Z" />
<path fill="#ffffff" opacity="1.00" d=" M 939.43 638.84 C 938.05 628.04 941.36 616.65 947.76 607.88 C 952.06 609.00 956.39 609.98 960.71 611.04 C 954.91 616.05 950.54 623.17 950.33 630.99 C 950.18 633.93 951.63 637.63 954.92 638.08 C 957.69 638.66 960.15 636.82 962.04 635.02 C 966.96 629.94 970.16 623.12 976.40 619.38 C 983.21 615.06 992.88 616.90 998.06 622.94 C 1000.54 626.06 1001.67 630.06 1002.10 633.97 C 1002.96 643.09 999.68 652.02 995.38 659.92 C 991.30 658.88 987.21 657.90 983.13 656.93 C 987.72 651.73 991.37 645.09 990.92 637.95 C 990.87 635.70 989.71 633.43 987.73 632.31 C 985.41 631.31 982.72 632.10 980.99 633.82 C 975.08 639.29 971.54 647.26 964.26 651.22 C 954.62 656.39 940.66 650.08 939.43 638.84 Z" />
<path fill="#ffffff" opacity="1.00" d=" M 124.96 638.23 C 128.52 637.16 132.06 636.02 135.62 634.95 C 139.18 646.68 143.14 658.30 146.55 670.08 C 126.90 676.32 107.20 682.40 87.54 688.60 C 86.06 684.21 84.64 679.80 83.43 675.32 C 99.62 670.53 115.67 665.27 131.81 660.28 C 129.63 652.90 127.26 645.58 124.96 638.23 Z" />
<path fill="#ffffff" opacity="1.00" d=" M 928.14 669.72 C 944.13 675.36 959.94 681.47 975.85 687.32 C 977.96 681.84 979.95 676.32 982.06 670.84 C 985.57 672.10 989.06 673.42 992.52 674.83 C 986.81 690.19 981.05 705.53 975.34 720.90 C 971.84 719.55 968.34 718.22 964.84 716.90 C 966.90 711.40 968.97 705.91 971.00 700.41 C 955.20 694.42 939.40 688.42 923.50 682.72 C 924.90 678.33 926.57 674.05 928.14 669.72 Z" />
<path fill="#ffffff" opacity="1.00" d=" M 101.66 724.05 C 117.36 708.71 133.03 693.32 148.72 677.97 C 150.77 682.55 152.90 687.10 154.99 691.67 C 151.42 694.89 147.91 698.16 144.33 701.37 C 147.27 708.21 150.61 714.87 153.71 721.65 C 158.48 721.11 163.24 720.51 167.99 719.79 C 170.08 724.30 172.31 728.76 174.14 733.39 C 152.30 735.45 130.41 737.06 108.56 738.98 C 106.24 734.02 104.00 729.01 101.66 724.05 M 114.97 727.45 C 124.11 725.32 133.51 724.72 142.80 723.48 C 140.53 718.67 138.56 713.69 136.00 709.03 C 128.82 714.96 122.37 721.76 114.97 727.45 Z" />
<path fill="#ffffff" opacity="1.00" d=" M 896.29 739.93 C 901.94 728.84 907.39 717.64 913.66 706.89 C 931.74 716.65 950.10 725.90 968.33 735.36 C 962.95 745.96 957.44 756.50 951.97 767.06 C 948.63 765.33 945.26 763.68 942.06 761.73 C 945.51 755.36 948.85 748.93 952.00 742.41 C 947.80 740.38 943.74 738.10 939.53 736.12 C 936.47 742.15 933.36 748.15 930.21 754.13 C 926.97 752.39 923.70 750.71 920.41 749.09 C 923.34 742.95 926.62 736.99 929.62 730.89 C 925.34 728.71 921.12 726.41 916.77 724.39 C 913.33 731.30 909.68 738.11 906.16 744.98 C 902.86 743.30 899.58 741.59 896.29 739.93 Z" />
<path fill="#ffffff" opacity="1.00" d=" M 157.53 753.35 C 163.20 749.72 170.05 747.15 176.87 748.18 C 184.47 749.49 190.36 755.41 194.28 761.74 C 197.32 767.15 200.08 773.60 198.32 779.88 C 196.60 786.61 191.63 791.98 185.99 795.79 C 175.67 802.72 165.38 809.71 154.95 816.50 C 152.40 812.66 149.85 808.84 147.32 804.99 C 157.10 798.55 166.82 792.02 176.55 785.51 C 180.56 782.72 185.00 779.22 185.50 773.98 C 185.60 769.00 182.44 764.07 177.87 762.07 C 173.43 760.33 168.72 762.56 164.98 764.93 C 154.72 771.66 144.54 778.54 134.29 785.30 C 131.66 781.52 129.10 777.69 126.60 773.83 C 136.87 766.94 147.21 760.15 157.53 753.35 Z" />
<path fill="#ffffff" opacity="1.00" d=" M 884.42 759.20 C 886.86 755.89 889.30 752.57 891.80 749.30 C 908.44 761.54 925.00 773.87 941.63 786.12 C 937.65 791.45 933.89 796.94 929.75 802.14 C 923.75 800.91 918.00 798.58 912.07 797.01 C 902.70 794.04 893.18 791.41 884.22 787.31 C 884.22 787.59 884.22 788.15 884.21 788.42 C 894.03 800.72 902.27 814.17 911.39 826.99 C 907.51 832.34 903.50 837.59 899.67 842.98 C 883.01 830.72 866.40 818.40 849.80 806.07 C 852.47 802.43 855.15 798.79 857.86 795.18 C 871.41 805.03 884.84 815.05 898.14 825.23 C 887.37 811.28 877.94 796.38 867.71 782.04 C 869.86 778.91 872.09 775.83 874.36 772.78 C 891.31 778.11 908.58 782.49 925.14 789.02 C 911.45 779.24 897.89 769.28 884.42 759.20 Z" />
<path fill="#ffffff" opacity="1.00" d=" M 213.91 782.50 C 216.80 779.97 219.61 777.37 222.50 774.85 C 227.37 778.58 232.26 782.88 234.30 788.87 C 237.14 796.63 235.90 805.00 235.36 813.02 C 237.44 816.64 240.13 820.00 241.22 824.13 C 244.07 832.94 241.69 842.84 236.12 850.08 C 230.27 857.70 221.72 863.78 212.02 864.95 C 195.31 867.22 178.87 852.62 178.01 836.03 C 177.84 828.43 180.76 820.84 185.85 815.20 C 192.23 807.93 201.12 802.18 211.03 801.84 C 215.82 801.52 220.38 803.26 224.80 804.89 C 225.86 796.05 221.32 787.27 213.91 782.50 M 210.36 815.44 C 201.65 818.39 194.15 825.57 191.59 834.50 C 189.49 843.40 198.00 852.78 207.05 851.82 C 213.48 851.34 219.12 847.45 223.31 842.76 C 227.00 838.78 229.58 833.41 228.87 827.88 C 227.96 819.37 218.64 813.00 210.36 815.44 Z" />
<path fill="#ffffff" opacity="1.00" d=" M 632.42 814.76 C 642.62 824.81 652.60 835.10 662.90 845.06 C 663.86 846.18 666.29 847.83 664.22 849.13 C 611.07 902.42 557.75 955.55 504.61 1008.84 C 476.97 980.75 448.69 953.29 421.22 925.04 C 431.38 913.32 443.18 903.18 453.64 891.75 C 470.84 908.52 487.55 925.81 504.61 942.74 C 547.20 900.07 589.88 857.48 632.42 814.76 Z" />
</g>
<g id="#000000ff">
<path fill="#000000" opacity="1.00" d=" M 489.27 280.20 C 500.92 275.40 514.25 275.06 526.24 278.83 C 534.51 281.50 542.02 286.95 546.55 294.44 C 550.24 300.65 550.68 308.05 551.19 315.09 C 545.35 315.20 539.52 315.21 533.68 315.06 C 533.22 308.65 531.94 301.62 526.88 297.16 C 520.48 291.30 511.10 290.95 502.95 292.09 C 497.05 292.80 491.50 296.48 488.91 301.88 C 486.50 307.01 487.47 313.49 491.30 317.68 C 495.03 322.17 500.78 323.98 506.00 326.11 C 518.33 330.84 531.58 334.39 541.93 343.00 C 554.14 353.11 556.06 373.50 545.33 385.36 C 537.09 394.74 523.93 397.34 512.02 397.89 C 498.74 397.34 484.11 394.42 474.87 384.05 C 468.34 377.13 466.38 367.03 467.59 357.83 C 473.07 357.91 478.55 357.75 484.04 357.80 C 485.17 364.20 485.37 371.76 490.75 376.28 C 498.54 382.78 509.42 383.71 519.12 382.47 C 525.14 381.77 531.26 378.25 533.47 372.38 C 535.87 365.27 533.54 356.13 526.64 352.40 C 511.35 343.65 492.78 341.45 478.88 330.16 C 467.79 321.18 466.84 303.87 474.22 292.26 C 477.57 286.55 483.18 282.57 489.27 280.20 Z" />
<path fill="#000000" opacity="1.00" d=" M 606.41 276.60 C 616.37 275.56 626.80 277.28 635.43 282.51 C 644.51 288.00 650.99 297.46 653.05 307.84 C 655.49 319.75 653.83 331.94 654.42 343.98 C 654.61 357.18 654.46 371.87 645.70 382.64 C 630.60 401.60 599.50 403.06 581.59 387.31 C 573.88 380.05 569.96 369.46 569.40 359.03 C 568.92 349.70 569.15 340.36 569.10 331.03 C 569.17 322.33 568.71 313.47 570.96 304.98 C 572.85 298.12 576.19 291.44 581.61 286.69 C 588.42 280.61 597.40 277.43 606.41 276.60 M 604.21 292.22 C 596.98 293.78 590.86 299.72 589.10 306.91 C 585.98 319.35 586.89 332.28 587.02 344.98 C 586.86 355.57 586.44 367.62 593.95 376.07 C 604.45 387.25 625.84 384.61 632.83 370.79 C 636.13 362.67 636.52 353.72 636.54 345.07 C 636.40 335.01 636.87 324.92 635.82 314.90 C 635.06 308.16 632.76 301.06 627.30 296.66 C 620.92 291.52 612.02 290.52 604.21 292.22 Z" />
<path fill="#000000" opacity="1.00" d=" M 428.87 278.69 C 434.72 277.89 440.64 277.93 446.53 278.14 C 447.13 307.76 446.93 337.37 446.93 366.99 C 446.81 376.57 447.31 386.15 446.66 395.72 C 440.81 396.23 434.94 396.15 429.08 396.13 C 428.73 356.98 428.91 317.84 428.87 278.69 Z" />
<path fill="#000000" opacity="1.00" d=" M 318.57 452.73 C 332.99 441.75 352.62 439.17 369.96 443.40 C 383.98 446.78 395.55 457.27 401.81 470.08 C 409.60 485.79 410.67 503.83 409.69 521.07 C 408.68 539.32 403.86 558.05 392.33 572.60 C 383.01 584.91 368.30 592.48 353.12 594.43 C 338.09 596.26 322.56 594.95 308.34 589.60 C 308.27 580.65 308.24 571.69 308.28 562.74 C 320.33 569.33 334.61 571.69 348.12 569.16 C 356.07 567.45 363.51 562.88 368.09 556.08 C 374.43 547.09 376.29 535.81 376.31 525.02 C 371.50 530.34 365.92 535.35 358.95 537.53 C 349.22 540.45 338.59 540.56 328.90 537.45 C 317.38 533.88 307.83 524.89 303.10 513.86 C 298.54 502.90 298.36 490.42 301.11 478.99 C 303.59 468.51 309.98 459.16 318.57 452.73 M 347.40 467.51 C 339.61 470.27 334.54 478.12 333.59 486.11 C 332.72 493.57 333.40 501.81 338.14 507.96 C 345.97 518.23 363.97 517.89 371.12 507.02 C 377.65 496.62 375.76 482.23 367.98 473.00 C 363.15 467.09 354.52 464.97 347.40 467.51 Z" />
<path fill="#000000" opacity="1.00" d=" M 473.52 442.77 C 487.76 440.25 503.40 441.15 515.98 448.89 C 527.67 456.12 534.52 469.00 537.93 481.97 C 541.71 496.96 542.55 512.60 541.54 527.99 C 540.43 546.02 536.12 564.96 523.85 578.83 C 514.74 589.42 500.74 594.77 486.98 595.19 C 473.85 595.61 459.85 593.08 449.52 584.43 C 438.90 576.04 433.37 562.97 430.59 550.06 C 427.62 536.27 427.43 522.02 428.28 507.99 C 429.54 491.41 433.28 474.17 443.77 460.83 C 450.98 451.36 461.88 445.00 473.52 442.77 M 479.41 467.62 C 474.19 469.74 470.86 474.71 468.74 479.71 C 465.00 488.62 463.97 498.35 463.41 507.91 C 462.87 521.45 462.72 535.19 465.67 548.49 C 467.08 554.80 469.40 561.22 474.10 565.86 C 480.14 571.86 491.44 571.56 496.72 564.68 C 503.01 556.95 504.52 546.68 505.67 537.08 C 506.98 523.72 506.78 510.23 505.39 496.89 C 504.25 488.16 502.54 478.99 496.93 471.92 C 492.93 466.75 485.36 465.11 479.41 467.62 Z" />
<path fill="#000000" opacity="1.00" d=" M 606.16 442.24 C 621.64 440.10 638.98 442.31 650.99 453.13 C 663.50 464.36 668.29 481.46 670.22 497.61 C 672.26 518.10 671.89 539.36 664.89 558.94 C 660.19 571.79 651.41 583.74 638.89 589.82 C 624.97 596.31 608.70 596.68 594.06 592.52 C 581.00 588.69 570.35 578.42 565.06 566.00 C 557.18 547.80 556.52 527.48 557.65 507.98 C 558.98 490.10 563.36 471.31 575.77 457.71 C 583.64 449.16 594.66 443.71 606.16 442.24 M 609.32 467.43 C 604.02 469.37 600.46 474.22 598.30 479.23 C 594.68 488.01 593.36 497.55 592.82 506.97 C 592.24 518.17 592.29 529.44 593.61 540.59 C 594.62 547.70 596.16 554.93 599.81 561.21 C 602.36 565.64 606.71 569.29 611.91 569.94 C 617.49 570.88 623.54 568.55 626.76 563.83 C 632.85 555.58 634.24 545.01 635.19 535.08 C 636.29 522.14 636.13 509.08 634.68 496.18 C 633.51 487.64 631.76 478.66 626.19 471.80 C 622.29 466.88 615.11 465.20 609.32 467.43 Z" />
<path fill="#000000" opacity="1.00" d=" M 696.98 454.44 C 719.51 449.96 742.13 445.90 764.67 441.43 C 764.79 483.20 764.63 524.98 764.75 566.75 C 775.53 566.71 786.31 566.74 797.10 566.74 C 797.09 575.40 797.13 584.07 797.07 592.74 C 763.86 592.67 730.65 592.85 697.45 592.65 C 697.56 584.01 697.47 575.37 697.51 566.73 C 708.37 566.74 719.24 566.72 730.11 566.74 C 730.18 535.88 730.09 505.02 730.11 474.15 C 718.94 476.42 707.79 478.78 696.60 480.94 C 696.88 472.14 696.10 463.11 696.98 454.44 Z" />
<path fill="#000000" opacity="1.00" d=" M 311.97 653.88 C 321.20 645.56 335.57 643.82 346.67 649.27 C 354.09 652.36 357.87 659.96 359.94 667.28 C 355.55 668.08 351.16 668.89 346.76 669.66 C 344.90 665.04 341.81 660.51 336.92 658.80 C 331.65 656.62 325.39 658.56 321.66 662.70 C 317.24 667.62 316.22 674.61 316.45 681.00 C 316.71 686.14 317.16 691.60 320.07 696.01 C 324.54 702.65 334.90 704.32 341.07 699.12 C 344.25 696.27 345.62 692.09 347.62 688.45 C 351.80 689.70 355.98 690.98 360.17 692.22 C 357.95 699.84 353.89 707.70 346.36 711.21 C 331.68 719.35 310.74 711.98 304.71 696.24 C 301.64 687.37 301.05 677.54 303.54 668.46 C 305.10 663.02 307.67 657.68 311.97 653.88 Z" />
<path fill="#000000" opacity="1.00" d=" M 370.50 647.60 C 386.84 647.64 403.17 647.53 419.50 647.53 C 419.51 651.35 419.52 655.17 419.52 659.00 C 407.86 659.00 396.20 658.99 384.54 659.00 C 384.55 663.85 384.57 668.69 384.53 673.54 C 395.34 673.64 406.16 673.67 416.98 673.67 C 416.99 677.73 416.93 681.79 416.79 685.85 C 406.04 685.88 395.29 685.85 384.54 685.87 C 384.53 691.31 384.53 696.76 384.55 702.21 C 396.75 702.07 408.96 702.07 421.16 702.50 C 421.12 706.43 421.07 710.38 421.03 714.33 C 404.19 714.34 387.35 714.33 370.51 714.33 C 370.50 692.09 370.50 669.85 370.50 647.60 Z" />
<path fill="#000000" opacity="1.00" d=" M 431.50 714.38 C 431.33 692.09 431.42 669.79 431.46 647.50 C 445.00 647.84 458.60 646.86 472.11 648.27 C 483.64 650.15 489.42 665.18 483.83 674.96 C 481.08 680.36 475.62 683.75 469.85 685.08 C 479.44 692.72 485.11 703.82 490.93 714.33 C 485.54 714.36 480.15 714.28 474.76 714.33 C 469.01 706.06 464.08 697.17 457.41 689.58 C 454.44 686.48 449.79 686.90 445.88 686.46 C 445.83 695.75 445.93 705.05 445.50 714.34 C 440.83 714.33 436.17 714.31 431.50 714.38 M 445.77 659.02 C 445.78 664.25 445.80 669.47 445.80 674.71 C 452.55 674.66 459.37 675.21 466.06 674.06 C 472.32 673.15 473.52 662.79 467.62 660.51 C 460.67 657.72 453.03 659.27 445.77 659.02 Z" />
<path fill="#000000" opacity="1.00" d=" M 494.22 658.92 C 494.05 655.16 494.11 651.39 494.69 647.68 C 512.19 647.53 529.70 647.51 547.20 647.69 C 547.21 651.43 547.21 655.18 547.21 658.93 C 540.69 658.91 534.16 658.94 527.64 659.02 C 527.55 677.46 527.78 695.91 527.50 714.35 C 523.00 714.33 518.50 714.41 514.00 714.48 C 513.56 696.00 513.68 677.51 513.72 659.02 C 507.22 658.84 500.72 658.98 494.22 658.92 Z" />
<path fill="#000000" opacity="1.00" d=" M 553.44 714.40 C 553.14 692.09 553.13 669.77 553.42 647.47 C 558.03 647.58 562.64 647.52 567.26 647.46 C 567.59 669.79 567.41 692.13 567.33 714.47 C 562.70 714.39 558.07 714.38 553.44 714.40 Z" />
<path fill="#000000" opacity="1.00" d=" M 579.09 647.61 C 594.37 647.53 609.65 647.51 624.94 647.75 C 624.93 651.47 624.91 655.20 624.90 658.93 C 614.35 658.97 603.80 658.87 593.26 658.98 C 593.26 663.88 593.24 668.78 593.25 673.68 C 602.36 673.64 611.47 673.51 620.58 673.87 C 620.55 677.83 620.48 681.79 620.37 685.76 C 611.33 685.77 602.28 685.76 593.24 685.87 C 593.24 695.36 593.23 704.84 593.23 714.33 C 588.51 714.33 583.80 714.33 579.09 714.33 C 578.95 692.09 578.95 669.84 579.09 647.61 Z" />
<path fill="#000000" opacity="1.00" d=" M 634.52 647.60 C 639.27 647.59 644.04 647.56 648.80 647.67 C 648.72 669.87 648.73 692.08 648.77 714.28 C 644.02 714.37 639.27 714.33 634.52 714.25 C 634.50 692.03 634.50 669.82 634.52 647.60 Z" />
<path fill="#000000" opacity="1.00" d=" M 660.44 714.40 C 660.23 692.10 660.34 669.79 660.42 647.50 C 676.62 647.66 692.83 647.58 709.04 647.60 C 709.04 651.40 709.05 655.20 709.04 659.00 C 697.37 659.00 685.69 658.99 674.02 659.00 C 674.05 663.90 674.05 668.80 674.15 673.70 C 684.95 673.58 695.75 673.87 706.55 673.68 C 706.68 677.72 706.59 681.77 706.43 685.82 C 695.62 685.92 684.81 685.83 674.00 685.87 C 674.02 691.33 674.04 696.80 674.07 702.26 C 686.14 702.20 698.21 702.19 710.29 702.19 C 710.44 706.23 710.49 710.28 710.42 714.33 C 693.76 714.37 677.10 714.25 660.44 714.40 Z" />
<path fill="#000000" opacity="1.00" d=" M 720.79 647.65 C 731.52 647.52 742.26 647.47 752.99 647.71 C 762.92 647.90 771.28 655.75 774.38 664.82 C 776.44 671.63 776.83 678.89 776.45 685.96 C 775.83 695.20 772.32 705.13 764.02 710.13 C 757.57 714.62 749.46 714.52 741.96 714.34 C 734.90 714.32 727.85 714.34 720.81 714.33 C 720.79 692.10 720.80 669.87 720.79 647.65 M 735.10 659.01 C 735.11 673.38 735.14 687.75 735.14 702.12 C 742.06 702.04 749.54 703.32 755.97 700.05 C 761.26 696.64 761.84 689.67 762.09 683.97 C 762.26 676.81 762.69 668.34 757.09 662.95 C 750.93 657.94 742.48 659.15 735.10 659.01 Z" />
</g>
</svg>
